<svg width="90" height="96" viewBox="0 0 90 96" fill="none" xmlns="http://www.w3.org/2000/svg">
<path d="M54 95.7449L57.8022 88.9628L86.3007 38.5423L90 32H82.4985L25.5015 32H18L21.6993 38.5423L50.1979 88.9628L54 95.7449ZM54 77.9333L33.0029 40.7688L74.9971 40.7688L54 77.9333Z" fill="#F2F2F2"/>
<path d="M14.5029 40.7688L56.497 40.7688L49.5 32H22L14.5029 40.7688Z" fill="#FFE335"/>
<path d="M36 0L32.1979 6.7821L3.69934 57.2026L1.52588e-05 63.7449H7.50148H64.4985H72L68.3007 57.2026L39.8022 6.7821L36 0ZM36 17.8116L56.9971 54.9761H15.003L36 17.8116Z" fill="#FFE335"/>
</svg>
