<?xml version="1.0" encoding="UTF-8" standalone="no"?>
<!DOCTYPE svg PUBLIC "-//W3C//DTD SVG 1.1//EN" "http://www.w3.org/Graphics/SVG/1.1/DTD/svg11.dtd">
<svg width="1000.00" height="1000.00" viewBox="0.00 0.00 1000.00 1000.00" xmlns="http://www.w3.org/2000/svg" xmlns:xlink="http://www.w3.org/1999/xlink">
<g stroke-linecap="round" id="Layer_3">
<path d="M944.33,1033.50 Q903.00,418.50 869.83,308.00 Q840.67,206.00 788.00,183.00 Q861.50,176.00 859.00,138.50 Q830.00,113.00 769.50,157.50 Q803.50,106.00 781.00,77.00 Q743.00,77.00 739.00,148.00 Q651.00,85.00 443.00,96.00 Q129.00,121.00 123.00,394.00 Q113.00,618.00 91.50,1005.00" fill="none" stroke="rgb(0, 0, 0)" stroke-width="10.00" stroke-opacity="1.00" stroke-linejoin="round"/>
<path d="M174.00,298.00 Q130.00,401.00 151.00,487.00 Q237.63,487.29 319.00,487.31" fill="none" stroke="rgb(0, 0, 0)" stroke-width="10.00" stroke-opacity="1.00" stroke-linejoin="round"/>
<path d="M395.21,487.29 Q452.63,487.25 507.25,487.05" fill="none" stroke="rgb(0, 0, 0)" stroke-width="10.00" stroke-opacity="1.00" stroke-linejoin="round"/>
<path d="M544.02,486.91 Q620.33,486.59 691.00,486.00 Q715.00,396.00 680.00,321.00" fill="none" stroke="rgb(0, 0, 0)" stroke-width="10.00" stroke-opacity="1.00" stroke-linejoin="round"/>
<path d="M319.00,487.33 Q317.00,416.00 371.00,324.00 Q356.00,471.00 386.00,487.32" fill="none" stroke="rgb(0, 0, 0)" stroke-width="10.00" stroke-opacity="1.00" stroke-linejoin="round"/>
<path d="M512.00,487.05 Q530.00,412.00 529.00,335.00 Q554.00,424.00 544.02,486.92" fill="none" stroke="rgb(0, 0, 0)" stroke-width="10.00" stroke-opacity="1.00" stroke-linejoin="round"/>
<path d="M386.75,488.62 C390.02,488.51 394.35,488.04 395.04,488.03 C396.63,488.01 397.94,488.26 397.91,488.47" fill="none" stroke="rgb(0, 0, 0)" stroke-width="9.20" stroke-opacity="1.00" stroke-linejoin="round"/>
<path d="M385.56,490.53 C385.52,490.52 385.61,490.45 385.66,490.44 C387.63,490.37 390.51,490.23 392.88,489.97 C394.55,489.79 397.34,489.50 398.98,489.37 C399.56,489.33 400.13,489.28 400.71,489.24" fill="none" stroke="rgb(0, 0, 0)" stroke-width="9.20" stroke-opacity="1.00" stroke-linejoin="round"/>
<path d="M384.77,489.09 C385.12,488.98 386.00,488.91 388.54,488.81 C390.24,488.74 393.09,488.62 394.19,488.56 C396.64,488.39 401.92,488.02 402.93,487.99" fill="none" stroke="rgb(0, 0, 0)" stroke-width="9.20" stroke-opacity="1.00" stroke-linejoin="round"/>
<path d="M681.97,486.07 Q692.00,549.33 673.33,608.00 Q677.33,627.33 722.67,594.00 Q757.33,566.00 772.67,514.00 Q812.67,349.33 730.00,266.67" fill="none" stroke="rgb(0, 0, 0)" stroke-width="10.00" stroke-opacity="1.00" stroke-linejoin="round"/>
<path d="M211.77,572.05 Q170.67,597.33 189.33,655.33 Q211.33,711.33 249.17,706.20" fill="none" stroke="rgb(0, 0, 0)" stroke-width="10.00" stroke-opacity="1.00" stroke-linejoin="round"/>
<path d="M168.01,487.05 Q167.33,564.67 201.52,579.72" fill="none" stroke="rgb(0, 0, 0)" stroke-width="10.00" stroke-opacity="1.00" stroke-linejoin="round"/>
<path d="M197.34,487.14 Q220.00,644.00 257.33,725.33 Q320.67,821.33 458.67,826.67 Q612.67,819.33 714.67,714.67 Q810.67,724.00 825.33,638.67 Q830.67,560.00 758.91,548.71" fill="none" stroke="rgb(0, 0, 0)" stroke-width="10.00" stroke-opacity="1.00" stroke-linejoin="round"/>
<path d="M429.26,824.39 Q430.00,847.33 430.00,860.67" fill="none" stroke="rgb(0, 0, 0)" stroke-width="10.00" stroke-opacity="1.00" stroke-linejoin="round"/>
<path d="M570.32,806.32 Q570.00,837.33 568.67,848.00" fill="none" stroke="rgb(0, 0, 0)" stroke-width="10.00" stroke-opacity="1.00" stroke-linejoin="round"/>
<path d="M326.00,1004.67 Q356.00,965.33 416.67,886.67 Q415.33,883.33 416.00,865.33 Q552.67,851.33 576.00,850.00 Q575.33,877.33 574.67,881.33 Q574.67,881.33 574.11,882.76 Q550.12,944.28 527.33,1012.00" fill="none" stroke="rgb(0, 0, 0)" stroke-width="10.00" stroke-opacity="1.00" stroke-linejoin="round"/>
<path d="M429.75,842.01 Q344.00,861.33 330.67,866.00 Q324.00,883.33 322.67,894.00 Q298.67,899.33 285.33,906.67 Q292.67,985.33 298.67,1017.33" fill="none" stroke="rgb(0, 0, 0)" stroke-width="10.00" stroke-opacity="1.00" stroke-linejoin="round"/>
<path d="M569.92,827.27 Q650.67,838.00 693.33,852.00 Q668.67,880.67 660.00,889.33 Q680.00,899.33 694.00,910.67 Q638.00,968.67 574.00,1020.67" fill="none" stroke="rgb(0, 0, 0)" stroke-width="10.00" stroke-opacity="1.00" stroke-linejoin="round"/>
<path d="M380.82,814.80 Q299.33,837.33 294.67,850.67 Q294.00,878.67 298.78,900.74" fill="none" stroke="rgb(0, 0, 0)" stroke-width="10.00" stroke-opacity="1.00" stroke-linejoin="round"/>
<path d="M601.12,794.36 Q774.00,788.00 786.00,823.33 Q797.33,867.33 784.67,892.67 Q784.67,892.67 783.38,892.90 Q740.71,900.63 677.96,899.33" fill="none" stroke="rgb(0, 0, 0)" stroke-width="10.00" stroke-opacity="1.00" stroke-linejoin="round"/>
<path d="M771.64,894.80 Q800.67,929.33 812.67,950.67 Q812.67,950.67 813.17,951.65 Q823.84,972.86 834.00,1016.67" fill="none" stroke="rgb(0, 0, 0)" stroke-width="10.00" stroke-opacity="1.00" stroke-linejoin="round"/>
<path d="M286.69,920.94 Q252.67,945.33 223.33,1008.00" fill="none" stroke="rgb(0, 0, 0)" stroke-width="10.00" stroke-opacity="1.00" stroke-linejoin="round"/>
<path d="M225.33,542.67 Q290.67,494.67 366.67,528.67" fill="none" stroke="rgb(0, 0, 0)" stroke-width="10.00" stroke-opacity="1.00" stroke-linejoin="round"/>
<path d="M509.33,534.67 Q592.00,487.33 661.33,538.00" fill="none" stroke="rgb(0, 0, 0)" stroke-width="10.00" stroke-opacity="1.00" stroke-linejoin="round"/>
<path d="M342.33,539.33 C345.56,539.36 353.12,541.65 356.45,543.62 C359.60,545.53 364.70,550.74 366.77,553.60 C368.93,556.64 372.39,563.30 373.51,566.68 C374.62,570.13 376.11,576.97 376.54,580.55 C376.99,584.58 376.99,590.76 376.54,594.78 C376.11,598.36 374.62,605.20 373.51,608.66 C372.39,612.03 368.93,618.69 366.77,621.73 C364.70,624.59 359.60,629.81 356.45,631.71 C353.12,633.68 345.56,635.98 342.33,636.00 C339.11,635.98 331.55,633.68 328.22,631.71 C325.06,629.81 319.97,624.59 317.90,621.73 C315.74,618.69 312.27,612.03 311.16,608.66 C310.05,605.20 308.55,598.36 308.13,594.78 C307.68,590.76 307.68,584.58 308.13,580.55 C308.55,576.97 310.05,570.13 311.16,566.68 C312.27,563.30 315.74,556.64 317.90,553.60 C319.97,550.74 325.06,545.53 328.22,543.62 C331.55,541.65 339.11,539.36 342.33,539.33 Z" fill="none" stroke="rgb(0, 0, 0)" stroke-width="10.00" stroke-opacity="1.00" stroke-linejoin="round"/>
<path d="M604.33,538.33 C607.56,538.36 615.12,540.65 618.45,542.62 C621.60,544.53 626.70,549.74 628.77,552.60 C630.93,555.64 634.39,562.30 635.51,565.68 C636.62,569.13 638.11,575.97 638.54,579.55 C638.99,583.58 638.99,589.76 638.54,593.78 C638.11,597.36 636.62,604.20 635.51,607.66 C634.39,611.03 630.93,617.69 628.77,620.73 C626.70,623.59 621.60,628.81 618.45,630.71 C615.12,632.68 607.56,634.98 604.33,635.00 C601.11,634.98 593.55,632.68 590.22,630.71 C587.06,628.81 581.97,623.59 579.90,620.73 C577.74,617.69 574.27,611.03 573.16,607.66 C572.05,604.20 570.55,597.36 570.13,593.78 C569.68,589.76 569.68,583.58 570.13,579.55 C570.55,575.97 572.05,569.13 573.16,565.68 C574.27,562.30 577.74,555.64 579.90,552.60 C581.97,549.74 587.06,544.53 590.22,542.62 C593.55,540.65 601.11,538.36 604.33,538.33 Z" fill="none" stroke="rgb(0, 0, 0)" stroke-width="10.00" stroke-opacity="1.00" stroke-linejoin="round"/>
<path d="M807.33,576.67 Q766.67,628.67 726.67,675.33" fill="none" stroke="rgb(0, 0, 0)" stroke-width="10.00" stroke-opacity="1.00" stroke-linejoin="round"/>
<path d="M768.69,625.06 Q798.67,651.33 813.33,666.00" fill="none" stroke="rgb(0, 0, 0)" stroke-width="10.00" stroke-opacity="1.00" stroke-linejoin="round"/>
<path d="M431.33,748.00 Q439.33,748.00 447.33,749.33" fill="none" stroke="rgb(0, 0, 0)" stroke-width="10.00" stroke-opacity="1.00" stroke-linejoin="round"/>
<path d="M198.00,435.33 Q276.67,387.33 380.67,412.67" fill="none" stroke="rgb(0, 0, 0)" stroke-width="10.00" stroke-opacity="1.00" stroke-linejoin="round"/>
<path d="M502.67,407.33 Q600.67,376.00 680.67,412.00" fill="none" stroke="rgb(0, 0, 0)" stroke-width="10.00" stroke-opacity="1.00" stroke-linejoin="round"/>
<path d="M431.33,896.00 Q492.67,895.33 545.33,890.67" fill="none" stroke="rgb(0, 0, 0)" stroke-width="10.00" stroke-opacity="1.00" stroke-linejoin="round"/>
</g>
</svg>
