<svg width="373" height="372" viewBox="0 0 373 372" fill="none" xmlns="http://www.w3.org/2000/svg">
<g clip-path="url(#clip0_656_9491)">
<rect x="1.5" y="1" width="370" height="370" rx="30" fill="#EF233C"/>
<mask id="path-2-outside-1_656_9491" maskUnits="userSpaceOnUse" x="24.355" y="19.49" width="337" height="374" fill="black">
<rect fill="white" x="24.355" y="19.49" width="337" height="374"/>
<path d="M350.902 383.395C340.707 231.695 331.519 142.217 323.337 114.96C316.144 89.8 306.052 74.3833 293.06 68.71C311.19 66.9833 319.947 61.495 319.33 52.245C312.177 45.955 301.138 48.2983 286.215 59.275C294.602 46.5717 296.02 36.6433 290.47 29.49C281.097 29.49 275.917 38.2467 274.93 55.76C253.223 40.22 216.717 33.8067 165.41 36.52C87.9566 42.6867 48.49 79.44 47.01 146.78C44.5433 202.033 40.6583 277.39 35.355 372.85"/>
</mask>
<path d="M350.902 383.395C340.707 231.695 331.519 142.217 323.337 114.96C316.144 89.8 306.052 74.3833 293.06 68.71C311.19 66.9833 319.947 61.495 319.33 52.245C312.177 45.955 301.138 48.2983 286.215 59.275C294.602 46.5717 296.02 36.6433 290.47 29.49C281.097 29.49 275.917 38.2467 274.93 55.76C253.223 40.22 216.717 33.8067 165.41 36.52C87.9566 42.6867 48.49 79.44 47.01 146.78C44.5433 202.033 40.6583 277.39 35.355 372.85" stroke="#FDFBFB" stroke-width="20" stroke-linecap="round" stroke-linejoin="round" mask="url(#path-2-outside-1_656_9491)"/>
<mask id="mask0_656_9491" style="mask-type:alpha" maskUnits="userSpaceOnUse" x="33" y="27" width="320" height="359">
<path d="M350.902 383.395C340.707 231.695 331.519 142.217 323.337 114.96C316.144 89.8 306.052 74.3833 293.06 68.71C311.19 66.9833 319.947 61.495 319.33 52.245C312.177 45.955 301.138 48.2983 286.215 59.275C294.602 46.5717 296.02 36.6433 290.47 29.49C281.097 29.49 275.917 38.2467 274.93 55.76C253.223 40.22 216.717 33.8067 165.41 36.52C87.9566 42.6867 48.49 79.44 47.01 146.78C44.5433 202.033 40.6583 277.39 35.355 372.85" fill="#2B2D42" stroke="#EF233C" stroke-width="3.7" stroke-linecap="round" stroke-linejoin="round"/>
</mask>
<g mask="url(#mask0_656_9491)">
<path d="M350.902 383.395C340.707 231.695 331.519 142.217 323.337 114.96C316.144 89.8 306.052 74.3833 293.06 68.71C311.19 66.9833 319.947 61.495 319.33 52.245C312.177 45.955 301.138 48.2983 286.215 59.275C294.602 46.5717 296.02 36.6433 290.47 29.49C281.097 29.49 275.917 38.2467 274.93 55.76C253.223 40.22 216.717 33.8067 165.41 36.52C87.9566 42.6867 48.49 79.44 47.01 146.78C44.5433 202.033 40.6583 277.39 35.355 372.85" fill="#2B2D42"/>
<path d="M63.105 166.945L55.705 386.91L323.77 380.99C317.11 271.1 310.08 188.96 290.655 134.2C280.499 105.571 130.26 150.048 63.105 166.945Z" fill="#141522"/>
<path d="M76.0624 215.496C67.6289 211.784 63.496 200.355 63.6637 181.209L84.935 170.275L92.89 206.905L76.0624 215.496Z" stroke="#EF233C" stroke-width="3.7" stroke-linecap="round" stroke-linejoin="round"/>
<path d="M79.8549 212.658C69.7169 218.894 66.9493 229.165 71.5521 243.472C76.9787 257.285 84.359 263.559 93.6929 262.294" fill="#BED1EF"/>
<path d="M79.8549 212.658C69.7169 218.894 66.9493 229.165 71.5521 243.472C76.9787 257.285 84.359 263.559 93.6929 262.294" stroke="#EF233C" stroke-width="3.7" stroke-linecap="round" stroke-linejoin="round"/>
<path d="M107.575 341.748C99.1838 347.764 91.3694 358.501 84.1322 373.96L139.325 408.74L155.05 351.575L107.575 341.748Z" fill="#EF233C" stroke="#EF233C" stroke-width="3.7" stroke-linecap="round" stroke-linejoin="round"/>
<path d="M287.007 332.076C294.167 340.593 299.228 347.484 302.188 352.748L302.373 353.11C305.005 358.342 307.574 366.361 310.08 377.168V408L189.645 403.19L235.155 319.94L287.007 332.076Z" fill="#EF233C"/>
<path d="M302.188 352.748C299.228 347.484 294.167 340.593 287.007 332.076L235.155 319.94L189.645 403.19L310.08 408V377.168C307.574 366.361 305.005 358.342 302.373 353.11M302.188 352.748C302.188 352.748 302.25 352.869 302.373 353.11M302.188 352.748L302.373 353.11" stroke="#EF233C" stroke-width="3.7" stroke-linecap="round" stroke-linejoin="round"/>
<path d="M142.403 302.476C122.303 308.033 111.677 312.457 110.528 315.748C110.363 322.655 110.87 328.83 112.049 334.274L189.09 325.675L183.725 299.405L142.403 302.476Z" fill="#FDFBFB"/>
<path d="M142.655 318.09C111.575 316.425 137.29 305.88 156.16 304.03L172.07 298.665L178.915 312.17C172.193 315.253 159.906 319.014 142.655 318.09Z" fill="#BED1EF"/>
<path d="M142.403 302.476C122.303 308.033 111.677 312.457 110.528 315.748C110.363 322.655 110.87 328.83 112.049 334.274L189.09 325.675L183.725 299.405L142.403 302.476Z" stroke="#EF233C" stroke-width="3.7" stroke-linecap="round" stroke-linejoin="round"/>
<path d="M223.914 294.913C266.558 293.344 289.36 296.917 292.32 305.632C295.115 316.485 294.951 325.037 291.828 331.288L291.351 331.373C280.825 333.28 267.823 334.073 252.345 333.752L193.715 338.255L186.5 298.665L223.914 294.913Z" fill="#FDFBFB"/>
<path d="M272.34 308.84C286.77 299.035 233.613 300.022 199.82 299.405L194.085 308.84L223.87 311.985C234.908 314.267 264.383 314.247 272.34 308.84Z" fill="#BED1EF"/>
<path d="M291.828 331.288C294.951 325.037 295.115 316.485 292.32 305.632C289.36 296.917 266.558 293.344 223.914 294.913L186.5 298.665L193.715 338.255L252.345 333.752C267.823 334.073 280.825 333.28 291.351 331.373M291.828 331.288C291.828 331.288 291.669 331.316 291.351 331.373M291.828 331.288L291.351 331.373" stroke="#EF233C" stroke-width="3.7" stroke-linecap="round" stroke-linejoin="round"/>
<path d="M160.508 312.544C139.356 317.309 127.136 320.268 123.848 321.42C122.203 325.695 121.216 329.148 120.888 331.78C114.968 333.095 110.363 334.657 107.072 336.468C108.883 355.871 110.528 369.519 112.008 377.412L120.888 385.43L174.475 332.89L160.508 312.544Z" fill="#EF233C" stroke="#EF233C" stroke-width="3.7" stroke-linecap="round" stroke-linejoin="round"/>
<path d="M212.37 307.09C232.289 309.737 247.509 312.787 258.032 316.24C251.949 323.312 247.839 327.916 245.7 330.052C250.633 332.519 254.827 335.151 258.28 337.948C244.467 352.254 229.667 365.821 213.88 378.648L168.185 397.27L212.37 307.09Z" fill="#EF233C" stroke="#EF233C" stroke-width="3.7" stroke-linecap="round" stroke-linejoin="round"/>
<path d="M160.326 306.024C160.509 311.683 160.6 316.157 160.6 319.448L165.595 330.3L202.41 326.97L211.908 314.76C212.236 312.128 212.439 306.987 212.518 299.338L199.82 291.45L169.48 292.93L160.326 306.024Z" fill="#BED1EF"/>
<path d="M160.326 306.024L158.81 304.964C158.581 305.292 158.464 305.685 158.477 306.084L160.326 306.024ZM160.6 319.448H158.75C158.75 319.715 158.808 319.979 158.919 320.221L160.6 319.448ZM212.518 299.338L214.368 299.357C214.375 298.711 214.044 298.108 213.495 297.767L212.518 299.338ZM211.908 314.76L213.368 315.896C213.573 315.633 213.702 315.319 213.744 314.989L211.908 314.76ZM165.595 330.3L163.914 331.073C164.242 331.785 164.982 332.213 165.762 332.142L165.595 330.3ZM202.41 326.97L202.577 328.812C203.087 328.766 203.556 328.51 203.87 328.106L202.41 326.97ZM199.82 291.45L200.796 289.878C200.477 289.68 200.105 289.584 199.73 289.602L199.82 291.45ZM169.48 292.93L169.39 291.082C168.818 291.11 168.292 291.401 167.964 291.87L169.48 292.93ZM158.477 306.084C158.659 311.734 158.75 316.186 158.75 319.448H162.45C162.45 316.128 162.358 311.631 162.175 305.965L158.477 306.084ZM210.668 299.319C210.589 306.983 210.385 312.02 210.072 314.531L213.744 314.989C214.087 312.236 214.289 306.992 214.368 299.357L210.668 299.319ZM158.919 320.221L163.914 331.073L167.275 329.526L162.28 318.674L158.919 320.221ZM165.762 332.142L202.577 328.812L202.243 325.127L165.428 328.457L165.762 332.142ZM203.87 328.106L213.368 315.896L210.448 313.624L200.95 325.834L203.87 328.106ZM213.495 297.767L200.796 289.878L198.844 293.021L211.542 300.91L213.495 297.767ZM199.73 289.602L169.39 291.082L169.57 294.778L199.91 293.298L199.73 289.602ZM167.964 291.87L158.81 304.964L161.842 307.084L170.996 293.99L167.964 291.87Z" fill="#EF233C"/>
<path d="M74.5159 181.242C80.1053 219.934 87.5041 249.311 96.7122 269.372C112.336 293.052 137.168 305.551 171.208 306.868C209.195 305.057 240.768 291.244 265.928 265.428C289.608 267.729 303.256 258.356 306.872 237.308C308.189 217.903 299.998 206.808 282.297 204.023" fill="#FDFBFB"/>
<path d="M74.5159 181.242C80.1053 219.934 87.5041 249.311 96.7122 269.372C112.336 293.052 137.168 305.551 171.208 306.868C209.195 305.057 240.768 291.244 265.928 265.428C289.608 267.729 303.256 258.356 306.872 237.308C308.189 217.903 299.998 206.808 282.297 204.023L265.928 108.3L113.61 105.71L74.5159 181.242Z" fill="#FDFBFB"/>
<mask id="mask1_656_9491" style="mask-type:alpha" maskUnits="userSpaceOnUse" x="74" y="105" width="234" height="202">
<path d="M74.5159 181.242C80.1053 219.934 87.5041 249.311 96.7122 269.372C112.336 293.052 137.168 305.551 171.208 306.868C209.195 305.057 240.768 291.244 265.928 265.428C289.608 267.729 303.256 258.356 306.872 237.308C308.189 217.903 299.998 206.808 282.297 204.023" fill="#FDFBFB"/>
<path d="M74.5159 181.242C80.1053 219.934 87.5041 249.311 96.7122 269.372C112.336 293.052 137.168 305.551 171.208 306.868C209.195 305.057 240.768 291.244 265.928 265.428C289.608 267.729 303.256 258.356 306.872 237.308C308.189 217.903 299.998 206.808 282.297 204.023L265.928 108.3L113.61 105.71L74.5159 181.242Z" fill="#FDFBFB"/>
</mask>
<g mask="url(#mask1_656_9491)">
<path d="M268.825 250.935C250.88 277.39 214.805 299.405 184.465 304.955L223.315 315.13L327.47 265.735L311.19 203.575C302.125 211.407 268.825 250.935 268.825 250.935Z" fill="#BED1EF"/>
<path d="M309.34 191.365H63.29V95.72L298.795 99.605L309.34 191.365Z" fill="#BED1EF"/>
</g>
<path d="M74.5159 181.242C80.1053 219.934 87.5041 249.311 96.7122 269.372C112.336 293.052 137.168 305.551 171.208 306.868C209.195 305.057 240.768 291.244 265.928 265.428C289.608 267.729 303.256 258.356 306.872 237.308C308.189 217.903 299.998 206.808 282.297 204.023" stroke="#EF233C" stroke-width="3.7" stroke-linecap="round" stroke-linejoin="round"/>
<path d="M74.5159 181.242C80.1053 219.934 87.5041 249.311 96.7122 269.372C112.336 293.052 137.168 305.551 171.208 306.868C209.195 305.057 240.768 291.244 265.928 265.428C289.608 267.729 303.256 258.356 306.872 237.308C308.189 217.903 299.998 206.808 282.297 204.023L265.928 108.3L113.61 105.71L74.5159 181.242Z" stroke="#EF233C" stroke-width="3.7" stroke-linecap="round" stroke-linejoin="round"/>
<path d="M65.8799 111.26C55.0266 136.667 52.1899 159.977 57.3699 181.19C78.7387 181.262 99.4587 181.3 119.53 181.305C119.037 163.71 125.45 143.573 138.77 120.88C135.07 157.14 136.92 177.283 144.32 181.308C158.484 181.299 177.467 181.258 190.94 181.208C195.38 162.696 197.477 143.943 197.23 124.95C203.396 146.902 205.249 165.637 202.788 181.157C220.411 181.083 237.425 180.98 253.829 180.847C256.303 196.451 255.237 211.489 250.632 225.96C251.619 230.728 257.704 229.001 268.888 220.78C277.437 213.873 283.604 204.007 287.388 191.18C297.255 150.561 291.992 120.057 271.6 99.6679L146.91 71.3L65.8799 111.26Z" fill="#2B2D42"/>
<path d="M169.11 92.5749C143.504 92.5749 53.67 92.575 42.2 92.5749C34.3328 92.5748 30.5643 108.186 36.28 116.07C41.645 123.47 137.66 127.54 175.77 127.54C213.88 127.54 325.805 122.73 336.165 119.03C340.605 112 336.758 92.5749 327.84 92.5749C315.075 92.5749 197.045 92.5749 169.11 92.5749Z" fill="#8D99AE"/>
<path d="M67.5812 111.987C67.9826 111.047 67.5463 109.96 66.6067 109.559C65.6671 109.157 64.58 109.594 64.1787 110.533L67.5812 111.987ZM57.3699 181.19L55.5727 181.629C55.7745 182.455 56.5134 183.037 57.3637 183.04L57.3699 181.19ZM119.529 183.155C120.551 183.155 121.38 182.327 121.38 181.305C121.38 180.283 120.552 179.455 119.53 179.455L119.529 183.155ZM202.78 179.307C201.758 179.311 200.933 180.143 200.937 181.164C200.942 182.186 201.773 183.011 202.795 183.007L202.78 179.307ZM257.17 180.82L257.185 182.67C258.018 182.663 258.743 182.101 258.957 181.297L257.17 180.82ZM254.776 118.988C254.344 118.062 253.243 117.661 252.318 118.094C251.392 118.526 250.991 119.626 251.423 120.552L254.776 118.988ZM144.32 181.308L143.436 182.934C143.708 183.081 144.012 183.159 144.321 183.158L144.32 181.308ZM190.94 181.209L190.947 183.058C191.8 183.055 192.54 182.469 192.739 181.64L190.94 181.209ZM117.681 181.364C117.709 182.385 118.56 183.19 119.582 183.161C120.603 183.133 121.408 182.282 121.379 181.26L117.681 181.364ZM138.77 120.88L140.61 121.068C140.699 120.202 140.172 119.392 139.345 119.122C138.518 118.851 137.615 119.193 137.174 119.944L138.77 120.88ZM197.23 124.95L199.011 124.45C198.76 123.556 197.885 122.986 196.966 123.119C196.046 123.252 195.368 124.045 195.38 124.974L197.23 124.95ZM200.96 180.871C200.8 181.88 201.488 182.828 202.498 182.988C203.507 183.148 204.454 182.459 204.614 181.45L200.96 180.871ZM64.1787 110.533C53.2103 136.209 50.2752 159.934 55.5727 181.629L59.1671 180.751C54.1047 160.019 56.8429 137.124 67.5812 111.987L64.1787 110.533ZM57.3637 183.04C78.7343 183.112 99.4562 183.15 119.529 183.155L119.53 179.455C99.4611 179.45 78.7431 179.412 57.3761 179.34L57.3637 183.04ZM202.795 183.007C221.621 182.928 239.751 182.816 257.185 182.67L257.154 178.97C239.725 179.116 221.6 179.228 202.78 179.307L202.795 183.007ZM258.957 181.297C264.974 158.733 263.616 137.931 254.776 118.988L251.423 120.552C259.85 138.609 261.205 158.507 255.382 180.343L258.957 181.297ZM144.321 183.158C158.487 183.149 177.472 183.108 190.947 183.058L190.933 179.359C177.462 179.408 158.48 179.449 144.319 179.458L144.321 183.158ZM121.379 181.26C120.899 164.144 127.14 144.349 140.365 121.816L137.174 119.944C123.76 142.798 117.174 163.291 117.681 181.364L121.379 181.26ZM136.929 120.692C135.075 138.863 134.599 153.102 135.54 163.351C136.011 168.472 136.842 172.687 138.083 175.929C139.316 179.15 141.038 181.629 143.436 182.934L145.204 179.683C143.902 178.975 142.618 177.427 141.538 174.606C140.467 171.806 139.679 167.963 139.225 163.013C138.316 153.119 138.765 139.157 140.61 121.068L136.929 120.692ZM192.739 181.64C197.215 162.979 199.328 144.073 199.08 124.926L195.38 124.974C195.625 143.814 193.545 162.414 189.141 180.777L192.739 181.64ZM195.449 125.45C201.573 147.254 203.366 165.705 200.96 180.871L204.614 181.45C207.133 165.575 205.22 146.553 199.011 124.45L195.449 125.45Z" fill="#EF233C"/>
<path d="M253.829 180.846C256.303 196.45 255.237 211.488 250.632 225.96C251.619 230.728 257.704 229.001 268.888 220.78C277.437 213.873 283.604 204.007 287.388 191.18C297.255 150.561 291.992 120.057 271.6 99.668" stroke="#EF233C" stroke-width="3.7" stroke-linecap="round" stroke-linejoin="round"/>
<path d="M122.12 372.728C129.52 363.024 140.703 348.471 155.668 329.068C155.337 328.244 155.255 325.612 155.42 321.172C189.132 317.719 208.865 315.828 214.62 315.5C214.455 322.241 214.291 326.105 214.128 327.092C214.128 327.092 214.059 327.268 213.921 327.621C208.003 342.796 202.234 358.736 196.612 375.44" fill="#FDFBFB"/>
<mask id="mask2_656_9491" style="mask-type:alpha" maskUnits="userSpaceOnUse" x="121" y="314" width="95" height="63">
<path d="M122.12 372.728C129.52 363.024 140.703 348.471 155.668 329.068C155.337 328.244 155.255 325.612 155.42 321.172C189.132 317.719 208.865 315.828 214.62 315.5C214.455 322.241 214.291 326.105 214.128 327.092C214.128 327.092 214.059 327.268 213.921 327.621C208.003 342.796 202.234 358.736 196.612 375.44" fill="#FDFBFB" stroke="#EF233C" stroke-width="2" stroke-linecap="round" stroke-linejoin="round"/>
</mask>
<g mask="url(#mask2_656_9491)">
<path d="M199.82 331.04V317.165L231.27 313.465L226.275 381.175L178.915 379.51C191.495 349.91 196.675 340.29 196.675 340.29C182.8 340.29 164.67 336.035 161.71 333.815L199.82 331.04Z" fill="#BED1EF"/>
</g>
<path d="M122.12 372.728C129.52 363.024 140.703 348.471 155.668 329.068C155.337 328.244 155.255 325.612 155.42 321.172C189.132 317.719 208.865 315.828 214.62 315.5C214.455 322.241 214.291 326.105 214.128 327.092C214.128 327.092 214.059 327.268 213.921 327.621C208.003 342.796 202.234 358.736 196.612 375.44" stroke="#EF233C" stroke-width="3.7" stroke-linecap="round" stroke-linejoin="round"/>
<path d="M84.8721 201.788C100.989 189.948 118.421 188.221 137.168 196.608" stroke="#EF233C" stroke-width="3.7" stroke-linecap="round" stroke-linejoin="round"/>
<path d="M189.952 198.828C210.344 187.151 229.091 187.561 246.192 200.06" stroke="#EF233C" stroke-width="3.7" stroke-linecap="round" stroke-linejoin="round"/>
<path d="M128.162 200.552C129.357 200.563 132.154 201.411 133.386 202.139C134.552 202.846 136.439 204.774 137.205 205.832C138.004 206.957 139.284 209.421 139.699 210.672C140.109 211.948 140.661 214.479 140.82 215.804C140.986 217.295 140.986 219.581 140.82 221.069C140.661 222.393 140.109 224.924 139.699 226.204C139.284 227.451 138.004 229.915 137.205 231.04C136.439 232.098 134.552 234.03 133.386 234.733C132.154 235.462 129.357 236.313 128.162 236.32C126.971 236.313 124.173 235.462 122.941 234.733C121.772 234.03 119.889 232.098 119.123 231.04C118.324 229.915 117.04 227.451 116.629 226.204C116.218 224.924 115.663 222.393 115.508 221.069C115.342 219.581 115.342 217.295 115.508 215.804C115.663 214.479 116.218 211.948 116.629 210.672C117.04 209.421 118.324 206.957 119.123 205.832C119.889 204.774 121.772 202.846 122.941 202.139C124.173 201.411 126.971 200.563 128.162 200.552Z" fill="#EF233C" stroke="#EF233C" stroke-width="3.7" stroke-linecap="round" stroke-linejoin="round"/>
<path d="M225.102 200.182C226.297 200.193 229.094 201.041 230.326 201.769C231.492 202.476 233.379 204.404 234.145 205.462C234.944 206.587 236.224 209.051 236.639 210.302C237.049 211.578 237.601 214.109 237.76 215.434C237.926 216.925 237.926 219.211 237.76 220.699C237.601 222.023 237.049 224.554 236.639 225.834C236.224 227.081 234.944 229.545 234.145 230.67C233.379 231.728 231.492 233.66 230.326 234.363C229.094 235.092 226.297 235.943 225.102 235.95C223.911 235.943 221.113 235.092 219.881 234.363C218.712 233.66 216.829 231.728 216.063 230.67C215.264 229.545 213.98 227.081 213.569 225.834C213.158 224.554 212.603 222.023 212.448 220.699C212.281 219.211 212.281 216.925 212.448 215.434C212.603 214.109 213.158 211.578 213.569 210.302C213.98 209.051 215.264 206.587 216.063 205.462C216.829 204.404 218.712 202.476 219.881 201.769C221.113 201.041 223.911 200.193 225.102 200.182Z" fill="#EF233C" stroke="#EF233C" stroke-width="3.7" stroke-linecap="round" stroke-linejoin="round"/>
<path d="M300.212 214.368C290.183 227.194 280.235 239.363 270.368 250.872" stroke="#EF233C" stroke-width="3.7" stroke-linecap="round" stroke-linejoin="round"/>
<path d="M285.915 232.272C293.31 238.752 298.816 243.801 302.432 247.42" stroke="#EF233C" stroke-width="3.7" stroke-linecap="round" stroke-linejoin="round"/>
<path d="M160.6 274.8C165.225 276.65 168.74 276.65 173.92 274.8" stroke="#EF233C" stroke-width="3.7" stroke-linecap="round" stroke-linejoin="round"/>
<path d="M74.76 162.072C94.1653 150.232 116.695 147.437 142.348 153.688" stroke="#EF233C" stroke-width="3.7" stroke-linecap="round" stroke-linejoin="round"/>
<path d="M187.488 151.712C211.661 143.984 233.614 144.56 253.348 153.44" stroke="#EF233C" stroke-width="3.7" stroke-linecap="round" stroke-linejoin="round"/>
<path d="M161.092 332.52C176.223 332.355 190.283 331.697 203.272 330.548" stroke="#EF233C" stroke-width="3.7" stroke-linecap="round" stroke-linejoin="round"/>
<path d="M350.902 383.395C340.707 231.695 331.519 142.217 323.337 114.96C316.144 89.8 306.052 74.3833 293.06 68.71C311.19 66.9833 319.947 61.495 319.33 52.245C312.177 45.955 301.138 48.2983 286.215 59.275C294.602 46.5717 296.02 36.6433 290.47 29.49C281.097 29.49 275.917 38.2467 274.93 55.76C253.223 40.22 216.717 33.8067 165.41 36.52C87.9566 42.6867 48.49 79.44 47.01 146.78C44.5433 202.033 40.6583 277.39 35.355 372.85" stroke="#EF233C" stroke-width="3.7" stroke-linecap="round" stroke-linejoin="round"/>
</g>
</g>
<rect x="1.5" y="1" width="370" height="370" rx="30" stroke="#FDFBFB" stroke-width="2"/>
<defs>
<clipPath id="clip0_656_9491">
<rect x="1.5" y="1" width="370" height="370" rx="30" fill="white"/>
</clipPath>
</defs>
</svg>
