<svg width="371" height="370" viewBox="0 0 371 370" fill="none" xmlns="http://www.w3.org/2000/svg">
<g clip-path="url(#clip0_656_9491)">
<rect x="0.5" width="370" height="370" rx="30" fill="#EF233C"/>
<mask id="path-2-outside-1_656_9491" maskUnits="userSpaceOnUse" x="23.355" y="18.49" width="337" height="374" fill="black">
<rect fill="white" x="23.355" y="18.49" width="337" height="374"/>
<path d="M349.902 382.395C339.707 230.695 330.519 141.217 322.337 113.96C315.144 88.8 305.052 73.3833 292.06 67.71C310.19 65.9833 318.947 60.495 318.33 51.245C311.177 44.955 300.138 47.2983 285.215 58.275C293.602 45.5717 295.02 35.6433 289.47 28.49C280.097 28.49 274.917 37.2467 273.93 54.76C252.223 39.22 215.717 32.8067 164.41 35.52C86.9566 41.6867 47.49 78.44 46.01 145.78C43.5433 201.033 39.6583 276.39 34.355 371.85"/>
</mask>
<path d="M349.902 382.395C339.707 230.695 330.519 141.217 322.337 113.96C315.144 88.8 305.052 73.3833 292.06 67.71C310.19 65.9833 318.947 60.495 318.33 51.245C311.177 44.955 300.138 47.2983 285.215 58.275C293.602 45.5717 295.02 35.6433 289.47 28.49C280.097 28.49 274.917 37.2467 273.93 54.76C252.223 39.22 215.717 32.8067 164.41 35.52C86.9566 41.6867 47.49 78.44 46.01 145.78C43.5433 201.033 39.6583 276.39 34.355 371.85" stroke="#FDFBFB" stroke-width="20" stroke-linecap="round" stroke-linejoin="round" mask="url(#path-2-outside-1_656_9491)"/>
<mask id="mask0_656_9491" style="mask-type:alpha" maskUnits="userSpaceOnUse" x="32" y="26" width="320" height="359">
<path d="M349.902 382.395C339.707 230.695 330.519 141.217 322.337 113.96C315.144 88.8 305.052 73.3833 292.06 67.71C310.19 65.9833 318.947 60.495 318.33 51.245C311.177 44.955 300.138 47.2983 285.215 58.275C293.602 45.5717 295.02 35.6433 289.47 28.49C280.097 28.49 274.917 37.2467 273.93 54.76C252.223 39.22 215.717 32.8067 164.41 35.52C86.9566 41.6867 47.49 78.44 46.01 145.78C43.5433 201.033 39.6583 276.39 34.355 371.85" fill="#2B2D42" stroke="#EF233C" stroke-width="3.7" stroke-linecap="round" stroke-linejoin="round"/>
</mask>
<g mask="url(#mask0_656_9491)">
<path d="M349.902 382.395C339.707 230.695 330.519 141.217 322.337 113.96C315.144 88.8 305.052 73.3833 292.06 67.71C310.19 65.9833 318.947 60.495 318.33 51.245C311.177 44.955 300.138 47.2983 285.215 58.275C293.602 45.5717 295.02 35.6433 289.47 28.49C280.097 28.49 274.917 37.2467 273.93 54.76C252.223 39.22 215.717 32.8067 164.41 35.52C86.9566 41.6867 47.49 78.44 46.01 145.78C43.5433 201.033 39.6583 276.39 34.355 371.85" fill="#2B2D42"/>
<path d="M62.105 165.945L54.705 385.91L322.77 379.99C316.11 270.1 309.08 187.96 289.655 133.2C279.499 104.571 129.26 149.048 62.105 165.945Z" fill="#141522"/>
<path d="M75.0624 214.496C66.6289 210.784 62.496 199.355 62.6637 180.209L83.935 169.275L91.89 205.905L75.0624 214.496Z" stroke="#EF233C" stroke-width="3.7" stroke-linecap="round" stroke-linejoin="round"/>
<path d="M78.8549 211.658C68.7169 217.894 65.9493 228.165 70.5521 242.472C75.9787 256.285 83.359 262.559 92.6929 261.294" fill="#BED1EF"/>
<path d="M78.8549 211.658C68.7169 217.894 65.9493 228.165 70.5521 242.472C75.9787 256.285 83.359 262.559 92.6929 261.294" stroke="#EF233C" stroke-width="3.7" stroke-linecap="round" stroke-linejoin="round"/>
<path d="M106.575 340.748C98.1838 346.764 90.3694 357.501 83.1322 372.96L138.325 407.74L154.05 350.575L106.575 340.748Z" fill="#EF233C" stroke="#EF233C" stroke-width="3.7" stroke-linecap="round" stroke-linejoin="round"/>
<path d="M286.007 331.076C293.167 339.593 298.228 346.484 301.188 351.748L301.373 352.11C304.005 357.342 306.574 365.361 309.08 376.168V407L188.645 402.19L234.155 318.94L286.007 331.076Z" fill="#EF233C"/>
<path d="M301.188 351.748C298.228 346.484 293.167 339.593 286.007 331.076L234.155 318.94L188.645 402.19L309.08 407V376.168C306.574 365.361 304.005 357.342 301.373 352.11M301.188 351.748C301.188 351.748 301.25 351.869 301.373 352.11M301.188 351.748L301.373 352.11" stroke="#EF233C" stroke-width="3.7" stroke-linecap="round" stroke-linejoin="round"/>
<path d="M141.403 301.476C121.303 307.033 110.677 311.457 109.528 314.748C109.363 321.655 109.87 327.83 111.049 333.274L188.09 324.675L182.725 298.405L141.403 301.476Z" fill="#FDFBFB"/>
<path d="M141.655 317.09C110.575 315.425 136.29 304.88 155.16 303.03L171.07 297.665L177.915 311.17C171.193 314.253 158.906 318.014 141.655 317.09Z" fill="#BED1EF"/>
<path d="M141.403 301.476C121.303 307.033 110.677 311.457 109.528 314.748C109.363 321.655 109.87 327.83 111.049 333.274L188.09 324.675L182.725 298.405L141.403 301.476Z" stroke="#EF233C" stroke-width="3.7" stroke-linecap="round" stroke-linejoin="round"/>
<path d="M222.914 293.913C265.558 292.344 288.36 295.917 291.32 304.632C294.115 315.485 293.951 324.037 290.828 330.288L290.351 330.373C279.825 332.28 266.823 333.073 251.345 332.752L192.715 337.255L185.5 297.665L222.914 293.913Z" fill="#FDFBFB"/>
<path d="M271.34 307.84C285.77 298.035 232.613 299.022 198.82 298.405L193.085 307.84L222.87 310.985C233.908 313.267 263.383 313.247 271.34 307.84Z" fill="#BED1EF"/>
<path d="M290.828 330.288C293.951 324.037 294.115 315.485 291.32 304.632C288.36 295.917 265.558 292.344 222.914 293.913L185.5 297.665L192.715 337.255L251.345 332.752C266.823 333.073 279.825 332.28 290.351 330.373M290.828 330.288C290.828 330.288 290.669 330.316 290.351 330.373M290.828 330.288L290.351 330.373" stroke="#EF233C" stroke-width="3.7" stroke-linecap="round" stroke-linejoin="round"/>
<path d="M159.508 311.544C138.356 316.309 126.136 319.268 122.848 320.42C121.203 324.695 120.216 328.148 119.888 330.78C113.968 332.095 109.363 333.657 106.072 335.468C107.883 354.871 109.528 368.519 111.008 376.412L119.888 384.43L173.475 331.89L159.508 311.544Z" fill="#EF233C" stroke="#EF233C" stroke-width="3.7" stroke-linecap="round" stroke-linejoin="round"/>
<path d="M211.37 306.09C231.289 308.737 246.509 311.787 257.032 315.24C250.949 322.312 246.839 326.916 244.7 329.052C249.633 331.519 253.827 334.151 257.28 336.948C243.467 351.254 228.667 364.821 212.88 377.648L167.185 396.27L211.37 306.09Z" fill="#EF233C" stroke="#EF233C" stroke-width="3.7" stroke-linecap="round" stroke-linejoin="round"/>
<path d="M159.326 305.024C159.509 310.683 159.6 315.157 159.6 318.448L164.595 329.3L201.41 325.97L210.908 313.76C211.236 311.128 211.439 305.987 211.518 298.338L198.82 290.45L168.48 291.93L159.326 305.024Z" fill="#BED1EF"/>
<path d="M159.326 305.024L157.81 303.964C157.581 304.292 157.464 304.685 157.477 305.084L159.326 305.024ZM159.6 318.448H157.75C157.75 318.715 157.808 318.979 157.919 319.221L159.6 318.448ZM211.518 298.338L213.368 298.357C213.375 297.711 213.044 297.108 212.495 296.767L211.518 298.338ZM210.908 313.76L212.368 314.896C212.573 314.633 212.702 314.319 212.744 313.989L210.908 313.76ZM164.595 329.3L162.914 330.073C163.242 330.785 163.982 331.213 164.762 331.142L164.595 329.3ZM201.41 325.97L201.577 327.812C202.087 327.766 202.556 327.51 202.87 327.106L201.41 325.97ZM198.82 290.45L199.796 288.878C199.477 288.68 199.105 288.584 198.73 288.602L198.82 290.45ZM168.48 291.93L168.39 290.082C167.818 290.11 167.292 290.401 166.964 290.87L168.48 291.93ZM157.477 305.084C157.659 310.734 157.75 315.186 157.75 318.448H161.45C161.45 315.128 161.358 310.631 161.175 304.965L157.477 305.084ZM209.668 298.319C209.589 305.983 209.385 311.02 209.072 313.531L212.744 313.989C213.087 311.236 213.289 305.992 213.368 298.357L209.668 298.319ZM157.919 319.221L162.914 330.073L166.275 328.526L161.28 317.674L157.919 319.221ZM164.762 331.142L201.577 327.812L201.243 324.127L164.428 327.457L164.762 331.142ZM202.87 327.106L212.368 314.896L209.448 312.624L199.95 324.834L202.87 327.106ZM212.495 296.767L199.796 288.878L197.844 292.021L210.542 299.91L212.495 296.767ZM198.73 288.602L168.39 290.082L168.57 293.778L198.91 292.298L198.73 288.602ZM166.964 290.87L157.81 303.964L160.842 306.084L169.996 292.99L166.964 290.87Z" fill="#EF233C"/>
<path d="M73.5159 180.242C79.1053 218.934 86.5041 248.311 95.7122 268.372C111.336 292.052 136.168 304.551 170.208 305.868C208.195 304.057 239.768 290.244 264.928 264.428C288.608 266.729 302.256 257.356 305.872 236.308C307.189 216.903 298.998 205.808 281.297 203.023" fill="#FDFBFB"/>
<path d="M73.5159 180.242C79.1053 218.934 86.5041 248.311 95.7122 268.372C111.336 292.052 136.168 304.551 170.208 305.868C208.195 304.057 239.768 290.244 264.928 264.428C288.608 266.729 302.256 257.356 305.872 236.308C307.189 216.903 298.998 205.808 281.297 203.023L264.928 107.3L112.61 104.71L73.5159 180.242Z" fill="#FDFBFB"/>
<mask id="mask1_656_9491" style="mask-type:alpha" maskUnits="userSpaceOnUse" x="73" y="104" width="234" height="202">
<path d="M73.5159 180.242C79.1053 218.934 86.5041 248.311 95.7122 268.372C111.336 292.052 136.168 304.551 170.208 305.868C208.195 304.057 239.768 290.244 264.928 264.428C288.608 266.729 302.256 257.356 305.872 236.308C307.189 216.903 298.998 205.808 281.297 203.023" fill="#FDFBFB"/>
<path d="M73.5159 180.242C79.1053 218.934 86.5041 248.311 95.7122 268.372C111.336 292.052 136.168 304.551 170.208 305.868C208.195 304.057 239.768 290.244 264.928 264.428C288.608 266.729 302.256 257.356 305.872 236.308C307.189 216.903 298.998 205.808 281.297 203.023L264.928 107.3L112.61 104.71L73.5159 180.242Z" fill="#FDFBFB"/>
</mask>
<g mask="url(#mask1_656_9491)">
<path d="M267.825 249.935C249.88 276.39 213.805 298.405 183.465 303.955L222.315 314.13L326.47 264.735L310.19 202.575C301.125 210.407 267.825 249.935 267.825 249.935Z" fill="#BED1EF"/>
<path d="M308.34 190.365H62.29V94.72L297.795 98.605L308.34 190.365Z" fill="#BED1EF"/>
</g>
<path d="M73.5159 180.242C79.1053 218.934 86.5041 248.311 95.7122 268.372C111.336 292.052 136.168 304.551 170.208 305.868C208.195 304.057 239.768 290.244 264.928 264.428C288.608 266.729 302.256 257.356 305.872 236.308C307.189 216.903 298.998 205.808 281.297 203.023" stroke="#EF233C" stroke-width="3.7" stroke-linecap="round" stroke-linejoin="round"/>
<path d="M73.5159 180.242C79.1053 218.934 86.5041 248.311 95.7122 268.372C111.336 292.052 136.168 304.551 170.208 305.868C208.195 304.057 239.768 290.244 264.928 264.428C288.608 266.729 302.256 257.356 305.872 236.308C307.189 216.903 298.998 205.808 281.297 203.023L264.928 107.3L112.61 104.71L73.5159 180.242Z" stroke="#EF233C" stroke-width="3.7" stroke-linecap="round" stroke-linejoin="round"/>
<path d="M64.8799 110.26C54.0266 135.667 51.1899 158.977 56.3699 180.19C77.7387 180.262 98.4587 180.3 118.53 180.305C118.037 162.71 124.45 142.573 137.77 119.88C134.07 156.14 135.92 176.283 143.32 180.308C157.484 180.299 176.467 180.258 189.94 180.208C194.38 161.696 196.477 142.943 196.23 123.95C202.396 145.902 204.249 164.637 201.788 180.157C219.411 180.083 236.425 179.98 252.829 179.847C255.303 195.451 254.237 210.489 249.632 224.96C250.619 229.728 256.704 228.001 267.888 219.78C276.437 212.873 282.604 203.007 286.388 190.18C296.255 149.561 290.992 119.057 270.6 98.6679L145.91 70.3L64.8799 110.26Z" fill="#2B2D42"/>
<path d="M168.11 91.5749C142.504 91.5749 52.67 91.575 41.2 91.5749C33.3328 91.5748 29.5643 107.186 35.28 115.07C40.645 122.47 136.66 126.54 174.77 126.54C212.88 126.54 324.805 121.73 335.165 118.03C339.605 111 335.758 91.5749 326.84 91.5749C314.075 91.5749 196.045 91.5749 168.11 91.5749Z" fill="#8D99AE"/>
<path d="M66.5812 110.987C66.9826 110.047 66.5463 108.96 65.6067 108.559C64.6671 108.157 63.58 108.594 63.1787 109.533L66.5812 110.987ZM56.3699 180.19L54.5727 180.629C54.7745 181.455 55.5134 182.037 56.3637 182.04L56.3699 180.19ZM118.529 182.155C119.551 182.155 120.38 181.327 120.38 180.305C120.38 179.283 119.552 178.455 118.53 178.455L118.529 182.155ZM201.78 178.307C200.758 178.311 199.933 179.143 199.937 180.164C199.942 181.186 200.773 182.011 201.795 182.007L201.78 178.307ZM256.17 179.82L256.185 181.67C257.018 181.663 257.743 181.101 257.957 180.297L256.17 179.82ZM253.776 117.988C253.344 117.062 252.243 116.661 251.318 117.094C250.392 117.526 249.991 118.626 250.423 119.552L253.776 117.988ZM143.32 180.308L142.436 181.934C142.708 182.081 143.012 182.159 143.321 182.158L143.32 180.308ZM189.94 180.209L189.947 182.058C190.8 182.055 191.54 181.469 191.739 180.64L189.94 180.209ZM116.681 180.364C116.709 181.385 117.56 182.19 118.582 182.161C119.603 182.133 120.408 181.282 120.379 180.26L116.681 180.364ZM137.77 119.88L139.61 120.068C139.699 119.202 139.172 118.392 138.345 118.122C137.518 117.851 136.615 118.193 136.174 118.944L137.77 119.88ZM196.23 123.95L198.011 123.45C197.76 122.556 196.885 121.986 195.966 122.119C195.046 122.252 194.368 123.045 194.38 123.974L196.23 123.95ZM199.96 179.871C199.8 180.88 200.488 181.828 201.498 181.988C202.507 182.148 203.454 181.459 203.614 180.45L199.96 179.871ZM63.1787 109.533C52.2103 135.209 49.2752 158.934 54.5727 180.629L58.1671 179.751C53.1047 159.019 55.8429 136.124 66.5812 110.987L63.1787 109.533ZM56.3637 182.04C77.7343 182.112 98.4562 182.15 118.529 182.155L118.53 178.455C98.4611 178.45 77.7431 178.412 56.3761 178.34L56.3637 182.04ZM201.795 182.007C220.621 181.928 238.751 181.816 256.185 181.67L256.154 177.97C238.725 178.116 220.6 178.228 201.78 178.307L201.795 182.007ZM257.957 180.297C263.974 157.733 262.616 136.931 253.776 117.988L250.423 119.552C258.85 137.609 260.205 157.507 254.382 179.343L257.957 180.297ZM143.321 182.158C157.487 182.149 176.472 182.108 189.947 182.058L189.933 178.359C176.462 178.408 157.48 178.449 143.319 178.458L143.321 182.158ZM120.379 180.26C119.899 163.144 126.14 143.349 139.365 120.816L136.174 118.944C122.76 141.798 116.174 162.291 116.681 180.364L120.379 180.26ZM135.929 119.692C134.075 137.863 133.599 152.102 134.54 162.351C135.011 167.472 135.842 171.687 137.083 174.929C138.316 178.15 140.038 180.629 142.436 181.934L144.204 178.683C142.902 177.975 141.618 176.427 140.538 173.606C139.467 170.806 138.679 166.963 138.225 162.013C137.316 152.119 137.765 138.157 139.61 120.068L135.929 119.692ZM191.739 180.64C196.215 161.979 198.328 143.073 198.08 123.926L194.38 123.974C194.625 142.814 192.545 161.414 188.141 179.777L191.739 180.64ZM194.449 124.45C200.573 146.254 202.366 164.705 199.96 179.871L203.614 180.45C206.133 164.575 204.22 145.553 198.011 123.45L194.449 124.45Z" fill="#EF233C"/>
<path d="M252.829 179.846C255.303 195.45 254.237 210.488 249.632 224.96C250.619 229.728 256.704 228.001 267.888 219.78C276.437 212.873 282.604 203.007 286.388 190.18C296.255 149.561 290.992 119.057 270.6 98.668" stroke="#EF233C" stroke-width="3.7" stroke-linecap="round" stroke-linejoin="round"/>
<path d="M121.12 371.728C128.52 362.024 139.703 347.471 154.668 328.068C154.337 327.244 154.255 324.612 154.42 320.172C188.132 316.719 207.865 314.828 213.62 314.5C213.455 321.241 213.291 325.105 213.128 326.092C213.128 326.092 213.059 326.268 212.921 326.621C207.003 341.796 201.234 357.736 195.612 374.44" fill="#FDFBFB"/>
<mask id="mask2_656_9491" style="mask-type:alpha" maskUnits="userSpaceOnUse" x="120" y="313" width="95" height="63">
<path d="M121.12 371.728C128.52 362.024 139.703 347.471 154.668 328.068C154.337 327.244 154.255 324.612 154.42 320.172C188.132 316.719 207.865 314.828 213.62 314.5C213.455 321.241 213.291 325.105 213.128 326.092C213.128 326.092 213.059 326.268 212.921 326.621C207.003 341.796 201.234 357.736 195.612 374.44" fill="#FDFBFB" stroke="#EF233C" stroke-width="2" stroke-linecap="round" stroke-linejoin="round"/>
</mask>
<g mask="url(#mask2_656_9491)">
<path d="M198.82 330.04V316.165L230.27 312.465L225.275 380.175L177.915 378.51C190.495 348.91 195.675 339.29 195.675 339.29C181.8 339.29 163.67 335.035 160.71 332.815L198.82 330.04Z" fill="#BED1EF"/>
</g>
<path d="M121.12 371.728C128.52 362.024 139.703 347.471 154.668 328.068C154.337 327.244 154.255 324.612 154.42 320.172C188.132 316.719 207.865 314.828 213.62 314.5C213.455 321.241 213.291 325.105 213.128 326.092C213.128 326.092 213.059 326.268 212.921 326.621C207.003 341.796 201.234 357.736 195.612 374.44" stroke="#EF233C" stroke-width="3.7" stroke-linecap="round" stroke-linejoin="round"/>
<path d="M83.8721 200.788C99.9893 188.948 117.421 187.221 136.168 195.608" stroke="#EF233C" stroke-width="3.7" stroke-linecap="round" stroke-linejoin="round"/>
<path d="M188.952 197.828C209.344 186.151 228.091 186.561 245.192 199.06" stroke="#EF233C" stroke-width="3.7" stroke-linecap="round" stroke-linejoin="round"/>
<path d="M127.162 199.552C128.357 199.563 131.154 200.411 132.386 201.139C133.552 201.846 135.439 203.774 136.205 204.832C137.004 205.957 138.284 208.421 138.699 209.672C139.109 210.948 139.661 213.479 139.82 214.804C139.986 216.295 139.986 218.581 139.82 220.069C139.661 221.393 139.109 223.924 138.699 225.204C138.284 226.451 137.004 228.915 136.205 230.04C135.439 231.098 133.552 233.03 132.386 233.733C131.154 234.462 128.357 235.313 127.162 235.32C125.971 235.313 123.173 234.462 121.941 233.733C120.772 233.03 118.889 231.098 118.123 230.04C117.324 228.915 116.04 226.451 115.629 225.204C115.218 223.924 114.663 221.393 114.508 220.069C114.342 218.581 114.342 216.295 114.508 214.804C114.663 213.479 115.218 210.948 115.629 209.672C116.04 208.421 117.324 205.957 118.123 204.832C118.889 203.774 120.772 201.846 121.941 201.139C123.173 200.411 125.971 199.563 127.162 199.552Z" fill="#EF233C" stroke="#EF233C" stroke-width="3.7" stroke-linecap="round" stroke-linejoin="round"/>
<path d="M224.102 199.182C225.297 199.193 228.094 200.041 229.326 200.769C230.492 201.476 232.379 203.404 233.145 204.462C233.944 205.587 235.224 208.051 235.639 209.302C236.049 210.578 236.601 213.109 236.76 214.434C236.926 215.925 236.926 218.211 236.76 219.699C236.601 221.023 236.049 223.554 235.639 224.834C235.224 226.081 233.944 228.545 233.145 229.67C232.379 230.728 230.492 232.66 229.326 233.363C228.094 234.092 225.297 234.943 224.102 234.95C222.911 234.943 220.113 234.092 218.881 233.363C217.712 232.66 215.829 230.728 215.063 229.67C214.264 228.545 212.98 226.081 212.569 224.834C212.158 223.554 211.603 221.023 211.448 219.699C211.281 218.211 211.281 215.925 211.448 214.434C211.603 213.109 212.158 210.578 212.569 209.302C212.98 208.051 214.264 205.587 215.063 204.462C215.829 203.404 217.712 201.476 218.881 200.769C220.113 200.041 222.911 199.193 224.102 199.182Z" fill="#EF233C" stroke="#EF233C" stroke-width="3.7" stroke-linecap="round" stroke-linejoin="round"/>
<path d="M299.212 213.368C289.183 226.194 279.235 238.363 269.368 249.872" stroke="#EF233C" stroke-width="3.7" stroke-linecap="round" stroke-linejoin="round"/>
<path d="M284.915 231.272C292.31 237.752 297.816 242.801 301.432 246.42" stroke="#EF233C" stroke-width="3.7" stroke-linecap="round" stroke-linejoin="round"/>
<path d="M159.6 273.8C164.225 275.65 167.74 275.65 172.92 273.8" stroke="#EF233C" stroke-width="3.7" stroke-linecap="round" stroke-linejoin="round"/>
<path d="M73.76 161.072C93.1653 149.232 115.695 146.437 141.348 152.688" stroke="#EF233C" stroke-width="3.7" stroke-linecap="round" stroke-linejoin="round"/>
<path d="M186.488 150.712C210.661 142.984 232.614 143.56 252.348 152.44" stroke="#EF233C" stroke-width="3.7" stroke-linecap="round" stroke-linejoin="round"/>
<path d="M160.092 331.52C175.223 331.355 189.283 330.697 202.272 329.548" stroke="#EF233C" stroke-width="3.7" stroke-linecap="round" stroke-linejoin="round"/>
<path d="M349.902 382.395C339.707 230.695 330.519 141.217 322.337 113.96C315.144 88.8 305.052 73.3833 292.06 67.71C310.19 65.9833 318.947 60.495 318.33 51.245C311.177 44.955 300.138 47.2983 285.215 58.275C293.602 45.5717 295.02 35.6433 289.47 28.49C280.097 28.49 274.917 37.2467 273.93 54.76C252.223 39.22 215.717 32.8067 164.41 35.52C86.9566 41.6867 47.49 78.44 46.01 145.78C43.5433 201.033 39.6583 276.39 34.355 371.85" stroke="#EF233C" stroke-width="3.7" stroke-linecap="round" stroke-linejoin="round"/>
</g>
</g>
<defs>
<clipPath id="clip0_656_9491">
<rect x="0.5" width="370" height="370" rx="30" fill="white"/>
</clipPath>
</defs>
</svg>
