<svg width="250" height="250" viewBox="0 0 250 250" fill="none" xmlns="http://www.w3.org/2000/svg">
<path d="M191 158.681V89.1263L152.65 120.709L191 158.681Z" fill="#141522"/>
<path d="M177.989 83H72.0105L125 126.638L177.989 83Z" fill="#141522"/>
<path d="M180.925 167H69.0751L107.437 129.015L125 143.479L142.563 129.015L180.925 167Z" fill="#141522"/>
<path d="M59 89.1263V158.681L97.3499 120.709L59 89.1263Z" fill="#141522"/>
<path fill-rule="evenodd" clip-rule="evenodd" d="M125 250C194.036 250 250 194.036 250 125C250 55.9644 194.036 0 125 0C55.9644 0 0 55.9644 0 125C0 194.036 55.9644 250 125 250ZM204 70V180H46V70H204Z" fill="#141522"/>
</svg>
