<svg width="250" height="250" viewBox="0 0 250 250" fill="none" xmlns="http://www.w3.org/2000/svg">
<path fill-rule="evenodd" clip-rule="evenodd" d="M125.103 2C55.9245 2 0 58.3368 0 128.033C0 183.745 35.8327 230.904 85.5422 247.595C91.7572 248.85 94.0337 244.883 94.0337 241.547C94.0337 238.625 93.8288 228.61 93.8288 218.175C59.0281 225.688 51.7812 203.151 51.7812 203.151C46.1885 188.544 37.9018 184.79 37.9018 184.79C26.5116 177.069 38.7315 177.069 38.7315 177.069C51.3663 177.904 57.9961 190.006 57.9961 190.006C69.179 209.202 87.199 203.778 94.4486 200.439C95.4831 192.301 98.7993 186.667 102.32 183.538C74.5642 180.616 45.3613 169.766 45.3613 121.355C45.3613 107.583 50.3292 96.3155 58.201 87.5526C56.959 84.4233 52.6083 71.4838 59.4455 54.1653C59.4455 54.1653 70.0087 50.8261 93.8263 67.1023C104.023 64.3435 114.54 62.9401 125.103 62.9283C135.667 62.9283 146.435 64.3905 156.378 67.1023C180.198 50.8261 190.761 54.1653 190.761 54.1653C197.599 71.4838 193.245 84.4233 192.003 87.5526C200.083 96.3155 204.846 107.583 204.846 121.355C204.846 169.766 175.643 180.406 147.679 183.538C152.237 187.502 156.171 195.012 156.171 206.907C156.171 223.808 155.966 237.373 155.966 241.544C155.966 244.883 158.245 248.85 164.457 247.598C214.167 230.902 249.999 183.745 249.999 128.033C250.204 58.3368 194.075 2 125.103 2Z" fill="#141522"/>
</svg>
