<svg width="250" height="250" viewBox="0 0 250 250" fill="none" xmlns="http://www.w3.org/2000/svg">
<path d="M247.688 127.813C247.688 119.583 246.958 111.771 245.708 104.167H128V151.146H195.396C192.375 166.563 183.521 179.583 170.396 188.438V219.688H210.604C234.146 197.917 247.688 165.833 247.688 127.813Z" fill="#141522"/>
<path d="M128 250C161.75 250 189.979 238.75 210.604 219.688L170.396 188.438C159.146 195.938 144.875 200.521 128 200.521C95.3958 200.521 67.7917 178.542 57.8958 148.854H16.4375V181.042C36.9583 221.875 79.1458 250 128 250Z" fill="#141522"/>
<path d="M57.8958 148.854C55.2917 141.354 53.9375 133.333 53.9375 125C53.9375 116.667 55.3958 108.646 57.8958 101.146V68.9583H16.4375C7.89583 85.8333 3 104.792 3 125C3 145.208 7.89583 164.167 16.4375 181.042L57.8958 148.854Z" fill="#141522"/>
<path d="M128 49.4792C146.438 49.4792 162.896 55.8333 175.917 68.2292L211.542 32.6042C189.979 12.3958 161.75 0 128 0C79.1458 0 36.9583 28.125 16.4375 68.9583L57.8958 101.146C67.7917 71.4583 95.3958 49.4792 128 49.4792Z" fill="#141522"/>
</svg>
