<svg width="2400" height="450" viewBox="0 0 2400 450" fill="none" xmlns="http://www.w3.org/2000/svg">
<g clip-path="url(#clip1_646_7652)">
<mask id="mask1_646_7652" style="mask-type:alpha" maskUnits="userSpaceOnUse" x="-212" y="0" width="2853" height="450">
<rect x="-212" width="2853" height="450" fill="url(#paint0_linear_646_7652)"/>
</mask>
<g mask="url(#mask1_646_7652)">
<circle cy="232" r="146" fill="#FDFBFB" stroke="#8D99AE" stroke-width="8"/>
<circle cx="0.5" cy="231.5" r="109" fill="#FDFBFB" stroke="#8D99AE" stroke-width="7"/>
<circle cy="232" r="72" fill="#FDFBFB" stroke="#8D99AE" stroke-width="6"/>
<circle cx="0.5" cy="231.5" r="35" fill="#FDFBFB" stroke="#8D99AE" stroke-width="5"/>
<circle cx="300" cy="232" r="146" fill="#FDFBFB" stroke="#8D99AE" stroke-width="8"/>
<circle cx="300.5" cy="231.5" r="109" fill="#FDFBFB" stroke="#8D99AE" stroke-width="7"/>
<circle cx="300" cy="232" r="72" fill="#FDFBFB" stroke="#8D99AE" stroke-width="6"/>
<circle cx="300.5" cy="231.5" r="35" fill="#FDFBFB" stroke="#8D99AE" stroke-width="5"/>
<circle cx="600" cy="232" r="146" fill="#FDFBFB" stroke="#8D99AE" stroke-width="8"/>
<circle cx="600.5" cy="231.5" r="109" fill="#FDFBFB" stroke="#8D99AE" stroke-width="7"/>
<circle cx="600" cy="232" r="72" fill="#FDFBFB" stroke="#8D99AE" stroke-width="6"/>
<circle cx="600.5" cy="231.5" r="35" fill="#FDFBFB" stroke="#8D99AE" stroke-width="5"/>
<circle cx="900" cy="232" r="146" fill="#FDFBFB" stroke="#8D99AE" stroke-width="8"/>
<circle cx="900.5" cy="231.5" r="109" fill="#FDFBFB" stroke="#8D99AE" stroke-width="7"/>
<circle cx="900" cy="232" r="72" fill="#FDFBFB" stroke="#8D99AE" stroke-width="6"/>
<circle cx="900.5" cy="231.5" r="35" fill="#FDFBFB" stroke="#8D99AE" stroke-width="5"/>
<circle cx="1200" cy="232" r="146" fill="#FDFBFB" stroke="#8D99AE" stroke-width="8"/>
<circle cx="1200.5" cy="231.5" r="109" fill="#FDFBFB" stroke="#8D99AE" stroke-width="7"/>
<circle cx="1200" cy="232" r="72" fill="#FDFBFB" stroke="#8D99AE" stroke-width="6"/>
<circle cx="1200.5" cy="231.5" r="35" fill="#FDFBFB" stroke="#8D99AE" stroke-width="5"/>
<circle cx="1500" cy="232" r="146" fill="#FDFBFB" stroke="#8D99AE" stroke-width="8"/>
<circle cx="1500.5" cy="231.5" r="109" fill="#FDFBFB" stroke="#8D99AE" stroke-width="7"/>
<circle cx="1500" cy="232" r="72" fill="#FDFBFB" stroke="#8D99AE" stroke-width="6"/>
<circle cx="1500.5" cy="231.5" r="35" fill="#FDFBFB" stroke="#8D99AE" stroke-width="5"/>
<circle cx="1800" cy="232" r="146" fill="#FDFBFB" stroke="#8D99AE" stroke-width="8"/>
<circle cx="1800.5" cy="231.5" r="109" fill="#FDFBFB" stroke="#8D99AE" stroke-width="7"/>
<circle cx="1800" cy="232" r="72" fill="#FDFBFB" stroke="#8D99AE" stroke-width="6"/>
<circle cx="1800.5" cy="231.5" r="35" fill="#FDFBFB" stroke="#8D99AE" stroke-width="5"/>
<circle cx="2100" cy="232" r="146" fill="#FDFBFB" stroke="#8D99AE" stroke-width="8"/>
<circle cx="2100.5" cy="231.5" r="109" fill="#FDFBFB" stroke="#8D99AE" stroke-width="7"/>
<circle cx="2100" cy="232" r="72" fill="#FDFBFB" stroke="#8D99AE" stroke-width="6"/>
<circle cx="2100.5" cy="231.5" r="35" fill="#FDFBFB" stroke="#8D99AE" stroke-width="5"/>
<circle cx="2400" cy="232" r="146" fill="#FDFBFB" stroke="#8D99AE" stroke-width="8"/>
<circle cx="2400.5" cy="231.5" r="109" fill="#FDFBFB" stroke="#8D99AE" stroke-width="7"/>
<circle cx="2400" cy="232" r="72" fill="#FDFBFB" stroke="#8D99AE" stroke-width="6"/>
<circle cx="2400.5" cy="231.5" r="35" fill="#FDFBFB" stroke="#8D99AE" stroke-width="5"/>
<circle cx="150" cy="307" r="146" fill="#FDFBFB" stroke="#8D99AE" stroke-width="8"/>
<circle cx="150.5" cy="306.5" r="109" fill="#FDFBFB" stroke="#8D99AE" stroke-width="7"/>
<circle cx="150" cy="307" r="72" fill="#FDFBFB" stroke="#8D99AE" stroke-width="6"/>
<circle cx="150.5" cy="306.5" r="35" fill="#FDFBFB" stroke="#8D99AE" stroke-width="5"/>
<circle cx="450" cy="307" r="146" fill="#FDFBFB" stroke="#8D99AE" stroke-width="8"/>
<circle cx="450.5" cy="306.5" r="109" fill="#FDFBFB" stroke="#8D99AE" stroke-width="7"/>
<circle cx="450" cy="307" r="72" fill="#FDFBFB" stroke="#8D99AE" stroke-width="6"/>
<circle cx="450.5" cy="306.5" r="35" fill="#FDFBFB" stroke="#8D99AE" stroke-width="5"/>
<circle cx="750" cy="307" r="146" fill="#FDFBFB" stroke="#8D99AE" stroke-width="8"/>
<circle cx="750.5" cy="306.5" r="109" fill="#FDFBFB" stroke="#8D99AE" stroke-width="7"/>
<circle cx="750" cy="307" r="72" fill="#FDFBFB" stroke="#8D99AE" stroke-width="6"/>
<circle cx="750.5" cy="306.5" r="35" fill="#FDFBFB" stroke="#8D99AE" stroke-width="5"/>
<circle cx="1050" cy="307" r="146" fill="#FDFBFB" stroke="#8D99AE" stroke-width="8"/>
<circle cx="1050.5" cy="306.5" r="109" fill="#FDFBFB" stroke="#8D99AE" stroke-width="7"/>
<circle cx="1050" cy="307" r="72" fill="#FDFBFB" stroke="#8D99AE" stroke-width="6"/>
<circle cx="1050.5" cy="306.5" r="35" fill="#FDFBFB" stroke="#8D99AE" stroke-width="5"/>
<circle cx="1350" cy="307" r="146" fill="#FDFBFB" stroke="#8D99AE" stroke-width="8"/>
<circle cx="1350.5" cy="306.5" r="109" fill="#FDFBFB" stroke="#8D99AE" stroke-width="7"/>
<circle cx="1350" cy="307" r="72" fill="#FDFBFB" stroke="#8D99AE" stroke-width="6"/>
<circle cx="1350.5" cy="306.5" r="35" fill="#FDFBFB" stroke="#8D99AE" stroke-width="5"/>
<circle cx="1650" cy="307" r="146" fill="#FDFBFB" stroke="#8D99AE" stroke-width="8"/>
<circle cx="1650.5" cy="306.5" r="109" fill="#FDFBFB" stroke="#8D99AE" stroke-width="7"/>
<circle cx="1650" cy="307" r="72" fill="#FDFBFB" stroke="#8D99AE" stroke-width="6"/>
<circle cx="1650.5" cy="306.5" r="35" fill="#FDFBFB" stroke="#8D99AE" stroke-width="5"/>
<circle cx="1950" cy="307" r="146" fill="#FDFBFB" stroke="#8D99AE" stroke-width="8"/>
<circle cx="1950.5" cy="306.5" r="109" fill="#FDFBFB" stroke="#8D99AE" stroke-width="7"/>
<circle cx="1950" cy="307" r="72" fill="#FDFBFB" stroke="#8D99AE" stroke-width="6"/>
<circle cx="1950.5" cy="306.5" r="35" fill="#FDFBFB" stroke="#8D99AE" stroke-width="5"/>
<circle cx="2250" cy="307" r="146" fill="#FDFBFB" stroke="#8D99AE" stroke-width="8"/>
<circle cx="2250.5" cy="306.5" r="109" fill="#FDFBFB" stroke="#8D99AE" stroke-width="7"/>
<circle cx="2250" cy="307" r="72" fill="#FDFBFB" stroke="#8D99AE" stroke-width="6"/>
<circle cx="2250.5" cy="306.5" r="35" fill="#FDFBFB" stroke="#8D99AE" stroke-width="5"/>
<circle cy="382" r="146" fill="#FDFBFB" stroke="#8D99AE" stroke-width="8"/>
<circle cx="0.5" cy="381.5" r="109" fill="#FDFBFB" stroke="#8D99AE" stroke-width="7"/>
<circle cy="382" r="72" fill="#FDFBFB" stroke="#8D99AE" stroke-width="6"/>
<circle cx="0.5" cy="381.5" r="35" fill="#FDFBFB" stroke="#8D99AE" stroke-width="5"/>
<circle cx="300" cy="382" r="146" fill="#FDFBFB" stroke="#8D99AE" stroke-width="8"/>
<circle cx="300.5" cy="381.5" r="109" fill="#FDFBFB" stroke="#8D99AE" stroke-width="7"/>
<circle cx="300" cy="382" r="72" fill="#FDFBFB" stroke="#8D99AE" stroke-width="6"/>
<circle cx="300.5" cy="381.5" r="35" fill="#FDFBFB" stroke="#8D99AE" stroke-width="5"/>
<circle cx="600" cy="382" r="146" fill="#FDFBFB" stroke="#8D99AE" stroke-width="8"/>
<circle cx="600.5" cy="381.5" r="109" fill="#FDFBFB" stroke="#8D99AE" stroke-width="7"/>
<circle cx="600" cy="382" r="72" fill="#FDFBFB" stroke="#8D99AE" stroke-width="6"/>
<circle cx="600.5" cy="381.5" r="35" fill="#FDFBFB" stroke="#8D99AE" stroke-width="5"/>
<circle cx="900" cy="382" r="146" fill="#FDFBFB" stroke="#8D99AE" stroke-width="8"/>
<circle cx="900.5" cy="381.5" r="109" fill="#FDFBFB" stroke="#8D99AE" stroke-width="7"/>
<circle cx="900" cy="382" r="72" fill="#FDFBFB" stroke="#8D99AE" stroke-width="6"/>
<circle cx="900.5" cy="381.5" r="35" fill="#FDFBFB" stroke="#8D99AE" stroke-width="5"/>
<circle cx="1200" cy="382" r="146" fill="#FDFBFB" stroke="#8D99AE" stroke-width="8"/>
<circle cx="1200.5" cy="381.5" r="109" fill="#FDFBFB" stroke="#8D99AE" stroke-width="7"/>
<circle cx="1200" cy="382" r="72" fill="#FDFBFB" stroke="#8D99AE" stroke-width="6"/>
<circle cx="1200.5" cy="381.5" r="35" fill="#FDFBFB" stroke="#8D99AE" stroke-width="5"/>
<circle cx="1500" cy="382" r="146" fill="#FDFBFB" stroke="#8D99AE" stroke-width="8"/>
<circle cx="1500.5" cy="381.5" r="109" fill="#FDFBFB" stroke="#8D99AE" stroke-width="7"/>
<circle cx="1500" cy="382" r="72" fill="#FDFBFB" stroke="#8D99AE" stroke-width="6"/>
<circle cx="1500.5" cy="381.5" r="35" fill="#FDFBFB" stroke="#8D99AE" stroke-width="5"/>
<circle cx="1800" cy="382" r="146" fill="#FDFBFB" stroke="#8D99AE" stroke-width="8"/>
<circle cx="1800.5" cy="381.5" r="109" fill="#FDFBFB" stroke="#8D99AE" stroke-width="7"/>
<circle cx="1800" cy="382" r="72" fill="#FDFBFB" stroke="#8D99AE" stroke-width="6"/>
<circle cx="1800.5" cy="381.5" r="35" fill="#FDFBFB" stroke="#8D99AE" stroke-width="5"/>
<circle cx="2100" cy="382" r="146" fill="#FDFBFB" stroke="#8D99AE" stroke-width="8"/>
<circle cx="2100.5" cy="381.5" r="109" fill="#FDFBFB" stroke="#8D99AE" stroke-width="7"/>
<circle cx="2100" cy="382" r="72" fill="#FDFBFB" stroke="#8D99AE" stroke-width="6"/>
<circle cx="2100.5" cy="381.5" r="35" fill="#FDFBFB" stroke="#8D99AE" stroke-width="5"/>
<circle cx="2400" cy="382" r="146" fill="#FDFBFB" stroke="#8D99AE" stroke-width="8"/>
<circle cx="2400.5" cy="381.5" r="109" fill="#FDFBFB" stroke="#8D99AE" stroke-width="7"/>
<circle cx="2400" cy="382" r="72" fill="#FDFBFB" stroke="#8D99AE" stroke-width="6"/>
<circle cx="2400.5" cy="381.5" r="35" fill="#FDFBFB" stroke="#8D99AE" stroke-width="5"/>
<circle cx="150" cy="457" r="146" fill="#FDFBFB" stroke="#8D99AE" stroke-width="8"/>
<circle cx="150.5" cy="456.5" r="109" fill="#FDFBFB" stroke="#8D99AE" stroke-width="7"/>
<circle cx="150" cy="457" r="72" fill="#FDFBFB" stroke="#8D99AE" stroke-width="6"/>
<circle cx="150.5" cy="456.5" r="35" fill="#FDFBFB" stroke="#8D99AE" stroke-width="5"/>
<circle cx="450" cy="457" r="146" fill="#FDFBFB" stroke="#8D99AE" stroke-width="8"/>
<circle cx="450.5" cy="456.5" r="109" fill="#FDFBFB" stroke="#8D99AE" stroke-width="7"/>
<circle cx="450" cy="457" r="72" fill="#FDFBFB" stroke="#8D99AE" stroke-width="6"/>
<circle cx="450.5" cy="456.5" r="35" fill="#FDFBFB" stroke="#8D99AE" stroke-width="5"/>
<circle cx="750" cy="457" r="146" fill="#FDFBFB" stroke="#8D99AE" stroke-width="8"/>
<circle cx="750.5" cy="456.5" r="109" fill="#FDFBFB" stroke="#8D99AE" stroke-width="7"/>
<circle cx="750" cy="457" r="72" fill="#FDFBFB" stroke="#8D99AE" stroke-width="6"/>
<circle cx="750.5" cy="456.5" r="35" fill="#FDFBFB" stroke="#8D99AE" stroke-width="5"/>
<circle cx="1050" cy="457" r="146" fill="#FDFBFB" stroke="#8D99AE" stroke-width="8"/>
<circle cx="1050.5" cy="456.5" r="109" fill="#FDFBFB" stroke="#8D99AE" stroke-width="7"/>
<circle cx="1050" cy="457" r="72" fill="#FDFBFB" stroke="#8D99AE" stroke-width="6"/>
<circle cx="1050.5" cy="456.5" r="35" fill="#FDFBFB" stroke="#8D99AE" stroke-width="5"/>
<circle cx="1350" cy="457" r="146" fill="#FDFBFB" stroke="#8D99AE" stroke-width="8"/>
<circle cx="1350.5" cy="456.5" r="109" fill="#FDFBFB" stroke="#8D99AE" stroke-width="7"/>
<circle cx="1350" cy="457" r="72" fill="#FDFBFB" stroke="#8D99AE" stroke-width="6"/>
<circle cx="1350.5" cy="456.5" r="35" fill="#FDFBFB" stroke="#8D99AE" stroke-width="5"/>
<circle cx="1650" cy="457" r="146" fill="#FDFBFB" stroke="#8D99AE" stroke-width="8"/>
<circle cx="1650.5" cy="456.5" r="109" fill="#FDFBFB" stroke="#8D99AE" stroke-width="7"/>
<circle cx="1650" cy="457" r="72" fill="#FDFBFB" stroke="#8D99AE" stroke-width="6"/>
<circle cx="1650.5" cy="456.5" r="35" fill="#FDFBFB" stroke="#8D99AE" stroke-width="5"/>
<circle cx="1950" cy="457" r="146" fill="#FDFBFB" stroke="#8D99AE" stroke-width="8"/>
<circle cx="1950.5" cy="456.5" r="109" fill="#FDFBFB" stroke="#8D99AE" stroke-width="7"/>
<circle cx="1950" cy="457" r="72" fill="#FDFBFB" stroke="#8D99AE" stroke-width="6"/>
<circle cx="1950.5" cy="456.5" r="35" fill="#FDFBFB" stroke="#8D99AE" stroke-width="5"/>
<circle cx="2250" cy="457" r="146" fill="#FDFBFB" stroke="#8D99AE" stroke-width="8"/>
<circle cx="2250.5" cy="456.5" r="109" fill="#FDFBFB" stroke="#8D99AE" stroke-width="7"/>
<circle cx="2250" cy="457" r="72" fill="#FDFBFB" stroke="#8D99AE" stroke-width="6"/>
<circle cx="2250.5" cy="456.5" r="35" fill="#FDFBFB" stroke="#8D99AE" stroke-width="5"/>
<circle cy="532" r="146" fill="#FDFBFB" stroke="#8D99AE" stroke-width="8"/>
<circle cx="0.5" cy="531.5" r="109" fill="#FDFBFB" stroke="#8D99AE" stroke-width="7"/>
<circle cx="300" cy="532" r="146" fill="#FDFBFB" stroke="#8D99AE" stroke-width="8"/>
<circle cx="300.5" cy="531.5" r="109" fill="#FDFBFB" stroke="#8D99AE" stroke-width="7"/>
<circle cx="600" cy="532" r="146" fill="#FDFBFB" stroke="#8D99AE" stroke-width="8"/>
<circle cx="600.5" cy="531.5" r="109" fill="#FDFBFB" stroke="#8D99AE" stroke-width="7"/>
<circle cx="900" cy="532" r="146" fill="#FDFBFB" stroke="#8D99AE" stroke-width="8"/>
<circle cx="900.5" cy="531.5" r="109" fill="#FDFBFB" stroke="#8D99AE" stroke-width="7"/>
<circle cx="1200" cy="532" r="146" fill="#FDFBFB" stroke="#8D99AE" stroke-width="8"/>
<circle cx="1200.5" cy="531.5" r="109" fill="#FDFBFB" stroke="#8D99AE" stroke-width="7"/>
<circle cx="1500" cy="532" r="146" fill="#FDFBFB" stroke="#8D99AE" stroke-width="8"/>
<circle cx="1500.5" cy="531.5" r="109" fill="#FDFBFB" stroke="#8D99AE" stroke-width="7"/>
<circle cx="1800" cy="532" r="146" fill="#FDFBFB" stroke="#8D99AE" stroke-width="8"/>
<circle cx="1800.5" cy="531.5" r="109" fill="#FDFBFB" stroke="#8D99AE" stroke-width="7"/>
<circle cx="2100" cy="532" r="146" fill="#FDFBFB" stroke="#8D99AE" stroke-width="8"/>
<circle cx="2100.5" cy="531.5" r="109" fill="#FDFBFB" stroke="#8D99AE" stroke-width="7"/>
<circle cx="2400" cy="532" r="146" fill="#FDFBFB" stroke="#8D99AE" stroke-width="8"/>
<circle cx="2400.5" cy="531.5" r="109" fill="#FDFBFB" stroke="#8D99AE" stroke-width="7"/>
</g>
</g>
<defs>
<linearGradient id="paint0_linear_646_7652" x1="1214.5" y1="0" x2="1214.5" y2="450" gradientUnits="userSpaceOnUse">
<stop offset="0.618818" stop-color="#FDFBFB"/>
<stop offset="1" stop-color="white" stop-opacity="0"/>
</linearGradient>
<clipPath id="clip1_646_7652">
<rect width="2400" height="450" fill="white"/>
</clipPath>
</defs>
</svg>
