<svg width="2400" height="439" viewBox="0 0 2400 439" fill="none" xmlns="http://www.w3.org/2000/svg">
<g clip-path="url(#clip0_648_9080)">
<mask id="mask0_648_9080" style="mask-type:alpha" maskUnits="userSpaceOnUse" x="-213" y="0" width="2843" height="439">
<rect x="-213" width="2843" height="439" fill="url(#paint0_linear_648_9080)"/>
</mask>
<g mask="url(#mask0_648_9080)">
<circle cy="183" r="146" fill="#FDFBFB" stroke="#8D99AE" stroke-width="8"/>
<circle cx="0.5" cy="182.5" r="109" fill="#FDFBFB" stroke="#8D99AE" stroke-width="7"/>
<circle cy="183" r="72" fill="#FDFBFB" stroke="#8D99AE" stroke-width="6"/>
<circle cx="0.5" cy="182.5" r="35" fill="#FDFBFB" stroke="#8D99AE" stroke-width="5"/>
<circle cx="300" cy="183" r="146" fill="#FDFBFB" stroke="#8D99AE" stroke-width="8"/>
<circle cx="300.5" cy="182.5" r="109" fill="#FDFBFB" stroke="#8D99AE" stroke-width="7"/>
<circle cx="300" cy="183" r="72" fill="#FDFBFB" stroke="#8D99AE" stroke-width="6"/>
<circle cx="300.5" cy="182.5" r="35" fill="#FDFBFB" stroke="#8D99AE" stroke-width="5"/>
<circle cx="600" cy="183" r="146" fill="#FDFBFB" stroke="#8D99AE" stroke-width="8"/>
<circle cx="600.5" cy="182.5" r="109" fill="#FDFBFB" stroke="#8D99AE" stroke-width="7"/>
<circle cx="600" cy="183" r="72" fill="#FDFBFB" stroke="#8D99AE" stroke-width="6"/>
<circle cx="600.5" cy="182.5" r="35" fill="#FDFBFB" stroke="#8D99AE" stroke-width="5"/>
<circle cx="900" cy="183" r="146" fill="#FDFBFB" stroke="#8D99AE" stroke-width="8"/>
<circle cx="900.5" cy="182.5" r="109" fill="#FDFBFB" stroke="#8D99AE" stroke-width="7"/>
<circle cx="900" cy="183" r="72" fill="#FDFBFB" stroke="#8D99AE" stroke-width="6"/>
<circle cx="900.5" cy="182.5" r="35" fill="#FDFBFB" stroke="#8D99AE" stroke-width="5"/>
<circle cx="1200" cy="183" r="146" fill="#FDFBFB" stroke="#8D99AE" stroke-width="8"/>
<circle cx="1200.5" cy="182.5" r="109" fill="#FDFBFB" stroke="#8D99AE" stroke-width="7"/>
<circle cx="1200" cy="183" r="72" fill="#FDFBFB" stroke="#8D99AE" stroke-width="6"/>
<circle cx="1200.5" cy="182.5" r="35" fill="#FDFBFB" stroke="#8D99AE" stroke-width="5"/>
<circle cx="1500" cy="183" r="146" fill="#FDFBFB" stroke="#8D99AE" stroke-width="8"/>
<circle cx="1500.5" cy="182.5" r="109" fill="#FDFBFB" stroke="#8D99AE" stroke-width="7"/>
<circle cx="1500" cy="183" r="72" fill="#FDFBFB" stroke="#8D99AE" stroke-width="6"/>
<circle cx="1500.5" cy="182.5" r="35" fill="#FDFBFB" stroke="#8D99AE" stroke-width="5"/>
<circle cx="1800" cy="183" r="146" fill="#FDFBFB" stroke="#8D99AE" stroke-width="8"/>
<circle cx="1800.5" cy="182.5" r="109" fill="#FDFBFB" stroke="#8D99AE" stroke-width="7"/>
<circle cx="1800" cy="183" r="72" fill="#FDFBFB" stroke="#8D99AE" stroke-width="6"/>
<circle cx="1800.5" cy="182.5" r="35" fill="#FDFBFB" stroke="#8D99AE" stroke-width="5"/>
<circle cx="2100" cy="183" r="146" fill="#FDFBFB" stroke="#8D99AE" stroke-width="8"/>
<circle cx="2100.5" cy="182.5" r="109" fill="#FDFBFB" stroke="#8D99AE" stroke-width="7"/>
<circle cx="2100" cy="183" r="72" fill="#FDFBFB" stroke="#8D99AE" stroke-width="6"/>
<circle cx="2100.5" cy="182.5" r="35" fill="#FDFBFB" stroke="#8D99AE" stroke-width="5"/>
<circle cx="2400" cy="183" r="146" fill="#FDFBFB" stroke="#8D99AE" stroke-width="8"/>
<circle cx="2400.5" cy="182.5" r="109" fill="#FDFBFB" stroke="#8D99AE" stroke-width="7"/>
<circle cx="2400" cy="183" r="72" fill="#FDFBFB" stroke="#8D99AE" stroke-width="6"/>
<circle cx="2400.5" cy="182.5" r="35" fill="#FDFBFB" stroke="#8D99AE" stroke-width="5"/>
<circle cx="150" cy="258" r="146" fill="#FDFBFB" stroke="#8D99AE" stroke-width="8"/>
<circle cx="150.5" cy="257.5" r="109" fill="#FDFBFB" stroke="#8D99AE" stroke-width="7"/>
<circle cx="150" cy="258" r="72" fill="#FDFBFB" stroke="#8D99AE" stroke-width="6"/>
<circle cx="150.5" cy="257.5" r="35" fill="#FDFBFB" stroke="#8D99AE" stroke-width="5"/>
<circle cx="450" cy="258" r="146" fill="#FDFBFB" stroke="#8D99AE" stroke-width="8"/>
<circle cx="450.5" cy="257.5" r="109" fill="#FDFBFB" stroke="#8D99AE" stroke-width="7"/>
<circle cx="450" cy="258" r="72" fill="#FDFBFB" stroke="#8D99AE" stroke-width="6"/>
<circle cx="450.5" cy="257.5" r="35" fill="#FDFBFB" stroke="#8D99AE" stroke-width="5"/>
<circle cx="750" cy="258" r="146" fill="#FDFBFB" stroke="#8D99AE" stroke-width="8"/>
<circle cx="750.5" cy="257.5" r="109" fill="#FDFBFB" stroke="#8D99AE" stroke-width="7"/>
<circle cx="750" cy="258" r="72" fill="#FDFBFB" stroke="#8D99AE" stroke-width="6"/>
<circle cx="750.5" cy="257.5" r="35" fill="#FDFBFB" stroke="#8D99AE" stroke-width="5"/>
<circle cx="1050" cy="258" r="146" fill="#FDFBFB" stroke="#8D99AE" stroke-width="8"/>
<circle cx="1050.5" cy="257.5" r="109" fill="#FDFBFB" stroke="#8D99AE" stroke-width="7"/>
<circle cx="1050" cy="258" r="72" fill="#FDFBFB" stroke="#8D99AE" stroke-width="6"/>
<circle cx="1050.5" cy="257.5" r="35" fill="#FDFBFB" stroke="#8D99AE" stroke-width="5"/>
<circle cx="1350" cy="258" r="146" fill="#FDFBFB" stroke="#8D99AE" stroke-width="8"/>
<circle cx="1350.5" cy="257.5" r="109" fill="#FDFBFB" stroke="#8D99AE" stroke-width="7"/>
<circle cx="1350" cy="258" r="72" fill="#FDFBFB" stroke="#8D99AE" stroke-width="6"/>
<circle cx="1350.5" cy="257.5" r="35" fill="#FDFBFB" stroke="#8D99AE" stroke-width="5"/>
<circle cx="1650" cy="258" r="146" fill="#FDFBFB" stroke="#8D99AE" stroke-width="8"/>
<circle cx="1650.5" cy="257.5" r="109" fill="#FDFBFB" stroke="#8D99AE" stroke-width="7"/>
<circle cx="1650" cy="258" r="72" fill="#FDFBFB" stroke="#8D99AE" stroke-width="6"/>
<circle cx="1650.5" cy="257.5" r="35" fill="#FDFBFB" stroke="#8D99AE" stroke-width="5"/>
<circle cx="1950" cy="258" r="146" fill="#FDFBFB" stroke="#8D99AE" stroke-width="8"/>
<circle cx="1950.5" cy="257.5" r="109" fill="#FDFBFB" stroke="#8D99AE" stroke-width="7"/>
<circle cx="1950" cy="258" r="72" fill="#FDFBFB" stroke="#8D99AE" stroke-width="6"/>
<circle cx="1950.5" cy="257.5" r="35" fill="#FDFBFB" stroke="#8D99AE" stroke-width="5"/>
<circle cx="2250" cy="258" r="146" fill="#FDFBFB" stroke="#8D99AE" stroke-width="8"/>
<circle cx="2250.5" cy="257.5" r="109" fill="#FDFBFB" stroke="#8D99AE" stroke-width="7"/>
<circle cx="2250" cy="258" r="72" fill="#FDFBFB" stroke="#8D99AE" stroke-width="6"/>
<circle cx="2250.5" cy="257.5" r="35" fill="#FDFBFB" stroke="#8D99AE" stroke-width="5"/>
<circle cy="333" r="146" fill="#FDFBFB" stroke="#8D99AE" stroke-width="8"/>
<circle cx="0.5" cy="332.5" r="109" fill="#FDFBFB" stroke="#8D99AE" stroke-width="7"/>
<circle cy="333" r="72" fill="#FDFBFB" stroke="#8D99AE" stroke-width="6"/>
<circle cx="0.5" cy="332.5" r="35" fill="#FDFBFB" stroke="#8D99AE" stroke-width="5"/>
<circle cx="300" cy="333" r="146" fill="#FDFBFB" stroke="#8D99AE" stroke-width="8"/>
<circle cx="300.5" cy="332.5" r="109" fill="#FDFBFB" stroke="#8D99AE" stroke-width="7"/>
<circle cx="300" cy="333" r="72" fill="#FDFBFB" stroke="#8D99AE" stroke-width="6"/>
<circle cx="300.5" cy="332.5" r="35" fill="#FDFBFB" stroke="#8D99AE" stroke-width="5"/>
<circle cx="600" cy="333" r="146" fill="#FDFBFB" stroke="#8D99AE" stroke-width="8"/>
<circle cx="600.5" cy="332.5" r="109" fill="#FDFBFB" stroke="#8D99AE" stroke-width="7"/>
<circle cx="600" cy="333" r="72" fill="#FDFBFB" stroke="#8D99AE" stroke-width="6"/>
<circle cx="600.5" cy="332.5" r="35" fill="#FDFBFB" stroke="#8D99AE" stroke-width="5"/>
<circle cx="900" cy="333" r="146" fill="#FDFBFB" stroke="#8D99AE" stroke-width="8"/>
<circle cx="900.5" cy="332.5" r="109" fill="#FDFBFB" stroke="#8D99AE" stroke-width="7"/>
<circle cx="900" cy="333" r="72" fill="#FDFBFB" stroke="#8D99AE" stroke-width="6"/>
<circle cx="900.5" cy="332.5" r="35" fill="#FDFBFB" stroke="#8D99AE" stroke-width="5"/>
<circle cx="1200" cy="333" r="146" fill="#FDFBFB" stroke="#8D99AE" stroke-width="8"/>
<circle cx="1200.5" cy="332.5" r="109" fill="#FDFBFB" stroke="#8D99AE" stroke-width="7"/>
<circle cx="1200" cy="333" r="72" fill="#FDFBFB" stroke="#8D99AE" stroke-width="6"/>
<circle cx="1200.5" cy="332.5" r="35" fill="#FDFBFB" stroke="#8D99AE" stroke-width="5"/>
<circle cx="1500" cy="333" r="146" fill="#FDFBFB" stroke="#8D99AE" stroke-width="8"/>
<circle cx="1500.5" cy="332.5" r="109" fill="#FDFBFB" stroke="#8D99AE" stroke-width="7"/>
<circle cx="1500" cy="333" r="72" fill="#FDFBFB" stroke="#8D99AE" stroke-width="6"/>
<circle cx="1500.5" cy="332.5" r="35" fill="#FDFBFB" stroke="#8D99AE" stroke-width="5"/>
<circle cx="1800" cy="333" r="146" fill="#FDFBFB" stroke="#8D99AE" stroke-width="8"/>
<circle cx="1800.5" cy="332.5" r="109" fill="#FDFBFB" stroke="#8D99AE" stroke-width="7"/>
<circle cx="1800" cy="333" r="72" fill="#FDFBFB" stroke="#8D99AE" stroke-width="6"/>
<circle cx="1800.5" cy="332.5" r="35" fill="#FDFBFB" stroke="#8D99AE" stroke-width="5"/>
<circle cx="2100" cy="333" r="146" fill="#FDFBFB" stroke="#8D99AE" stroke-width="8"/>
<circle cx="2100.5" cy="332.5" r="109" fill="#FDFBFB" stroke="#8D99AE" stroke-width="7"/>
<circle cx="2100" cy="333" r="72" fill="#FDFBFB" stroke="#8D99AE" stroke-width="6"/>
<circle cx="2100.5" cy="332.5" r="35" fill="#FDFBFB" stroke="#8D99AE" stroke-width="5"/>
<circle cx="2400" cy="333" r="146" fill="#FDFBFB" stroke="#8D99AE" stroke-width="8"/>
<circle cx="2400.5" cy="332.5" r="109" fill="#FDFBFB" stroke="#8D99AE" stroke-width="7"/>
<circle cx="2400" cy="333" r="72" fill="#FDFBFB" stroke="#8D99AE" stroke-width="6"/>
<circle cx="2400.5" cy="332.5" r="35" fill="#FDFBFB" stroke="#8D99AE" stroke-width="5"/>
<circle cx="150" cy="408" r="146" fill="#FDFBFB" stroke="#8D99AE" stroke-width="8"/>
<circle cx="150.5" cy="407.5" r="109" fill="#FDFBFB" stroke="#8D99AE" stroke-width="7"/>
<circle cx="150" cy="408" r="72" fill="#FDFBFB" stroke="#8D99AE" stroke-width="6"/>
<circle cx="150.5" cy="407.5" r="35" fill="#FDFBFB" stroke="#8D99AE" stroke-width="5"/>
<circle cx="450" cy="408" r="146" fill="#FDFBFB" stroke="#8D99AE" stroke-width="8"/>
<circle cx="450.5" cy="407.5" r="109" fill="#FDFBFB" stroke="#8D99AE" stroke-width="7"/>
<circle cx="450" cy="408" r="72" fill="#FDFBFB" stroke="#8D99AE" stroke-width="6"/>
<circle cx="450.5" cy="407.5" r="35" fill="#FDFBFB" stroke="#8D99AE" stroke-width="5"/>
<circle cx="750" cy="408" r="146" fill="#FDFBFB" stroke="#8D99AE" stroke-width="8"/>
<circle cx="750.5" cy="407.5" r="109" fill="#FDFBFB" stroke="#8D99AE" stroke-width="7"/>
<circle cx="750" cy="408" r="72" fill="#FDFBFB" stroke="#8D99AE" stroke-width="6"/>
<circle cx="750.5" cy="407.5" r="35" fill="#FDFBFB" stroke="#8D99AE" stroke-width="5"/>
<circle cx="1050" cy="408" r="146" fill="#FDFBFB" stroke="#8D99AE" stroke-width="8"/>
<circle cx="1050.5" cy="407.5" r="109" fill="#FDFBFB" stroke="#8D99AE" stroke-width="7"/>
<circle cx="1050" cy="408" r="72" fill="#FDFBFB" stroke="#8D99AE" stroke-width="6"/>
<circle cx="1050.5" cy="407.5" r="35" fill="#FDFBFB" stroke="#8D99AE" stroke-width="5"/>
<circle cx="1350" cy="408" r="146" fill="#FDFBFB" stroke="#8D99AE" stroke-width="8"/>
<circle cx="1350.5" cy="407.5" r="109" fill="#FDFBFB" stroke="#8D99AE" stroke-width="7"/>
<circle cx="1350" cy="408" r="72" fill="#FDFBFB" stroke="#8D99AE" stroke-width="6"/>
<circle cx="1350.5" cy="407.5" r="35" fill="#FDFBFB" stroke="#8D99AE" stroke-width="5"/>
<circle cx="1650" cy="408" r="146" fill="#FDFBFB" stroke="#8D99AE" stroke-width="8"/>
<circle cx="1650.5" cy="407.5" r="109" fill="#FDFBFB" stroke="#8D99AE" stroke-width="7"/>
<circle cx="1650" cy="408" r="72" fill="#FDFBFB" stroke="#8D99AE" stroke-width="6"/>
<circle cx="1650.5" cy="407.5" r="35" fill="#FDFBFB" stroke="#8D99AE" stroke-width="5"/>
<circle cx="1950" cy="408" r="146" fill="#FDFBFB" stroke="#8D99AE" stroke-width="8"/>
<circle cx="1950.5" cy="407.5" r="109" fill="#FDFBFB" stroke="#8D99AE" stroke-width="7"/>
<circle cx="1950" cy="408" r="72" fill="#FDFBFB" stroke="#8D99AE" stroke-width="6"/>
<circle cx="1950.5" cy="407.5" r="35" fill="#FDFBFB" stroke="#8D99AE" stroke-width="5"/>
<circle cx="2250" cy="408" r="146" fill="#FDFBFB" stroke="#8D99AE" stroke-width="8"/>
<circle cx="2250.5" cy="407.5" r="109" fill="#FDFBFB" stroke="#8D99AE" stroke-width="7"/>
<circle cx="2250" cy="408" r="72" fill="#FDFBFB" stroke="#8D99AE" stroke-width="6"/>
<circle cx="2250.5" cy="407.5" r="35" fill="#FDFBFB" stroke="#8D99AE" stroke-width="5"/>
<circle cy="483" r="146" fill="#FDFBFB" stroke="#8D99AE" stroke-width="8"/>
<circle cx="0.5" cy="482.5" r="109" fill="#FDFBFB" stroke="#8D99AE" stroke-width="7"/>
<circle cy="483" r="72" fill="#FDFBFB" stroke="#8D99AE" stroke-width="6"/>
<circle cx="300" cy="483" r="146" fill="#FDFBFB" stroke="#8D99AE" stroke-width="8"/>
<circle cx="300.5" cy="482.5" r="109" fill="#FDFBFB" stroke="#8D99AE" stroke-width="7"/>
<circle cx="300" cy="483" r="72" fill="#FDFBFB" stroke="#8D99AE" stroke-width="6"/>
<circle cx="600" cy="483" r="146" fill="#FDFBFB" stroke="#8D99AE" stroke-width="8"/>
<circle cx="600.5" cy="482.5" r="109" fill="#FDFBFB" stroke="#8D99AE" stroke-width="7"/>
<circle cx="600" cy="483" r="72" fill="#FDFBFB" stroke="#8D99AE" stroke-width="6"/>
<circle cx="900" cy="483" r="146" fill="#FDFBFB" stroke="#8D99AE" stroke-width="8"/>
<circle cx="900.5" cy="482.5" r="109" fill="#FDFBFB" stroke="#8D99AE" stroke-width="7"/>
<circle cx="900" cy="483" r="72" fill="#FDFBFB" stroke="#8D99AE" stroke-width="6"/>
<circle cx="1200" cy="483" r="146" fill="#FDFBFB" stroke="#8D99AE" stroke-width="8"/>
<circle cx="1200.5" cy="482.5" r="109" fill="#FDFBFB" stroke="#8D99AE" stroke-width="7"/>
<circle cx="1200" cy="483" r="72" fill="#FDFBFB" stroke="#8D99AE" stroke-width="6"/>
<circle cx="1500" cy="483" r="146" fill="#FDFBFB" stroke="#8D99AE" stroke-width="8"/>
<circle cx="1500.5" cy="482.5" r="109" fill="#FDFBFB" stroke="#8D99AE" stroke-width="7"/>
<circle cx="1500" cy="483" r="72" fill="#FDFBFB" stroke="#8D99AE" stroke-width="6"/>
<circle cx="1800" cy="483" r="146" fill="#FDFBFB" stroke="#8D99AE" stroke-width="8"/>
<circle cx="1800.5" cy="482.5" r="109" fill="#FDFBFB" stroke="#8D99AE" stroke-width="7"/>
<circle cx="1800" cy="483" r="72" fill="#FDFBFB" stroke="#8D99AE" stroke-width="6"/>
<circle cx="2100" cy="483" r="146" fill="#FDFBFB" stroke="#8D99AE" stroke-width="8"/>
<circle cx="2100.5" cy="482.5" r="109" fill="#FDFBFB" stroke="#8D99AE" stroke-width="7"/>
<circle cx="2100" cy="483" r="72" fill="#FDFBFB" stroke="#8D99AE" stroke-width="6"/>
<circle cx="2400" cy="483" r="146" fill="#FDFBFB" stroke="#8D99AE" stroke-width="8"/>
<circle cx="2400.5" cy="482.5" r="109" fill="#FDFBFB" stroke="#8D99AE" stroke-width="7"/>
<circle cx="2400" cy="483" r="72" fill="#FDFBFB" stroke="#8D99AE" stroke-width="6"/>
<circle cx="150" cy="558" r="146" fill="#FDFBFB" stroke="#8D99AE" stroke-width="8"/>
<circle cx="450" cy="558" r="146" fill="#FDFBFB" stroke="#8D99AE" stroke-width="8"/>
<circle cx="750" cy="558" r="146" fill="#FDFBFB" stroke="#8D99AE" stroke-width="8"/>
<circle cx="1050" cy="558" r="146" fill="#FDFBFB" stroke="#8D99AE" stroke-width="8"/>
<circle cx="1350" cy="558" r="146" fill="#FDFBFB" stroke="#8D99AE" stroke-width="8"/>
<circle cx="1650" cy="558" r="146" fill="#FDFBFB" stroke="#8D99AE" stroke-width="8"/>
<circle cx="1950" cy="558" r="146" fill="#FDFBFB" stroke="#8D99AE" stroke-width="8"/>
<circle cx="2250" cy="558" r="146" fill="#FDFBFB" stroke="#8D99AE" stroke-width="8"/>
</g>
</g>
<defs>
<linearGradient id="paint0_linear_648_9080" x1="1208.5" y1="0" x2="1208.5" y2="439" gradientUnits="userSpaceOnUse">
<stop offset="0.9999" stop-color="#FDFBFB"/>
<stop offset="1" stop-color="white" stop-opacity="0"/>
</linearGradient>
<clipPath id="clip0_648_9080">
<rect width="2400" height="439" fill="white"/>
</clipPath>
</defs>
</svg>
