<svg width="2400" height="439" viewBox="0 0 2400 439" fill="none" xmlns="http://www.w3.org/2000/svg">
<g clip-path="url(#clip0_935_9371)">
<path d="M0 329C80.6336 329 146 263.634 146 183C146 102.366 80.6336 37 0 37C-80.6336 37 -146 102.366 -146 183C-146 263.634 -80.6336 329 0 329Z" fill="#FDFBFB" stroke="#8D99AE" stroke-width="8"/>
<path d="M0.5 291.5C60.699 291.5 109.5 242.699 109.5 182.5C109.5 122.301 60.699 73.5 0.5 73.5C-59.699 73.5 -108.5 122.301 -108.5 182.5C-108.5 242.699 -59.699 291.5 0.5 291.5Z" fill="#FDFBFB" stroke="#8D99AE" stroke-width="7"/>
<path d="M0 255C39.7645 255 72 222.765 72 183C72 143.235 39.7645 111 0 111C-39.7645 111 -72 143.235 -72 183C-72 222.765 -39.7645 255 0 255Z" fill="#FDFBFB" stroke="#8D99AE" stroke-width="6"/>
<path d="M0.5 217.5C19.83 217.5 35.5 201.83 35.5 182.5C35.5 163.17 19.83 147.5 0.5 147.5C-18.83 147.5 -34.5 163.17 -34.5 182.5C-34.5 201.83 -18.83 217.5 0.5 217.5Z" fill="#FDFBFB" stroke="#8D99AE" stroke-width="5"/>
<path d="M300 329C380.634 329 446 263.634 446 183C446 102.366 380.634 37 300 37C219.366 37 154 102.366 154 183C154 263.634 219.366 329 300 329Z" fill="#FDFBFB" stroke="#8D99AE" stroke-width="8"/>
<path d="M300.5 291.5C360.699 291.5 409.5 242.699 409.5 182.5C409.5 122.301 360.699 73.5 300.5 73.5C240.301 73.5 191.5 122.301 191.5 182.5C191.5 242.699 240.301 291.5 300.5 291.5Z" fill="#FDFBFB" stroke="#8D99AE" stroke-width="7"/>
<path d="M300 255C339.765 255 372 222.765 372 183C372 143.235 339.765 111 300 111C260.235 111 228 143.235 228 183C228 222.765 260.235 255 300 255Z" fill="#FDFBFB" stroke="#8D99AE" stroke-width="6"/>
<path d="M300.5 217.5C319.83 217.5 335.5 201.83 335.5 182.5C335.5 163.17 319.83 147.5 300.5 147.5C281.17 147.5 265.5 163.17 265.5 182.5C265.5 201.83 281.17 217.5 300.5 217.5Z" fill="#FDFBFB" stroke="#8D99AE" stroke-width="5"/>
<path d="M600 329C680.634 329 746 263.634 746 183C746 102.366 680.634 37 600 37C519.366 37 454 102.366 454 183C454 263.634 519.366 329 600 329Z" fill="#FDFBFB" stroke="#8D99AE" stroke-width="8"/>
<path d="M600.5 291.5C660.699 291.5 709.5 242.699 709.5 182.5C709.5 122.301 660.699 73.5 600.5 73.5C540.301 73.5 491.5 122.301 491.5 182.5C491.5 242.699 540.301 291.5 600.5 291.5Z" fill="#FDFBFB" stroke="#8D99AE" stroke-width="7"/>
<path d="M600 255C639.765 255 672 222.765 672 183C672 143.235 639.765 111 600 111C560.235 111 528 143.235 528 183C528 222.765 560.235 255 600 255Z" fill="#FDFBFB" stroke="#8D99AE" stroke-width="6"/>
<path d="M600.5 217.5C619.83 217.5 635.5 201.83 635.5 182.5C635.5 163.17 619.83 147.5 600.5 147.5C581.17 147.5 565.5 163.17 565.5 182.5C565.5 201.83 581.17 217.5 600.5 217.5Z" fill="#FDFBFB" stroke="#8D99AE" stroke-width="5"/>
<path d="M900 329C980.634 329 1046 263.634 1046 183C1046 102.366 980.634 37 900 37C819.366 37 754 102.366 754 183C754 263.634 819.366 329 900 329Z" fill="#FDFBFB" stroke="#8D99AE" stroke-width="8"/>
<path d="M900.5 291.5C960.699 291.5 1009.5 242.699 1009.5 182.5C1009.5 122.301 960.699 73.5 900.5 73.5C840.301 73.5 791.5 122.301 791.5 182.5C791.5 242.699 840.301 291.5 900.5 291.5Z" fill="#FDFBFB" stroke="#8D99AE" stroke-width="7"/>
<path d="M900 255C939.765 255 972 222.765 972 183C972 143.235 939.765 111 900 111C860.235 111 828 143.235 828 183C828 222.765 860.235 255 900 255Z" fill="#FDFBFB" stroke="#8D99AE" stroke-width="6"/>
<path d="M900.5 217.5C919.83 217.5 935.5 201.83 935.5 182.5C935.5 163.17 919.83 147.5 900.5 147.5C881.17 147.5 865.5 163.17 865.5 182.5C865.5 201.83 881.17 217.5 900.5 217.5Z" fill="#FDFBFB" stroke="#8D99AE" stroke-width="5"/>
<path d="M1200 329C1280.63 329 1346 263.634 1346 183C1346 102.366 1280.63 37 1200 37C1119.37 37 1054 102.366 1054 183C1054 263.634 1119.37 329 1200 329Z" fill="#FDFBFB" stroke="#8D99AE" stroke-width="8"/>
<path d="M1200.5 291.5C1260.7 291.5 1309.5 242.699 1309.5 182.5C1309.5 122.301 1260.7 73.5 1200.5 73.5C1140.3 73.5 1091.5 122.301 1091.5 182.5C1091.5 242.699 1140.3 291.5 1200.5 291.5Z" fill="#FDFBFB" stroke="#8D99AE" stroke-width="7"/>
<path d="M1200 255C1239.76 255 1272 222.765 1272 183C1272 143.235 1239.76 111 1200 111C1160.24 111 1128 143.235 1128 183C1128 222.765 1160.24 255 1200 255Z" fill="#FDFBFB" stroke="#8D99AE" stroke-width="6"/>
<path d="M1200.5 217.5C1219.83 217.5 1235.5 201.83 1235.5 182.5C1235.5 163.17 1219.83 147.5 1200.5 147.5C1181.17 147.5 1165.5 163.17 1165.5 182.5C1165.5 201.83 1181.17 217.5 1200.5 217.5Z" fill="#FDFBFB" stroke="#8D99AE" stroke-width="5"/>
<path d="M1500 329C1580.63 329 1646 263.634 1646 183C1646 102.366 1580.63 37 1500 37C1419.37 37 1354 102.366 1354 183C1354 263.634 1419.37 329 1500 329Z" fill="#FDFBFB" stroke="#8D99AE" stroke-width="8"/>
<path d="M1500.5 291.5C1560.7 291.5 1609.5 242.699 1609.5 182.5C1609.5 122.301 1560.7 73.5 1500.5 73.5C1440.3 73.5 1391.5 122.301 1391.5 182.5C1391.5 242.699 1440.3 291.5 1500.5 291.5Z" fill="#FDFBFB" stroke="#8D99AE" stroke-width="7"/>
<path d="M1500 255C1539.76 255 1572 222.765 1572 183C1572 143.235 1539.76 111 1500 111C1460.24 111 1428 143.235 1428 183C1428 222.765 1460.24 255 1500 255Z" fill="#FDFBFB" stroke="#8D99AE" stroke-width="6"/>
<path d="M1500.5 217.5C1519.83 217.5 1535.5 201.83 1535.5 182.5C1535.5 163.17 1519.83 147.5 1500.5 147.5C1481.17 147.5 1465.5 163.17 1465.5 182.5C1465.5 201.83 1481.17 217.5 1500.5 217.5Z" fill="#FDFBFB" stroke="#8D99AE" stroke-width="5"/>
<path d="M1800 329C1880.63 329 1946 263.634 1946 183C1946 102.366 1880.63 37 1800 37C1719.37 37 1654 102.366 1654 183C1654 263.634 1719.37 329 1800 329Z" fill="#FDFBFB" stroke="#8D99AE" stroke-width="8"/>
<path d="M1800.5 291.5C1860.7 291.5 1909.5 242.699 1909.5 182.5C1909.5 122.301 1860.7 73.5 1800.5 73.5C1740.3 73.5 1691.5 122.301 1691.5 182.5C1691.5 242.699 1740.3 291.5 1800.5 291.5Z" fill="#FDFBFB" stroke="#8D99AE" stroke-width="7"/>
<path d="M1800 255C1839.76 255 1872 222.765 1872 183C1872 143.235 1839.76 111 1800 111C1760.24 111 1728 143.235 1728 183C1728 222.765 1760.24 255 1800 255Z" fill="#FDFBFB" stroke="#8D99AE" stroke-width="6"/>
<path d="M1800.5 217.5C1819.83 217.5 1835.5 201.83 1835.5 182.5C1835.5 163.17 1819.83 147.5 1800.5 147.5C1781.17 147.5 1765.5 163.17 1765.5 182.5C1765.5 201.83 1781.17 217.5 1800.5 217.5Z" fill="#FDFBFB" stroke="#8D99AE" stroke-width="5"/>
<path d="M2100 329C2180.63 329 2246 263.634 2246 183C2246 102.366 2180.63 37 2100 37C2019.37 37 1954 102.366 1954 183C1954 263.634 2019.37 329 2100 329Z" fill="#FDFBFB" stroke="#8D99AE" stroke-width="8"/>
<path d="M2100.5 291.5C2160.7 291.5 2209.5 242.699 2209.5 182.5C2209.5 122.301 2160.7 73.5 2100.5 73.5C2040.3 73.5 1991.5 122.301 1991.5 182.5C1991.5 242.699 2040.3 291.5 2100.5 291.5Z" fill="#FDFBFB" stroke="#8D99AE" stroke-width="7"/>
<path d="M2100 255C2139.76 255 2172 222.765 2172 183C2172 143.235 2139.76 111 2100 111C2060.24 111 2028 143.235 2028 183C2028 222.765 2060.24 255 2100 255Z" fill="#FDFBFB" stroke="#8D99AE" stroke-width="6"/>
<path d="M2100.5 217.5C2119.83 217.5 2135.5 201.83 2135.5 182.5C2135.5 163.17 2119.83 147.5 2100.5 147.5C2081.17 147.5 2065.5 163.17 2065.5 182.5C2065.5 201.83 2081.17 217.5 2100.5 217.5Z" fill="#FDFBFB" stroke="#8D99AE" stroke-width="5"/>
<path d="M2400 329C2480.63 329 2546 263.634 2546 183C2546 102.366 2480.63 37 2400 37C2319.37 37 2254 102.366 2254 183C2254 263.634 2319.37 329 2400 329Z" fill="#FDFBFB" stroke="#8D99AE" stroke-width="8"/>
<path d="M2400.5 291.5C2460.7 291.5 2509.5 242.699 2509.5 182.5C2509.5 122.301 2460.7 73.5 2400.5 73.5C2340.3 73.5 2291.5 122.301 2291.5 182.5C2291.5 242.699 2340.3 291.5 2400.5 291.5Z" fill="#FDFBFB" stroke="#8D99AE" stroke-width="7"/>
<path d="M2400 255C2439.76 255 2472 222.765 2472 183C2472 143.235 2439.76 111 2400 111C2360.24 111 2328 143.235 2328 183C2328 222.765 2360.24 255 2400 255Z" fill="#FDFBFB" stroke="#8D99AE" stroke-width="6"/>
<path d="M2400.5 217.5C2419.83 217.5 2435.5 201.83 2435.5 182.5C2435.5 163.17 2419.83 147.5 2400.5 147.5C2381.17 147.5 2365.5 163.17 2365.5 182.5C2365.5 201.83 2381.17 217.5 2400.5 217.5Z" fill="#FDFBFB" stroke="#8D99AE" stroke-width="5"/>
<path d="M150 404C230.634 404 296 338.634 296 258C296 177.366 230.634 112 150 112C69.3664 112 4 177.366 4 258C4 338.634 69.3664 404 150 404Z" fill="#FDFBFB" stroke="#8D99AE" stroke-width="8"/>
<path d="M150.5 366.5C210.699 366.5 259.5 317.699 259.5 257.5C259.5 197.301 210.699 148.5 150.5 148.5C90.301 148.5 41.5 197.301 41.5 257.5C41.5 317.699 90.301 366.5 150.5 366.5Z" fill="#FDFBFB" stroke="#8D99AE" stroke-width="7"/>
<path d="M150 330C189.765 330 222 297.765 222 258C222 218.235 189.765 186 150 186C110.235 186 78 218.235 78 258C78 297.765 110.235 330 150 330Z" fill="#FDFBFB" stroke="#8D99AE" stroke-width="6"/>
<path d="M150.5 292.5C169.83 292.5 185.5 276.83 185.5 257.5C185.5 238.17 169.83 222.5 150.5 222.5C131.17 222.5 115.5 238.17 115.5 257.5C115.5 276.83 131.17 292.5 150.5 292.5Z" fill="#FDFBFB" stroke="#8D99AE" stroke-width="5"/>
<path d="M450 404C530.634 404 596 338.634 596 258C596 177.366 530.634 112 450 112C369.366 112 304 177.366 304 258C304 338.634 369.366 404 450 404Z" fill="#FDFBFB" stroke="#8D99AE" stroke-width="8"/>
<path d="M450.5 366.5C510.699 366.5 559.5 317.699 559.5 257.5C559.5 197.301 510.699 148.5 450.5 148.5C390.301 148.5 341.5 197.301 341.5 257.5C341.5 317.699 390.301 366.5 450.5 366.5Z" fill="#FDFBFB" stroke="#8D99AE" stroke-width="7"/>
<path d="M450 330C489.765 330 522 297.765 522 258C522 218.235 489.765 186 450 186C410.235 186 378 218.235 378 258C378 297.765 410.235 330 450 330Z" fill="#FDFBFB" stroke="#8D99AE" stroke-width="6"/>
<path d="M450.5 292.5C469.83 292.5 485.5 276.83 485.5 257.5C485.5 238.17 469.83 222.5 450.5 222.5C431.17 222.5 415.5 238.17 415.5 257.5C415.5 276.83 431.17 292.5 450.5 292.5Z" fill="#FDFBFB" stroke="#8D99AE" stroke-width="5"/>
<path d="M750 404C830.634 404 896 338.634 896 258C896 177.366 830.634 112 750 112C669.366 112 604 177.366 604 258C604 338.634 669.366 404 750 404Z" fill="#FDFBFB" stroke="#8D99AE" stroke-width="8"/>
<path d="M750.5 366.5C810.699 366.5 859.5 317.699 859.5 257.5C859.5 197.301 810.699 148.5 750.5 148.5C690.301 148.5 641.5 197.301 641.5 257.5C641.5 317.699 690.301 366.5 750.5 366.5Z" fill="#FDFBFB" stroke="#8D99AE" stroke-width="7"/>
<path d="M750 330C789.765 330 822 297.765 822 258C822 218.235 789.765 186 750 186C710.235 186 678 218.235 678 258C678 297.765 710.235 330 750 330Z" fill="#FDFBFB" stroke="#8D99AE" stroke-width="6"/>
<path d="M750.5 292.5C769.83 292.5 785.5 276.83 785.5 257.5C785.5 238.17 769.83 222.5 750.5 222.5C731.17 222.5 715.5 238.17 715.5 257.5C715.5 276.83 731.17 292.5 750.5 292.5Z" fill="#FDFBFB" stroke="#8D99AE" stroke-width="5"/>
<path d="M1050 404C1130.63 404 1196 338.634 1196 258C1196 177.366 1130.63 112 1050 112C969.366 112 904 177.366 904 258C904 338.634 969.366 404 1050 404Z" fill="#FDFBFB" stroke="#8D99AE" stroke-width="8"/>
<path d="M1050.5 366.5C1110.7 366.5 1159.5 317.699 1159.5 257.5C1159.5 197.301 1110.7 148.5 1050.5 148.5C990.301 148.5 941.5 197.301 941.5 257.5C941.5 317.699 990.301 366.5 1050.5 366.5Z" fill="#FDFBFB" stroke="#8D99AE" stroke-width="7"/>
<path d="M1050 330C1089.76 330 1122 297.765 1122 258C1122 218.235 1089.76 186 1050 186C1010.24 186 978 218.235 978 258C978 297.765 1010.24 330 1050 330Z" fill="#FDFBFB" stroke="#8D99AE" stroke-width="6"/>
<path d="M1050.5 292.5C1069.83 292.5 1085.5 276.83 1085.5 257.5C1085.5 238.17 1069.83 222.5 1050.5 222.5C1031.17 222.5 1015.5 238.17 1015.5 257.5C1015.5 276.83 1031.17 292.5 1050.5 292.5Z" fill="#FDFBFB" stroke="#8D99AE" stroke-width="5"/>
<path d="M1350 404C1430.63 404 1496 338.634 1496 258C1496 177.366 1430.63 112 1350 112C1269.37 112 1204 177.366 1204 258C1204 338.634 1269.37 404 1350 404Z" fill="#FDFBFB" stroke="#8D99AE" stroke-width="8"/>
<path d="M1350.5 366.5C1410.7 366.5 1459.5 317.699 1459.5 257.5C1459.5 197.301 1410.7 148.5 1350.5 148.5C1290.3 148.5 1241.5 197.301 1241.5 257.5C1241.5 317.699 1290.3 366.5 1350.5 366.5Z" fill="#FDFBFB" stroke="#8D99AE" stroke-width="7"/>
<path d="M1350 330C1389.76 330 1422 297.765 1422 258C1422 218.235 1389.76 186 1350 186C1310.24 186 1278 218.235 1278 258C1278 297.765 1310.24 330 1350 330Z" fill="#FDFBFB" stroke="#8D99AE" stroke-width="6"/>
<path d="M1350.5 292.5C1369.83 292.5 1385.5 276.83 1385.5 257.5C1385.5 238.17 1369.83 222.5 1350.5 222.5C1331.17 222.5 1315.5 238.17 1315.5 257.5C1315.5 276.83 1331.17 292.5 1350.5 292.5Z" fill="#FDFBFB" stroke="#8D99AE" stroke-width="5"/>
<path d="M1650 404C1730.63 404 1796 338.634 1796 258C1796 177.366 1730.63 112 1650 112C1569.37 112 1504 177.366 1504 258C1504 338.634 1569.37 404 1650 404Z" fill="#FDFBFB" stroke="#8D99AE" stroke-width="8"/>
<path d="M1650.5 366.5C1710.7 366.5 1759.5 317.699 1759.5 257.5C1759.5 197.301 1710.7 148.5 1650.5 148.5C1590.3 148.5 1541.5 197.301 1541.5 257.5C1541.5 317.699 1590.3 366.5 1650.5 366.5Z" fill="#FDFBFB" stroke="#8D99AE" stroke-width="7"/>
<path d="M1650 330C1689.76 330 1722 297.765 1722 258C1722 218.235 1689.76 186 1650 186C1610.24 186 1578 218.235 1578 258C1578 297.765 1610.24 330 1650 330Z" fill="#FDFBFB" stroke="#8D99AE" stroke-width="6"/>
<path d="M1650.5 292.5C1669.83 292.5 1685.5 276.83 1685.5 257.5C1685.5 238.17 1669.83 222.5 1650.5 222.5C1631.17 222.5 1615.5 238.17 1615.5 257.5C1615.5 276.83 1631.17 292.5 1650.5 292.5Z" fill="#FDFBFB" stroke="#8D99AE" stroke-width="5"/>
<path d="M1950 404C2030.63 404 2096 338.634 2096 258C2096 177.366 2030.63 112 1950 112C1869.37 112 1804 177.366 1804 258C1804 338.634 1869.37 404 1950 404Z" fill="#FDFBFB" stroke="#8D99AE" stroke-width="8"/>
<path d="M1950.5 366.5C2010.7 366.5 2059.5 317.699 2059.5 257.5C2059.5 197.301 2010.7 148.5 1950.5 148.5C1890.3 148.5 1841.5 197.301 1841.5 257.5C1841.5 317.699 1890.3 366.5 1950.5 366.5Z" fill="#FDFBFB" stroke="#8D99AE" stroke-width="7"/>
<path d="M1950 330C1989.76 330 2022 297.765 2022 258C2022 218.235 1989.76 186 1950 186C1910.24 186 1878 218.235 1878 258C1878 297.765 1910.24 330 1950 330Z" fill="#FDFBFB" stroke="#8D99AE" stroke-width="6"/>
<path d="M1950.5 292.5C1969.83 292.5 1985.5 276.83 1985.5 257.5C1985.5 238.17 1969.83 222.5 1950.5 222.5C1931.17 222.5 1915.5 238.17 1915.5 257.5C1915.5 276.83 1931.17 292.5 1950.5 292.5Z" fill="#FDFBFB" stroke="#8D99AE" stroke-width="5"/>
<path d="M2250 404C2330.63 404 2396 338.634 2396 258C2396 177.366 2330.63 112 2250 112C2169.37 112 2104 177.366 2104 258C2104 338.634 2169.37 404 2250 404Z" fill="#FDFBFB" stroke="#8D99AE" stroke-width="8"/>
<path d="M2250.5 366.5C2310.7 366.5 2359.5 317.699 2359.5 257.5C2359.5 197.301 2310.7 148.5 2250.5 148.5C2190.3 148.5 2141.5 197.301 2141.5 257.5C2141.5 317.699 2190.3 366.5 2250.5 366.5Z" fill="#FDFBFB" stroke="#8D99AE" stroke-width="7"/>
<path d="M2250 330C2289.76 330 2322 297.765 2322 258C2322 218.235 2289.76 186 2250 186C2210.24 186 2178 218.235 2178 258C2178 297.765 2210.24 330 2250 330Z" fill="#FDFBFB" stroke="#8D99AE" stroke-width="6"/>
<path d="M2250.5 292.5C2269.83 292.5 2285.5 276.83 2285.5 257.5C2285.5 238.17 2269.83 222.5 2250.5 222.5C2231.17 222.5 2215.5 238.17 2215.5 257.5C2215.5 276.83 2231.17 292.5 2250.5 292.5Z" fill="#FDFBFB" stroke="#8D99AE" stroke-width="5"/>
<path d="M0 479C80.6336 479 146 413.634 146 333C146 252.366 80.6336 187 0 187C-80.6336 187 -146 252.366 -146 333C-146 413.634 -80.6336 479 0 479Z" fill="#FDFBFB" stroke="#8D99AE" stroke-width="8"/>
<path d="M0.5 441.5C60.699 441.5 109.5 392.699 109.5 332.5C109.5 272.301 60.699 223.5 0.5 223.5C-59.699 223.5 -108.5 272.301 -108.5 332.5C-108.5 392.699 -59.699 441.5 0.5 441.5Z" fill="#FDFBFB" stroke="#8D99AE" stroke-width="7"/>
<path d="M0 405C39.7645 405 72 372.765 72 333C72 293.235 39.7645 261 0 261C-39.7645 261 -72 293.235 -72 333C-72 372.765 -39.7645 405 0 405Z" fill="#FDFBFB" stroke="#8D99AE" stroke-width="6"/>
<path d="M0.5 367.5C19.83 367.5 35.5 351.83 35.5 332.5C35.5 313.17 19.83 297.5 0.5 297.5C-18.83 297.5 -34.5 313.17 -34.5 332.5C-34.5 351.83 -18.83 367.5 0.5 367.5Z" fill="#FDFBFB" stroke="#8D99AE" stroke-width="5"/>
<path d="M300 479C380.634 479 446 413.634 446 333C446 252.366 380.634 187 300 187C219.366 187 154 252.366 154 333C154 413.634 219.366 479 300 479Z" fill="#FDFBFB" stroke="#8D99AE" stroke-width="8"/>
<path d="M300.5 441.5C360.699 441.5 409.5 392.699 409.5 332.5C409.5 272.301 360.699 223.5 300.5 223.5C240.301 223.5 191.5 272.301 191.5 332.5C191.5 392.699 240.301 441.5 300.5 441.5Z" fill="#FDFBFB" stroke="#8D99AE" stroke-width="7"/>
<path d="M300 405C339.765 405 372 372.765 372 333C372 293.235 339.765 261 300 261C260.235 261 228 293.235 228 333C228 372.765 260.235 405 300 405Z" fill="#FDFBFB" stroke="#8D99AE" stroke-width="6"/>
<path d="M300.5 367.5C319.83 367.5 335.5 351.83 335.5 332.5C335.5 313.17 319.83 297.5 300.5 297.5C281.17 297.5 265.5 313.17 265.5 332.5C265.5 351.83 281.17 367.5 300.5 367.5Z" fill="#FDFBFB" stroke="#8D99AE" stroke-width="5"/>
<path d="M600 479C680.634 479 746 413.634 746 333C746 252.366 680.634 187 600 187C519.366 187 454 252.366 454 333C454 413.634 519.366 479 600 479Z" fill="#FDFBFB" stroke="#8D99AE" stroke-width="8"/>
<path d="M600.5 441.5C660.699 441.5 709.5 392.699 709.5 332.5C709.5 272.301 660.699 223.5 600.5 223.5C540.301 223.5 491.5 272.301 491.5 332.5C491.5 392.699 540.301 441.5 600.5 441.5Z" fill="#FDFBFB" stroke="#8D99AE" stroke-width="7"/>
<path d="M600 405C639.765 405 672 372.765 672 333C672 293.235 639.765 261 600 261C560.235 261 528 293.235 528 333C528 372.765 560.235 405 600 405Z" fill="#FDFBFB" stroke="#8D99AE" stroke-width="6"/>
<path d="M600.5 367.5C619.83 367.5 635.5 351.83 635.5 332.5C635.5 313.17 619.83 297.5 600.5 297.5C581.17 297.5 565.5 313.17 565.5 332.5C565.5 351.83 581.17 367.5 600.5 367.5Z" fill="#FDFBFB" stroke="#8D99AE" stroke-width="5"/>
<path d="M900 479C980.634 479 1046 413.634 1046 333C1046 252.366 980.634 187 900 187C819.366 187 754 252.366 754 333C754 413.634 819.366 479 900 479Z" fill="#FDFBFB" stroke="#8D99AE" stroke-width="8"/>
<path d="M900.5 441.5C960.699 441.5 1009.5 392.699 1009.5 332.5C1009.5 272.301 960.699 223.5 900.5 223.5C840.301 223.5 791.5 272.301 791.5 332.5C791.5 392.699 840.301 441.5 900.5 441.5Z" fill="#FDFBFB" stroke="#8D99AE" stroke-width="7"/>
<path d="M900 405C939.765 405 972 372.765 972 333C972 293.235 939.765 261 900 261C860.235 261 828 293.235 828 333C828 372.765 860.235 405 900 405Z" fill="#FDFBFB" stroke="#8D99AE" stroke-width="6"/>
<path d="M900.5 367.5C919.83 367.5 935.5 351.83 935.5 332.5C935.5 313.17 919.83 297.5 900.5 297.5C881.17 297.5 865.5 313.17 865.5 332.5C865.5 351.83 881.17 367.5 900.5 367.5Z" fill="#FDFBFB" stroke="#8D99AE" stroke-width="5"/>
<path d="M1200 479C1280.63 479 1346 413.634 1346 333C1346 252.366 1280.63 187 1200 187C1119.37 187 1054 252.366 1054 333C1054 413.634 1119.37 479 1200 479Z" fill="#FDFBFB" stroke="#8D99AE" stroke-width="8"/>
<path d="M1200.5 441.5C1260.7 441.5 1309.5 392.699 1309.5 332.5C1309.5 272.301 1260.7 223.5 1200.5 223.5C1140.3 223.5 1091.5 272.301 1091.5 332.5C1091.5 392.699 1140.3 441.5 1200.5 441.5Z" fill="#FDFBFB" stroke="#8D99AE" stroke-width="7"/>
<path d="M1200 405C1239.76 405 1272 372.765 1272 333C1272 293.235 1239.76 261 1200 261C1160.24 261 1128 293.235 1128 333C1128 372.765 1160.24 405 1200 405Z" fill="#FDFBFB" stroke="#8D99AE" stroke-width="6"/>
<path d="M1200.5 367.5C1219.83 367.5 1235.5 351.83 1235.5 332.5C1235.5 313.17 1219.83 297.5 1200.5 297.5C1181.17 297.5 1165.5 313.17 1165.5 332.5C1165.5 351.83 1181.17 367.5 1200.5 367.5Z" fill="#FDFBFB" stroke="#8D99AE" stroke-width="5"/>
<path d="M1500 479C1580.63 479 1646 413.634 1646 333C1646 252.366 1580.63 187 1500 187C1419.37 187 1354 252.366 1354 333C1354 413.634 1419.37 479 1500 479Z" fill="#FDFBFB" stroke="#8D99AE" stroke-width="8"/>
<path d="M1500.5 441.5C1560.7 441.5 1609.5 392.699 1609.5 332.5C1609.5 272.301 1560.7 223.5 1500.5 223.5C1440.3 223.5 1391.5 272.301 1391.5 332.5C1391.5 392.699 1440.3 441.5 1500.5 441.5Z" fill="#FDFBFB" stroke="#8D99AE" stroke-width="7"/>
<path d="M1500 405C1539.76 405 1572 372.765 1572 333C1572 293.235 1539.76 261 1500 261C1460.24 261 1428 293.235 1428 333C1428 372.765 1460.24 405 1500 405Z" fill="#FDFBFB" stroke="#8D99AE" stroke-width="6"/>
<path d="M1500.5 367.5C1519.83 367.5 1535.5 351.83 1535.5 332.5C1535.5 313.17 1519.83 297.5 1500.5 297.5C1481.17 297.5 1465.5 313.17 1465.5 332.5C1465.5 351.83 1481.17 367.5 1500.5 367.5Z" fill="#FDFBFB" stroke="#8D99AE" stroke-width="5"/>
<path d="M1800 479C1880.63 479 1946 413.634 1946 333C1946 252.366 1880.63 187 1800 187C1719.37 187 1654 252.366 1654 333C1654 413.634 1719.37 479 1800 479Z" fill="#FDFBFB" stroke="#8D99AE" stroke-width="8"/>
<path d="M1800.5 441.5C1860.7 441.5 1909.5 392.699 1909.5 332.5C1909.5 272.301 1860.7 223.5 1800.5 223.5C1740.3 223.5 1691.5 272.301 1691.5 332.5C1691.5 392.699 1740.3 441.5 1800.5 441.5Z" fill="#FDFBFB" stroke="#8D99AE" stroke-width="7"/>
<path d="M1800 405C1839.76 405 1872 372.765 1872 333C1872 293.235 1839.76 261 1800 261C1760.24 261 1728 293.235 1728 333C1728 372.765 1760.24 405 1800 405Z" fill="#FDFBFB" stroke="#8D99AE" stroke-width="6"/>
<path d="M1800.5 367.5C1819.83 367.5 1835.5 351.83 1835.5 332.5C1835.5 313.17 1819.83 297.5 1800.5 297.5C1781.17 297.5 1765.5 313.17 1765.5 332.5C1765.5 351.83 1781.17 367.5 1800.5 367.5Z" fill="#FDFBFB" stroke="#8D99AE" stroke-width="5"/>
<path d="M2100 479C2180.63 479 2246 413.634 2246 333C2246 252.366 2180.63 187 2100 187C2019.37 187 1954 252.366 1954 333C1954 413.634 2019.37 479 2100 479Z" fill="#FDFBFB" stroke="#8D99AE" stroke-width="8"/>
<path d="M2100.5 441.5C2160.7 441.5 2209.5 392.699 2209.5 332.5C2209.5 272.301 2160.7 223.5 2100.5 223.5C2040.3 223.5 1991.5 272.301 1991.5 332.5C1991.5 392.699 2040.3 441.5 2100.5 441.5Z" fill="#FDFBFB" stroke="#8D99AE" stroke-width="7"/>
<path d="M2100 405C2139.76 405 2172 372.765 2172 333C2172 293.235 2139.76 261 2100 261C2060.24 261 2028 293.235 2028 333C2028 372.765 2060.24 405 2100 405Z" fill="#FDFBFB" stroke="#8D99AE" stroke-width="6"/>
<path d="M2100.5 367.5C2119.83 367.5 2135.5 351.83 2135.5 332.5C2135.5 313.17 2119.83 297.5 2100.5 297.5C2081.17 297.5 2065.5 313.17 2065.5 332.5C2065.5 351.83 2081.17 367.5 2100.5 367.5Z" fill="#FDFBFB" stroke="#8D99AE" stroke-width="5"/>
<path d="M2400 479C2480.63 479 2546 413.634 2546 333C2546 252.366 2480.63 187 2400 187C2319.37 187 2254 252.366 2254 333C2254 413.634 2319.37 479 2400 479Z" fill="#FDFBFB" stroke="#8D99AE" stroke-width="8"/>
<path d="M2400.5 441.5C2460.7 441.5 2509.5 392.699 2509.5 332.5C2509.5 272.301 2460.7 223.5 2400.5 223.5C2340.3 223.5 2291.5 272.301 2291.5 332.5C2291.5 392.699 2340.3 441.5 2400.5 441.5Z" fill="#FDFBFB" stroke="#8D99AE" stroke-width="7"/>
<path d="M2400 405C2439.76 405 2472 372.765 2472 333C2472 293.235 2439.76 261 2400 261C2360.24 261 2328 293.235 2328 333C2328 372.765 2360.24 405 2400 405Z" fill="#FDFBFB" stroke="#8D99AE" stroke-width="6"/>
<path d="M2400.5 367.5C2419.83 367.5 2435.5 351.83 2435.5 332.5C2435.5 313.17 2419.83 297.5 2400.5 297.5C2381.17 297.5 2365.5 313.17 2365.5 332.5C2365.5 351.83 2381.17 367.5 2400.5 367.5Z" fill="#FDFBFB" stroke="#8D99AE" stroke-width="5"/>
<path d="M150 554C230.634 554 296 488.634 296 408C296 327.366 230.634 262 150 262C69.3664 262 4 327.366 4 408C4 488.634 69.3664 554 150 554Z" fill="#FDFBFB" stroke="#8D99AE" stroke-width="8"/>
<path d="M150.5 516.5C210.699 516.5 259.5 467.699 259.5 407.5C259.5 347.301 210.699 298.5 150.5 298.5C90.301 298.5 41.5 347.301 41.5 407.5C41.5 467.699 90.301 516.5 150.5 516.5Z" fill="#FDFBFB" stroke="#8D99AE" stroke-width="7"/>
<path d="M150 480C189.765 480 222 447.765 222 408C222 368.235 189.765 336 150 336C110.235 336 78 368.235 78 408C78 447.765 110.235 480 150 480Z" fill="#FDFBFB" stroke="#8D99AE" stroke-width="6"/>
<path d="M150.5 442.5C169.83 442.5 185.5 426.83 185.5 407.5C185.5 388.17 169.83 372.5 150.5 372.5C131.17 372.5 115.5 388.17 115.5 407.5C115.5 426.83 131.17 442.5 150.5 442.5Z" fill="#FDFBFB" stroke="#8D99AE" stroke-width="5"/>
<path d="M450 554C530.634 554 596 488.634 596 408C596 327.366 530.634 262 450 262C369.366 262 304 327.366 304 408C304 488.634 369.366 554 450 554Z" fill="#FDFBFB" stroke="#8D99AE" stroke-width="8"/>
<path d="M450.5 516.5C510.699 516.5 559.5 467.699 559.5 407.5C559.5 347.301 510.699 298.5 450.5 298.5C390.301 298.5 341.5 347.301 341.5 407.5C341.5 467.699 390.301 516.5 450.5 516.5Z" fill="#FDFBFB" stroke="#8D99AE" stroke-width="7"/>
<path d="M450 480C489.765 480 522 447.765 522 408C522 368.235 489.765 336 450 336C410.235 336 378 368.235 378 408C378 447.765 410.235 480 450 480Z" fill="#FDFBFB" stroke="#8D99AE" stroke-width="6"/>
<path d="M450.5 442.5C469.83 442.5 485.5 426.83 485.5 407.5C485.5 388.17 469.83 372.5 450.5 372.5C431.17 372.5 415.5 388.17 415.5 407.5C415.5 426.83 431.17 442.5 450.5 442.5Z" fill="#FDFBFB" stroke="#8D99AE" stroke-width="5"/>
<path d="M750 554C830.634 554 896 488.634 896 408C896 327.366 830.634 262 750 262C669.366 262 604 327.366 604 408C604 488.634 669.366 554 750 554Z" fill="#FDFBFB" stroke="#8D99AE" stroke-width="8"/>
<path d="M750.5 516.5C810.699 516.5 859.5 467.699 859.5 407.5C859.5 347.301 810.699 298.5 750.5 298.5C690.301 298.5 641.5 347.301 641.5 407.5C641.5 467.699 690.301 516.5 750.5 516.5Z" fill="#FDFBFB" stroke="#8D99AE" stroke-width="7"/>
<path d="M750 480C789.765 480 822 447.765 822 408C822 368.235 789.765 336 750 336C710.235 336 678 368.235 678 408C678 447.765 710.235 480 750 480Z" fill="#FDFBFB" stroke="#8D99AE" stroke-width="6"/>
<path d="M750.5 442.5C769.83 442.5 785.5 426.83 785.5 407.5C785.5 388.17 769.83 372.5 750.5 372.5C731.17 372.5 715.5 388.17 715.5 407.5C715.5 426.83 731.17 442.5 750.5 442.5Z" fill="#FDFBFB" stroke="#8D99AE" stroke-width="5"/>
<path d="M1050 554C1130.63 554 1196 488.634 1196 408C1196 327.366 1130.63 262 1050 262C969.366 262 904 327.366 904 408C904 488.634 969.366 554 1050 554Z" fill="#FDFBFB" stroke="#8D99AE" stroke-width="8"/>
<path d="M1050.5 516.5C1110.7 516.5 1159.5 467.699 1159.5 407.5C1159.5 347.301 1110.7 298.5 1050.5 298.5C990.301 298.5 941.5 347.301 941.5 407.5C941.5 467.699 990.301 516.5 1050.5 516.5Z" fill="#FDFBFB" stroke="#8D99AE" stroke-width="7"/>
<path d="M1050 480C1089.76 480 1122 447.765 1122 408C1122 368.235 1089.76 336 1050 336C1010.24 336 978 368.235 978 408C978 447.765 1010.24 480 1050 480Z" fill="#FDFBFB" stroke="#8D99AE" stroke-width="6"/>
<path d="M1050.5 442.5C1069.83 442.5 1085.5 426.83 1085.5 407.5C1085.5 388.17 1069.83 372.5 1050.5 372.5C1031.17 372.5 1015.5 388.17 1015.5 407.5C1015.5 426.83 1031.17 442.5 1050.5 442.5Z" fill="#FDFBFB" stroke="#8D99AE" stroke-width="5"/>
<path d="M1350 554C1430.63 554 1496 488.634 1496 408C1496 327.366 1430.63 262 1350 262C1269.37 262 1204 327.366 1204 408C1204 488.634 1269.37 554 1350 554Z" fill="#FDFBFB" stroke="#8D99AE" stroke-width="8"/>
<path d="M1350.5 516.5C1410.7 516.5 1459.5 467.699 1459.5 407.5C1459.5 347.301 1410.7 298.5 1350.5 298.5C1290.3 298.5 1241.5 347.301 1241.5 407.5C1241.5 467.699 1290.3 516.5 1350.5 516.5Z" fill="#FDFBFB" stroke="#8D99AE" stroke-width="7"/>
<path d="M1350 480C1389.76 480 1422 447.765 1422 408C1422 368.235 1389.76 336 1350 336C1310.24 336 1278 368.235 1278 408C1278 447.765 1310.24 480 1350 480Z" fill="#FDFBFB" stroke="#8D99AE" stroke-width="6"/>
<path d="M1350.5 442.5C1369.83 442.5 1385.5 426.83 1385.5 407.5C1385.5 388.17 1369.83 372.5 1350.5 372.5C1331.17 372.5 1315.5 388.17 1315.5 407.5C1315.5 426.83 1331.17 442.5 1350.5 442.5Z" fill="#FDFBFB" stroke="#8D99AE" stroke-width="5"/>
<path d="M1650 554C1730.63 554 1796 488.634 1796 408C1796 327.366 1730.63 262 1650 262C1569.37 262 1504 327.366 1504 408C1504 488.634 1569.37 554 1650 554Z" fill="#FDFBFB" stroke="#8D99AE" stroke-width="8"/>
<path d="M1650.5 516.5C1710.7 516.5 1759.5 467.699 1759.5 407.5C1759.5 347.301 1710.7 298.5 1650.5 298.5C1590.3 298.5 1541.5 347.301 1541.5 407.5C1541.5 467.699 1590.3 516.5 1650.5 516.5Z" fill="#FDFBFB" stroke="#8D99AE" stroke-width="7"/>
<path d="M1650 480C1689.76 480 1722 447.765 1722 408C1722 368.235 1689.76 336 1650 336C1610.24 336 1578 368.235 1578 408C1578 447.765 1610.24 480 1650 480Z" fill="#FDFBFB" stroke="#8D99AE" stroke-width="6"/>
<path d="M1650.5 442.5C1669.83 442.5 1685.5 426.83 1685.5 407.5C1685.5 388.17 1669.83 372.5 1650.5 372.5C1631.17 372.5 1615.5 388.17 1615.5 407.5C1615.5 426.83 1631.17 442.5 1650.5 442.5Z" fill="#FDFBFB" stroke="#8D99AE" stroke-width="5"/>
<path d="M1950 554C2030.63 554 2096 488.634 2096 408C2096 327.366 2030.63 262 1950 262C1869.37 262 1804 327.366 1804 408C1804 488.634 1869.37 554 1950 554Z" fill="#FDFBFB" stroke="#8D99AE" stroke-width="8"/>
<path d="M1950.5 516.5C2010.7 516.5 2059.5 467.699 2059.5 407.5C2059.5 347.301 2010.7 298.5 1950.5 298.5C1890.3 298.5 1841.5 347.301 1841.5 407.5C1841.5 467.699 1890.3 516.5 1950.5 516.5Z" fill="#FDFBFB" stroke="#8D99AE" stroke-width="7"/>
<path d="M1950 480C1989.76 480 2022 447.765 2022 408C2022 368.235 1989.76 336 1950 336C1910.24 336 1878 368.235 1878 408C1878 447.765 1910.24 480 1950 480Z" fill="#FDFBFB" stroke="#8D99AE" stroke-width="6"/>
<path d="M1950.5 442.5C1969.83 442.5 1985.5 426.83 1985.5 407.5C1985.5 388.17 1969.83 372.5 1950.5 372.5C1931.17 372.5 1915.5 388.17 1915.5 407.5C1915.5 426.83 1931.17 442.5 1950.5 442.5Z" fill="#FDFBFB" stroke="#8D99AE" stroke-width="5"/>
<path d="M2250 554C2330.63 554 2396 488.634 2396 408C2396 327.366 2330.63 262 2250 262C2169.37 262 2104 327.366 2104 408C2104 488.634 2169.37 554 2250 554Z" fill="#FDFBFB" stroke="#8D99AE" stroke-width="8"/>
<path d="M2250.5 516.5C2310.7 516.5 2359.5 467.699 2359.5 407.5C2359.5 347.301 2310.7 298.5 2250.5 298.5C2190.3 298.5 2141.5 347.301 2141.5 407.5C2141.5 467.699 2190.3 516.5 2250.5 516.5Z" fill="#FDFBFB" stroke="#8D99AE" stroke-width="7"/>
<path d="M2250 480C2289.76 480 2322 447.765 2322 408C2322 368.235 2289.76 336 2250 336C2210.24 336 2178 368.235 2178 408C2178 447.765 2210.24 480 2250 480Z" fill="#FDFBFB" stroke="#8D99AE" stroke-width="6"/>
<path d="M2250.5 442.5C2269.83 442.5 2285.5 426.83 2285.5 407.5C2285.5 388.17 2269.83 372.5 2250.5 372.5C2231.17 372.5 2215.5 388.17 2215.5 407.5C2215.5 426.83 2231.17 442.5 2250.5 442.5Z" fill="#FDFBFB" stroke="#8D99AE" stroke-width="5"/>
<path d="M0 629C80.6336 629 146 563.634 146 483C146 402.366 80.6336 337 0 337C-80.6336 337 -146 402.366 -146 483C-146 563.634 -80.6336 629 0 629Z" fill="#FDFBFB" stroke="#8D99AE" stroke-width="8"/>
<path d="M0.5 591.5C60.699 591.5 109.5 542.699 109.5 482.5C109.5 422.301 60.699 373.5 0.5 373.5C-59.699 373.5 -108.5 422.301 -108.5 482.5C-108.5 542.699 -59.699 591.5 0.5 591.5Z" fill="#FDFBFB" stroke="#8D99AE" stroke-width="7"/>
<path d="M0 555C39.7645 555 72 522.765 72 483C72 443.235 39.7645 411 0 411C-39.7645 411 -72 443.235 -72 483C-72 522.765 -39.7645 555 0 555Z" fill="#FDFBFB" stroke="#8D99AE" stroke-width="6"/>
<path d="M300 629C380.634 629 446 563.634 446 483C446 402.366 380.634 337 300 337C219.366 337 154 402.366 154 483C154 563.634 219.366 629 300 629Z" fill="#FDFBFB" stroke="#8D99AE" stroke-width="8"/>
<path d="M300.5 591.5C360.699 591.5 409.5 542.699 409.5 482.5C409.5 422.301 360.699 373.5 300.5 373.5C240.301 373.5 191.5 422.301 191.5 482.5C191.5 542.699 240.301 591.5 300.5 591.5Z" fill="#FDFBFB" stroke="#8D99AE" stroke-width="7"/>
<path d="M300 555C339.765 555 372 522.765 372 483C372 443.235 339.765 411 300 411C260.235 411 228 443.235 228 483C228 522.765 260.235 555 300 555Z" fill="#FDFBFB" stroke="#8D99AE" stroke-width="6"/>
<path d="M600 629C680.634 629 746 563.634 746 483C746 402.366 680.634 337 600 337C519.366 337 454 402.366 454 483C454 563.634 519.366 629 600 629Z" fill="#FDFBFB" stroke="#8D99AE" stroke-width="8"/>
<path d="M600.5 591.5C660.699 591.5 709.5 542.699 709.5 482.5C709.5 422.301 660.699 373.5 600.5 373.5C540.301 373.5 491.5 422.301 491.5 482.5C491.5 542.699 540.301 591.5 600.5 591.5Z" fill="#FDFBFB" stroke="#8D99AE" stroke-width="7"/>
<path d="M600 555C639.765 555 672 522.765 672 483C672 443.235 639.765 411 600 411C560.235 411 528 443.235 528 483C528 522.765 560.235 555 600 555Z" fill="#FDFBFB" stroke="#8D99AE" stroke-width="6"/>
<path d="M900 629C980.634 629 1046 563.634 1046 483C1046 402.366 980.634 337 900 337C819.366 337 754 402.366 754 483C754 563.634 819.366 629 900 629Z" fill="#FDFBFB" stroke="#8D99AE" stroke-width="8"/>
<path d="M900.5 591.5C960.699 591.5 1009.5 542.699 1009.5 482.5C1009.5 422.301 960.699 373.5 900.5 373.5C840.301 373.5 791.5 422.301 791.5 482.5C791.5 542.699 840.301 591.5 900.5 591.5Z" fill="#FDFBFB" stroke="#8D99AE" stroke-width="7"/>
<path d="M900 555C939.765 555 972 522.765 972 483C972 443.235 939.765 411 900 411C860.235 411 828 443.235 828 483C828 522.765 860.235 555 900 555Z" fill="#FDFBFB" stroke="#8D99AE" stroke-width="6"/>
<path d="M1200 629C1280.63 629 1346 563.634 1346 483C1346 402.366 1280.63 337 1200 337C1119.37 337 1054 402.366 1054 483C1054 563.634 1119.37 629 1200 629Z" fill="#FDFBFB" stroke="#8D99AE" stroke-width="8"/>
<path d="M1200.5 591.5C1260.7 591.5 1309.5 542.699 1309.5 482.5C1309.5 422.301 1260.7 373.5 1200.5 373.5C1140.3 373.5 1091.5 422.301 1091.5 482.5C1091.5 542.699 1140.3 591.5 1200.5 591.5Z" fill="#FDFBFB" stroke="#8D99AE" stroke-width="7"/>
<path d="M1200 555C1239.76 555 1272 522.765 1272 483C1272 443.235 1239.76 411 1200 411C1160.24 411 1128 443.235 1128 483C1128 522.765 1160.24 555 1200 555Z" fill="#FDFBFB" stroke="#8D99AE" stroke-width="6"/>
<path d="M1500 629C1580.63 629 1646 563.634 1646 483C1646 402.366 1580.63 337 1500 337C1419.37 337 1354 402.366 1354 483C1354 563.634 1419.37 629 1500 629Z" fill="#FDFBFB" stroke="#8D99AE" stroke-width="8"/>
<path d="M1500.5 591.5C1560.7 591.5 1609.5 542.699 1609.5 482.5C1609.5 422.301 1560.7 373.5 1500.5 373.5C1440.3 373.5 1391.5 422.301 1391.5 482.5C1391.5 542.699 1440.3 591.5 1500.5 591.5Z" fill="#FDFBFB" stroke="#8D99AE" stroke-width="7"/>
<path d="M1500 555C1539.76 555 1572 522.765 1572 483C1572 443.235 1539.76 411 1500 411C1460.24 411 1428 443.235 1428 483C1428 522.765 1460.24 555 1500 555Z" fill="#FDFBFB" stroke="#8D99AE" stroke-width="6"/>
<path d="M1800 629C1880.63 629 1946 563.634 1946 483C1946 402.366 1880.63 337 1800 337C1719.37 337 1654 402.366 1654 483C1654 563.634 1719.37 629 1800 629Z" fill="#FDFBFB" stroke="#8D99AE" stroke-width="8"/>
<path d="M1800.5 591.5C1860.7 591.5 1909.5 542.699 1909.5 482.5C1909.5 422.301 1860.7 373.5 1800.5 373.5C1740.3 373.5 1691.5 422.301 1691.5 482.5C1691.5 542.699 1740.3 591.5 1800.5 591.5Z" fill="#FDFBFB" stroke="#8D99AE" stroke-width="7"/>
<path d="M1800 555C1839.76 555 1872 522.765 1872 483C1872 443.235 1839.76 411 1800 411C1760.24 411 1728 443.235 1728 483C1728 522.765 1760.24 555 1800 555Z" fill="#FDFBFB" stroke="#8D99AE" stroke-width="6"/>
<path d="M2100 629C2180.63 629 2246 563.634 2246 483C2246 402.366 2180.63 337 2100 337C2019.37 337 1954 402.366 1954 483C1954 563.634 2019.37 629 2100 629Z" fill="#FDFBFB" stroke="#8D99AE" stroke-width="8"/>
<path d="M2100.5 591.5C2160.7 591.5 2209.5 542.699 2209.5 482.5C2209.5 422.301 2160.7 373.5 2100.5 373.5C2040.3 373.5 1991.5 422.301 1991.5 482.5C1991.5 542.699 2040.3 591.5 2100.5 591.5Z" fill="#FDFBFB" stroke="#8D99AE" stroke-width="7"/>
<path d="M2100 555C2139.76 555 2172 522.765 2172 483C2172 443.235 2139.76 411 2100 411C2060.24 411 2028 443.235 2028 483C2028 522.765 2060.24 555 2100 555Z" fill="#FDFBFB" stroke="#8D99AE" stroke-width="6"/>
<path d="M2400 629C2480.63 629 2546 563.634 2546 483C2546 402.366 2480.63 337 2400 337C2319.37 337 2254 402.366 2254 483C2254 563.634 2319.37 629 2400 629Z" fill="#FDFBFB" stroke="#8D99AE" stroke-width="8"/>
<path d="M2400.5 591.5C2460.7 591.5 2509.5 542.699 2509.5 482.5C2509.5 422.301 2460.7 373.5 2400.5 373.5C2340.3 373.5 2291.5 422.301 2291.5 482.5C2291.5 542.699 2340.3 591.5 2400.5 591.5Z" fill="#FDFBFB" stroke="#8D99AE" stroke-width="7"/>
<path d="M2400 555C2439.76 555 2472 522.765 2472 483C2472 443.235 2439.76 411 2400 411C2360.24 411 2328 443.235 2328 483C2328 522.765 2360.24 555 2400 555Z" fill="#FDFBFB" stroke="#8D99AE" stroke-width="6"/>
<path d="M150 704C230.634 704 296 638.634 296 558C296 477.366 230.634 412 150 412C69.3664 412 4 477.366 4 558C4 638.634 69.3664 704 150 704Z" fill="#FDFBFB" stroke="#8D99AE" stroke-width="8"/>
<path d="M450 704C530.634 704 596 638.634 596 558C596 477.366 530.634 412 450 412C369.366 412 304 477.366 304 558C304 638.634 369.366 704 450 704Z" fill="#FDFBFB" stroke="#8D99AE" stroke-width="8"/>
<path d="M750 704C830.634 704 896 638.634 896 558C896 477.366 830.634 412 750 412C669.366 412 604 477.366 604 558C604 638.634 669.366 704 750 704Z" fill="#FDFBFB" stroke="#8D99AE" stroke-width="8"/>
<path d="M1050 704C1130.63 704 1196 638.634 1196 558C1196 477.366 1130.63 412 1050 412C969.366 412 904 477.366 904 558C904 638.634 969.366 704 1050 704Z" fill="#FDFBFB" stroke="#8D99AE" stroke-width="8"/>
<path d="M1350 704C1430.63 704 1496 638.634 1496 558C1496 477.366 1430.63 412 1350 412C1269.37 412 1204 477.366 1204 558C1204 638.634 1269.37 704 1350 704Z" fill="#FDFBFB" stroke="#8D99AE" stroke-width="8"/>
<path d="M1650 704C1730.63 704 1796 638.634 1796 558C1796 477.366 1730.63 412 1650 412C1569.37 412 1504 477.366 1504 558C1504 638.634 1569.37 704 1650 704Z" fill="#FDFBFB" stroke="#8D99AE" stroke-width="8"/>
<path d="M1950 704C2030.63 704 2096 638.634 2096 558C2096 477.366 2030.63 412 1950 412C1869.37 412 1804 477.366 1804 558C1804 638.634 1869.37 704 1950 704Z" fill="#FDFBFB" stroke="#8D99AE" stroke-width="8"/>
<path d="M2250 704C2330.63 704 2396 638.634 2396 558C2396 477.366 2330.63 412 2250 412C2169.37 412 2104 477.366 2104 558C2104 638.634 2169.37 704 2250 704Z" fill="#FDFBFB" stroke="#8D99AE" stroke-width="8"/>
</g>
<defs>
<clipPath id="clip0_935_9371">
<rect width="2400" height="439" fill="white"/>
</clipPath>
</defs>
</svg>
