<svg width="1847" height="535" viewBox="0 0 1847 535" fill="none" xmlns="http://www.w3.org/2000/svg">
<path d="M28.7053 702.145C28.4228 700.527 28.1321 698.862 27.8497 697.245C33.1385 691.763 42.0941 688.777 52.8535 687.486C61.2971 686.502 69.8152 685.946 78.0535 685.635C95.704 684.955 113.8 681.893 131.33 681.136C132.182 681.085 133.115 680.873 134.072 680.804C146.143 679.627 158.102 678.421 170.173 677.245C184.682 675.839 199.207 674.528 213.699 673.026C219.304 672.44 225.09 671.037 230.44 670.838C237.181 670.592 243.711 669.746 250.441 668.816C255.908 668.058 261.648 667.006 266.826 667.671C268.259 667.862 270.349 667.497 272.029 667.252C298.276 663.992 324.522 660.733 350.768 657.473C352.562 657.258 354.421 657.423 356.135 657.369C355.64 659.465 352.554 660.299 350.38 661.414C345.926 663.662 346.267 665.612 351.666 665.699C355.658 665.737 359.992 665.274 364.135 664.943C371.47 664.397 377.45 661.638 384.005 659.708C390.256 657.882 391.035 656.177 387.217 654.049C386.862 653.866 386.708 653.599 386.206 653.196C389.446 652.631 392.381 652.167 395.194 651.627C404.984 649.721 407.582 647.944 406.705 643.538C406.58 642.825 406.029 642.137 406.436 641.379C407.144 639.883 407.505 638.252 409.211 636.924C412.064 634.759 411.991 633.105 410.726 631.414C408.326 628.157 403.543 626.051 396.338 625.495C390.325 624.977 383.847 624.882 377.385 624.883C361.758 624.818 345.956 624.979 330.224 624.932C321.067 624.914 312.814 623.904 305.594 622.027C296.795 619.74 294.66 614.917 300.174 609.493C302.199 607.522 305.206 605.624 308.117 603.792C311.02 601.913 314.916 600.791 319.18 600.537C325.044 600.199 330.274 598.698 335.438 596.816C341.805 594.429 348.094 592.203 355.351 590.593C370.605 587.292 385.697 583.676 400.927 580.232C406.625 578.943 412.494 578.016 418.305 576.756C424.734 575.34 425.905 574.645 426.235 571.597C426.648 567.799 430.171 564.537 436.857 561.507C447.428 556.67 456.967 551.475 465.328 545.701C470.13 542.363 477.083 539.629 485.481 538.996C489.727 538.646 493.966 538.249 498.179 537.71C527.673 533.932 556.872 529.078 586.072 522.999C587.423 522.714 588.789 522.524 590.052 522.353C593.831 521.791 597.601 521.181 601.38 520.62C602.851 520.412 604.331 520.251 606.124 520.036C606.077 521.613 605.787 523.036 605.907 524.339C606.071 526.516 607.467 527.106 612.253 526.76C615.333 526.516 618.485 526.064 621.645 525.659C630.377 524.478 639.101 523.248 647.946 522.096C676.266 518.376 704.451 515.121 732.756 510.08C736.309 509.46 740.017 509.106 743.444 508.998C748.706 508.912 751.643 510.312 752.484 512.665C753.064 514.132 751.767 515.339 748.731 516.457C737.095 520.744 725.467 525.079 713.953 529.443C708.5 531.522 708.401 534.039 713.708 534.828C716.583 535.258 719.722 535.347 722.693 535.71C726.55 536.213 730.717 536.025 734.977 535.134C740.378 533.995 745.26 533.583 749.275 534.99C753.316 532.226 758.728 531.771 763.795 531.18C781.639 529.142 799.209 525.535 816.592 521.47C832.432 517.822 848.222 513.888 864.112 510.525C893.191 504.368 922.328 498.545 951.432 492.531C965.152 489.694 978.935 486.601 992.63 483.621C993.98 483.336 995.289 482.814 996.815 482.302C986.578 480.413 976.879 478.529 967.101 476.805C959.989 475.546 952.885 474.336 945.597 473.305C942.175 472.824 938.208 472.928 937.801 470.597C937.685 469.931 935.688 469.594 934.526 469.11C931.744 467.979 928.665 466.997 926.292 465.744C923.556 464.261 919.933 463.864 915.544 464.631C911.782 465.288 907.844 466.172 904.607 467.374C869.979 479.99 833.49 490.578 796.432 500.382C793.861 501.076 791.177 501.741 788.556 502.15C787.398 502.303 785.923 501.874 785.205 501.46C784.85 501.277 785.963 500.25 786.749 499.818C789.839 498.396 792.921 496.927 796.366 495.688C827.194 484.128 859.445 473.937 891.43 463.45C895.912 461.981 900.281 460.482 904.955 458.882C902.671 457.516 900.871 456.458 898.966 455.418C897.408 454.513 895.427 454.271 892.267 454.676C884.998 455.602 878.288 457.264 871.46 459.486C861.171 462.851 850.243 465.642 839.565 468.634C837.412 469.255 835.226 469.686 833.056 470.212C821.275 473.053 809.382 475.865 797.609 478.755C789.244 480.804 781 482.93 772.389 484.188C780.22 481.546 788.067 478.999 796.303 476.826C817.7 471.08 839.243 465.553 860.648 459.854C868.779 457.699 876.886 455.401 885 453.15C885.063 452.894 885.126 452.638 885.085 452.4C882.042 452.245 879 452.09 875.949 451.888C870.943 451.586 866.128 451.152 862.724 449.541C861.667 449.039 860.505 448.555 859.055 448.269C856.373 447.708 854.919 446.785 854.436 445.252C854.116 444.034 854.285 442.534 850.879 442.148C849.131 443.238 847.487 444.309 845.722 445.303C842.673 446.963 839.23 446.976 836.25 446.565C834.93 446.404 833.727 445.682 833.61 445.016C833.366 443 840.489 437.54 844.771 436.155C849.566 434.632 854.846 433.416 859.045 431.555C864.84 428.974 870.931 427.47 877.581 426.7C894.686 424.743 911.434 423.828 928.048 423.378C935.442 423.165 939.924 424.784 940.523 428.21C940.888 430.303 939.895 432.633 939.207 434.861C939.002 435.534 938.081 436.43 937.006 437.059C930.211 440.697 923.432 444.43 913.817 446.109C909.532 446.857 905.331 448.081 900.573 449.206C903.358 452.2 905.361 455.036 911.419 456.429C918.879 453.509 926.338 450.589 933.789 447.621C936.406 446.576 937.39 445.423 936.297 444.095C934.101 441.39 934.181 441.229 940.117 439.457C953.621 435.383 967.247 431.386 980.872 427.389C989.99 424.718 999.572 422.849 1008.38 419.644C1015.87 416.914 1024.3 416.424 1032.06 416.489C1037.35 416.546 1040.22 418.201 1039.32 420.466C1038.28 423.1 1035.48 425.598 1030.5 427.301C1017.59 431.664 1004.44 435.921 991.282 440.13C975.57 445.129 959.833 449.985 943.992 454.859C940.618 455.889 937.106 456.748 933.853 457.855C928.263 459.763 927.772 461.27 932.293 462.49C938.515 464.198 945.121 465.643 951.438 467.284C956.394 468.527 961.364 468.002 967 465.744C979.189 460.919 991.498 456.171 1003.7 451.442C1011.77 448.317 1018.58 444.727 1024.67 440.77C1027.38 439.023 1030.19 437.209 1033.24 435.597C1037.58 433.319 1040.44 433.017 1044.42 434.233C1048.73 435.49 1049.43 436.987 1045.78 439.536C1043.29 441.294 1040.03 442.991 1036.85 444.526C1027.62 449.03 1017.29 452.747 1006.45 456.061C994.696 459.682 982.701 463.149 970.819 466.645C968.256 467.387 965.953 468.377 966.169 469.614C966.293 470.328 968.019 470.958 969.469 471.244C979.23 472.873 988.983 474.454 998.928 475.904C1004.79 476.792 1011.02 477.321 1016.8 478.323C1023.02 479.394 1029.51 478.946 1036.66 477.354C1051.91 474.006 1067.17 470.752 1082.44 467.546C1099.79 463.928 1117.18 460.499 1134.39 456.709C1151.4 452.955 1168.46 449.534 1185.9 447.028C1196.41 445.536 1206.94 443.55 1217.3 441.202C1241.14 435.862 1264.81 430.209 1288.5 424.602C1307.42 420.121 1326.25 415.706 1345.04 411.052C1360.52 407.221 1375.82 402.932 1391.3 399.1C1418.66 392.314 1445.75 385.278 1471.71 376.676C1486.68 371.71 1501.54 366.762 1516.52 361.939C1527.64 358.38 1539.21 356.164 1550.95 355.584C1554.05 355.435 1557.05 355.941 1559.82 356.389C1562.26 356.796 1562.56 357.92 1560.75 359.265C1559.42 360.282 1557.65 361.229 1556.42 362.227C1555.76 362.736 1555.65 363.39 1554.87 364.458C1557.76 363.757 1559.62 363.286 1562.2 362.64C1557.85 366.732 1551.94 369.236 1543.86 370.498C1512.49 375.241 1482.91 383.447 1453.69 392.519C1411.92 405.549 1370.97 419.563 1327.75 431.081C1323.64 432.192 1319.53 433.939 1316.18 435.749C1313.13 437.408 1309.88 438.516 1306.17 439.506C1289.08 443.962 1271.87 448.437 1254.77 452.894C1239.11 456.952 1223.57 461.087 1207.9 465.098C1206.15 465.551 1203.23 466.062 1202.31 465.732C1198.39 464.259 1193.84 465.348 1189.17 466.359C1160.67 472.757 1132.1 478.727 1103.12 483.592C1099.35 484.202 1095.64 485.192 1092.12 485.955C1091.45 487.689 1089.62 489.529 1093.26 490.02C1098.66 490.744 1103.97 491.58 1110.77 490.394C1126.02 487.682 1141.16 484.988 1155.52 480.274C1157.97 479.456 1161.62 478.817 1163.92 479.005C1167.3 479.248 1170.32 478.671 1173.64 477.944C1182.85 475.797 1192.18 473.726 1201.39 471.579C1204.4 470.907 1206.82 470.63 1209.43 471.352C1211.35 471.898 1214.62 472.111 1217.25 471.75C1230.69 469.795 1244.23 467.774 1257.61 465.438C1293.25 459.215 1328.65 452.249 1363.86 444.825C1377.78 441.904 1391.83 439.107 1405.72 435.996C1434.62 429.477 1463.4 422.834 1492.29 416.173C1508.33 412.44 1524.38 408.755 1540.38 404.785C1557.4 400.537 1574.15 395.897 1591.18 391.697C1606.88 387.876 1622.76 384.418 1638.26 380.045C1677.87 368.862 1717.64 357.899 1757.37 346.793C1764.25 344.857 1770.96 343.784 1777.71 344.222C1782.83 344.554 1788.11 343.974 1793.59 342.674C1806.62 339.566 1819.85 337.647 1833.1 336.412C1836.17 336.121 1839.29 336.115 1841.93 336.391C1846.97 336.883 1852.08 336.578 1857.55 335.23C1877.69 330.292 1897.83 325.354 1917.86 320.386C1925.7 318.428 1933.28 316.222 1940.54 313.385C1949.1 309.979 1957.99 306.613 1967.07 303.704C1987.58 297.23 2008.35 290.956 2029.11 284.683C2054.59 276.999 2076.95 267.506 2095.01 255.626C2101.09 251.575 2106.7 247.358 2112.45 243.267C2113.89 242.232 2115.54 241.208 2117.28 240.071C2120.56 241.605 2119.47 243.365 2117.39 245.051C2113.35 248.404 2109.53 251.816 2104.56 254.84C2096.3 259.911 2087.25 264.873 2078.29 269.673C2069.23 274.539 2058.99 278.779 2047.78 282.404C2046.56 282.813 2045.01 283.182 2044.24 283.756C2043.29 284.462 2042 285.717 2042.5 286.119C2043.25 286.676 2045.43 286.834 2047.16 286.875C2048.24 286.883 2049.74 286.228 2050.97 285.867C2056.7 284.179 2062.3 282.319 2068.18 280.85C2090.79 275.236 2112.45 268.561 2132.17 259.971C2138.78 257.102 2146.52 255.21 2154.2 254.752C2160.05 254.367 2165.91 254.618 2171.26 255.056C2178.48 255.659 2185.63 255.292 2193.45 253.192C2203.31 250.489 2213.19 247.833 2223.06 245.177C2242.92 239.847 2262.77 234.517 2282.75 229.312C2286.56 228.304 2290.69 227.877 2294.77 227.213C2300.52 226.209 2306.55 225.597 2312.01 224.155C2320.86 221.824 2329.42 219.007 2337.99 216.284C2367.18 207.069 2396.39 197.997 2423.3 186.779C2431.23 183.482 2438.75 179.669 2445.49 175.746C2455.18 170.181 2467.15 169.659 2471.22 175.076C2473.04 177.455 2474.51 177.837 2480.45 176.701C2493.98 174.043 2507.82 171.872 2520.92 167.966C2537.29 163.049 2554.01 158.855 2571.01 155.101C2583.56 152.322 2595.88 148.896 2608.54 146.146C2615.49 144.638 2622.86 143.646 2629.94 142.899C2636.08 142.268 2641.4 143.105 2643.04 145.758C2644.7 148.459 2644.91 151.511 2639.66 154.732C2636.64 156.582 2633.96 158.473 2631.38 160.393C2624.54 165.607 2616.18 170.156 2606.44 174.209C2599.92 176.918 2593.16 179.567 2586.64 182.276C2576.19 186.6 2565.5 190.77 2555.53 195.307C2538.06 203.21 2519.91 210.3 2498.87 215.004C2497.31 215.325 2495.44 215.701 2494.57 216.294C2490.44 219.124 2484.73 220.365 2479.2 221.969C2449.17 230.741 2419.15 239.514 2389.27 248.458C2385.27 249.645 2381.76 251.729 2378.41 253.491C2376.92 254.241 2376.25 255.338 2374.94 256.45C2371.1 254.18 2371.4 253.441 2375.75 251.211C2378.12 249.964 2381.6 248.963 2382.35 247.068C2375.35 247.702 2373.02 248.549 2369.21 251.373C2363.47 255.512 2361.4 259.697 2361.27 263.886C2361.18 267.088 2359.14 270.19 2354.92 273.181C2347.26 278.637 2339.03 283.899 2328.26 288.23C2327.15 288.668 2326.16 289.184 2325.17 289.652C2329.51 293.55 2333.78 293.933 2343.22 291.255C2355.02 287.919 2366.82 284.584 2378.38 281.095C2402.52 273.791 2426.55 266.458 2450.45 259C2465.57 254.301 2480.42 249.306 2495.39 244.387C2500.18 242.816 2505.09 241.369 2509.75 239.674C2528.77 232.675 2548.32 226.222 2565.71 217.843C2584.29 208.96 2606.93 204.125 2629.22 199.791C2635.58 198.583 2642.19 198.213 2648.58 197.831C2654.55 197.475 2657.84 199.057 2658.42 201.751C2659.04 204.682 2657.75 207.799 2652.97 210.643C2645.06 215.261 2637.04 219.897 2628.43 224.292C2620.72 228.236 2613.12 232.163 2606.79 236.649C2603.34 239.066 2599.21 241.355 2593.86 242.78C2585.21 245.026 2578.81 248.496 2572.43 252.013C2570.95 252.81 2569.94 253.82 2568.81 254.752C2566.66 256.599 2564.74 258.552 2562.37 260.388C2558.21 263.712 2560.88 267.266 2567.93 266.965C2573.39 266.748 2579.08 266.048 2584.65 265.271C2597.99 263.334 2609.37 259.435 2619.17 253.899C2620.64 253.055 2622.33 252.269 2624.04 251.53C2636.08 246.486 2649.26 243.009 2663.13 241.075C2684.27 238.168 2696.38 240.907 2702.52 249.541C2702.81 249.98 2703.11 250.467 2703.51 250.888C2705.1 252.572 2707.08 252.814 2711.31 251.781C2716.69 250.499 2721.19 248.536 2725.44 246.371C2729.99 244.057 2734.65 241.725 2739.8 239.795C2746.37 237.324 2753.57 235.381 2760.27 233.035C2772.57 228.829 2784.01 228.398 2795.03 229.808C2796.79 230.039 2798.21 230.772 2799.21 231.53C2800.55 232.423 2801.48 233.437 2802.31 234.517C2802.74 235.128 2802.98 235.871 2802.77 236.544C2800.87 241.68 2796.77 246.563 2789.05 251.097C2785.73 253.05 2782.07 254.277 2777.52 254.729C2775.72 254.897 2774.01 254.998 2772.21 255.166C2758.48 256.682 2746.48 265.689 2751.49 271.578C2753.34 270.423 2755.33 269.487 2756.43 268.412C2757.35 267.516 2757.39 266.48 2757.86 265.514C2759.04 263.005 2760.44 262.369 2766.98 261.618C2761.22 265.615 2762.56 268.37 2767.9 270.575C2769.52 271.224 2770.5 272.476 2770.7 273.665C2771.68 279.278 2770.87 281.382 2756.81 282.268C2756.6 282.305 2756.38 282.294 2756.17 282.33C2743.22 282.778 2733.88 286.664 2726.69 292.38C2723.1 295.214 2722.39 297.936 2724.03 300.542C2725.1 302.364 2729.59 301.579 2731.17 300.128C2732.29 299.147 2732.74 297.991 2732.88 296.985C2733.06 296.169 2732.39 295.404 2732.25 294.596C2732.01 292.627 2735.26 291.472 2738.31 290.449C2741.26 289.444 2744.36 288.706 2746.26 290.335C2745.6 290.891 2744.94 291.4 2744.39 291.937C2738.61 297.112 2742.24 300.597 2752.95 300.294C2754.45 300.229 2756.05 300.146 2757.63 299.967C2763.42 299.201 2769.34 298.56 2775.09 297.556C2782.93 296.187 2789.05 296.735 2794.42 298.446C2799.2 299.916 2799.39 301.057 2795.39 304.012C2791.39 307.014 2786.23 309.533 2780.5 311.858C2774.46 314.284 2768.54 316.788 2762.64 319.387C2747.74 325.96 2732.46 332.206 2716.35 337.962C2706.2 341.547 2696.08 345.275 2686.18 349.014C2683.05 350.198 2680.08 351.697 2677.65 353.199C2672.11 356.618 2671.81 356.721 2665.55 355.412C2661.29 354.488 2660.67 353.371 2664.61 351.262C2667.96 349.5 2671.97 347.818 2676.07 346.613C2687.73 343.058 2698.09 338.895 2706.63 333.531C2709.06 331.98 2711.24 330.324 2713.11 328.674C2713.85 328.005 2714.06 326.743 2713.35 326.376C2712.53 325.981 2710.21 326.287 2708.53 326.484C2707.46 326.571 2706.35 326.963 2705.33 327.288C2690.43 331.998 2675.51 336.612 2660.84 341.429C2653.41 343.855 2646.93 346.849 2645.76 351.268C2645.63 351.733 2643.68 352.318 2642.48 352.822C2642.06 352.258 2640.89 351.727 2641.22 351.179C2643.68 347.367 2645.59 343.504 2655.22 341.284C2658.33 340.593 2660.86 339.072 2660.64 337.199C2645.81 339.201 2631.73 346.758 2631.34 353.15C2631.08 357.215 2632.51 361.083 2633.15 364.794C2636.62 364.923 2639.54 365.001 2642.38 365.193C2654.03 365.952 2666.01 364.841 2678.56 362.109C2687.59 360.141 2696.79 358.583 2705.99 356.977C2711.32 356.046 2716.19 356.176 2720.62 356.873C2727.16 357.937 2728.73 360.752 2725.16 364.413C2724.34 365.243 2722.98 366.069 2722.15 366.9C2720.6 368.494 2719.05 370.089 2717.82 371.676C2717.04 372.744 2716.8 373.864 2716.13 374.961C2713.82 378.403 2710.94 379.789 2704.02 380.262C2698.81 380.633 2694.41 381.941 2689.71 383.398C2682.15 385.748 2674.58 388.05 2666.76 390.103C2657.59 392.488 2648.79 395.104 2640.68 398.628C2629.86 403.31 2618.2 407.454 2605.73 410.662C2598.73 412.473 2592.24 413.557 2586.79 411.323C2583.54 410.026 2578.74 410.277 2573.77 411.39C2570.97 412.026 2568.9 413.123 2569 414.33C2569.13 417.543 2569.47 420.719 2570.23 423.822C2570.63 425.516 2573.36 426.315 2577.42 426.145C2582.23 425.942 2586.96 425.9 2591.88 425.679C2613.89 424.679 2635.5 421.395 2656.88 414.917C2668.03 411.548 2679.55 408.458 2690.96 405.338C2703.5 401.922 2716.36 399.089 2729.55 398.158C2735.3 397.791 2740.71 396.699 2746.04 395.131C2777.63 386.086 2809.45 377.146 2840.91 367.976C2852.39 364.647 2863.34 360.726 2874.41 356.929C2878.08 355.701 2881.12 353.994 2884.64 352.594C2890.48 350.251 2896.8 348.216 2902.39 345.719C2911.99 341.494 2921.12 337.008 2930.49 332.676C2933.28 331.404 2936.06 330.084 2939.12 329.109C2942.59 327.965 2948.33 328.187 2949.28 329.296C2950.64 330.921 2947.62 332.135 2945.26 333.429C2944.98 333.626 2944.57 333.795 2944.17 333.963C2933.84 338.905 2923.73 343.954 2913.27 348.772C2902.6 353.674 2894.75 359.898 2881.96 363.749C2880.53 364.195 2879.48 364.966 2878.07 365.555C2867.97 370.014 2858.73 375.06 2847.06 378.52C2838.97 380.913 2831.28 383.727 2823.31 386.197C2811.36 389.902 2799.29 393.578 2787.08 397.034C2776.3 400.091 2765.76 403.208 2756.03 407.309C2753.91 408.168 2751.58 409.016 2749.2 409.531C2744.74 410.506 2741.34 412.03 2738.11 413.869C2733.99 416.206 2729.88 418.542 2725.77 420.926C2724.41 421.752 2723.27 422.637 2722.03 423.54C2722.84 423.888 2723.34 424.243 2723.65 424.189C2728.12 423.261 2731.79 423.943 2735.77 423.934C2742.12 423.904 2748.61 423.457 2754.99 421.707C2760.33 420.234 2765.41 418.513 2770.6 416.774C2783.63 412.44 2796.66 408.106 2809.56 403.648C2825.3 398.203 2840.76 392.414 2856.65 387.188C2869.58 382.92 2882.51 381.104 2893.91 384.113C2899.67 385.608 2900.2 386.79 2896.76 390.528C2892.14 395.55 2885 399.689 2876.06 403.358C2865.61 407.682 2855.52 412.142 2845.43 416.649C2835.94 420.904 2826.47 425.254 2817.21 429.615C2813.23 431.487 2809.04 433.395 2805.75 435.538C2803.05 437.333 2801.38 439.487 2799.91 441.51C2799.39 442.238 2800.43 443.281 2801.58 443.717C2803.2 444.366 2805.1 443.496 2806.88 442.596C2812.82 439.598 2819.33 438.657 2825.81 439.388C2833.61 440.281 2835.47 444.123 2829.92 448.131C2828.01 449.495 2825.2 450.672 2822.59 451.765C2817.36 453.903 2811.9 455.935 2806.67 458.026C2804.15 459.053 2801.34 460.23 2802.69 461.76C2804.02 463.195 2807.09 462.314 2809.68 461.715C2813.19 460.857 2816.58 459.922 2820.09 459.016C2827.19 457.138 2831.29 457.795 2832.61 461.045C2833.91 464.152 2831.22 467.268 2826.22 470.102C2823.19 471.857 2819.73 473.637 2816 475.073C2807.92 478.151 2804.31 481.526 2805.88 485.567C2805.91 485.757 2806.15 485.911 2806.42 486.207C2810.24 486.52 2813.86 485.643 2817.57 484.064C2822.59 482.01 2827.75 480.08 2833.03 478.275C2840.25 475.79 2847.61 473.572 2854.72 471.106C2863.96 467.875 2873.61 465.208 2883.56 462.981C2888.85 461.812 2894.32 461.053 2899.68 460.313C2904.2 459.671 2907.45 460.378 2908.47 461.916C2909.65 463.767 2907.02 465.307 2903.92 466.681C2900.51 468.158 2896.87 469.481 2893.34 470.881C2891.53 471.59 2889.83 472.376 2888.03 473.132C2890.73 473.199 2893.11 472.637 2895.06 472.689C2898.41 472.789 2900.99 472.143 2903.9 470.9C2908.32 469.05 2912.84 468.456 2917.1 469.38C2920.01 470.047 2922.96 469.631 2926.55 468.612C2931.68 467.176 2937.11 466.18 2942.41 465.106C2945.75 464.475 2949.08 464.432 2950.09 465.922C2951.66 468.1 2955.38 467.841 2959.65 466.998C2963.19 466.282 2966.68 465.329 2970.09 464.489C2972.46 463.879 2974.81 463.174 2977.21 462.706C2983.26 461.6 2986.48 462.165 2988.51 464.508C2989.31 465.397 2989.6 466.426 2990.49 467.249C2992.03 468.648 2993.67 468.802 2997.46 467.651C3001.24 466.5 3005.02 465.302 3008.56 463.997C3024.03 458.255 3039.26 452.36 3054.88 446.791C3061.06 444.583 3068.11 443.009 3074.78 441.157C3076.01 440.795 3077.36 440.463 3078.69 440.083C3082.3 439.159 3085.95 437.884 3089.63 437.34C3106.51 434.735 3118.07 428.794 3127.58 421.594C3130.34 419.495 3129.99 418.086 3127.28 416.745C3125.38 415.753 3122.84 415.412 3119.54 415.597C3107.58 416.214 3095.8 418.418 3084.27 421.461C3077.78 423.182 3071.32 424.998 3064.84 426.766C3062.27 427.46 3060.42 427.342 3059.38 426.346C3058.47 425.428 3059.27 424.455 3061.29 423.709C3064.41 422.477 3067.52 421.151 3070.9 420.168C3080.63 417.292 3090.46 414.351 3100.45 411.772C3110.86 409.073 3121.37 406.355 3132 404.303C3145.02 401.784 3154.16 403.57 3158.78 408.45C3161.01 410.756 3160.03 413.134 3156.62 415.788C3153.48 418.151 3150.33 420.513 3147.51 422.868C3143.48 426.269 3138.62 429.275 3132.65 432.082C3124.29 436.041 3116.54 440.385 3110.6 445.198C3108.15 447.194 3105.47 448.496 3100.88 449.346C3094.93 450.434 3090.47 452.635 3088.64 455.748C3087.05 458.378 3088.79 459.692 3093.8 459.994C3095.32 460.072 3097.08 460.303 3097.92 460.794C3102.43 463.192 3103.74 463.306 3110.99 461.012C3118.74 458.531 3126.37 455.973 3134.01 453.462C3138.6 451.975 3139.78 451.965 3142.41 453.466C3143.36 453.986 3144.12 454.638 3145 455.318C3144.23 455.845 3143.76 456.269 3142.96 456.606C3130.76 461.383 3118.97 466.628 3106.13 470.783C3091.25 475.635 3077.83 481.411 3063.2 486.417C3059.64 487.627 3056.58 488.602 3052.39 488.696C3045 488.908 3039.62 492.005 3039.73 495.759C3042.84 496.247 3046.35 495.389 3049.44 494.604C3067.07 490.103 3084.72 485.746 3101.25 479.869C3103.99 478.901 3106.49 478.415 3108.58 479.276C3110.67 480.137 3110.15 481.501 3108 482.759C3104.77 484.598 3101.21 486.397 3097.63 488.1C3092.67 490.535 3086.69 492.706 3082.64 495.375C3074.13 500.93 3064.28 505.59 3052.67 509.383C3025.06 518.42 2997.99 528.05 2969.6 536.34C2962.84 538.305 2961.26 541.572 2966.48 543.111C2968.18 543.598 2970.7 543.845 2973.02 543.586C2978.32 543.101 2982.29 543.634 2985.95 544.81C2995.09 547.821 3006.33 547.475 3018.76 544.619C3027.56 542.592 3036.18 540.155 3045 538.224C3049.98 537.157 3055.61 536.124 3060.15 536.214C3067.18 536.36 3073.47 535.408 3080.45 533.406C3091.94 530.125 3103.63 526.808 3115.42 524.014C3123.18 522.169 3131.47 520.918 3139.39 520.025C3147.2 519.15 3149.52 520.706 3147.7 524.456C3145.87 528.158 3143.6 531.838 3141.13 535.554C3140.36 536.717 3138.9 538.198 3136.97 538.878C3130.19 541.385 3125.38 544.629 3119.75 547.572C3118.28 548.369 3116.22 548.924 3114.4 549.586C3104.04 553.207 3093.47 556.77 3083.24 560.516C3069.17 565.669 3055.37 571.118 3040.26 575.228C3035.73 576.459 3031.22 577.738 3026.67 578.826C3021.29 580.108 3016.43 580.026 3012.26 578.941C3007.07 577.592 3006.58 575.422 3011.59 572.636C3015.42 570.545 3019.7 568.523 3024.38 566.923C3036.06 562.921 3047.99 559.074 3059.95 555.416C3077.42 550.012 3093.61 543.411 3111.45 538.285C3115.25 537.182 3118.28 534.838 3121.29 532.94C3122.07 532.461 3121.48 531.583 3121.42 530.613C3107.21 533.095 3093.51 534.849 3080.43 538.85C3073.48 540.995 3065.39 542.751 3061.96 547.173C3061.17 548.194 3058.44 549.21 3056.33 550.116C3053.73 551.257 3050.79 552.262 3048.19 553.402C3041.58 556.272 3034.62 559.006 3028.49 562.088C3021.95 565.385 3014.98 568.024 3006.93 570.018C3005.49 570.369 3004.05 570.767 3002.4 571.202C3002.93 574.246 3003.12 577.155 3004.03 579.889C3005 583.003 3008.57 585.566 3006.74 589.268C3012.59 589.472 3018.11 588.998 3023.76 588.06C3025.95 587.677 3028.37 587.305 3030.31 587.357C3034.21 587.461 3035.36 589.123 3032.52 590.746C3028 593.251 3026.09 595.84 3025.07 598.617C3024.41 600.399 3022.55 602.096 3019.04 602.954C3010.79 605.032 3004.78 608.239 2998.8 611.635C2994.48 614.056 2989.5 615.711 2983.44 616.18C2977.38 616.65 2975.7 617.483 2974.9 620.319C2974.55 621.409 2974.83 622.39 2974.91 623.454C2975.03 625.394 2975.26 627.315 2975.47 629.73C2976.99 629.807 2979.33 630.28 2981.87 630.032C2985.58 629.679 2989.47 629.147 2993.09 628.27C3002.07 626.064 3010.8 623.609 3019.76 621.26C3025.01 619.901 3027.03 620.334 3026.41 622.99C3026 624.925 3025.05 626.904 3023.88 628.825C3021.69 632.344 3017.15 635.295 3010.34 637.659C3002.12 640.517 2994.38 643.682 2986.15 646.492C2977.31 649.555 2968.45 652.474 2959.34 655.193C2953.61 656.881 2947.93 658.312 2943.36 661.073C2940.92 662.528 2937.25 663.708 2933.98 664.721C2929.58 666.076 2924.92 667.135 2920.41 668.461C2915.19 670.011 2909.87 671.578 2904.81 673.442C2898.03 675.949 2891.77 678.954 2884.75 681.307C2867.67 687.085 2850.19 692.489 2833 698.237C2809.71 706.079 2784.98 712.504 2762.34 720.969C2758.8 722.321 2754.76 723.223 2750.99 724.421C2743.43 726.771 2735.87 729.12 2728.43 731.547C2715.48 735.719 2703.06 740.438 2689.28 743.578C2679.76 745.781 2671.12 748.711 2665.22 753.173C2661.41 755.996 2656.56 757.871 2650.82 759.511C2640.55 762.383 2630.18 765.272 2619.92 768.192C2604.33 772.678 2588.34 776.696 2573.82 782.321C2572.61 782.778 2571.52 783.359 2570.33 783.911C2573.14 784.007 2575.55 783.635 2577.94 783.12C2588.1 780.856 2598.25 778.544 2608.42 776.328C2614.12 775.086 2619.97 774.017 2625.7 772.918C2626.74 772.735 2627.94 772.82 2629.98 772.759C2616.48 779.332 2601.36 783.394 2586.31 787.884C2588.73 789.374 2591.53 788.786 2594.53 788.067C2608.8 784.692 2623.07 781.318 2637.35 777.99C2640.87 777.18 2644.43 776.559 2648.09 775.968C2649.14 775.786 2650.89 775.969 2651.18 776.361C2651.46 776.753 2650.75 777.612 2649.88 778.157C2648.81 778.833 2647.4 779.374 2645.97 779.868C2639.97 781.848 2633.96 783.829 2627.81 785.637C2614.8 789.43 2601.76 793.079 2588.74 796.824C2583.4 798.344 2578.42 800.047 2572.69 801.146C2568.94 801.898 2564.33 803.242 2562.4 805.737C2567.42 804.861 2571.98 803.868 2576.62 803.302C2583.47 802.449 2589.86 800.794 2596.34 799.026C2604.56 796.805 2612.77 794.489 2621.21 792.868C2632.89 790.634 2644.26 787.96 2655.48 784.972C2658.16 784.26 2661.01 783.957 2664.36 783.373C2663.99 784.369 2664.12 785.082 2663.52 785.382C2661.84 786.215 2659.84 787.104 2657.78 787.659C2652.05 789.347 2646.05 790.786 2640.43 792.503C2633.07 794.769 2625.98 797.33 2618.61 799.548C2604.7 803.743 2590.82 808.127 2576.08 811.337C2569.76 812.736 2563.53 814.658 2557.39 816.514C2546.74 819.696 2536.47 823.157 2525.69 826.167C2495.19 834.679 2464.69 843.191 2436.57 854.229C2433.25 855.545 2429.9 856.718 2425.7 856.716C2424.3 856.716 2421.36 857.768 2420.83 858.401C2419.94 859.487 2420.05 860.742 2420.54 861.687C2421.26 862.737 2423.71 862.603 2426.09 862.04C2434.67 859.955 2440.86 860.883 2446.09 863.106C2447.38 863.667 2448.75 864.161 2450.13 864.656C2454.86 866.429 2457.25 869.05 2456.86 872.354C2456.5 875.211 2455.61 878.112 2454.4 881.068C2453.37 883.797 2451.69 886.541 2450.44 889.211C2448.63 893.056 2449.95 893.854 2457.6 892.617C2463.15 891.698 2468.75 890.474 2474.1 889.05C2482.55 886.84 2490.83 884.315 2499.14 881.98C2550.7 867.634 2602.28 853.43 2653.7 838.912C2679.15 831.722 2704.17 823.873 2729.47 816.464C2733.37 815.342 2737.78 814.719 2741.98 814.084C2744.18 813.748 2746.34 813.764 2747.1 815.004C2747.74 816.216 2746.96 817.284 2744.99 818.362C2738.99 821.616 2732.6 824.497 2724.9 826.674C2717.82 828.647 2710.75 830.762 2704.18 833.185C2693.25 837.202 2681.9 840.066 2669.81 841.736C2659.2 843.246 2648.8 845.404 2638.65 848.305C2605.73 857.779 2572.91 867.186 2540.14 876.832C2524.05 881.552 2507.05 885.306 2491.66 890.934C2490.24 891.428 2488.56 891.672 2487.12 892.07C2476.1 894.974 2465.09 897.878 2454.07 900.782C2448 902.382 2442.01 903.869 2435.92 905.374C2433.44 905.955 2431.15 906.404 2430.63 908.357C2444.14 904.968 2457.14 901.717 2470.14 898.418C2483.03 895.186 2495.83 892.019 2508.72 888.739C2521.51 885.477 2534.28 882.12 2546.95 878.829C2547.2 879.03 2547.35 879.297 2547.6 879.499C2545.59 880.292 2543.71 881.257 2541.56 881.878C2535.01 883.855 2528.35 885.802 2521.78 887.636C2502.88 892.897 2483.98 898.11 2465.07 903.323C2450.28 907.425 2435.35 911.356 2420.58 915.601C2414.94 917.223 2409.87 919.629 2404.51 921.643C2399.36 923.572 2394.24 925.692 2388.82 927.373C2375.64 931.44 2361.77 934.01 2347.89 936.58C2335.58 938.828 2323.24 940.982 2311.09 943.545C2301.23 945.659 2291.12 947.572 2282.34 951.557C2280.54 952.361 2278.16 952.923 2275.99 953.449C2257.99 957.671 2239.99 961.893 2221.86 965.991C2200.73 970.808 2179.45 975.357 2158.98 981.481C2156.93 982.084 2154.45 982.712 2152.99 983.557C2149.95 985.312 2147.28 987.25 2144.58 989.093C2138.25 993.532 2132.28 995.114 2123.26 994.63C2119.13 994.42 2115.07 994.001 2111.31 993.432C2105.9 992.662 2100.22 992.82 2093.96 993.963C2086.54 995.258 2079.2 996.441 2071.81 997.879C2067.12 998.748 2062.32 999.635 2058.03 1001.02C2050.8 1003.36 2043.29 1004.77 2035.68 1006.2C2032.33 1006.78 2029.03 1007.6 2025.7 1008.28C2018.64 1009.76 2011.53 1011.59 2004.38 1012.6C1985.13 1015.22 1966.4 1018.98 1947.69 1023.47C1937.67 1025.91 1927.55 1028.37 1917.53 1030.8C1915.36 1031.33 1913.07 1031.78 1911.03 1032.47C1906.97 1033.87 1902.77 1034.51 1898.5 1034.71C1889.01 1035.24 1879.73 1037.01 1870.41 1039.13C1863.57 1040.66 1856.67 1041.87 1849.66 1043.04C1844.74 1043.85 1839.76 1044.28 1834.83 1045.05C1815.77 1048.13 1796.75 1051.45 1777.65 1054.34C1766.32 1056.08 1755.96 1058.38 1747.1 1063.16C1745.13 1064.24 1742.47 1065.05 1740.16 1065.99C1736.09 1066.7 1732.12 1067.39 1728.04 1068.11C1725.52 1067.27 1722.59 1068.32 1719.87 1068.8C1713.39 1069.93 1706.85 1071.36 1700.41 1072.1C1691.74 1073.02 1683.07 1073.31 1674.38 1074.1C1666.85 1074.77 1659.1 1075.39 1651.68 1076.73C1646.36 1077.71 1642.62 1077.88 1639.59 1075.95C1635.01 1078.67 1630 1079.59 1624.4 1079.59C1617.08 1079.59 1609.59 1079.92 1602.2 1080.13C1599.42 1080.22 1596.53 1080.34 1593.65 1080.5C1590.23 1080.65 1586.67 1080.64 1583.21 1081.14C1560.95 1084.44 1538.82 1087.82 1516.58 1091.21C1510.28 1092.16 1506.71 1093.91 1504.54 1096.89C1502.63 1099.53 1495.3 1101.3 1492.2 1099.58C1489.23 1098 1485.72 1098.26 1481.22 1099C1470.42 1100.69 1459.69 1102.17 1448.97 1103.65C1440.45 1104.85 1431.9 1105.8 1423.37 1106.95C1414.33 1108.18 1405.47 1109.88 1396.86 1112.36C1389.47 1114.48 1385.47 1114.4 1381.89 1112.38C1386.23 1110.69 1388.52 1110.24 1394.72 1109.4C1405.24 1107.96 1415.88 1106.59 1426.32 1104.72C1443.35 1101.69 1460.24 1098.5 1477.37 1096.73C1480.45 1096.44 1483.12 1095.73 1483.69 1093.42C1480.87 1093.33 1478.14 1093.07 1475.14 1093.2C1468.95 1093.5 1462.62 1094.26 1456.51 1094.44C1441.64 1094.98 1426.66 1095.54 1411.33 1097.78C1401.03 1099.28 1391.02 1098.67 1380.61 1100.74C1379.16 1101.04 1377.61 1100.82 1376.01 1100.9C1365.08 1101.19 1354.24 1101.42 1342.8 1103.76C1329.28 1106.51 1315.6 1108.95 1302.1 1111.8C1291.09 1114.12 1279.63 1116.36 1271.43 1121.81C1272.11 1123.26 1275.18 1122.92 1277.63 1122.79C1287.63 1122.07 1297.61 1121.26 1307.58 1120.35C1311.28 1120 1314.59 1119.82 1317.24 1120.82C1321.05 1122.27 1325.95 1122.59 1331.56 1122C1335.58 1121.59 1339.67 1120.98 1343.64 1120.28C1353.36 1118.58 1362.99 1117.59 1372.19 1117.89C1378.37 1118.09 1384.67 1117.82 1391.21 1117.02C1393.21 1116.77 1395.24 1116.66 1397.18 1116.67C1398.26 1116.68 1399.07 1117.02 1400.07 1117.19C1399.5 1117.63 1399.23 1117.93 1398.92 1117.98C1397.89 1118.26 1396.76 1118.6 1395.7 1118.69C1386.68 1119.43 1377.76 1121.43 1368.94 1123.31C1365.83 1124.01 1362.67 1124.41 1359.51 1124.81C1351.49 1125.77 1343.36 1126.7 1335.31 1127.47C1312.97 1129.66 1290.68 1131.54 1268.39 1134.01C1241.23 1136.99 1214.44 1138.97 1187.67 1140.46C1177 1141.05 1170.67 1139.31 1168.47 1134.74C1167.95 1133.61 1167.53 1132.41 1167.31 1131.17C1166.65 1126.78 1169.94 1124.04 1179.6 1122.01C1191.76 1119.45 1203.61 1115.81 1216.05 1114.28C1218.48 1114 1220.96 1113.42 1222.07 1111.75C1220.96 1111.56 1220.14 1111.16 1218.96 1111.17C1206.69 1111.21 1194.41 1111.19 1181.52 1112.66C1177.09 1113.19 1173.05 1114.09 1169.72 1115.99C1164.23 1119.11 1157.62 1120.71 1150.41 1121.38C1145.96 1121.76 1141.58 1121.99 1137.13 1122.37C1123.24 1123.62 1109.44 1124.81 1095.88 1129.14C1093.53 1129.89 1090.58 1130.26 1087.94 1130.57C1060.32 1133.97 1032.72 1137.47 1005.17 1140.71C981.218 1143.52 957.929 1144.6 935.57 1143.6C922.548 1143.03 911.96 1140.37 902.054 1137.29C894.654 1135.01 899.905 1129.92 906.711 1128.2C910.528 1127.24 914.637 1126.71 918.658 1126.31C922.47 1125.94 926.14 1125.98 929.872 1125.77C963.377 1123.99 997.254 1121.26 1030.34 1120.78C1039.79 1120.64 1049.84 1119.58 1059.59 1118.66C1062.98 1118.36 1066.93 1117.57 1069.97 1116.45C1076.05 1114.26 1076.53 1111.48 1071.16 1110.31C1069.14 1109.83 1066.53 1109.7 1063.95 1109.71C1049.48 1109.49 1034.92 1109.39 1020.44 1109.12C1016.23 1109.02 1012.09 1108.77 1008.13 1108.33C1007.04 1108.23 1005.83 1107.46 1005.95 1106.94C1006.07 1106.39 1007.77 1105.65 1008.85 1105.02C1009.35 1104.78 1010.09 1104.7 1010.81 1104.53C1020.11 1102.27 1029.42 1100.74 1038.82 1100.27C1044.8 1099.97 1050.79 1099.12 1057.51 1097.5C1056.2 1097.43 1055.65 1097.34 1055.01 1097.4C1029.29 1099.98 1003.57 1102.56 977.862 1105.18C967.383 1106.23 956.816 1107.39 946.319 1109.56C943.828 1110.1 941.115 1109.98 938.453 1110.15C933.233 1110.48 927.979 1110.61 922.67 1111.05C915.77 1111.61 908.806 1112.44 901.905 1113.01C892.358 1113.84 882.72 1114.15 873.152 1115.48C859.909 1117.35 847.303 1117.93 834.719 1118.02C827.405 1118.07 820.145 1117.82 812.68 1118.24C794.114 1119.23 775.581 1120.41 756.943 1121.6C750.339 1122.02 743.543 1122.57 736.85 1124.33C735.821 1124.61 734.559 1124.78 733.593 1124.8C715.291 1125.45 697.445 1125.62 681.034 1123.54C675.309 1122.82 671.093 1121.5 669.508 1118.59C668.282 1116.5 664.63 1115.32 659.284 1116.16C649.017 1117.8 638.379 1119.17 628.479 1121.68C617.455 1124.54 606.507 1126.6 595.242 1128.08C572.277 1131.01 550.212 1132.31 529.162 1130.79C517.272 1129.93 504.792 1130 491.873 1130.64C467.965 1131.87 443.855 1134.41 419.569 1137.18C409.22 1138.35 399.037 1139.25 389.601 1138.25C379.505 1137.17 376.548 1135.04 378.401 1129.62C379.122 1127.58 379.626 1125.53 379.921 1123.52C380.562 1118.55 385.594 1114.69 395.782 1111.98C400.515 1110.71 405.418 1109.8 410.305 1108.8C412.901 1108.25 415.794 1107.55 415.674 1106.25C415.613 1105.28 414.03 1104.23 412.258 1103.95C409.488 1103.5 406.068 1103.66 402.922 1103.52C395.437 1103.21 387.575 1103.21 380.458 1102.54C375.748 1102.09 371.097 1101.97 365.893 1102.39C350.089 1103.78 334.276 1105.12 318.439 1106.31C315.037 1106.57 311.439 1106.31 308.756 1105.75C301.481 1104.18 302.235 1099.24 310.313 1096.16C313.75 1094.88 317.985 1093.84 321.876 1093.31C333.961 1091.59 346.087 1090.11 358.205 1088.59C374.424 1086.49 390.53 1084.36 406.432 1080.46C425.324 1075.79 444.512 1072.19 463.882 1069.64C467.887 1069.14 471.938 1068.28 475.876 1067.4C478.254 1066.84 481.649 1066.54 482.202 1064.78C482.525 1063.54 478.887 1061.82 476.087 1061.82C474.365 1061.83 472.547 1061.9 470.849 1062.05C465.976 1062.51 460.981 1062.89 456.149 1063.59C451.526 1064.25 446.702 1064.99 442.266 1066.11C437.517 1067.28 433.06 1068.9 428.465 1070.34C423.565 1071.88 421.626 1071.87 417.456 1070.2C419.138 1068.73 420.925 1067.24 422.702 1065.7C419.744 1064.8 417.04 1064.73 413.671 1065.17C406.716 1066.05 399.76 1066.92 392.884 1067.63C359.742 1070.87 326.54 1075 293.358 1079.86C286.427 1080.87 279.463 1081.7 272.491 1082.47C265.624 1083.23 262.335 1082.29 260.662 1079.49C260.224 1078.83 260.1 1078.12 259.975 1077.4C259.547 1075.57 257.721 1074.37 254.283 1073.79C253.171 1073.59 251.963 1073.46 250.948 1073.2C241.722 1070.94 242.635 1065.68 253.347 1061.65C257.691 1060.01 262.545 1058.82 267.294 1057.65C272.357 1056.42 277.486 1055.57 282.582 1054.54C300.796 1050.91 319.106 1047.23 337.319 1043.6C343.774 1042.33 350.253 1041.2 356.562 1039.7C370.207 1036.44 383.919 1033.55 397.951 1031.89C400.275 1031.63 402.717 1030.81 405.096 1030.25C405.054 1030.01 405.021 1029.82 404.979 1029.58C398.81 1030.02 392.632 1030.42 386.471 1030.9C368.623 1032.3 350.888 1033.73 333.041 1035.14C330.813 1035.33 328.543 1035.28 326.082 1035.37C329.011 1032.41 333.282 1032.2 337.286 1031.7C363.508 1028.3 389.85 1024.97 416.063 1021.52C433.753 1019.22 451.523 1016.75 469.293 1014.28C498.729 1010.17 528.157 1006.01 557.48 1001.87C558.847 1001.68 560.23 1001.59 561.46 1001.23C562.584 1000.88 563.973 1000.2 564.115 999.784C564.258 999.367 562.984 998.854 562.002 998.78C557.655 998.559 553.124 998.517 548.778 998.295C541.719 997.959 534.626 998.659 527.077 999.83C513.45 1001.96 499.764 1003.77 486.078 1005.57C467.022 1008.06 447.986 1010.06 428.875 1012.86C408.919 1015.76 388.921 1018.42 368.945 1020.58C335.13 1024.28 301.306 1027.93 267.498 1031.68C255.878 1032.97 250.91 1035.36 247.819 1041.1C246.831 1042.84 245.045 1044.33 241.687 1045.45C233.326 1048.14 221.285 1047.64 218.61 1044.04C215.676 1040.19 209.098 1039.52 200.58 1040.08C181.717 1041.22 162.975 1042.43 144.095 1043.47C139.293 1043.72 134.545 1043.67 129.893 1043.55C125.676 1043.45 123.504 1042.12 123.573 1040.05C123.643 1037.98 125.684 1036.1 129.861 1034.73C133.026 1033.74 136.199 1032.79 139.527 1032.11C163.647 1027.17 187.776 1023.49 212.094 1020.91C236.092 1018.34 260.072 1015.67 283.956 1013.07C285.967 1012.86 287.985 1012.71 289.916 1012.67C292.804 1012.55 294.835 1013.08 294.675 1014.63C294.489 1016.03 292.29 1017.01 289.685 1017.51C286.14 1018.18 282.483 1018.82 278.896 1019.25C269.207 1020.5 259.581 1021.49 249.908 1022.84C243.491 1023.71 237.045 1025.04 230.671 1026.15C231.686 1026.41 232.66 1026.44 233.713 1026.3C248.974 1024.28 264.261 1022.39 279.489 1020.17C296.084 1017.76 312.745 1015.74 329.218 1014.48C342.296 1013.52 355.337 1012.96 368.55 1011.53C386.942 1009.55 405.33 1006.92 423.76 1004.54C429.34 1003.81 435.017 1003.01 440.556 1002.05C442.646 1001.68 444.991 1000.93 446.564 1000.07C450.687 997.777 455.562 996.093 460.834 994.829C462.69 994.358 464.529 993.791 466.578 993.188C466.261 992.606 466.387 992.094 465.919 991.882C463.233 990.684 462.696 989.455 466.894 987.594C467.793 987.192 468.438 985.952 468.041 985.531C466.634 984.257 465.273 982.632 462.703 982.1C453.544 980.219 443.983 978.506 434.264 977.115C429.955 976.495 424.702 976.628 419.77 976.754C411.724 976.934 403.615 977.369 395.507 977.805C389.851 978.106 384.092 978.425 378.286 979.096C375.857 979.373 372.901 980.331 370.928 981.362C363.923 985.036 355.872 985.804 347.885 986.317C344.587 986.549 342.306 985.82 342.884 984.2C343.937 980.977 339.967 980.444 334.994 980.332C328.177 980.15 321.298 980.224 314.586 980.024C307.656 979.812 300.527 979.684 294.141 978.888C282.353 977.368 281.021 972.208 290.652 966.31C293.082 964.808 296.173 963.386 299.183 962.125C302.194 960.864 305.664 959.767 308.909 958.613C315.406 956.35 316.268 955.121 314.039 952.226C312.499 950.191 311.144 947.977 310.64 945.712C310.303 944.398 311.179 942.628 312.885 941.3C318.951 936.564 326.937 932.964 337.768 931.465C343.549 930.651 349.434 929.819 355.224 929.054C357.226 928.802 359.237 928.598 361.272 928.537C370.476 928.204 379.416 928.212 388.221 928.684C398.765 929.244 409.757 929.286 421.432 927.688C426.168 927.057 429.572 925.581 432.345 923.577C437.515 919.88 442.459 916.124 447.855 912.486C455.847 907.07 465.865 903.997 478.036 903.392C481.133 903.243 484.222 903.047 487.319 902.898C496.41 902.536 504.503 900.78 511.667 896.783C516.28 894.213 516.783 892.164 511.748 891.083C510.064 890.691 507.77 890.503 505.647 890.678C496.953 891.461 488.242 892.148 479.518 893.378C462.28 895.8 445.003 898.621 427.684 901.204C408.589 904.097 389.586 907.514 370.861 911.911C360.31 914.391 349.725 916.68 339.019 918.893C331.954 920.372 325.484 920.325 321.023 918.212C317.376 916.447 312.62 916.346 306.88 917.397C300.618 918.54 294.373 919.777 288.077 920.73C266.562 923.948 244.951 927.231 223.403 930.259C203.639 933.024 183.818 935.456 164.453 936.19C157.712 936.436 150.912 936.349 144.785 935.801C134.714 934.864 132.261 930.684 137.792 925.355C138.721 924.507 139.649 923.658 140.804 922.869C148.228 917.896 156.959 913.626 167.983 910.769C189.1 905.268 209.156 898.628 229.333 892.066C230.763 891.62 232.16 890.984 233.226 890.307C235.263 889.02 239.135 887.756 237.356 886.204C235.577 884.652 232.027 885.909 229.005 886.485C219.206 888.344 209.441 890.392 199.584 891.917C187.315 893.815 175.443 896.133 164.029 899.842C161.379 900.697 158.381 901.416 155.551 901.862C146.731 903.157 142.074 900.538 145.317 896.296C147.691 893.234 151.767 891.297 158.167 890.326C176.313 887.549 194.556 884.707 212.685 881.835C245.905 876.573 279.158 871.502 312.199 865.83C347.956 859.684 383.91 854.043 419.335 845.994C421.304 845.552 423.257 845.015 424.967 844.324C426.171 843.82 427.807 842.701 427.548 842.452C426.909 841.877 425.426 841.401 423.921 841.418C421.434 841.362 418.596 841.76 415.934 841.931C401.125 842.85 386.308 843.722 371.419 844.802C362.596 845.461 353.596 846.346 344.631 847.421C330.494 849.106 316.418 851.76 302.443 854.984C293.024 857.168 284.151 857.541 276.329 855.917C267.17 854.036 264.924 851.046 268.37 845.493C269.048 844.443 269.518 843.43 270.435 841.897C266.301 842.276 263.091 842.395 259.834 842.866C245.668 844.996 231.534 847.318 217.464 849.382C212.632 850.079 207.461 850.688 202.835 850.712C194.973 850.712 191.795 847.933 194.011 843.968C196.448 839.425 203.478 835.893 213.816 834.039C228.856 831.363 243.801 828.754 258.858 826.173C286.472 821.498 312.919 815.066 337.513 805.428C340.741 804.178 344.654 803.152 348.287 802.37C356.38 800.614 363.011 797.887 368.657 794.45C371.769 792.534 373.769 790.42 371.94 788.583C367.198 783.626 365.767 777.896 364.022 772.22C363.563 770.829 363.105 769.439 362.237 768.169C360.768 765.925 357.472 764.932 351.674 765.65C335.97 767.608 320.337 769.358 304.641 771.364C291.365 773.045 278.147 775.059 264.872 776.74C246.015 779.15 227.197 781.162 208.298 784.56C199.946 786.068 191.687 786.873 183.943 786.313C177.72 785.831 171.4 786.641 164.941 788.504C157.461 790.692 150.301 791.011 143.418 790.448C137.517 789.959 134.82 788.077 135.35 784.945C135.577 783.778 136.117 782.557 136.344 781.389C136.71 779.169 136.08 778.641 131.733 778.42C128.256 778.243 124.411 778.424 120.846 778.36C113.386 778.193 108.092 776.862 106.687 773.137C105.128 769.144 101.109 768.326 91.7331 769.522C88.155 770 84.5684 770.43 81.0069 771.003C73.6664 772.138 68.7363 771.038 64.7177 768.995C60.9415 767.105 60.9561 765.338 64.8587 762.401C70.4762 758.185 77.9022 755.075 87.107 753.516C108.869 749.863 130.615 746.115 152.364 743.003C180.208 739.023 208.047 735.632 235.844 732.004C246.796 730.581 257.86 729.189 268.741 727.975C276.235 727.107 283.438 725.8 290.596 723.619C295.19 722.18 300.003 720.751 304.785 719.769C319.855 716.647 335.055 713.649 350.15 710.67C374.601 705.763 399.327 702.426 423.695 697.043C442.565 692.866 461.97 689.281 481.327 687.273C482.171 687.175 482.991 686.934 484.446 686.631C482.964 684.929 481.62 683.398 480.267 681.821C478.243 679.478 474.16 678.917 468.283 679.796C465.766 680.186 463.371 680.654 460.863 681.092C451.65 682.603 442.445 684.161 433.311 685.511C411.144 688.695 388.789 691.423 366.689 694.988C323.315 701.925 280.132 706.868 236.827 711.734C214.64 714.186 192.423 717.086 170.286 719.824C157.951 721.341 145.632 722.953 133.217 724.63C120.28 726.399 107.423 726.782 94.3768 729.158C90.7193 729.797 86.8322 729.74 83.1163 730.046C74.2048 730.818 71.0903 727.783 67.1181 725.388C66.521 725.052 66.6765 724.093 67.35 723.632C72.6242 719.917 77.7528 715.982 87.0786 714.501C94.4191 713.366 101.856 712.165 109.263 711.411C120.16 710.293 131.103 708.823 141.955 706.83C144.35 706.362 146.883 706.067 149.32 705.838C153.341 705.43 157.283 705.183 161.296 704.727C167.85 704.024 172.697 701.559 173.076 698.797C173.531 695.237 169.771 693.443 162.992 694.087C159.388 694.422 155.794 694.805 152.278 695.027C122.903 697.019 93.4053 700.16 63.7172 705.296C49.5342 707.331 37.2134 707.081 28.7053 702.145ZM2559.72 252.026C2562.73 250.717 2565.72 249.361 2568.85 248.177C2571.98 246.993 2575.7 246.098 2578.6 244.808C2581.2 243.667 2586.12 244.083 2587.42 241.061C2576.39 243.87 2567.03 246.976 2559.79 251.817C2559.7 251.883 2559.83 252.008 2559.84 252.103C2556.18 253.331 2556.18 253.331 2554.77 255.097C2555.11 255.185 2555.56 255.302 2555.89 255.39C2557.1 254.249 2558.41 253.138 2559.72 252.026ZM2421.55 221.154C2417.3 220.278 2417.3 220.278 2412.65 222.61C2416.2 221.99 2419.02 221.497 2421.74 221.022C2421.85 222.867 2420.75 224.626 2417.94 226.392C2416.58 227.266 2415.57 228.275 2414.88 229.23C2413.82 230.591 2415.23 231.228 2418.16 230.765C2419.52 230.527 2420.86 230.195 2422.08 229.786C2427.77 227.812 2433.27 226.018 2439.58 224.524C2448.27 222.468 2455.58 218.692 2462.37 215.006C2464.44 213.91 2466.46 212.575 2465.18 211.378C2463.9 210.228 2461.02 211.025 2458.6 211.302C2457.75 211.4 2456.71 211.63 2455.96 211.615C2452.09 211.654 2449.27 212.783 2446.43 214.407C2440.85 217.588 2433.78 219.656 2426.28 221.112C2424.84 221.51 2423.16 221.166 2421.55 221.154ZM206.136 705.573C206.846 705.939 206.992 706.159 207.314 706.152C209.253 706.156 211.184 706.113 213.211 706.004C240.057 704.944 267.289 702.394 294.63 699.238C316.583 696.679 338.537 694.119 360.553 691.304C378.669 688.974 396.874 686.53 414.986 683.564C424.2 682.053 433.317 680.608 442.492 679.496C448.298 678.825 454.142 677.755 459.986 676.686C463.33 676.102 465.092 674.471 463.173 673.972C460.215 673.067 457.81 671.625 453.04 672.065C438.106 673.497 423.146 674.786 408.308 676.151C403.007 676.636 397.611 677.186 392.265 678.021C372.543 681.024 352.95 684.151 333.245 687.249C331.251 687.548 329.241 687.753 327.238 688.004C319.004 688.952 310.631 689.728 302.43 690.866C288.335 692.788 274.281 694.948 260.211 697.013C259.262 697.129 258.418 697.228 257.477 697.392C250.956 698.286 244.556 699.256 238.027 700.102C232.029 700.905 226.022 701.659 220.007 702.367C215.158 702.968 210.485 703.343 206.136 705.573ZM455.473 1023.95C455.41 1024.21 455.243 1024.48 455.18 1024.74C467.419 1023.29 479.729 1021.63 492.01 1020.41C503.229 1019.29 514.958 1017.39 525.225 1018.83C525.886 1018.91 527.019 1018.62 527.863 1018.52C535.053 1017.75 542.146 1017.05 549.327 1016.24C551.12 1016.02 553.043 1015.93 554.569 1015.42C559.54 1013.67 564.632 1013.22 569.81 1012.66C578.584 1011.72 587.236 1010.7 595.985 1009.61C597.248 1009.44 598.573 1009.01 601.257 1008.35C593.643 1007.91 587.541 1007.51 581.256 1007.28C578.978 1007.19 576.436 1007.44 574.016 1007.76C547.134 1011.08 520.365 1014.43 493.492 1017.8C492.648 1017.9 491.724 1018.16 491.017 1018.43C486.698 1020.21 482.025 1020.59 477.28 1021.17C469.786 1022.04 462.63 1023 455.473 1023.95ZM2924.25 490.631C2914.34 493.049 2905.03 495.851 2897.57 499.997C2893.55 502.267 2889.41 503.872 2883.86 504.792C2878.21 505.729 2874.69 507.766 2872.9 510.48C2892.11 505.165 2911.39 500.23 2924.25 490.631ZM2186.18 778.933C2188.07 778.652 2188.92 778.601 2189.76 778.455C2194.02 777.564 2193.69 775.709 2195.37 774.239C2199.58 770.563 2198.92 767.394 2197.1 764.379C2195.9 762.432 2194.5 762.431 2188.79 763.673C2187.74 765.67 2186.46 767.609 2187.66 769.556C2188.43 770.892 2188.39 772.516 2188.23 774.064C2187.94 775.487 2186.92 777.038 2186.18 778.933ZM2295.09 285.149C2295.24 285.369 2295.33 285.892 2295.62 286.331C2297.17 289.05 2299.87 289.118 2305.07 286.789C2310.46 284.376 2312.02 281.604 2312.4 278.794C2312.65 277.18 2310.83 276.616 2307.77 276.955C2300.38 277.852 2294.36 281.6 2295.09 285.149ZM893.77 1107.12C893.715 1107.43 893.765 1107.71 893.71 1108.02C912.83 1108.35 932.528 1105.21 952.805 1102.3C951.991 1101.96 951.845 1101.74 951.523 1101.74C944.564 1101.98 937.605 1102.21 930.654 1102.5C929.584 1102.54 928.313 1102.66 927.389 1102.92C922.063 1104.49 916.818 1104.67 911.422 1105.22C905.59 1105.75 899.688 1106.48 893.77 1107.12ZM1617.55 727.099C1620.67 723.368 1619.38 722.124 1612.53 721.751C1609.43 723.126 1607.21 724.592 1608.99 726.192C1611.74 726.496 1614.48 726.754 1617.55 727.099ZM2464.66 772.069C2463.71 774.684 2463.71 774.684 2470.4 774.742C2473.29 771.542 2472.01 770.981 2464.66 772.069ZM2167.88 916.542C2168.12 914.786 2166.86 913.779 2163.21 913.829C2160.96 913.879 2159.9 914.603 2159.52 916.14C2163.76 914.517 2162.67 918.728 2167.88 916.542ZM339.385 966.624C342.834 969.11 344.636 968.943 348.852 965.951C346.065 965.409 343.399 964.943 339.385 966.624ZM2832.94 559.127C2838.87 555.492 2838.62 554.065 2832.01 553.847C2832.31 555.512 2832.6 557.177 2832.94 559.127ZM3085.23 451.048C3080.19 450.556 3080.19 450.556 3077.98 454.521C3081.88 454.036 3084.39 453.009 3085.23 451.048ZM2119.83 881.256C2123.52 879.582 2126.11 878.394 2128.61 877.272C2128.37 877.118 2128.22 876.898 2127.98 876.745C2125.28 877.314 2122.59 877.931 2119.68 878.538C2119.71 879.317 2119.81 879.888 2119.83 881.256ZM2230.19 865.073C2227.21 865.888 2224.24 866.75 2222.28 868.512C2226.97 868.233 2229 866.898 2230.19 865.073ZM1221.89 479.176C1218.11 477.876 1216.73 478.654 1215.33 480.469C1217.41 480.056 1219.07 479.716 1221.89 479.176ZM2351.29 699.462C2351.92 699.4 2352.56 699.339 2353.19 699.277C2353.2 698.688 2353.31 698.08 2353.31 697.491C2352.78 697.535 2352.36 697.608 2351.83 697.651C2351.72 698.259 2351.5 698.837 2351.29 699.462Z" fill="#F14F63"/>
<path d="M756.92 488.115C748.588 490.354 740.281 492.736 731.803 494.756C711.231 499.672 690.554 504.606 669.802 509.112C656.517 511.971 642.994 514.088 629.634 516.519C629.425 516.555 629.215 516.592 629.006 516.628C626.795 516.916 623.982 517.457 623.741 516.077C623.5 514.698 626.33 514.252 628.508 513.774C633.579 512.594 638.65 511.415 643.625 510.301C644.043 510.228 644.557 510.089 644.975 510.016C648.633 509.377 648.448 506.468 652.64 506.423C657.162 506.417 658.188 504.277 661.023 503.243C663.962 502.191 666.505 500.717 668.952 499.31C669.729 498.831 670.24 498.055 670.253 497.513C670.372 495.728 670.387 493.961 670.184 492.182C669.725 487.704 663.926 485.334 654.242 485.995C644.871 486.602 635.47 487.656 626.281 490.535C618.931 492.848 612.725 495.549 609.561 499.631C608.682 500.765 607.193 502.104 605.186 502.944C603.187 503.833 600.19 504.552 597.744 504.734C594.977 504.923 594.319 503.617 594.433 502.42C594.624 499.2 596.676 496.146 603.244 493.675C615.37 489.107 627.599 484.52 639.717 479.904C653.36 474.777 668.08 470.883 682.913 467.018C689.815 465.224 696.691 464.514 703.562 464.392C713.764 464.229 717.882 466.843 715.649 471.939C714.267 475.121 711.12 478.073 706.194 480.698C697.529 485.348 693.745 490.813 688.068 495.922C685.282 498.468 686.84 499.372 692.261 498.965C704.374 498.026 716.409 496.022 728.44 493.382C737.666 491.33 747.014 489.354 756.248 487.35C756.612 487.58 756.766 487.847 756.92 488.115Z" fill="#F14F63"/>
<path d="M1401.09 418.764C1404.96 417.452 1408.58 416.034 1412.59 414.894C1429.11 410.244 1445.54 405.659 1462.09 401.103C1471.94 398.352 1482.07 395.898 1491.79 392.975C1501 390.191 1510.56 387.59 1518.11 383.33C1519.08 382.767 1521.52 382.538 1523.12 382.454C1528.15 382.262 1532.01 380.951 1534.85 378.691C1538.25 375.988 1542.96 373.941 1548.52 372.48C1559.12 369.649 1569.73 366.913 1580.35 364.224C1593.86 360.787 1607.25 357.273 1620.9 354.055C1651 346.937 1681.12 339.962 1711.13 333.004C1715.06 332.073 1719.17 331.552 1723.15 330.906C1725.67 330.515 1727.63 330.662 1727.86 331.947C1728.07 333.136 1726.33 333.684 1724.17 334.258C1680.38 345.629 1636.61 357.048 1592.72 368.438C1582.21 371.155 1572.66 374.441 1563.84 378.824C1558.89 381.306 1552.19 383.016 1546.03 384.729C1531.44 388.795 1516.72 392.642 1502.01 396.631C1500.98 396.908 1499.74 397.175 1498.83 397.53C1485.34 402.924 1470.17 405.475 1455.43 408.638C1440.38 411.855 1425.3 414.929 1410.22 418.003C1407.42 418.591 1404.47 419.007 1401.55 419.518C1401.51 419.28 1401.25 419.031 1401.09 418.764Z" fill="#F14F63"/>
<path d="M806.936 427.321C809.179 428.449 810.979 429.507 813.068 430.368C815.028 431.104 817.69 430.933 820.47 430.203C822.841 429.593 825.203 428.935 827.565 428.278C833.108 426.721 836.11 426.638 838.925 427.961C841.845 429.264 842.544 432.034 839.867 433.973C833.656 438.489 825.59 442.25 816.061 445.042C814.623 445.44 812.475 445.472 811.05 445.328C801.864 444.53 792.377 444.471 782.203 445.415C773.831 446.19 769.783 444.593 769.44 440.781C769.097 436.968 768.755 433.155 768.935 429.251C769.164 425.632 771.204 421.894 776.077 418.347C781.238 414.602 788.671 412.765 795.75 413.833C804.713 415.209 811.038 418.124 815.581 421.939C817.343 423.396 816.151 424.584 812.384 425.83C810.962 426.324 809.403 426.645 806.936 427.321Z" fill="#F14F63"/>
</svg>
