<svg width="1920" height="439" viewBox="0 0 1920 439" fill="none" xmlns="http://www.w3.org/2000/svg">
<mask id="mask0_639_9802" style="mask-type:alpha" maskUnits="userSpaceOnUse" x="0" y="0" width="1920" height="439">
<rect width="1920" height="439" fill="url(#paint0_linear_639_9802)"/>
</mask>
<g mask="url(#mask0_639_9802)">
<circle cx="60" cy="183" r="146" fill="#FDFBFB" stroke="#8D99AE" stroke-width="8"/>
<circle cx="60.5" cy="182.5" r="109" fill="#FDFBFB" stroke="#8D99AE" stroke-width="7"/>
<circle cx="60" cy="183" r="72" fill="#FDFBFB" stroke="#8D99AE" stroke-width="6"/>
<circle cx="60.5" cy="182.5" r="35" fill="#FDFBFB" stroke="#8D99AE" stroke-width="5"/>
<circle cx="360" cy="183" r="146" fill="#FDFBFB" stroke="#8D99AE" stroke-width="8"/>
<circle cx="360.5" cy="182.5" r="109" fill="#FDFBFB" stroke="#8D99AE" stroke-width="7"/>
<circle cx="360" cy="183" r="72" fill="#FDFBFB" stroke="#8D99AE" stroke-width="6"/>
<circle cx="360.5" cy="182.5" r="35" fill="#FDFBFB" stroke="#8D99AE" stroke-width="5"/>
<circle cx="660" cy="183" r="146" fill="#FDFBFB" stroke="#8D99AE" stroke-width="8"/>
<circle cx="660.5" cy="182.5" r="109" fill="#FDFBFB" stroke="#8D99AE" stroke-width="7"/>
<circle cx="660" cy="183" r="72" fill="#FDFBFB" stroke="#8D99AE" stroke-width="6"/>
<circle cx="660.5" cy="182.5" r="35" fill="#FDFBFB" stroke="#8D99AE" stroke-width="5"/>
<circle cx="960" cy="183" r="146" fill="#FDFBFB" stroke="#8D99AE" stroke-width="8"/>
<circle cx="960.5" cy="182.5" r="109" fill="#FDFBFB" stroke="#8D99AE" stroke-width="7"/>
<circle cx="960" cy="183" r="72" fill="#FDFBFB" stroke="#8D99AE" stroke-width="6"/>
<circle cx="960.5" cy="182.5" r="35" fill="#FDFBFB" stroke="#8D99AE" stroke-width="5"/>
<circle cx="1260" cy="183" r="146" fill="#FDFBFB" stroke="#8D99AE" stroke-width="8"/>
<circle cx="1260.5" cy="182.5" r="109" fill="#FDFBFB" stroke="#8D99AE" stroke-width="7"/>
<circle cx="1260" cy="183" r="72" fill="#FDFBFB" stroke="#8D99AE" stroke-width="6"/>
<circle cx="1260.5" cy="182.5" r="35" fill="#FDFBFB" stroke="#8D99AE" stroke-width="5"/>
<circle cx="1560" cy="183" r="146" fill="#FDFBFB" stroke="#8D99AE" stroke-width="8"/>
<circle cx="1560.5" cy="182.5" r="109" fill="#FDFBFB" stroke="#8D99AE" stroke-width="7"/>
<circle cx="1560" cy="183" r="72" fill="#FDFBFB" stroke="#8D99AE" stroke-width="6"/>
<circle cx="1560.5" cy="182.5" r="35" fill="#FDFBFB" stroke="#8D99AE" stroke-width="5"/>
<circle cx="1860" cy="183" r="146" fill="#FDFBFB" stroke="#8D99AE" stroke-width="8"/>
<circle cx="1860.5" cy="182.5" r="109" fill="#FDFBFB" stroke="#8D99AE" stroke-width="7"/>
<circle cx="1860" cy="183" r="72" fill="#FDFBFB" stroke="#8D99AE" stroke-width="6"/>
<circle cx="1860.5" cy="182.5" r="35" fill="#FDFBFB" stroke="#8D99AE" stroke-width="5"/>
<circle cx="-90" cy="258" r="146" fill="#FDFBFB" stroke="#8D99AE" stroke-width="8"/>
<circle cx="-89.5" cy="257.5" r="109" fill="#FDFBFB" stroke="#8D99AE" stroke-width="7"/>
<circle cx="210" cy="258" r="146" fill="#FDFBFB" stroke="#8D99AE" stroke-width="8"/>
<circle cx="210.5" cy="257.5" r="109" fill="#FDFBFB" stroke="#8D99AE" stroke-width="7"/>
<circle cx="210" cy="258" r="72" fill="#FDFBFB" stroke="#8D99AE" stroke-width="6"/>
<circle cx="210.5" cy="257.5" r="35" fill="#FDFBFB" stroke="#8D99AE" stroke-width="5"/>
<circle cx="510" cy="258" r="146" fill="#FDFBFB" stroke="#8D99AE" stroke-width="8"/>
<circle cx="510.5" cy="257.5" r="109" fill="#FDFBFB" stroke="#8D99AE" stroke-width="7"/>
<circle cx="510" cy="258" r="72" fill="#FDFBFB" stroke="#8D99AE" stroke-width="6"/>
<circle cx="510.5" cy="257.5" r="35" fill="#FDFBFB" stroke="#8D99AE" stroke-width="5"/>
<circle cx="810" cy="258" r="146" fill="#FDFBFB" stroke="#8D99AE" stroke-width="8"/>
<circle cx="810.5" cy="257.5" r="109" fill="#FDFBFB" stroke="#8D99AE" stroke-width="7"/>
<circle cx="810" cy="258" r="72" fill="#FDFBFB" stroke="#8D99AE" stroke-width="6"/>
<circle cx="810.5" cy="257.5" r="35" fill="#FDFBFB" stroke="#8D99AE" stroke-width="5"/>
<circle cx="1110" cy="258" r="146" fill="#FDFBFB" stroke="#8D99AE" stroke-width="8"/>
<circle cx="1110.5" cy="257.5" r="109" fill="#FDFBFB" stroke="#8D99AE" stroke-width="7"/>
<circle cx="1110" cy="258" r="72" fill="#FDFBFB" stroke="#8D99AE" stroke-width="6"/>
<circle cx="1110.5" cy="257.5" r="35" fill="#FDFBFB" stroke="#8D99AE" stroke-width="5"/>
<circle cx="1410" cy="258" r="146" fill="#FDFBFB" stroke="#8D99AE" stroke-width="8"/>
<circle cx="1410.5" cy="257.5" r="109" fill="#FDFBFB" stroke="#8D99AE" stroke-width="7"/>
<circle cx="1410" cy="258" r="72" fill="#FDFBFB" stroke="#8D99AE" stroke-width="6"/>
<circle cx="1410.5" cy="257.5" r="35" fill="#FDFBFB" stroke="#8D99AE" stroke-width="5"/>
<circle cx="1710" cy="258" r="146" fill="#FDFBFB" stroke="#8D99AE" stroke-width="8"/>
<circle cx="1710.5" cy="257.5" r="109" fill="#FDFBFB" stroke="#8D99AE" stroke-width="7"/>
<circle cx="1710" cy="258" r="72" fill="#FDFBFB" stroke="#8D99AE" stroke-width="6"/>
<circle cx="1710.5" cy="257.5" r="35" fill="#FDFBFB" stroke="#8D99AE" stroke-width="5"/>
<circle cx="2010" cy="258" r="146" fill="#FDFBFB" stroke="#8D99AE" stroke-width="8"/>
<circle cx="2010.5" cy="257.5" r="109" fill="#FDFBFB" stroke="#8D99AE" stroke-width="7"/>
<circle cx="60" cy="333" r="146" fill="#FDFBFB" stroke="#8D99AE" stroke-width="8"/>
<circle cx="60.5" cy="332.5" r="109" fill="#FDFBFB" stroke="#8D99AE" stroke-width="7"/>
<circle cx="60" cy="333" r="72" fill="#FDFBFB" stroke="#8D99AE" stroke-width="6"/>
<circle cx="60.5" cy="332.5" r="35" fill="#FDFBFB" stroke="#8D99AE" stroke-width="5"/>
<circle cx="360" cy="333" r="146" fill="#FDFBFB" stroke="#8D99AE" stroke-width="8"/>
<circle cx="360.5" cy="332.5" r="109" fill="#FDFBFB" stroke="#8D99AE" stroke-width="7"/>
<circle cx="360" cy="333" r="72" fill="#FDFBFB" stroke="#8D99AE" stroke-width="6"/>
<circle cx="360.5" cy="332.5" r="35" fill="#FDFBFB" stroke="#8D99AE" stroke-width="5"/>
<circle cx="660" cy="333" r="146" fill="#FDFBFB" stroke="#8D99AE" stroke-width="8"/>
<circle cx="660.5" cy="332.5" r="109" fill="#FDFBFB" stroke="#8D99AE" stroke-width="7"/>
<circle cx="660" cy="333" r="72" fill="#FDFBFB" stroke="#8D99AE" stroke-width="6"/>
<circle cx="660.5" cy="332.5" r="35" fill="#FDFBFB" stroke="#8D99AE" stroke-width="5"/>
<circle cx="960" cy="333" r="146" fill="#FDFBFB" stroke="#8D99AE" stroke-width="8"/>
<circle cx="960.5" cy="332.5" r="109" fill="#FDFBFB" stroke="#8D99AE" stroke-width="7"/>
<circle cx="960" cy="333" r="72" fill="#FDFBFB" stroke="#8D99AE" stroke-width="6"/>
<circle cx="960.5" cy="332.5" r="35" fill="#FDFBFB" stroke="#8D99AE" stroke-width="5"/>
<circle cx="1260" cy="333" r="146" fill="#FDFBFB" stroke="#8D99AE" stroke-width="8"/>
<circle cx="1260.5" cy="332.5" r="109" fill="#FDFBFB" stroke="#8D99AE" stroke-width="7"/>
<circle cx="1260" cy="333" r="72" fill="#FDFBFB" stroke="#8D99AE" stroke-width="6"/>
<circle cx="1260.5" cy="332.5" r="35" fill="#FDFBFB" stroke="#8D99AE" stroke-width="5"/>
<circle cx="1560" cy="333" r="146" fill="#FDFBFB" stroke="#8D99AE" stroke-width="8"/>
<circle cx="1560.5" cy="332.5" r="109" fill="#FDFBFB" stroke="#8D99AE" stroke-width="7"/>
<circle cx="1560" cy="333" r="72" fill="#FDFBFB" stroke="#8D99AE" stroke-width="6"/>
<circle cx="1560.5" cy="332.5" r="35" fill="#FDFBFB" stroke="#8D99AE" stroke-width="5"/>
<circle cx="1860" cy="333" r="146" fill="#FDFBFB" stroke="#8D99AE" stroke-width="8"/>
<circle cx="1860.5" cy="332.5" r="109" fill="#FDFBFB" stroke="#8D99AE" stroke-width="7"/>
<circle cx="1860" cy="333" r="72" fill="#FDFBFB" stroke="#8D99AE" stroke-width="6"/>
<circle cx="1860.5" cy="332.5" r="35" fill="#FDFBFB" stroke="#8D99AE" stroke-width="5"/>
<circle cx="-90" cy="408" r="146" fill="#FDFBFB" stroke="#8D99AE" stroke-width="8"/>
<circle cx="-89.5" cy="407.5" r="109" fill="#FDFBFB" stroke="#8D99AE" stroke-width="7"/>
<circle cx="210" cy="408" r="146" fill="#FDFBFB" stroke="#8D99AE" stroke-width="8"/>
<circle cx="210.5" cy="407.5" r="109" fill="#FDFBFB" stroke="#8D99AE" stroke-width="7"/>
<circle cx="210" cy="408" r="72" fill="#FDFBFB" stroke="#8D99AE" stroke-width="6"/>
<circle cx="210.5" cy="407.5" r="35" fill="#FDFBFB" stroke="#8D99AE" stroke-width="5"/>
<circle cx="510" cy="408" r="146" fill="#FDFBFB" stroke="#8D99AE" stroke-width="8"/>
<circle cx="510.5" cy="407.5" r="109" fill="#FDFBFB" stroke="#8D99AE" stroke-width="7"/>
<circle cx="510" cy="408" r="72" fill="#FDFBFB" stroke="#8D99AE" stroke-width="6"/>
<circle cx="510.5" cy="407.5" r="35" fill="#FDFBFB" stroke="#8D99AE" stroke-width="5"/>
<circle cx="810" cy="408" r="146" fill="#FDFBFB" stroke="#8D99AE" stroke-width="8"/>
<circle cx="810.5" cy="407.5" r="109" fill="#FDFBFB" stroke="#8D99AE" stroke-width="7"/>
<circle cx="810" cy="408" r="72" fill="#FDFBFB" stroke="#8D99AE" stroke-width="6"/>
<circle cx="810.5" cy="407.5" r="35" fill="#FDFBFB" stroke="#8D99AE" stroke-width="5"/>
<circle cx="1110" cy="408" r="146" fill="#FDFBFB" stroke="#8D99AE" stroke-width="8"/>
<circle cx="1110.5" cy="407.5" r="109" fill="#FDFBFB" stroke="#8D99AE" stroke-width="7"/>
<circle cx="1110" cy="408" r="72" fill="#FDFBFB" stroke="#8D99AE" stroke-width="6"/>
<circle cx="1110.5" cy="407.5" r="35" fill="#FDFBFB" stroke="#8D99AE" stroke-width="5"/>
<circle cx="1410" cy="408" r="146" fill="#FDFBFB" stroke="#8D99AE" stroke-width="8"/>
<circle cx="1410.5" cy="407.5" r="109" fill="#FDFBFB" stroke="#8D99AE" stroke-width="7"/>
<circle cx="1410" cy="408" r="72" fill="#FDFBFB" stroke="#8D99AE" stroke-width="6"/>
<circle cx="1410.5" cy="407.5" r="35" fill="#FDFBFB" stroke="#8D99AE" stroke-width="5"/>
<circle cx="1710" cy="408" r="146" fill="#FDFBFB" stroke="#8D99AE" stroke-width="8"/>
<circle cx="1710.5" cy="407.5" r="109" fill="#FDFBFB" stroke="#8D99AE" stroke-width="7"/>
<circle cx="1710" cy="408" r="72" fill="#FDFBFB" stroke="#8D99AE" stroke-width="6"/>
<circle cx="1710.5" cy="407.5" r="35" fill="#FDFBFB" stroke="#8D99AE" stroke-width="5"/>
<circle cx="2010" cy="408" r="146" fill="#FDFBFB" stroke="#8D99AE" stroke-width="8"/>
<circle cx="2010.5" cy="407.5" r="109" fill="#FDFBFB" stroke="#8D99AE" stroke-width="7"/>
<circle cx="60" cy="483" r="146" fill="#FDFBFB" stroke="#8D99AE" stroke-width="8"/>
<circle cx="60.5" cy="482.5" r="109" fill="#FDFBFB" stroke="#8D99AE" stroke-width="7"/>
<circle cx="60" cy="483" r="72" fill="#FDFBFB" stroke="#8D99AE" stroke-width="6"/>
<circle cx="360" cy="483" r="146" fill="#FDFBFB" stroke="#8D99AE" stroke-width="8"/>
<circle cx="360.5" cy="482.5" r="109" fill="#FDFBFB" stroke="#8D99AE" stroke-width="7"/>
<circle cx="360" cy="483" r="72" fill="#FDFBFB" stroke="#8D99AE" stroke-width="6"/>
<circle cx="660" cy="483" r="146" fill="#FDFBFB" stroke="#8D99AE" stroke-width="8"/>
<circle cx="660.5" cy="482.5" r="109" fill="#FDFBFB" stroke="#8D99AE" stroke-width="7"/>
<circle cx="660" cy="483" r="72" fill="#FDFBFB" stroke="#8D99AE" stroke-width="6"/>
<circle cx="960" cy="483" r="146" fill="#FDFBFB" stroke="#8D99AE" stroke-width="8"/>
<circle cx="960.5" cy="482.5" r="109" fill="#FDFBFB" stroke="#8D99AE" stroke-width="7"/>
<circle cx="960" cy="483" r="72" fill="#FDFBFB" stroke="#8D99AE" stroke-width="6"/>
<circle cx="1260" cy="483" r="146" fill="#FDFBFB" stroke="#8D99AE" stroke-width="8"/>
<circle cx="1260.5" cy="482.5" r="109" fill="#FDFBFB" stroke="#8D99AE" stroke-width="7"/>
<circle cx="1260" cy="483" r="72" fill="#FDFBFB" stroke="#8D99AE" stroke-width="6"/>
<circle cx="1560" cy="483" r="146" fill="#FDFBFB" stroke="#8D99AE" stroke-width="8"/>
<circle cx="1560.5" cy="482.5" r="109" fill="#FDFBFB" stroke="#8D99AE" stroke-width="7"/>
<circle cx="1560" cy="483" r="72" fill="#FDFBFB" stroke="#8D99AE" stroke-width="6"/>
<circle cx="1860" cy="483" r="146" fill="#FDFBFB" stroke="#8D99AE" stroke-width="8"/>
<circle cx="1860.5" cy="482.5" r="109" fill="#FDFBFB" stroke="#8D99AE" stroke-width="7"/>
<circle cx="1860" cy="483" r="72" fill="#FDFBFB" stroke="#8D99AE" stroke-width="6"/>
<circle cx="-90" cy="558" r="146" fill="#FDFBFB" stroke="#8D99AE" stroke-width="8"/>
<circle cx="210" cy="558" r="146" fill="#FDFBFB" stroke="#8D99AE" stroke-width="8"/>
<circle cx="510" cy="558" r="146" fill="#FDFBFB" stroke="#8D99AE" stroke-width="8"/>
<circle cx="810" cy="558" r="146" fill="#FDFBFB" stroke="#8D99AE" stroke-width="8"/>
<circle cx="1110" cy="558" r="146" fill="#FDFBFB" stroke="#8D99AE" stroke-width="8"/>
<circle cx="1410" cy="558" r="146" fill="#FDFBFB" stroke="#8D99AE" stroke-width="8"/>
<circle cx="1710" cy="558" r="146" fill="#FDFBFB" stroke="#8D99AE" stroke-width="8"/>
<circle cx="2010" cy="558" r="146" fill="#FDFBFB" stroke="#8D99AE" stroke-width="8"/>
</g>
<defs>
<linearGradient id="paint0_linear_639_9802" x1="960" y1="0" x2="960" y2="439" gradientUnits="userSpaceOnUse">
<stop offset="0.9999" stop-color="#FDFBFB"/>
<stop offset="1" stop-color="white" stop-opacity="0"/>
</linearGradient>
</defs>
</svg>
