<svg width="3229" height="1345" viewBox="0 0 3229 1345" fill="none" xmlns="http://www.w3.org/2000/svg">
<path d="M28.4016 701.885C28.1191 700.268 27.8284 698.603 27.5459 696.985C32.8348 691.503 41.7905 688.517 52.5498 687.227C60.9934 686.242 69.5116 685.686 77.7497 685.375C95.4003 684.695 113.496 681.633 131.026 680.876C131.879 680.825 132.811 680.613 133.768 680.544C145.84 679.367 157.798 678.161 169.87 676.985C184.378 675.579 198.903 674.268 213.395 672.767C219 672.18 224.786 670.777 230.136 670.579C236.878 670.333 243.407 669.487 250.137 668.556C255.605 667.798 261.344 666.747 266.522 667.411C267.955 667.602 270.045 667.237 271.726 666.992C297.972 663.733 324.218 660.473 350.465 657.213C352.258 656.998 354.118 657.164 355.831 657.109C355.336 659.206 352.251 660.039 350.076 661.154C345.622 663.402 345.963 665.352 351.363 665.439C355.354 665.477 359.689 665.014 363.831 664.683C371.166 664.138 377.146 661.378 383.702 659.449C389.952 657.622 390.731 655.917 386.913 653.79C386.558 653.606 386.404 653.339 385.903 652.937C389.142 652.371 392.077 651.908 394.89 651.367C404.681 649.461 407.278 647.684 406.401 643.279C406.276 642.565 405.726 641.877 406.132 641.12C406.84 639.623 407.201 637.992 408.908 636.664C411.76 634.499 411.687 632.845 410.422 631.154C408.023 627.897 403.24 625.791 396.035 625.235C390.021 624.717 383.543 624.623 377.082 624.623C361.455 624.558 345.652 624.72 329.921 624.673C320.763 624.654 312.51 623.644 305.29 621.768C296.491 619.481 294.356 614.657 299.871 609.233C301.896 607.262 304.903 605.364 307.813 603.533C310.716 601.653 314.613 600.531 318.876 600.277C324.74 599.939 329.97 598.438 335.134 596.556C341.502 594.169 347.79 591.944 355.047 590.333C370.302 587.032 385.394 583.416 400.623 579.972C406.321 578.683 412.19 577.757 418.001 576.497C424.431 575.08 425.602 574.385 425.931 571.337C426.345 567.54 429.867 564.277 436.554 561.247C447.124 556.411 456.663 551.215 465.025 545.442C469.826 542.103 476.78 539.369 485.177 538.736C489.424 538.387 493.662 537.99 497.875 537.45C527.37 533.672 556.569 528.818 585.769 522.739C587.119 522.454 588.486 522.264 589.748 522.093C593.527 521.531 597.297 520.922 601.076 520.36C602.548 520.152 604.027 519.992 605.821 519.776C605.773 521.353 605.483 522.777 605.603 524.079C605.768 526.256 607.163 526.846 611.949 526.5C615.029 526.257 618.181 525.804 621.341 525.4C630.073 524.218 638.797 522.989 647.642 521.836C675.962 518.116 704.148 514.861 732.452 509.82C736.005 509.2 739.713 508.846 743.14 508.738C748.402 508.653 751.339 510.052 752.181 512.405C752.76 513.872 751.463 515.079 748.428 516.198C736.791 520.484 725.164 524.819 713.649 529.183C708.196 531.262 708.097 533.78 713.405 534.569C716.28 534.998 719.418 535.087 722.389 535.451C726.246 535.954 730.414 535.765 734.673 534.874C740.074 533.735 744.957 533.324 748.972 534.73C753.012 531.966 758.425 531.511 763.491 530.92C781.335 528.883 798.905 525.275 816.288 521.21C832.128 517.562 847.918 513.628 863.808 510.265C892.887 504.109 922.024 498.285 951.128 492.272C964.848 489.434 978.631 486.341 992.326 483.361C993.677 483.077 994.985 482.554 996.511 482.042C986.274 480.154 976.575 478.269 966.797 476.545C959.685 475.287 952.581 474.076 945.294 473.045C941.871 472.564 937.905 472.669 937.498 470.338C937.381 469.672 935.384 469.334 934.222 468.851C931.44 467.719 928.361 466.737 925.989 465.484C923.253 464.001 919.629 463.605 915.24 464.371C911.478 465.028 907.54 465.912 904.304 467.114C869.676 479.73 833.186 490.318 796.129 500.122C793.557 500.816 790.873 501.481 788.253 501.89C787.095 502.043 785.62 501.614 784.901 501.201C784.546 501.017 785.659 499.99 786.445 499.558C789.535 498.136 792.617 496.667 796.063 495.428C826.89 483.868 859.142 473.677 891.126 463.19C895.608 461.721 899.977 460.223 904.652 458.622C902.367 457.256 900.567 456.198 898.662 455.158C897.104 454.254 895.123 454.011 891.963 454.416C884.694 455.342 877.984 457.004 871.157 459.226C860.867 462.591 849.939 465.382 839.262 468.374C837.109 468.995 834.922 469.426 832.753 469.952C820.972 472.793 809.078 475.606 797.306 478.495C788.94 480.544 780.696 482.67 772.085 483.929C779.916 481.286 787.764 478.74 796 476.566C817.396 470.82 838.939 465.293 860.344 459.594C868.476 457.439 876.582 455.141 884.697 452.891C884.76 452.635 884.823 452.378 884.781 452.141C881.739 451.986 878.696 451.831 875.646 451.628C870.639 451.326 865.824 450.892 862.42 449.281C861.363 448.779 860.202 448.295 858.752 448.009C856.069 447.448 854.616 446.526 854.133 444.992C853.812 443.774 853.981 442.274 850.575 441.888C848.827 442.978 847.183 444.049 845.419 445.043C842.37 446.703 838.926 446.717 835.946 446.305C834.626 446.144 833.423 445.423 833.307 444.757C833.062 442.74 840.186 437.281 844.467 435.896C849.263 434.372 854.543 433.156 858.741 431.295C864.536 428.715 870.627 427.21 877.278 426.441C894.382 424.483 911.13 423.568 927.744 423.118C935.138 422.905 939.621 424.525 940.219 427.95C940.584 430.043 939.591 432.373 938.903 434.601C938.698 435.274 937.777 436.17 936.702 436.799C929.907 440.437 923.128 444.17 913.513 445.849C909.229 446.597 905.027 447.821 900.27 448.946C903.054 451.94 905.057 454.777 911.116 456.17C918.575 453.249 926.034 450.329 933.485 447.361C936.103 446.316 937.086 445.164 935.993 443.835C933.797 441.13 933.877 440.969 939.814 439.197C953.318 435.123 966.943 431.126 980.568 427.129C989.687 424.459 999.268 422.589 1008.08 419.384C1015.57 416.654 1023.99 416.164 1031.76 416.229C1037.04 416.287 1039.92 417.942 1039.02 420.206C1037.97 422.84 1035.18 425.338 1030.2 427.041C1017.28 431.404 1004.14 435.661 990.978 439.871C975.266 444.869 959.529 449.725 943.688 454.599C940.314 455.63 936.802 456.488 933.55 457.595C927.96 459.503 927.469 461.01 931.99 462.231C938.211 463.938 944.817 465.383 951.135 467.025C956.09 468.267 961.06 467.743 966.697 465.484C978.885 460.659 991.194 455.912 1003.4 451.182C1011.47 448.057 1018.27 444.467 1024.37 440.511C1027.08 438.763 1029.88 436.949 1032.94 435.337C1037.28 433.059 1040.14 432.757 1044.12 433.973C1048.43 435.23 1049.12 436.727 1045.47 439.276C1042.98 441.035 1039.72 442.731 1036.55 444.266C1027.32 448.77 1016.98 452.487 1006.14 455.801C994.392 459.422 982.397 462.889 970.516 466.386C967.953 467.127 965.649 468.118 965.865 469.355C965.989 470.068 967.715 470.698 969.165 470.984C978.926 472.613 988.679 474.194 998.625 475.644C1004.49 476.532 1010.72 477.061 1016.49 478.063C1022.71 479.134 1029.2 478.687 1036.36 477.095C1051.6 473.746 1066.86 470.492 1082.14 467.286C1099.49 463.668 1116.87 460.24 1134.09 456.449C1151.1 452.695 1168.16 449.274 1185.6 446.768C1196.11 445.276 1206.64 443.29 1217 440.942C1240.83 435.603 1264.51 429.949 1288.19 424.343C1307.12 419.861 1325.95 415.446 1344.73 410.792C1360.22 406.961 1375.52 402.672 1391 398.84C1418.35 392.054 1445.45 385.018 1471.41 376.416C1486.37 371.45 1501.23 366.503 1516.22 361.679C1527.34 358.12 1538.9 355.904 1550.65 355.324C1553.75 355.175 1556.74 355.682 1559.51 356.129C1561.95 356.536 1562.26 357.66 1560.45 359.006C1559.12 360.022 1557.34 360.969 1556.12 361.967C1555.45 362.476 1555.35 363.131 1554.57 364.199C1557.46 363.497 1559.32 363.026 1561.9 362.38C1557.55 366.472 1551.63 368.976 1543.56 370.239C1512.19 374.982 1482.61 383.187 1453.39 392.259C1411.62 405.289 1370.67 419.303 1327.45 430.821C1323.33 431.932 1319.22 433.679 1315.88 435.489C1312.83 437.149 1309.58 438.256 1305.87 439.246C1288.77 443.702 1271.57 448.177 1254.47 452.634C1238.81 456.692 1223.27 460.827 1207.6 464.838C1205.85 465.291 1202.92 465.802 1202 465.472C1198.09 464 1193.54 465.088 1188.87 466.1C1160.37 472.498 1131.8 478.468 1102.81 483.333C1099.04 483.942 1095.34 484.932 1091.81 485.695C1091.15 487.429 1089.31 489.269 1092.95 489.761C1098.36 490.484 1103.67 491.32 1110.46 490.134C1125.71 487.422 1140.86 484.728 1155.22 480.015C1157.66 479.196 1161.32 478.557 1163.61 478.745C1166.99 478.988 1170.02 478.411 1173.34 477.684C1182.55 475.537 1191.88 473.466 1201.09 471.319C1204.09 470.647 1206.52 470.37 1209.12 471.092C1211.05 471.638 1214.32 471.851 1216.95 471.49C1230.39 469.535 1243.93 467.514 1257.31 465.178C1292.94 458.955 1328.34 451.989 1363.55 444.565C1377.48 441.644 1391.53 438.848 1405.41 435.736C1434.32 429.217 1463.1 422.574 1491.98 415.913C1508.02 412.18 1524.07 408.495 1540.07 404.525C1557.1 400.277 1573.84 395.638 1590.88 391.437C1606.58 387.617 1622.45 384.158 1637.95 379.785C1677.57 368.603 1717.33 357.639 1757.07 346.533C1763.95 344.597 1770.65 343.524 1777.41 343.962C1782.52 344.294 1787.81 343.714 1793.29 342.414C1806.32 339.306 1819.55 337.387 1832.8 336.153C1835.87 335.861 1838.99 335.855 1841.62 336.131C1846.66 336.623 1851.78 336.318 1857.25 334.97C1877.39 330.032 1897.53 325.094 1917.55 320.126C1925.39 318.169 1932.98 315.962 1940.24 313.126C1948.8 309.719 1957.69 306.353 1966.76 303.445C1987.28 296.97 2008.04 290.696 2028.81 284.423C2054.28 276.739 2076.64 267.247 2094.71 255.367C2100.78 251.315 2106.4 247.099 2112.15 243.007C2113.58 241.972 2115.23 240.948 2116.97 239.811C2120.26 241.345 2119.16 243.105 2117.09 244.791C2113.04 248.144 2109.23 251.557 2104.26 254.58C2095.99 259.652 2086.95 264.613 2077.99 269.413C2068.93 274.279 2058.69 278.519 2047.47 282.144C2046.25 282.554 2044.7 282.922 2043.94 283.497C2042.99 284.202 2041.7 285.457 2042.2 285.859C2042.94 286.416 2045.12 286.574 2046.85 286.615C2047.93 286.623 2049.43 285.969 2050.66 285.607C2056.4 283.919 2062 282.059 2067.88 280.591C2090.48 274.977 2112.15 268.301 2131.86 259.711C2138.47 256.842 2146.22 254.95 2153.89 254.492C2159.75 254.107 2165.61 254.358 2170.96 254.796C2178.17 255.399 2185.33 255.033 2193.14 252.932C2203.01 250.229 2212.88 247.573 2222.76 244.917C2242.61 239.587 2262.47 234.257 2282.45 229.052C2286.26 228.044 2290.38 227.618 2294.47 226.953C2300.22 225.95 2306.25 225.338 2311.7 223.895C2320.56 221.564 2329.11 218.747 2337.68 216.025C2366.87 206.809 2396.09 197.737 2422.99 186.519C2430.93 183.222 2438.44 179.409 2445.19 175.486C2454.88 169.921 2466.85 169.4 2470.92 174.817C2472.73 177.196 2474.2 177.577 2480.14 176.441C2493.68 173.784 2507.51 171.612 2520.62 167.707C2536.99 162.789 2553.7 158.596 2570.71 154.842C2583.25 152.063 2595.58 148.636 2608.24 145.886C2615.19 144.378 2622.56 143.386 2629.64 142.639C2635.78 142.009 2641.09 142.845 2642.74 145.499C2644.4 148.2 2644.61 151.251 2639.35 154.472C2636.34 156.323 2633.65 158.213 2631.08 160.133C2624.24 165.348 2615.88 169.896 2606.14 173.949C2599.61 176.658 2592.86 179.308 2586.33 182.016C2575.89 186.34 2565.2 190.51 2555.22 195.047C2537.76 202.95 2519.61 210.04 2498.57 214.744C2497.01 215.065 2495.14 215.441 2494.27 216.034C2490.13 218.864 2484.43 220.106 2478.89 221.709C2448.87 230.482 2418.85 239.254 2388.96 248.198C2384.97 249.385 2381.46 251.47 2378.1 253.232C2376.62 253.981 2375.95 255.078 2374.64 256.19C2370.79 253.92 2371.1 253.181 2375.44 250.951C2377.81 249.704 2381.3 248.703 2382.04 246.808C2375.05 247.442 2372.72 248.29 2368.9 251.113C2363.16 255.252 2361.1 259.437 2360.97 263.627C2360.88 266.828 2358.84 269.93 2354.62 272.921C2346.96 278.377 2338.72 283.639 2327.95 287.97C2326.85 288.409 2325.86 288.924 2324.86 289.392C2329.21 293.291 2333.47 293.673 2342.91 290.995C2354.72 287.66 2366.52 284.324 2378.08 280.835C2402.22 273.531 2426.25 266.198 2450.14 258.74C2465.26 254.041 2480.11 249.046 2495.08 244.128C2499.87 242.556 2504.79 241.11 2509.45 239.414C2528.47 232.415 2548.02 225.962 2565.4 217.583C2583.99 208.7 2606.62 203.865 2628.91 199.532C2635.27 198.323 2641.88 197.953 2648.28 197.572C2654.25 197.216 2657.54 198.798 2658.12 201.491C2658.74 204.422 2657.45 207.539 2652.67 210.383C2644.75 215.001 2636.73 219.637 2628.13 224.032C2620.42 227.976 2612.81 231.903 2606.49 236.39C2603.03 238.807 2598.91 241.095 2593.56 242.52C2584.9 244.767 2578.51 248.236 2572.12 251.753C2570.65 252.55 2569.64 253.56 2568.51 254.492C2566.36 256.339 2564.44 258.292 2562.06 260.128C2557.91 263.452 2560.57 267.006 2567.63 266.705C2573.08 266.488 2578.78 265.788 2584.35 265.011C2597.69 263.074 2609.07 259.175 2618.87 253.64C2620.34 252.795 2622.03 252.009 2623.73 251.271C2635.78 246.227 2648.95 242.749 2662.83 240.816C2683.97 237.909 2696.08 240.647 2702.22 249.281C2702.51 249.721 2702.81 250.207 2703.21 250.628C2704.79 252.312 2706.77 252.554 2711.01 251.521C2716.38 250.239 2720.89 248.276 2725.14 246.112C2729.69 243.797 2734.34 241.465 2739.5 239.535C2746.07 237.065 2753.27 235.121 2759.97 232.775C2772.26 228.569 2783.71 228.139 2794.73 229.548C2796.49 229.78 2797.91 230.512 2798.9 231.27C2800.24 232.163 2801.17 233.177 2802.01 234.257C2802.44 234.868 2802.68 235.611 2802.47 236.284C2800.57 241.421 2796.47 246.304 2788.75 250.837C2785.43 252.79 2781.77 254.018 2777.22 254.469C2775.41 254.637 2773.71 254.739 2771.91 254.906C2758.17 256.422 2746.18 265.429 2751.19 271.318C2753.03 270.163 2755.02 269.227 2756.13 268.152C2757.05 267.256 2757.08 266.22 2757.56 265.255C2758.74 262.745 2760.13 262.109 2766.68 261.358C2760.92 265.355 2762.26 268.111 2767.6 270.316C2769.22 270.964 2770.19 272.216 2770.4 273.405C2771.38 279.018 2770.56 281.122 2756.5 282.009C2756.29 282.045 2756.08 282.034 2755.87 282.071C2742.91 282.519 2733.58 286.404 2726.39 292.12C2722.79 294.954 2722.08 297.676 2723.72 300.282C2724.8 302.104 2729.29 301.32 2730.87 299.868C2731.99 298.888 2732.43 297.732 2732.58 296.725C2732.76 295.91 2732.09 295.145 2731.95 294.336C2731.71 292.367 2734.95 291.212 2738.01 290.189C2740.95 289.184 2744.06 288.447 2745.96 290.076C2745.3 290.632 2744.63 291.14 2744.08 291.677C2738.31 296.852 2741.93 300.337 2752.65 300.035C2754.15 299.969 2755.75 299.886 2757.33 299.707C2763.12 298.941 2769.04 298.3 2774.79 297.296C2782.62 295.928 2788.75 296.475 2794.11 298.186C2798.89 299.656 2799.09 300.797 2795.08 303.752C2791.08 306.754 2785.92 309.273 2780.19 311.598C2774.15 314.025 2768.24 316.529 2762.34 319.128C2747.44 325.7 2732.16 331.946 2716.04 337.702C2705.9 341.287 2695.78 345.015 2685.88 348.754C2682.75 349.938 2679.78 351.437 2677.35 352.94C2671.81 356.358 2671.5 356.461 2665.24 355.152C2660.99 354.228 2660.36 353.112 2664.3 351.002C2667.66 349.24 2671.67 347.559 2675.77 346.353C2687.42 342.798 2697.79 338.635 2706.33 333.271C2708.75 331.72 2710.94 330.064 2712.8 328.414C2713.55 327.745 2713.76 326.483 2713.05 326.117C2712.23 325.721 2709.91 326.028 2708.22 326.224C2707.16 326.312 2706.04 326.703 2705.02 327.028C2690.12 331.738 2675.21 336.353 2660.54 341.169C2653.1 343.595 2646.62 346.589 2645.46 351.009C2645.32 351.473 2643.38 352.058 2642.18 352.562C2641.75 351.999 2640.58 351.468 2640.92 350.919C2643.38 347.107 2645.29 343.244 2654.91 341.024C2658.02 340.334 2660.56 338.813 2660.34 336.939C2645.5 338.941 2631.42 346.498 2631.03 352.89C2630.77 356.955 2632.2 360.823 2632.85 364.534C2636.32 364.664 2639.24 364.742 2642.07 364.933C2653.73 365.692 2665.7 364.581 2678.26 361.85C2687.28 359.881 2696.49 358.323 2705.69 356.717C2711.02 355.786 2715.88 355.916 2720.31 356.614C2726.85 357.678 2728.42 360.492 2724.86 364.153C2724.04 364.983 2722.67 365.81 2721.85 366.64C2720.3 368.234 2718.74 369.829 2717.51 371.417C2716.73 372.485 2716.5 373.604 2715.83 374.702C2713.52 378.144 2710.64 379.529 2703.72 380.002C2698.51 380.373 2694.11 381.681 2689.41 383.139C2681.85 385.488 2674.28 387.79 2666.45 389.843C2657.29 392.228 2648.48 394.844 2640.37 398.368C2629.56 403.05 2617.9 407.195 2605.43 410.402C2598.42 412.214 2591.93 413.298 2586.48 411.063C2583.24 409.767 2578.44 410.017 2573.46 411.131C2570.67 411.766 2568.6 412.863 2568.7 414.07C2568.83 417.283 2569.17 420.459 2569.93 423.562C2570.33 425.257 2573.05 426.055 2577.12 425.885C2581.93 425.682 2586.66 425.64 2591.57 425.419C2613.58 424.419 2635.2 421.135 2656.57 414.657C2667.72 411.289 2679.24 408.198 2690.65 405.078C2703.2 401.663 2716.05 398.829 2729.25 397.898C2735 397.531 2740.41 396.439 2745.73 394.872C2777.32 385.826 2809.15 376.886 2840.61 367.716C2852.09 364.387 2863.03 360.466 2874.11 356.669C2877.77 355.441 2880.81 353.734 2884.34 352.334C2890.17 349.991 2896.5 347.956 2902.09 345.459C2911.69 341.234 2920.82 336.748 2930.18 332.416C2932.98 331.144 2935.76 329.825 2938.82 328.849C2942.28 327.705 2948.03 327.927 2948.98 329.036C2950.34 330.661 2947.32 331.875 2944.96 333.169C2944.67 333.367 2944.27 333.535 2943.87 333.703C2933.53 338.645 2923.43 343.694 2912.96 348.512C2902.29 353.414 2894.44 359.638 2881.65 363.489C2880.22 363.935 2879.17 364.706 2877.77 365.295C2867.67 369.755 2858.43 374.8 2846.76 378.26C2838.67 380.653 2830.97 383.467 2823 385.937C2811.05 389.642 2798.99 393.318 2786.77 396.774C2776 399.832 2765.45 402.948 2755.72 407.049C2753.61 407.908 2751.28 408.756 2748.89 409.271C2744.43 410.246 2741.04 411.77 2737.81 413.609C2733.69 415.946 2729.58 418.282 2725.47 420.666C2724.1 421.492 2722.97 422.377 2721.72 423.28C2722.54 423.628 2723.03 423.984 2723.35 423.929C2727.81 423.001 2731.49 423.683 2735.47 423.674C2741.82 423.644 2748.31 423.197 2754.68 421.447C2760.02 419.975 2765.11 418.254 2770.3 416.514C2783.33 412.18 2796.35 407.846 2809.25 403.388C2824.99 397.943 2840.46 392.154 2856.35 386.928C2869.28 382.66 2882.21 380.844 2893.61 383.853C2899.36 385.348 2899.89 386.53 2896.45 390.268C2891.84 395.29 2884.7 399.429 2875.76 403.098C2865.31 407.422 2855.21 411.882 2845.12 416.389C2835.63 420.644 2826.16 424.994 2816.91 429.355C2812.93 431.227 2808.74 433.135 2805.45 435.278C2802.75 437.073 2801.08 439.228 2799.6 441.25C2799.08 441.978 2800.13 443.022 2801.28 443.457C2802.9 444.106 2804.79 443.236 2806.58 442.336C2812.51 439.339 2819.03 438.397 2825.51 439.128C2833.31 440.021 2835.17 443.864 2829.62 447.871C2827.7 449.235 2824.89 450.412 2822.29 451.505C2817.06 453.643 2811.6 455.675 2806.36 457.766C2803.85 458.793 2801.04 459.97 2802.38 461.5C2803.71 462.935 2806.79 462.055 2809.38 461.456C2812.89 460.597 2816.28 459.662 2819.78 458.756C2826.88 456.879 2830.98 457.535 2832.31 460.785C2833.6 463.892 2830.92 467.008 2825.92 469.842C2822.89 471.597 2819.43 473.377 2815.69 474.814C2807.62 477.891 2804.01 481.267 2805.57 485.307C2805.61 485.497 2805.85 485.651 2806.11 485.947C2809.94 486.26 2813.55 485.383 2817.26 483.804C2822.29 481.75 2827.44 479.82 2832.73 478.015C2839.94 475.53 2847.31 473.312 2854.42 470.846C2863.65 467.615 2873.31 464.948 2883.26 462.721C2888.55 461.552 2894.02 460.793 2899.38 460.053C2903.9 459.411 2907.14 460.119 2908.17 461.656C2909.35 463.508 2906.71 465.047 2903.61 466.421C2900.21 467.898 2896.56 469.221 2893.04 470.621C2891.22 471.33 2889.53 472.116 2887.72 472.873C2890.43 472.94 2892.81 472.377 2894.75 472.429C2898.11 472.53 2900.69 471.883 2903.6 470.64C2908.01 468.791 2912.54 468.196 2916.79 469.12C2919.71 469.787 2922.65 469.371 2926.24 468.352C2931.38 466.916 2936.8 465.92 2942.11 464.846C2945.44 464.215 2948.77 464.172 2949.79 465.662C2951.35 467.84 2955.08 467.582 2959.35 466.738C2962.88 466.023 2966.38 465.069 2969.79 464.229C2972.16 463.619 2974.51 462.914 2976.9 462.447C2982.96 461.341 2986.18 461.905 2988.2 464.248C2989.01 465.138 2989.29 466.166 2990.19 466.989C2991.73 468.388 2993.37 468.542 2997.15 467.391C3000.94 466.24 3004.71 465.042 3008.25 463.737C3023.73 457.996 3038.96 452.1 3054.57 446.531C3060.76 444.324 3067.8 442.75 3074.48 440.897C3075.71 440.536 3077.05 440.203 3078.39 439.823C3081.99 438.899 3085.65 437.624 3089.32 437.08C3106.21 434.475 3117.77 428.534 3127.28 421.334C3130.04 419.235 3129.68 417.826 3126.97 416.486C3125.08 415.493 3122.54 415.152 3119.23 415.337C3107.28 415.954 3095.49 418.159 3083.96 421.202C3077.48 422.922 3071.01 424.738 3064.54 426.506C3061.97 427.2 3060.11 427.082 3059.08 426.087C3058.16 425.168 3058.96 424.195 3060.99 423.449C3064.11 422.218 3067.22 420.891 3070.6 419.908C3080.33 417.033 3090.15 414.091 3100.15 411.512C3110.56 408.813 3121.07 406.095 3131.69 404.044C3144.71 401.524 3153.86 403.31 3158.48 408.19C3160.71 410.496 3159.73 412.874 3156.31 415.529C3153.17 417.891 3150.03 420.253 3147.21 422.608C3143.17 426.01 3138.31 429.015 3132.34 431.823C3123.99 435.782 3116.24 440.125 3110.29 444.938C3107.84 446.934 3105.16 448.236 3100.57 449.086C3094.62 450.174 3090.16 452.375 3088.34 455.488C3086.75 458.118 3088.49 459.432 3093.49 459.735C3095.01 459.812 3096.78 460.043 3097.62 460.534C3102.13 462.933 3103.44 463.047 3110.69 460.752C3118.44 458.271 3126.07 455.713 3133.71 453.202C3138.29 451.715 3139.48 451.705 3142.11 453.206C3143.06 453.726 3143.82 454.378 3144.69 455.059C3143.92 455.585 3143.46 456.01 3142.66 456.346C3130.46 461.123 3118.67 466.368 3105.82 470.523C3090.95 475.376 3077.53 481.151 3062.89 486.157C3059.33 487.367 3056.27 488.342 3052.09 488.436C3044.7 488.648 3039.31 491.745 3039.43 495.499C3042.53 495.987 3046.04 495.129 3049.14 494.344C3066.77 489.844 3084.42 485.486 3100.95 479.61C3103.69 478.641 3106.19 478.156 3108.28 479.016C3110.36 479.877 3109.85 481.242 3107.7 482.499C3104.47 484.338 3100.9 486.137 3097.32 487.841C3092.37 490.275 3086.39 492.446 3082.33 495.116C3073.83 500.67 3063.98 505.331 3052.36 509.124C3024.76 518.16 2997.68 527.79 2969.3 536.08C2962.54 538.045 2960.95 541.312 2966.18 542.851C2967.88 543.339 2970.4 543.585 2972.72 543.326C2978.02 542.842 2981.99 543.374 2985.64 544.55C2994.78 547.562 3006.03 547.215 3018.46 544.359C3027.25 542.332 3035.88 539.896 3044.69 537.964C3049.68 536.898 3055.31 535.865 3059.85 535.954C3066.87 536.1 3073.17 535.148 3080.14 533.146C3091.63 529.865 3103.33 526.548 3115.12 523.754C3122.87 521.909 3131.16 520.658 3139.08 519.765C3146.9 518.89 3149.22 520.446 3147.4 524.196C3145.57 527.898 3143.3 531.578 3140.83 535.294C3140.06 536.457 3138.6 537.939 3136.67 538.618C3129.89 541.126 3125.07 544.369 3119.45 547.312C3117.97 548.109 3115.92 548.664 3114.09 549.326C3103.74 552.947 3093.16 556.51 3082.94 560.256C3068.87 565.409 3055.07 570.859 3039.95 574.968C3035.43 576.2 3030.92 577.478 3026.37 578.567C3020.99 579.849 3016.13 579.766 3011.96 578.681C3006.77 577.332 3006.28 575.162 3011.29 572.377C3015.12 570.285 3019.4 568.264 3024.07 566.663C3035.76 562.662 3047.69 558.814 3059.65 555.157C3077.12 549.752 3093.31 543.151 3111.15 538.026C3114.94 536.922 3117.98 534.578 3120.99 532.68C3121.76 532.202 3121.18 531.323 3121.12 530.353C3106.9 532.835 3093.21 534.589 3080.12 538.59C3073.18 540.735 3065.08 542.492 3061.66 546.914C3060.86 547.934 3058.13 548.95 3056.03 549.857C3053.43 550.997 3050.48 552.002 3047.88 553.143C3041.27 556.012 3034.32 558.746 3028.18 561.828C3021.65 565.125 3014.68 567.764 3006.63 569.758C3005.18 570.109 3003.74 570.507 3002.1 570.942C3002.63 573.986 3002.81 576.895 3003.72 579.629C3004.7 582.743 3008.27 585.306 3006.44 589.008C3012.29 589.212 3017.8 588.739 3023.46 587.801C3025.65 587.417 3028.06 587.045 3030.01 587.097C3033.91 587.201 3035.06 588.863 3032.22 590.486C3027.7 592.991 3025.78 595.581 3024.76 598.357C3024.1 600.139 3022.25 601.836 3018.73 602.694C3010.48 604.773 3004.47 607.979 2998.5 611.375C2994.18 613.796 2989.19 615.451 2983.14 615.921C2977.08 616.39 2975.39 617.223 2974.6 620.059C2974.25 621.149 2974.53 622.13 2974.61 623.195C2974.73 625.134 2974.96 627.055 2975.16 629.47C2976.68 629.547 2979.03 630.02 2981.57 629.773C2985.28 629.419 2989.17 628.887 2992.79 628.01C3001.77 625.804 3010.49 623.349 3019.45 621C3024.71 619.641 3026.72 620.074 3026.11 622.73C3025.69 624.666 3024.75 626.645 3023.57 628.565C3021.39 632.084 3016.84 635.035 3010.04 637.399C3001.82 640.257 2994.08 643.422 2985.84 646.233C2977.01 649.295 2968.15 652.215 2959.04 654.933C2953.3 656.621 2947.63 658.053 2943.05 660.813C2940.61 662.268 2936.94 663.449 2933.67 664.461C2929.28 665.816 2924.62 666.875 2920.11 668.202C2914.89 669.751 2909.56 671.318 2904.5 673.182C2897.73 675.689 2891.47 678.694 2884.45 681.047C2867.36 686.825 2849.89 692.229 2832.69 697.977C2809.4 705.819 2784.68 712.244 2762.03 720.709C2758.5 722.061 2754.46 722.963 2750.68 724.162C2743.12 726.511 2735.56 728.86 2728.13 731.287C2715.18 735.46 2702.76 740.178 2688.98 743.319C2679.46 745.521 2670.81 748.452 2664.92 752.913C2661.1 755.736 2656.26 757.611 2650.52 759.251C2640.25 762.123 2629.88 765.013 2619.62 767.932C2604.03 772.418 2588.04 776.436 2573.51 782.061C2572.3 782.518 2571.22 783.099 2570.02 783.651C2572.84 783.747 2575.25 783.375 2577.64 782.86C2587.8 780.596 2597.95 778.285 2608.11 776.068C2613.82 774.826 2619.66 773.757 2625.4 772.658C2626.44 772.475 2627.64 772.56 2629.68 772.499C2616.18 779.072 2601.06 783.134 2586.01 787.624C2588.42 789.115 2591.23 788.527 2594.23 787.807C2608.5 784.432 2622.77 781.058 2637.05 777.731C2640.57 776.92 2644.12 776.299 2647.79 775.708C2648.83 775.526 2650.59 775.709 2650.87 776.101C2651.16 776.493 2650.45 777.352 2649.57 777.897C2648.51 778.574 2647.09 779.114 2645.67 779.608C2639.66 781.588 2633.65 783.569 2627.51 785.377C2614.49 789.17 2601.45 792.819 2588.43 796.564C2583.1 798.084 2578.12 799.787 2572.39 800.886C2568.64 801.638 2564.03 802.982 2562.1 805.477C2567.11 804.601 2571.68 803.608 2576.32 803.043C2583.17 802.189 2589.56 800.535 2596.03 798.767C2604.26 796.545 2612.47 794.229 2620.91 792.608C2632.58 790.374 2643.96 787.701 2655.18 784.712C2657.85 784 2660.71 783.698 2664.05 783.114C2663.69 784.109 2663.81 784.822 2663.22 785.122C2661.53 785.956 2659.53 786.844 2657.48 787.399C2651.74 789.087 2645.75 790.526 2640.12 792.243C2632.77 794.509 2625.67 797.071 2618.31 799.288C2604.39 803.483 2590.51 807.868 2575.78 811.077C2569.46 812.476 2563.22 814.398 2557.08 816.254C2546.44 819.436 2536.17 822.897 2525.39 825.907C2494.89 834.419 2464.39 842.932 2436.27 853.97C2432.95 855.285 2429.6 856.458 2425.4 856.457C2424 856.456 2421.06 857.508 2420.52 858.141C2419.63 859.228 2419.75 860.483 2420.23 861.427C2420.96 862.477 2423.41 862.343 2425.79 861.781C2434.36 859.695 2440.55 860.623 2445.79 862.847C2447.07 863.407 2448.45 863.902 2449.83 864.396C2454.55 866.169 2456.95 868.79 2456.56 872.094C2456.2 874.951 2455.3 877.852 2454.1 880.808C2453.06 883.538 2451.39 886.281 2450.13 888.951C2448.33 892.796 2449.65 893.594 2457.3 892.357C2462.84 891.438 2468.45 890.214 2473.8 888.79C2482.24 886.58 2490.52 884.055 2498.84 881.721C2550.4 867.374 2601.98 853.17 2653.4 838.652C2678.85 831.462 2703.86 823.614 2729.17 816.204C2733.07 815.083 2737.48 814.459 2741.68 813.824C2743.88 813.488 2746.04 813.504 2746.79 814.745C2747.43 815.956 2746.65 817.024 2744.69 818.103C2738.68 821.357 2732.3 824.237 2724.6 826.414C2717.51 828.387 2710.45 830.503 2703.87 832.926C2692.94 836.942 2681.6 839.806 2669.51 841.476C2658.89 842.987 2648.5 845.145 2638.34 848.045C2605.43 857.519 2572.61 866.926 2539.83 876.572C2523.75 881.292 2506.74 885.046 2491.36 890.674C2489.94 891.168 2488.25 891.412 2486.82 891.81C2475.8 894.714 2464.78 897.619 2453.77 900.523C2447.69 902.123 2441.71 903.609 2435.62 905.114C2433.13 905.695 2430.84 906.144 2430.32 908.098C2443.84 904.708 2456.84 901.457 2469.83 898.159C2482.73 894.926 2495.53 891.759 2508.42 888.479C2521.2 885.217 2533.97 881.86 2546.64 878.569C2546.89 878.77 2547.05 879.037 2547.3 879.239C2545.28 880.032 2543.41 880.997 2541.25 881.618C2534.71 883.595 2528.05 885.542 2521.47 887.376C2502.58 892.637 2483.67 897.85 2464.77 903.063C2449.97 907.166 2435.05 911.096 2420.28 915.342C2414.64 916.964 2409.57 919.369 2404.21 921.383C2399.06 923.313 2393.93 925.433 2388.52 927.113C2375.34 931.18 2361.46 933.75 2347.59 936.32C2335.27 938.568 2322.94 940.722 2310.79 943.285C2300.93 945.399 2290.81 947.312 2282.03 951.297C2280.24 952.101 2277.86 952.663 2275.69 953.189C2257.69 957.411 2239.68 961.633 2221.55 965.731C2200.43 970.548 2179.14 975.098 2158.67 981.221C2156.63 981.824 2154.15 982.452 2152.68 983.297C2149.65 985.052 2146.97 986.99 2144.28 988.833C2137.95 993.272 2131.98 994.854 2122.95 994.371C2118.83 994.16 2114.77 993.741 2111.01 993.173C2105.6 992.402 2099.92 992.56 2093.65 993.703C2086.23 994.999 2078.9 996.181 2071.51 997.619C2066.81 998.488 2062.01 999.375 2057.73 1000.76C2050.49 1003.1 2042.99 1004.51 2035.37 1005.94C2032.03 1006.52 2028.73 1007.34 2025.4 1008.02C2018.33 1009.5 2011.22 1011.33 2004.08 1012.34C1984.83 1014.96 1966.1 1018.72 1947.39 1023.21C1937.37 1025.65 1927.24 1028.11 1917.22 1030.54C1915.05 1031.07 1912.76 1031.52 1910.73 1032.21C1906.67 1033.61 1902.47 1034.25 1898.2 1034.45C1888.71 1034.98 1879.43 1036.75 1870.11 1038.87C1863.27 1040.4 1856.37 1041.61 1849.36 1042.78C1844.44 1043.59 1839.45 1044.02 1834.53 1044.79C1815.46 1047.87 1796.44 1051.19 1777.35 1054.09C1766.02 1055.82 1755.65 1058.12 1746.8 1062.9C1744.83 1063.98 1742.17 1064.79 1739.86 1065.73C1735.78 1066.44 1731.81 1067.14 1727.74 1067.85C1725.22 1067.01 1722.28 1068.06 1719.56 1068.54C1713.09 1069.67 1706.55 1071.11 1700.11 1071.84C1691.44 1072.76 1682.77 1073.05 1674.07 1073.84C1666.55 1074.51 1658.79 1075.13 1651.38 1076.47C1646.06 1077.45 1642.32 1077.62 1639.29 1075.69C1634.7 1078.41 1629.69 1079.33 1624.09 1079.33C1616.77 1079.33 1609.29 1079.66 1601.9 1079.87C1599.11 1079.96 1596.22 1080.08 1593.34 1080.24C1589.93 1080.39 1586.37 1080.38 1582.9 1080.88C1560.65 1084.18 1538.51 1087.56 1516.28 1090.95C1509.98 1091.9 1506.41 1093.65 1504.24 1096.63C1502.33 1099.27 1494.99 1101.04 1491.89 1099.33C1488.92 1097.74 1485.42 1098.01 1480.91 1098.74C1470.12 1100.43 1459.39 1101.91 1448.66 1103.39C1440.15 1104.59 1431.59 1105.54 1423.07 1106.69C1414.02 1107.92 1405.17 1109.62 1396.55 1112.1C1389.17 1114.22 1385.17 1114.14 1381.59 1112.12C1385.92 1110.43 1388.21 1109.98 1394.42 1109.14C1404.94 1107.7 1415.58 1106.33 1426.02 1104.46C1443.05 1101.43 1459.93 1098.24 1477.07 1096.47C1480.14 1096.18 1482.82 1095.47 1483.39 1093.16C1480.57 1093.07 1477.83 1092.81 1474.84 1092.94C1468.64 1093.24 1462.32 1094 1456.21 1094.18C1441.33 1094.72 1426.35 1095.28 1411.02 1097.52C1400.73 1099.02 1390.72 1098.41 1380.31 1100.48C1378.85 1100.78 1377.31 1100.56 1375.71 1100.64C1364.77 1100.93 1353.94 1101.16 1342.5 1103.5C1328.98 1106.25 1315.3 1108.69 1301.79 1111.54C1290.78 1113.86 1279.33 1116.1 1271.13 1121.55C1271.81 1123 1274.87 1122.66 1277.33 1122.53C1287.33 1121.81 1297.31 1121 1307.27 1120.09C1310.98 1119.74 1314.29 1119.56 1316.94 1120.56C1320.74 1122.01 1325.65 1122.33 1331.25 1121.74C1335.27 1121.33 1339.37 1120.72 1343.34 1120.02C1353.06 1118.32 1362.68 1117.33 1371.89 1117.63C1378.06 1117.83 1384.37 1117.56 1390.91 1116.76C1392.91 1116.51 1394.94 1116.4 1396.87 1116.41C1397.95 1116.42 1398.77 1116.76 1399.77 1116.93C1399.2 1117.37 1398.93 1117.67 1398.61 1117.72C1397.58 1118 1396.46 1118.34 1395.4 1118.43C1386.37 1119.17 1377.46 1121.17 1368.64 1123.06C1365.53 1123.75 1362.37 1124.15 1359.2 1124.55C1351.19 1125.51 1343.06 1126.44 1335.01 1127.21C1312.67 1129.4 1290.38 1131.28 1268.09 1133.75C1240.93 1136.73 1214.14 1138.71 1187.37 1140.2C1176.7 1140.79 1170.37 1139.05 1168.17 1134.48C1167.65 1133.35 1167.22 1132.15 1167.01 1130.91C1166.35 1126.52 1169.64 1123.78 1179.3 1121.75C1191.45 1119.19 1203.31 1115.55 1215.75 1114.02C1218.18 1113.74 1220.66 1113.16 1221.77 1111.5C1220.66 1111.3 1219.84 1110.9 1218.65 1110.91C1206.38 1110.95 1194.1 1110.93 1181.22 1112.4C1176.79 1112.93 1172.75 1113.83 1169.42 1115.73C1163.93 1118.85 1157.32 1120.45 1150.11 1121.12C1145.65 1121.5 1141.28 1121.73 1136.82 1122.11C1122.93 1123.36 1109.14 1124.55 1095.57 1128.88C1093.23 1129.63 1090.28 1130 1087.64 1130.31C1060.02 1133.71 1032.41 1137.21 1004.87 1140.45C980.915 1143.26 957.625 1144.34 935.266 1143.34C922.244 1142.77 911.656 1140.11 901.75 1137.03C894.351 1134.75 899.601 1129.66 906.407 1127.94C910.224 1126.98 914.333 1126.46 918.354 1126.05C922.167 1125.68 925.836 1125.72 929.569 1125.51C963.073 1123.73 996.95 1121 1030.04 1120.52C1039.49 1120.38 1049.53 1119.32 1059.28 1118.4C1062.68 1118.1 1066.63 1117.31 1069.67 1116.19C1075.74 1114 1076.23 1111.22 1070.86 1110.05C1068.83 1109.57 1066.22 1109.44 1063.64 1109.45C1049.17 1109.23 1034.62 1109.13 1020.14 1108.86C1015.92 1108.76 1011.78 1108.51 1007.83 1108.07C1006.74 1107.97 1005.53 1107.2 1005.65 1106.69C1005.77 1106.13 1007.47 1105.39 1008.55 1104.76C1009.04 1104.52 1009.78 1104.44 1010.51 1104.27C1019.8 1102.01 1029.12 1100.48 1038.52 1100.01C1044.49 1099.71 1050.48 1098.86 1057.2 1097.24C1055.9 1097.18 1055.34 1097.08 1054.71 1097.14C1028.99 1099.72 1003.27 1102.3 977.559 1104.92C967.08 1105.97 956.513 1107.13 946.016 1109.3C943.524 1109.84 940.812 1109.72 938.149 1109.89C932.929 1110.22 927.675 1110.35 922.367 1110.79C915.466 1111.36 908.502 1112.18 901.601 1112.75C892.054 1113.58 882.416 1113.89 872.848 1115.22C859.605 1117.09 846.999 1117.67 834.415 1117.76C827.101 1117.82 819.841 1117.56 812.376 1117.98C793.81 1118.97 775.277 1120.15 756.64 1121.34C750.036 1121.76 743.239 1122.31 736.546 1124.07C735.518 1124.35 734.255 1124.52 733.29 1124.54C714.987 1125.19 697.141 1125.36 680.73 1123.28C675.005 1122.56 670.79 1121.24 669.205 1118.33C667.978 1116.24 664.327 1115.06 658.98 1115.9C648.714 1117.54 638.075 1118.91 628.176 1121.42C617.151 1124.28 606.203 1126.34 594.938 1127.82C571.973 1130.75 549.908 1132.05 528.858 1130.53C516.968 1129.67 504.488 1129.74 491.569 1130.38C467.661 1131.61 443.551 1134.15 419.265 1136.92C408.916 1138.09 398.734 1138.99 389.298 1137.99C379.201 1136.91 376.244 1134.78 378.098 1129.36C378.819 1127.32 379.323 1125.27 379.617 1123.26C380.258 1118.29 385.29 1114.43 395.478 1111.72C400.211 1110.45 405.114 1109.54 410.001 1108.54C412.597 1107.99 415.49 1107.29 415.371 1105.99C415.309 1105.02 413.726 1103.97 411.954 1103.69C409.184 1103.24 405.765 1103.4 402.618 1103.26C395.133 1102.95 387.271 1102.95 380.154 1102.28C375.445 1101.83 370.793 1101.71 365.589 1102.13C349.785 1103.52 333.973 1104.86 318.136 1106.05C314.733 1106.31 311.135 1106.05 308.452 1105.49C301.178 1103.92 301.931 1098.98 310.009 1095.9C313.446 1094.62 317.681 1093.58 321.573 1093.05C333.657 1091.33 345.784 1089.85 357.902 1088.33C374.12 1086.23 390.226 1084.1 406.129 1080.2C425.021 1075.53 444.208 1071.93 463.579 1069.38C467.583 1068.88 471.634 1068.02 475.572 1067.14C477.951 1066.58 481.345 1066.28 481.899 1064.52C482.222 1063.28 478.583 1061.57 475.783 1061.56C474.061 1061.57 472.243 1061.64 470.546 1061.79C465.672 1062.25 460.677 1062.63 455.845 1063.33C451.222 1063.99 446.398 1064.73 441.962 1065.85C437.213 1067.02 432.756 1068.64 428.161 1070.08C423.261 1071.62 421.322 1071.61 417.153 1069.94C418.835 1068.47 420.621 1066.98 422.399 1065.44C419.441 1064.54 416.737 1064.47 413.368 1064.91C406.412 1065.79 399.456 1066.66 392.58 1067.37C359.438 1070.61 326.236 1074.74 293.054 1079.6C286.124 1080.61 279.16 1081.44 272.188 1082.21C265.32 1082.97 262.032 1082.03 260.359 1079.23C259.921 1078.57 259.796 1077.86 259.671 1077.15C259.243 1075.31 257.418 1074.11 253.979 1073.53C252.867 1073.33 251.66 1073.2 250.644 1072.94C241.418 1070.68 242.331 1065.42 253.043 1061.39C257.388 1059.75 262.241 1058.56 266.99 1057.39C272.053 1056.16 277.182 1055.31 282.278 1054.28C300.492 1050.65 318.802 1046.97 337.016 1043.34C343.47 1042.07 349.95 1040.94 356.258 1039.44C369.903 1036.18 383.615 1033.3 397.647 1031.63C399.971 1031.37 402.413 1030.55 404.792 1029.99C404.75 1029.75 404.717 1029.56 404.676 1029.32C398.506 1029.76 392.328 1030.16 386.167 1030.64C368.32 1032.04 350.585 1033.47 332.737 1034.88C330.509 1035.07 328.24 1035.02 325.778 1035.11C328.707 1032.15 332.978 1031.94 336.983 1031.44C363.204 1028.04 389.547 1024.71 415.76 1021.26C433.45 1018.96 451.219 1016.49 468.989 1014.02C498.425 1009.91 527.853 1005.75 557.176 1001.61C558.543 1001.42 559.927 1001.33 561.156 1000.97C562.281 1000.62 563.669 999.941 563.811 999.524C563.954 999.107 562.68 998.594 561.698 998.521C557.352 998.299 552.821 998.257 548.474 998.036C541.416 997.7 534.323 998.399 526.773 999.57C513.146 1001.7 499.46 1003.51 485.775 1005.31C466.718 1007.8 447.682 1009.8 428.571 1012.6C408.615 1015.5 388.618 1018.16 368.642 1020.32C334.826 1024.02 301.002 1027.67 267.194 1031.42C255.574 1032.71 250.606 1035.1 247.515 1040.84C246.527 1042.58 244.741 1044.07 241.384 1045.19C233.022 1047.88 220.981 1047.38 218.306 1043.78C215.372 1039.93 208.795 1039.26 200.276 1039.82C181.413 1040.96 162.671 1042.17 143.791 1043.21C138.989 1043.46 134.241 1043.41 129.59 1043.29C125.373 1043.19 123.201 1041.86 123.27 1039.79C123.339 1037.72 125.381 1035.84 129.557 1034.47C132.722 1033.48 135.895 1032.53 139.223 1031.85C163.344 1026.91 187.472 1023.23 211.791 1020.65C235.788 1018.08 259.768 1015.41 283.652 1012.81C285.663 1012.61 287.682 1012.45 289.613 1012.41C292.501 1012.29 294.532 1012.82 294.371 1014.37C294.186 1015.77 291.986 1016.75 289.382 1017.25C285.837 1017.92 282.179 1018.56 278.593 1018.99C268.903 1020.24 259.277 1021.23 249.604 1022.58C243.188 1023.45 236.742 1024.78 230.367 1025.89C231.382 1026.15 232.356 1026.18 233.409 1026.04C248.671 1024.02 263.957 1022.13 279.185 1019.91C295.78 1017.51 312.442 1015.48 328.914 1014.22C341.993 1013.26 355.033 1012.7 368.246 1011.27C386.638 1009.29 405.026 1006.66 423.456 1004.28C429.036 1003.55 434.713 1002.75 440.252 1001.79C442.342 1001.42 444.687 1000.67 446.26 999.806C450.383 997.517 455.258 995.833 460.53 994.569C462.386 994.098 464.226 993.532 466.274 992.929C465.957 992.347 466.083 991.835 465.616 991.622C462.929 990.424 462.392 989.195 466.59 987.334C467.489 986.932 468.134 985.692 467.737 985.271C466.33 983.997 464.97 982.372 462.4 981.84C453.24 979.959 443.68 978.246 433.96 976.855C429.651 976.235 424.398 976.368 419.466 976.494C411.42 976.674 403.311 977.109 395.203 977.545C389.548 977.846 383.788 978.166 377.982 978.836C375.554 979.113 372.598 980.071 370.624 981.102C363.619 984.776 355.569 985.544 347.581 986.057C344.283 986.29 342.002 985.561 342.581 983.94C343.633 980.717 339.663 980.185 334.69 980.073C327.874 979.89 320.994 979.964 314.282 979.764C307.353 979.552 300.223 979.425 293.838 978.628C282.049 977.108 280.717 971.948 290.349 966.051C292.779 964.548 295.869 963.126 298.879 961.865C301.89 960.604 305.36 959.508 308.605 958.353C315.102 956.091 315.964 954.862 313.736 951.966C312.196 949.931 310.84 947.717 310.337 945.452C309.999 944.138 310.875 942.368 312.582 941.04C318.647 936.305 326.634 932.704 337.464 931.205C343.245 930.391 349.131 929.56 354.92 928.794C356.922 928.542 358.933 928.338 360.969 928.277C370.172 927.944 379.112 927.952 387.918 928.424C398.462 928.985 409.454 929.026 421.129 927.428C425.865 926.797 429.268 925.321 432.041 923.317C437.211 919.62 442.155 915.864 447.551 912.226C455.544 906.81 465.561 903.738 477.732 903.132C480.83 902.983 483.918 902.787 487.015 902.638C496.106 902.276 504.199 900.52 511.363 896.524C515.976 893.954 516.48 891.905 511.445 890.823C509.761 890.431 507.466 890.243 505.343 890.418C496.649 891.201 487.938 891.889 479.214 893.118C461.976 895.54 444.699 898.361 427.381 900.944C408.286 903.837 389.282 907.254 370.558 911.651C360.006 914.131 349.421 916.421 338.715 918.633C331.65 920.112 325.18 920.065 320.719 917.952C317.072 916.187 312.316 916.086 306.577 917.137C300.314 918.28 294.069 919.518 287.774 920.47C266.259 923.688 244.647 926.971 223.099 929.999C203.335 932.764 183.514 935.196 164.15 935.93C157.408 936.176 150.608 936.089 144.481 935.541C134.41 934.604 131.957 930.424 137.488 925.096C138.417 924.247 139.346 923.399 140.5 922.609C147.924 917.636 156.655 913.366 167.68 910.509C188.796 905.008 208.852 898.369 229.029 891.806C230.459 891.36 231.856 890.724 232.922 890.048C234.959 888.76 238.831 887.496 237.052 885.944C235.273 884.392 231.724 885.649 228.701 886.226C218.903 888.084 209.137 890.132 199.28 891.658C187.011 893.555 175.139 895.873 163.725 899.582C161.075 900.437 158.077 901.157 155.247 901.602C146.427 902.897 141.77 900.279 145.014 896.036C147.387 892.974 151.464 891.037 157.864 890.066C176.01 887.29 194.252 884.447 212.381 881.575C245.601 876.314 278.854 871.242 311.895 865.57C347.653 859.424 383.606 853.783 419.032 845.734C421.001 845.292 422.953 844.755 424.663 844.064C425.867 843.56 427.503 842.441 427.244 842.192C426.605 841.617 425.122 841.141 423.617 841.159C421.131 841.103 418.292 841.5 415.63 841.671C400.821 842.59 386.004 843.462 371.116 844.542C362.292 845.201 353.293 846.086 344.327 847.162C330.19 848.846 316.115 851.5 302.139 854.725C292.721 856.909 283.847 857.282 276.025 855.657C266.866 853.776 264.621 850.786 268.066 845.233C268.745 844.183 269.214 843.17 270.131 841.637C265.997 842.016 262.787 842.135 259.531 842.606C245.364 844.737 231.231 847.058 217.16 849.123C212.328 849.819 207.158 850.428 202.531 850.452C194.669 850.452 191.492 847.674 193.707 843.708C196.145 839.165 203.174 835.633 213.512 833.779C228.552 831.104 243.497 828.494 258.554 825.913C286.169 821.238 312.615 814.806 337.209 805.168C340.437 803.918 344.35 802.892 347.983 802.11C356.076 800.354 362.708 797.627 368.354 794.19C371.465 792.274 373.465 790.16 371.637 788.323C366.894 783.366 365.463 777.636 363.718 771.96C363.26 770.57 362.801 769.179 361.934 767.909C360.465 765.665 357.168 764.672 351.371 765.391C335.666 767.349 320.033 769.098 304.337 771.104C291.061 772.785 277.844 774.799 264.568 776.48C245.712 778.89 226.894 780.902 207.995 784.3C199.642 785.808 191.383 786.613 183.639 786.053C177.416 785.571 171.096 786.381 164.637 788.244C157.157 790.433 149.998 790.752 143.115 790.189C137.214 789.7 134.516 787.818 135.046 784.686C135.273 783.519 135.814 782.297 136.041 781.13C136.407 778.909 135.776 778.382 131.43 778.16C127.953 777.983 124.107 778.164 120.542 778.101C113.082 777.933 107.788 776.602 106.384 772.877C104.825 768.884 100.805 768.067 91.4295 769.263C87.8513 769.74 84.2647 770.171 80.7032 770.744C73.3628 771.878 68.4325 770.778 64.4141 768.735C60.6379 766.845 60.6523 765.078 64.5549 762.142C70.1726 757.925 77.5985 754.815 86.8034 753.256C108.566 749.603 130.311 745.855 152.06 742.743C179.904 738.763 207.743 735.373 235.54 731.744C246.492 730.322 257.557 728.929 268.437 727.715C275.932 726.847 283.134 725.541 290.292 723.359C294.887 721.92 299.699 720.491 304.481 719.509C319.552 716.387 334.751 713.39 349.847 710.411C374.298 705.503 399.023 702.166 423.391 696.783C442.261 692.606 461.666 689.021 481.023 687.013C481.868 686.915 482.687 686.674 484.142 686.371C482.66 684.669 481.316 683.139 479.964 681.561C477.939 679.219 473.857 678.657 467.979 679.536C465.463 679.927 463.067 680.394 460.559 680.832C451.346 682.343 442.141 683.901 433.008 685.251C410.84 688.436 388.486 691.163 366.385 694.728C323.012 701.665 279.828 706.608 236.524 711.474C214.336 713.927 192.12 716.826 169.982 719.564C157.647 721.081 145.328 722.693 132.913 724.371C119.976 726.14 107.12 726.522 94.0732 728.898C90.4155 729.537 86.5285 729.48 82.8126 729.786C73.9012 730.558 70.7866 727.523 66.8145 725.129C66.2172 724.792 66.3729 723.833 67.0463 723.372C72.3206 719.657 77.449 715.722 86.775 714.241C94.1154 713.106 101.552 711.906 108.959 711.151C119.856 710.033 130.799 708.563 141.651 706.57C144.047 706.103 146.58 705.807 149.016 705.578C153.038 705.17 156.979 704.923 160.992 704.467C167.546 703.764 172.393 701.3 172.772 698.537C173.227 694.977 169.468 693.183 162.688 693.828C159.085 694.163 155.49 694.545 151.975 694.767C122.599 696.759 93.1017 699.901 63.4136 705.036C49.2305 707.071 36.9097 706.821 28.4016 701.885ZM2559.42 251.766C2562.42 250.457 2565.42 249.101 2568.55 247.917C2571.68 246.733 2575.4 245.838 2578.3 244.548C2580.9 243.407 2585.82 243.823 2587.12 240.801C2576.09 243.61 2566.72 246.716 2559.49 251.558C2559.39 251.623 2559.52 251.748 2559.54 251.843C2555.88 253.071 2555.88 253.071 2554.46 254.837C2554.8 254.925 2555.25 255.043 2555.59 255.131C2556.79 253.99 2558.11 252.878 2559.42 251.766ZM2421.24 220.894C2417 220.018 2417 220.018 2412.34 222.35C2415.9 221.73 2418.72 221.237 2421.43 220.763C2421.54 222.607 2420.45 224.366 2417.63 226.132C2416.28 227.006 2415.27 228.016 2414.58 228.97C2413.52 230.331 2414.92 230.968 2417.86 230.505C2419.22 230.268 2420.56 229.935 2421.78 229.526C2427.47 227.553 2432.97 225.758 2439.28 224.265C2447.96 222.208 2455.27 218.432 2462.06 214.747C2464.13 213.65 2466.16 212.315 2464.87 211.118C2463.6 209.969 2460.72 210.765 2458.29 211.042C2457.45 211.141 2456.41 211.371 2455.65 211.356C2451.78 211.394 2448.97 212.524 2446.13 214.147C2440.54 217.328 2433.47 219.396 2425.97 220.852C2424.54 221.251 2422.86 220.906 2421.24 220.894ZM205.832 705.313C206.542 705.68 206.688 705.899 207.01 705.892C208.95 705.897 210.881 705.853 212.908 705.745C239.753 704.684 266.985 702.135 294.327 698.978C316.28 696.419 338.233 693.86 360.249 691.045C378.366 688.714 396.57 686.271 414.683 683.304C423.896 681.793 433.013 680.348 442.188 679.236C447.994 678.565 453.838 677.496 459.682 676.426C463.026 675.842 464.788 674.211 462.87 673.713C459.912 672.807 457.506 671.365 452.737 671.806C437.802 673.237 422.842 674.526 408.004 675.892C402.704 676.376 397.307 676.926 391.961 677.762C372.239 680.764 352.646 683.892 332.941 686.99C330.947 687.289 328.937 687.493 326.935 687.744C318.7 688.692 310.328 689.468 302.126 690.606C288.031 692.528 273.977 694.688 259.907 696.753C258.958 696.87 258.114 696.968 257.173 697.132C250.652 698.026 244.253 698.996 237.723 699.842C231.725 700.645 225.718 701.4 219.703 702.107C214.855 702.708 210.181 703.083 205.832 705.313ZM455.17 1023.69C455.107 1023.95 454.939 1024.22 454.876 1024.48C467.115 1023.03 479.425 1021.37 491.706 1020.15C502.925 1019.03 514.654 1017.13 524.922 1018.57C525.582 1018.65 526.715 1018.36 527.559 1018.26C534.749 1017.49 541.842 1016.79 549.023 1015.98C550.817 1015.76 552.739 1015.67 554.265 1015.16C559.237 1013.41 564.328 1012.96 569.507 1012.4C578.28 1011.46 586.933 1010.44 595.682 1009.35C596.944 1009.18 598.269 1008.75 600.953 1008.09C593.339 1007.65 587.237 1007.25 580.952 1007.02C578.674 1006.93 576.133 1007.18 573.712 1007.5C546.831 1010.82 520.062 1014.17 493.188 1017.54C492.344 1017.64 491.42 1017.9 490.713 1018.17C486.394 1019.96 481.721 1020.33 476.977 1020.91C469.482 1021.78 462.326 1022.74 455.17 1023.69ZM2923.95 490.371C2914.03 492.789 2904.72 495.591 2897.26 499.737C2893.24 502.008 2889.11 503.612 2883.56 504.532C2877.91 505.47 2874.39 507.506 2872.6 510.22C2891.81 504.905 2911.09 499.97 2923.95 490.371ZM2185.87 778.673C2187.76 778.392 2188.62 778.341 2189.45 778.195C2193.71 777.305 2193.39 775.449 2195.07 773.979C2199.27 770.304 2198.61 767.135 2196.79 764.119C2195.59 762.172 2194.19 762.171 2188.49 763.413C2187.43 765.41 2186.16 767.349 2187.36 769.296C2188.13 770.632 2188.09 772.256 2187.93 773.804C2187.64 775.227 2186.62 776.778 2185.87 778.673ZM2294.79 284.889C2294.93 285.109 2295.02 285.632 2295.32 286.071C2296.87 288.791 2299.57 288.858 2304.76 286.529C2310.16 284.117 2311.72 281.344 2312.09 278.534C2312.35 276.921 2310.53 276.356 2307.46 276.695C2300.08 277.592 2294.06 281.34 2294.79 284.889ZM893.466 1106.86C893.411 1107.17 893.461 1107.45 893.406 1107.76C912.527 1108.09 932.224 1104.95 952.502 1102.04C951.687 1101.7 951.541 1101.48 951.219 1101.48C944.26 1101.72 937.301 1101.95 930.35 1102.24C929.28 1102.28 928.01 1102.4 927.086 1102.66C921.759 1104.23 916.514 1104.41 911.118 1104.96C905.287 1105.49 899.385 1106.22 893.466 1106.86ZM1617.25 726.839C1620.37 723.108 1619.07 721.864 1612.22 721.491C1609.12 722.866 1606.9 724.332 1608.69 725.932C1611.44 726.237 1614.17 726.494 1617.25 726.839ZM2464.35 771.809C2463.41 774.425 2463.41 774.425 2470.1 774.482C2472.98 771.282 2471.7 770.722 2464.35 771.809ZM2167.58 916.282C2167.81 914.526 2166.56 913.519 2162.91 913.569C2160.65 913.619 2159.6 914.343 2159.22 915.88C2163.46 914.257 2162.36 918.468 2167.58 916.282ZM339.081 966.364C342.53 968.85 344.332 968.683 348.548 965.692C345.761 965.149 343.095 964.683 339.081 966.364ZM2832.63 558.867C2838.57 555.233 2838.32 553.806 2831.71 553.587C2832 555.252 2832.29 556.917 2832.63 558.867ZM3084.93 450.788C3079.89 450.296 3079.89 450.296 3077.68 454.261C3081.58 453.776 3084.09 452.749 3084.93 450.788ZM2119.53 880.996C2123.22 879.322 2125.81 878.134 2128.31 877.012C2128.06 876.858 2127.92 876.639 2127.68 876.485C2124.98 877.054 2122.28 877.672 2119.37 878.278C2119.4 879.057 2119.5 879.628 2119.53 880.996ZM2229.89 864.813C2226.9 865.628 2223.93 866.49 2221.98 868.253C2226.67 867.973 2228.7 866.638 2229.89 864.813ZM1221.58 478.916C1217.8 477.616 1216.43 478.395 1215.02 480.209C1217.11 479.796 1218.77 479.457 1221.58 478.916ZM2350.98 699.203C2351.62 699.141 2352.25 699.079 2352.89 699.017C2352.89 698.428 2353 697.82 2353.01 697.231C2352.48 697.275 2352.06 697.348 2351.53 697.392C2351.42 697.999 2351.2 698.577 2350.98 699.203Z" fill="#F14F63"/>
<path d="M2713.61 65.3767C2720.81 67.1581 2721.38 68.5304 2716.55 72.952C2697.62 90.3751 2671.71 105.391 2639.61 118.301C2636.48 119.532 2633.38 120.859 2630.12 121.967C2627.79 122.767 2625.2 123.366 2622.33 124.21C2621.48 122.446 2623.79 121.455 2625.88 120.501C2632.57 117.471 2639.13 114.363 2645.94 111.41C2664.76 103.222 2678.82 93.7075 2689.81 83.2587C2690.55 82.5418 2691.27 81.7775 2691.9 81.0314C2694.75 77.6407 2694.34 77.1246 2688.56 76.0757C2687.67 75.9362 2686.78 75.7492 2685.56 75.5694C2688.77 72.9985 2693.07 71.1197 2697.72 69.3764C2699.44 68.7331 2701.14 67.9948 2702.75 67.3222C2706.4 66.6359 2710.06 65.9972 2713.61 65.3767Z" fill="#F14F63"/>
<path d="M756.617 487.855C748.285 490.094 739.978 492.476 731.5 494.496C710.927 499.412 690.25 504.346 669.499 508.852C656.213 511.712 642.69 513.828 629.33 516.259C629.121 516.295 628.912 516.332 628.703 516.369C626.492 516.657 623.678 517.197 623.437 515.817C623.196 514.438 626.026 513.993 628.204 513.514C633.275 512.335 638.347 511.155 643.321 510.041C643.739 509.968 644.253 509.829 644.671 509.756C648.329 509.118 648.144 506.209 652.336 506.163C656.859 506.158 657.885 504.018 660.72 502.983C663.659 501.931 666.202 500.457 668.648 499.05C669.426 498.571 669.937 497.795 669.95 497.254C670.069 495.468 670.083 493.701 669.88 491.923C669.421 487.444 663.623 485.074 653.938 485.736C644.567 486.343 635.167 487.396 625.977 490.275C618.627 492.588 612.422 495.29 609.258 499.372C608.379 500.506 606.89 501.844 604.883 502.685C602.884 503.573 599.886 504.293 597.441 504.474C594.674 504.663 594.015 503.357 594.129 502.16C594.321 498.941 596.372 495.886 602.941 493.416C615.066 488.847 627.296 484.261 639.413 479.645C653.056 474.517 667.777 470.623 682.609 466.758C689.512 464.965 696.388 464.254 703.259 464.133C713.461 463.969 717.579 466.583 715.346 471.679C713.963 474.862 710.817 477.813 705.891 480.438C697.226 485.088 693.442 490.553 687.764 495.662C684.978 498.208 686.536 499.112 691.957 498.705C704.071 497.766 716.105 495.763 728.137 493.122C737.363 491.07 746.71 489.095 755.945 487.09C756.308 487.321 756.463 487.588 756.617 487.855Z" fill="#F14F63"/>
<path d="M1400.79 418.504C1404.65 417.192 1408.28 415.774 1412.28 414.634C1428.81 409.984 1445.24 405.399 1461.78 400.843C1471.64 398.092 1481.77 395.638 1491.49 392.715C1500.69 389.931 1510.25 387.33 1517.8 383.07C1518.78 382.507 1521.22 382.278 1522.82 382.194C1527.85 382.003 1531.71 380.691 1534.55 378.431C1537.95 375.728 1542.65 373.681 1548.21 372.22C1558.81 369.389 1569.43 366.653 1580.05 363.965C1593.56 360.527 1606.94 357.013 1620.6 353.796C1650.69 346.677 1680.81 339.702 1710.83 332.745C1714.76 331.813 1718.87 331.292 1722.85 330.646C1725.37 330.256 1727.33 330.403 1727.55 331.687C1727.76 332.876 1726.03 333.424 1723.86 333.998C1680.08 345.369 1636.31 356.788 1592.42 368.178C1581.91 370.896 1572.36 374.181 1563.54 378.564C1558.59 381.046 1551.89 382.756 1545.72 384.469C1531.14 388.535 1516.41 392.382 1501.71 396.371C1500.68 396.649 1499.43 396.915 1498.53 397.27C1485.04 402.665 1469.87 405.216 1455.13 408.378C1440.07 411.595 1425 414.669 1409.92 417.744C1407.11 418.331 1404.17 418.747 1401.24 419.258C1401.2 419.02 1400.94 418.772 1400.79 418.504Z" fill="#F14F63"/>
<path d="M806.632 427.061C808.876 428.189 810.676 429.247 812.764 430.108C814.724 430.844 817.386 430.674 820.167 429.943C822.537 429.333 824.899 428.675 827.261 428.018C832.805 426.461 835.806 426.379 838.621 427.701C841.541 429.005 842.24 431.775 839.563 433.713C833.352 438.229 825.286 441.99 815.758 444.782C814.32 445.18 812.171 445.212 810.746 445.069C801.561 444.271 792.073 444.212 781.9 445.155C773.527 445.931 769.479 444.334 769.136 440.521C768.794 436.708 768.451 432.895 768.631 428.991C768.86 425.373 770.9 421.634 775.773 418.087C780.934 414.343 788.367 412.505 795.446 413.573C804.41 414.949 810.734 417.864 815.277 421.679C817.039 423.136 815.847 424.325 812.08 425.571C810.658 426.064 809.099 426.385 806.632 427.061Z" fill="#F14F63"/>
<path d="M2193.92 233.335C2196.11 232.315 2197.48 231.536 2199.09 230.864C2211.61 225.49 2224.24 220.099 2236.66 214.744C2252.48 207.912 2267.01 200.473 2277.76 191.732C2279.75 190.16 2280.94 188.335 2281.62 186.648C2282.62 184.365 2280.89 183.735 2276.28 183.854C2276.06 183.843 2275.85 183.879 2275.65 183.916C2273.08 184.021 2270.07 184.645 2269.15 183.09C2268.24 181.582 2269.67 179.321 2272.97 177.863C2275.17 176.89 2277.7 175.959 2280.27 175.264C2296.15 171.217 2312.04 167.218 2327.92 163.218C2329.48 162.849 2331.03 162.48 2332.59 162.206C2337.41 161.414 2339.64 162.447 2338.1 164.774C2336.32 167.488 2331.43 169.125 2326.88 169.577C2314.93 170.83 2309.9 175.336 2304.66 179.83C2304.28 180.141 2304.02 180.481 2303.74 180.774C2297.22 190.296 2283.87 198.314 2269.03 205.856C2254.11 213.511 2237.24 219.936 2219.91 226.149C2214.44 228.086 2208.85 229.994 2203.36 231.883C2200.53 232.917 2197.87 233.724 2193.92 233.335Z" fill="#F14F63"/>
<path d="M2821.32 708.69C2821.72 706.659 2825.33 705.782 2828.18 704.796C2839.85 700.747 2851.56 696.84 2863.23 692.744C2871.55 689.82 2879.86 686.849 2888.04 683.753C2893.5 681.721 2898.69 680.619 2903.74 681.748C2907.65 682.584 2907.56 684.512 2903.59 686.431C2902.2 687.115 2900.47 687.711 2898.84 688.24C2882.09 693.469 2865.36 698.793 2848.49 703.945C2840.62 706.349 2827.84 708.433 2821.32 708.69Z" fill="#F14F63"/>
<path d="M2219.42 196.186C2217.77 197.21 2217.31 197.681 2216.6 197.904C2200.5 202.577 2184.83 207.766 2168.34 212.018C2144.21 218.191 2120.51 224.928 2096.67 231.445C2093.99 232.158 2091.31 232.822 2088.01 233.644C2088.14 231.954 2089.86 231.311 2091.7 230.744C2110.95 225.03 2130.3 219.297 2149.67 213.66C2158.79 210.989 2167.9 208.271 2177.16 205.82C2188.18 202.916 2199.35 200.279 2210.41 197.613C2212.88 196.984 2215.54 196.766 2219.42 196.186Z" fill="#F14F63"/>
<path d="M101.855 653.812C104.02 653.875 105.307 653.847 106.498 653.884C104.53 657.414 100.854 659.183 94.1787 659.81C83.9004 660.771 79.096 659.159 79.6986 654.593C79.909 653.331 81.244 651.725 83.0884 650.57C88.6299 647.151 99.1303 645.611 105.31 647.081C109.468 648.071 109.625 648.975 105.945 651.333C104.887 652.057 103.707 652.704 101.855 653.812Z" fill="#F14F63"/>
</svg>
