<svg width="2400" height="450" viewBox="0 0 2400 450" fill="none" xmlns="http://www.w3.org/2000/svg">
<g clip-path="url(#clip0_937_9651)">
<mask id="mask0_937_9651" style="mask-type:alpha" maskUnits="userSpaceOnUse" x="-212" y="0" width="2853" height="450">
<path d="M2641 0H-212V450H2641V0Z" fill="url(#paint0_linear_937_9651)"/>
</mask>
<g mask="url(#mask0_937_9651)">
<path fill-rule="evenodd" clip-rule="evenodd" d="M0 82C-82.8427 82 -150 149.157 -150 232C-150 259.322 -142.695 284.937 -129.933 307C-142.695 329.063 -150 354.678 -150 382C-150 409.322 -142.695 434.937 -129.933 457C-142.695 479.063 -150 504.678 -150 532C-150 559.322 -142.695 584.937 -129.933 607C-128.403 604.356 -126.795 601.762 -125.112 599.223C-135.886 579.212 -142 556.32 -142 532C-142 453.576 -78.4244 390 0 390C51.9705 390 97.4201 417.919 122.169 459.577C124.966 459.052 127.791 458.605 130.641 458.238C127.621 452.901 124.284 447.768 120.655 442.864L120.767 443.015L120.862 443.144C125.957 431.856 137.311 424 150.5 424C163.365 424 174.484 431.475 179.751 442.318C175.965 447.387 172.491 452.703 169.359 458.238C172.209 458.605 175.034 459.052 177.831 459.577C202.58 417.919 248.03 390 300 390C351.97 390 397.42 417.919 422.169 459.577C424.966 459.052 427.791 458.605 430.641 458.238C427.621 452.901 424.284 447.768 420.655 442.864L420.862 443.144C425.957 431.856 437.311 424 450.5 424C463.365 424 474.484 431.475 479.751 442.318C475.965 447.387 472.491 452.703 469.359 458.238C472.209 458.605 475.034 459.052 477.831 459.577C502.58 417.919 548.029 390 600 390C651.971 390 697.42 417.919 722.169 459.577C724.966 459.052 727.791 458.605 730.641 458.238C727.621 452.901 724.284 447.768 720.655 442.864C720.724 442.957 720.793 443.051 720.862 443.144C725.957 431.856 737.311 424 750.5 424C763.365 424 774.484 431.475 779.751 442.318C775.965 447.387 772.491 452.703 769.359 458.238C772.209 458.605 775.034 459.052 777.831 459.577C802.58 417.919 848.029 390 900 390C951.97 390 997.42 417.919 1022.17 459.577C1024.97 459.052 1027.79 458.605 1030.64 458.238C1027.68 453.003 1024.41 447.964 1020.86 443.144C1025.96 431.856 1037.31 424 1050.5 424C1063.36 424 1074.48 431.475 1079.75 442.318C1075.96 447.387 1072.49 452.703 1069.36 458.238C1072.21 458.605 1075.03 459.052 1077.83 459.577C1102.58 417.919 1148.03 390 1200 390C1251.97 390 1297.42 417.919 1322.17 459.577C1324.97 459.052 1327.79 458.605 1330.64 458.238C1327.68 453.003 1324.41 447.964 1320.86 443.144C1325.96 431.856 1337.31 424 1350.5 424C1363.36 424 1374.48 431.475 1379.75 442.318C1375.96 447.387 1372.49 452.703 1369.36 458.238C1372.21 458.605 1375.03 459.052 1377.83 459.577C1402.58 417.919 1448.03 390 1500 390C1551.97 390 1597.42 417.919 1622.17 459.577C1624.97 459.052 1627.79 458.605 1630.64 458.238C1627.68 453.003 1624.41 447.964 1620.86 443.144C1625.96 431.856 1637.31 424 1650.5 424C1663.36 424 1674.48 431.475 1679.75 442.318C1675.96 447.387 1672.49 452.703 1669.36 458.238C1672.21 458.605 1675.03 459.052 1677.83 459.577C1702.58 417.919 1748.03 390 1800 390C1851.97 390 1897.42 417.919 1922.17 459.577C1924.97 459.052 1927.79 458.605 1930.64 458.238C1927.68 453.003 1924.41 447.964 1920.86 443.144C1925.96 431.856 1937.31 424 1950.5 424C1963.36 424 1974.48 431.475 1979.75 442.318C1975.96 447.387 1972.49 452.703 1969.36 458.238C1972.21 458.605 1975.03 459.052 1977.83 459.577C2002.58 417.919 2048.03 390 2100 390C2151.97 390 2197.42 417.919 2222.17 459.577C2224.97 459.052 2227.79 458.605 2230.64 458.238C2221.4 441.905 2209.18 427.477 2194.73 415.69C2207.31 398.879 2227.39 388 2250 388C2272.61 388 2292.69 398.879 2305.27 415.69C2297.13 422.327 2289.7 429.801 2283.12 437.981C2276.67 426.645 2264.48 419 2250.5 419C2236.22 419 2223.81 426.978 2217.48 438.719C2218.63 440.173 2219.76 441.648 2220.86 443.144C2225.96 431.856 2237.31 424 2250.5 424C2263.36 424 2274.48 431.475 2279.75 442.318C2275.96 447.387 2272.49 452.703 2269.36 458.238C2272.21 458.605 2275.03 459.052 2277.83 459.577C2302.58 417.919 2348.03 390 2400 390C2478.42 390 2542 453.576 2542 532C2542 556.32 2535.89 579.212 2525.11 599.223C2526.79 601.762 2528.4 604.356 2529.93 607C2542.7 584.937 2550 559.322 2550 532C2550 504.678 2542.7 479.063 2529.93 457C2542.7 434.937 2550 409.322 2550 382C2550 354.678 2542.7 329.063 2529.93 307C2542.7 284.937 2550 259.322 2550 232C2550 149.157 2482.84 82 2400 82C2343.97 82 2295.11 112.721 2269.36 158.238C2263.02 157.421 2256.56 157 2250 157C2243.44 157 2236.98 157.421 2230.64 158.238C2204.89 112.721 2156.03 82 2100 82C2043.97 82 1995.11 112.721 1969.36 158.238C1963.02 157.421 1956.56 157 1950 157C1943.44 157 1936.98 157.421 1930.64 158.238C1904.89 112.721 1856.03 82 1800 82C1743.97 82 1695.11 112.721 1669.36 158.238C1663.02 157.421 1656.56 157 1650 157C1643.44 157 1636.98 157.421 1630.64 158.238C1604.89 112.721 1556.03 82 1500 82C1443.97 82 1395.11 112.721 1369.36 158.238C1363.02 157.421 1356.56 157 1350 157C1343.44 157 1336.98 157.421 1330.64 158.238C1304.89 112.721 1256.03 82 1200 82C1143.97 82 1095.11 112.721 1069.36 158.238C1063.02 157.421 1056.56 157 1050 157C1043.44 157 1036.98 157.421 1030.64 158.238C1004.89 112.721 956.031 82 900 82C843.969 82 795.114 112.721 769.359 158.238C763.022 157.421 756.56 157 750 157C743.44 157 736.979 157.421 730.641 158.238C704.886 112.721 656.031 82 600 82C543.969 82 495.114 112.721 469.359 158.238C463.022 157.421 456.56 157 450 157C443.44 157 436.979 157.421 430.641 158.238C404.886 112.721 356.031 82 300 82C243.969 82 195.114 112.721 169.359 158.238C163.022 157.421 156.56 157 150 157C143.44 157 136.979 157.421 130.641 158.238C104.886 112.721 56.0306 82 0 82ZM2525.11 449.223C2535.89 429.212 2542 406.32 2542 382C2542 303.576 2478.42 240 2400 240C2348.03 240 2302.58 267.919 2277.83 309.577C2288.08 311.501 2297.97 314.468 2307.37 318.364C2327.61 288.571 2361.77 269 2400.5 269C2462.63 269 2513 319.368 2513 381.5C2513 396.697 2509.99 411.19 2504.52 424.415C2512.24 431.909 2519.15 440.226 2525.11 449.223ZM2499.02 419.323C2503.53 407.582 2506 394.829 2506 381.5C2506 323.234 2458.77 276 2400.5 276C2364.63 276 2332.95 293.897 2313.89 321.246C2323.15 325.613 2331.89 330.901 2340 336.99C2353.69 318.779 2375.47 307 2400 307C2441.42 307 2475 340.579 2475 382C2475 388.468 2474.18 394.744 2472.64 400.732C2482.11 405.981 2490.95 412.225 2499.02 419.323ZM2467.17 397.844C2468.37 392.757 2469 387.452 2469 382C2469 343.892 2438.11 313 2400 313C2377.39 313 2357.31 323.879 2344.73 340.69C2353.11 347.526 2360.74 355.25 2367.48 363.719C2373.81 351.978 2386.22 344 2400.5 344C2421.21 344 2438 360.789 2438 381.5C2438 383.285 2437.88 385.041 2437.63 386.76C2447.95 389.426 2457.84 393.163 2467.17 397.844ZM2432.75 385.585C2432.91 384.247 2433 382.884 2433 381.5C2433 363.551 2418.45 349 2400.5 349C2387.31 349 2375.96 356.856 2370.86 368.144C2374.41 372.964 2377.68 378.003 2380.64 383.238C2386.98 382.421 2393.44 382 2400 382C2411.25 382 2422.21 383.238 2432.75 385.585ZM2372.17 384.577C2347.42 342.919 2301.97 315 2250 315C2198.03 315 2152.58 342.919 2127.83 384.577C2138.08 386.501 2147.97 389.468 2157.37 393.364C2177.61 363.571 2211.77 344 2250.5 344C2289.09 344 2323.14 363.431 2343.41 393.043C2352.58 389.305 2362.2 386.448 2372.17 384.577ZM2336.87 395.894C2317.78 368.743 2286.21 351 2250.5 351C2214.64 351 2182.95 368.897 2163.89 396.246C2173.15 400.614 2181.9 405.901 2190 411.99C2203.69 393.779 2225.47 382 2250 382C2274.53 382 2296.31 393.779 2310 411.99C2318.32 405.736 2327.32 400.328 2336.87 395.894ZM2119.36 383.238C2122.49 377.703 2125.96 372.387 2129.75 367.318C2124.48 356.475 2113.36 349 2100.5 349C2087.31 349 2075.96 356.856 2070.86 368.144C2074.41 372.964 2077.68 378.003 2080.64 383.238C2086.98 382.421 2093.44 382 2100 382C2106.56 382 2113.02 382.421 2119.36 383.238ZM2072.17 384.577C2047.42 342.919 2001.97 315 1950 315C1898.03 315 1852.58 342.919 1827.83 384.577C1838.08 386.501 1847.97 389.468 1857.37 393.364C1877.61 363.571 1911.77 344 1950.5 344C1989.09 344 2023.14 363.431 2043.41 393.043C2052.58 389.304 2062.2 386.448 2072.17 384.577ZM2036.87 395.894C2017.78 368.743 1986.21 351 1950.5 351C1914.64 351 1882.95 368.897 1863.89 396.246C1873.15 400.614 1881.9 405.901 1890 411.99C1903.69 393.779 1925.47 382 1950 382C1974.53 382 1996.31 393.779 2010 411.99C2018.32 405.736 2027.32 400.328 2036.87 395.894ZM2005.27 415.69C1992.69 398.879 1972.61 388 1950 388C1927.39 388 1907.31 398.879 1894.73 415.69C1903.11 422.526 1910.74 430.25 1917.48 438.719C1923.81 426.978 1936.22 419 1950.5 419C1964.48 419 1976.67 426.645 1983.12 437.981C1989.7 429.801 1997.13 422.327 2005.27 415.69ZM1819.36 383.238C1822.49 377.703 1825.96 372.387 1829.75 367.318C1824.48 356.475 1813.36 349 1800.5 349C1787.31 349 1775.96 356.856 1770.86 368.144C1774.41 372.964 1777.68 378.003 1780.64 383.238C1786.98 382.421 1793.44 382 1800 382C1806.56 382 1813.02 382.421 1819.36 383.238ZM1772.17 384.577C1747.42 342.919 1701.97 315 1650 315C1598.03 315 1552.58 342.919 1527.83 384.577C1538.08 386.501 1547.97 389.468 1557.37 393.364C1577.61 363.571 1611.77 344 1650.5 344C1689.09 344 1723.14 363.431 1743.41 393.043C1752.58 389.304 1762.2 386.448 1772.17 384.577ZM1736.87 395.894C1717.78 368.743 1686.21 351 1650.5 351C1614.64 351 1582.95 368.897 1563.89 396.246C1573.15 400.614 1581.9 405.901 1590 411.99C1603.69 393.779 1625.47 382 1650 382C1674.53 382 1696.31 393.779 1710 411.99C1718.32 405.736 1727.32 400.328 1736.87 395.894ZM1705.27 415.69C1692.69 398.879 1672.61 388 1650 388C1627.39 388 1607.31 398.879 1594.73 415.69C1603.11 422.526 1610.74 430.25 1617.48 438.719C1623.81 426.978 1636.22 419 1650.5 419C1664.48 419 1676.67 426.645 1683.12 437.981C1689.7 429.801 1697.13 422.327 1705.27 415.69ZM1519.36 383.238C1522.49 377.703 1525.96 372.387 1529.75 367.318C1524.48 356.475 1513.36 349 1500.5 349C1487.31 349 1475.96 356.856 1470.86 368.144C1474.41 372.964 1477.68 378.003 1480.64 383.238C1486.98 382.421 1493.44 382 1500 382C1506.56 382 1513.02 382.421 1519.36 383.238ZM1472.17 384.577C1447.42 342.919 1401.97 315 1350 315C1298.03 315 1252.58 342.919 1227.83 384.577C1238.08 386.501 1247.97 389.468 1257.37 393.364C1277.61 363.571 1311.77 344 1350.5 344C1389.09 344 1423.14 363.431 1443.41 393.043C1452.58 389.304 1462.2 386.448 1472.17 384.577ZM1436.87 395.894C1417.78 368.743 1386.21 351 1350.5 351C1314.64 351 1282.95 368.897 1263.89 396.246C1273.15 400.614 1281.9 405.901 1290 411.99C1303.69 393.779 1325.47 382 1350 382C1374.53 382 1396.31 393.779 1410 411.99C1418.32 405.736 1427.32 400.328 1436.87 395.894ZM1405.27 415.69C1392.69 398.879 1372.61 388 1350 388C1327.39 388 1307.31 398.879 1294.73 415.69C1303.11 422.526 1310.74 430.25 1317.48 438.719C1323.81 426.978 1336.22 419 1350.5 419C1364.48 419 1376.67 426.645 1383.12 437.981C1389.7 429.801 1397.13 422.327 1405.27 415.69ZM1219.36 383.238C1222.49 377.703 1225.96 372.387 1229.75 367.318C1224.48 356.475 1213.36 349 1200.5 349C1187.31 349 1175.96 356.856 1170.86 368.144C1174.41 372.964 1177.68 378.003 1180.64 383.238C1186.98 382.421 1193.44 382 1200 382C1206.56 382 1213.02 382.421 1219.36 383.238ZM1172.17 384.577C1147.42 342.919 1101.97 315 1050 315C998.03 315 952.58 342.919 927.832 384.577C938.085 386.501 947.97 389.468 957.374 393.364C977.611 363.571 1011.77 344 1050.5 344C1089.09 344 1123.14 363.431 1143.41 393.043C1152.58 389.304 1162.2 386.448 1172.17 384.577ZM1136.87 395.894C1117.78 368.743 1086.21 351 1050.5 351C1014.64 351 982.95 368.897 963.888 396.246C973.151 400.614 981.895 405.901 990.002 411.99C1003.69 393.779 1025.47 382 1050 382C1074.53 382 1096.31 393.779 1110 411.99C1118.32 405.736 1127.32 400.328 1136.87 395.894ZM1105.27 415.69C1092.69 398.879 1072.61 388 1050 388C1027.39 388 1007.31 398.879 994.728 415.69C1003.11 422.526 1010.74 430.25 1017.48 438.719C1023.81 426.978 1036.22 419 1050.5 419C1064.48 419 1076.67 426.645 1083.12 437.981C1089.7 429.801 1097.13 422.327 1105.27 415.69ZM919.359 383.238C922.491 377.703 925.964 372.387 929.751 367.318C924.484 356.475 913.365 349 900.5 349C887.311 349 875.957 356.856 870.862 368.144C874.411 372.964 877.679 378.003 880.641 383.238C886.979 382.421 893.44 382 900 382C906.56 382 913.022 382.421 919.359 383.238ZM872.169 384.577C847.42 342.919 801.971 315 750 315C698.03 315 652.58 342.919 627.831 384.577C638.085 386.501 647.97 389.468 657.374 393.364C677.611 363.571 711.77 344 750.5 344C789.091 344 823.143 363.431 843.408 393.043C852.577 389.304 862.199 386.448 872.169 384.577ZM836.866 395.894C817.778 368.743 786.211 351 750.5 351C714.635 351 682.95 368.897 663.888 396.246C673.151 400.614 681.895 405.901 690.002 411.99C703.685 393.779 725.467 382 750 382C774.533 382 796.315 393.779 809.998 411.99C818.325 405.736 827.323 400.328 836.866 395.894ZM805.273 415.69C792.688 398.879 772.615 388 750 388C727.386 388 707.312 398.879 694.728 415.69C703.111 422.526 710.742 430.25 717.475 438.719C723.81 426.978 736.224 419 750.5 419C764.476 419 776.665 426.645 783.116 437.981C789.704 429.801 797.133 422.327 805.273 415.69ZM619.359 383.238C622.491 377.703 625.964 372.387 629.751 367.318C624.484 356.475 613.365 349 600.5 349C587.311 349 575.957 356.856 570.862 368.144C574.411 372.964 577.679 378.003 580.641 383.238C586.979 382.421 593.44 382 600 382C606.56 382 613.022 382.421 619.359 383.238ZM572.169 384.577C547.42 342.919 501.971 315 450 315C398.03 315 352.58 342.919 327.831 384.577C338.085 386.501 347.97 389.468 357.374 393.364C377.611 363.571 411.77 344 450.5 344C489.091 344 523.143 363.431 543.408 393.043C552.577 389.304 562.199 386.448 572.169 384.577ZM536.866 395.894C517.778 368.743 486.211 351 450.5 351C414.635 351 382.95 368.897 363.888 396.246C373.151 400.614 381.895 405.901 390.002 411.99C403.685 393.779 425.467 382 450 382C474.533 382 496.315 393.779 509.998 411.99C518.325 405.736 527.323 400.328 536.866 395.894ZM505.273 415.69C492.688 398.879 472.615 388 450 388C427.386 388 407.312 398.879 394.728 415.69C403.111 422.526 410.742 430.25 417.475 438.719C423.81 426.978 436.224 419 450.5 419C464.476 419 476.665 426.645 483.116 437.981C489.704 429.801 497.133 422.327 505.273 415.69ZM319.359 383.238C322.491 377.703 325.964 372.387 329.751 367.318C324.484 356.475 313.365 349 300.5 349C287.311 349 275.957 356.856 270.862 368.144C274.411 372.964 277.679 378.003 280.641 383.238C286.979 382.421 293.44 382 300 382C306.56 382 313.022 382.421 319.359 383.238ZM272.169 384.577C247.42 342.919 201.971 315 150 315C98.0297 315 52.5801 342.919 27.8315 384.577C38.0849 386.501 47.9704 389.468 57.3737 393.364C77.6112 363.571 111.77 344 150.5 344C189.091 344 223.143 363.431 243.408 393.043C252.577 389.304 262.199 386.448 272.169 384.577ZM236.866 395.894C217.778 368.743 186.211 351 150.5 351C114.635 351 82.9498 368.897 63.8877 396.246C73.3795 400.721 82.3262 406.162 90.601 412.443L90.4928 412.361L90.2758 412.197L90.1504 412.102L90.002 411.99C103.686 393.779 125.467 382 150 382C174.533 382 196.315 393.779 209.998 411.99C218.325 405.736 227.323 400.328 236.866 395.894ZM205.273 415.69C192.688 398.879 172.615 388 150 388C127.386 388 107.312 398.879 94.7278 415.69C103.111 422.526 110.742 430.25 117.475 438.719C123.81 426.978 136.224 419 150.5 419C164.476 419 176.665 426.645 183.116 437.981C189.704 429.801 197.133 422.327 205.273 415.69ZM19.3594 383.238C22.4912 377.703 25.9644 372.387 29.7507 367.318C24.4837 356.475 13.3647 349 0.5 349C-17.4492 349 -32 363.551 -32 381.5C-32 382.81 -31.9225 384.102 -31.7718 385.371C-21.531 383.163 -10.9013 382 0 382C6.56 382 13.0216 382.421 19.3594 383.238ZM-36.6677 386.514C-36.8869 384.874 -37 383.2 -37 381.5C-37 360.789 -20.2107 344 0.5 344C14.4754 344 26.6651 351.645 33.1156 362.981L33.0273 363.091L32.9428 363.196C39.5929 354.908 47.1049 347.342 55.3429 340.632L55.2723 340.69C42.6881 323.879 22.6145 313 0 313C-38.1077 313 -69 343.892 -69 382C-69 387.452 -68.3676 392.757 -67.1722 397.844C-57.5494 393.017 -47.3354 389.194 -36.6677 386.514ZM-72.6419 400.732C-74.1813 394.744 -75 388.468 -75 382C-75 340.579 -41.4214 307 0 307C24.5329 307 46.3147 318.779 59.9982 336.99C68.3246 330.736 77.323 325.328 86.8657 320.894C67.7776 293.743 36.2108 276 0.5 276C-57.766 276 -105 323.234 -105 381.5C-105 394.582 -102.619 407.107 -98.2668 418.667C-90.4002 411.84 -81.8158 405.819 -72.6419 400.732ZM-103.808 423.723C-109.091 410.685 -112 396.432 -112 381.5C-112 319.368 -61.632 269 0.5 269C39.0908 269 73.1433 288.431 93.4076 318.043C102.577 314.304 112.199 311.448 122.169 309.577C97.4201 267.919 51.9705 240 0 240C-78.4244 240 -142 303.576 -142 382C-142 406.32 -135.886 429.212 -125.112 449.223C-118.963 439.948 -111.81 431.396 -103.808 423.723ZM-103.808 273.723C-111.81 281.396 -118.963 289.948 -125.112 299.223C-135.886 279.212 -142 256.32 -142 232C-142 153.576 -78.4244 90 0 90C51.9705 90 97.4201 117.919 122.169 159.577C112.199 161.448 102.577 164.304 93.4076 168.043C73.1433 138.431 39.0908 119 0.5 119C-61.632 119 -112 169.368 -112 231.5C-112 246.432 -109.091 260.685 -103.808 273.723ZM0.5 126C36.2108 126 67.7776 143.743 86.8657 170.894C77.323 175.328 68.3246 180.736 59.9982 186.99C46.3147 168.779 24.5329 157 0 157C-41.4214 157 -75 190.579 -75 232C-75 238.468 -74.1813 244.744 -72.6419 250.732C-81.8158 255.819 -90.4002 261.84 -98.2668 268.667C-102.619 257.107 -105 244.582 -105 231.5C-105 173.234 -57.766 126 0.5 126ZM0 163C22.6145 163 42.6881 173.879 55.2723 190.69C40.8174 202.477 28.6012 216.905 19.3594 233.238C13.0216 232.421 6.56 232 0 232C-10.9013 232 -21.531 233.163 -31.7718 235.371C-31.9225 234.102 -32 232.81 -32 231.5C-32 213.551 -17.4492 199 0.5 199C13.3647 199 24.4837 206.475 29.7507 217.318C30.8464 215.851 31.9682 214.405 33.1156 212.981C26.6651 201.645 14.4754 194 0.5 194C-20.2107 194 -37 210.789 -37 231.5C-37 233.2 -36.8869 234.874 -36.6677 236.514C-47.3354 239.194 -57.5494 243.017 -67.1722 247.844C-68.3676 242.757 -69 237.452 -69 232C-69 193.892 -38.1077 163 0 163ZM2542 232C2542 256.32 2535.89 279.212 2525.11 299.223C2519.15 290.226 2512.24 281.909 2504.52 274.415C2509.99 261.19 2513 246.697 2513 231.5C2513 169.368 2462.63 119 2400.5 119C2361.77 119 2327.61 138.571 2307.37 168.364C2297.97 164.468 2288.08 161.501 2277.83 159.577C2302.58 117.919 2348.03 90 2400 90C2478.42 90 2542 153.576 2542 232ZM2506 231.5C2506 244.829 2503.53 257.582 2499.02 269.323C2490.95 262.226 2482.11 255.981 2472.64 250.732C2474.18 244.744 2475 238.468 2475 232C2475 190.579 2441.42 157 2400 157C2375.47 157 2353.69 168.779 2340 186.99C2331.89 180.901 2323.15 175.614 2313.89 171.246C2332.95 143.897 2364.63 126 2400.5 126C2458.77 126 2506 173.234 2506 231.5ZM2469 232C2469 237.452 2468.37 242.757 2467.17 247.844C2457.84 243.163 2447.95 239.426 2437.63 236.76C2437.88 235.041 2438 233.285 2438 231.5C2438 210.789 2421.21 194 2400.5 194C2386.22 194 2373.81 201.978 2367.48 213.719C2360.74 205.25 2353.11 197.526 2344.73 190.69C2357.31 173.879 2377.39 163 2400 163C2438.11 163 2469 193.892 2469 232ZM2433 231.5C2433 232.884 2432.91 234.247 2432.75 235.585C2422.21 233.238 2411.25 232 2400 232C2393.44 232 2386.98 232.421 2380.64 233.238C2377.68 228.003 2374.41 222.964 2370.86 218.144C2375.96 206.856 2387.31 199 2400.5 199C2418.45 199 2433 213.551 2433 231.5ZM2100 90C2151.97 90 2197.42 117.919 2222.17 159.577C2212.2 161.448 2202.58 164.304 2193.41 168.043C2173.14 138.431 2139.09 119 2100.5 119C2061.77 119 2027.61 138.571 2007.37 168.364C1997.97 164.468 1988.08 161.501 1977.83 159.577C2002.58 117.919 2048.03 90 2100 90ZM2100.5 126C2136.21 126 2167.78 143.743 2186.87 170.894C2177.32 175.328 2168.32 180.736 2160 186.99C2146.31 168.779 2124.53 157 2100 157C2075.47 157 2053.69 168.779 2040 186.99C2031.89 180.901 2023.15 175.614 2013.89 171.246C2032.95 143.897 2064.63 126 2100.5 126ZM2100 163C2122.61 163 2142.69 173.879 2155.27 190.69C2147.13 197.327 2139.7 204.801 2133.12 212.981C2126.67 201.645 2114.48 194 2100.5 194C2086.22 194 2073.81 201.978 2067.48 213.719C2060.74 205.25 2053.11 197.526 2044.73 190.69C2057.31 173.879 2077.39 163 2100 163ZM2100.5 199C2113.36 199 2124.48 206.475 2129.75 217.318C2125.96 222.387 2122.49 227.703 2119.36 233.238C2113.02 232.421 2106.56 232 2100 232C2093.44 232 2086.98 232.421 2080.64 233.238C2077.68 228.003 2074.41 222.964 2070.86 218.144C2075.96 206.856 2087.31 199 2100.5 199ZM1800 90C1851.97 90 1897.42 117.919 1922.17 159.577C1912.2 161.448 1902.58 164.304 1893.41 168.043C1873.14 138.431 1839.09 119 1800.5 119C1761.77 119 1727.61 138.571 1707.37 168.364C1697.97 164.468 1688.08 161.501 1677.83 159.577C1702.58 117.919 1748.03 90 1800 90ZM1800.5 126C1836.21 126 1867.78 143.743 1886.87 170.894C1877.32 175.328 1868.32 180.736 1860 186.99C1846.31 168.779 1824.53 157 1800 157C1775.47 157 1753.69 168.779 1740 186.99C1731.89 180.901 1723.15 175.614 1713.89 171.246C1732.95 143.897 1764.63 126 1800.5 126ZM1800 163C1822.61 163 1842.69 173.879 1855.27 190.69C1847.13 197.327 1839.7 204.801 1833.12 212.981C1826.67 201.645 1814.48 194 1800.5 194C1786.22 194 1773.81 201.978 1767.48 213.719C1760.74 205.25 1753.11 197.526 1744.73 190.69C1757.31 173.879 1777.39 163 1800 163ZM1800.5 199C1813.36 199 1824.48 206.475 1829.75 217.318C1825.96 222.387 1822.49 227.703 1819.36 233.238C1813.02 232.421 1806.56 232 1800 232C1793.44 232 1786.98 232.421 1780.64 233.238C1777.68 228.003 1774.41 222.964 1770.86 218.144C1775.96 206.856 1787.31 199 1800.5 199ZM1500 90C1551.97 90 1597.42 117.919 1622.17 159.577C1612.2 161.448 1602.58 164.304 1593.41 168.043C1573.14 138.431 1539.09 119 1500.5 119C1461.77 119 1427.61 138.571 1407.37 168.364C1397.97 164.468 1388.08 161.501 1377.83 159.577C1402.58 117.919 1448.03 90 1500 90ZM1500.5 126C1536.21 126 1567.78 143.743 1586.87 170.894C1577.32 175.328 1568.32 180.736 1560 186.99C1546.31 168.779 1524.53 157 1500 157C1475.47 157 1453.69 168.779 1440 186.99C1431.89 180.901 1423.15 175.614 1413.89 171.246C1432.95 143.897 1464.63 126 1500.5 126ZM1500 163C1522.61 163 1542.69 173.879 1555.27 190.69C1547.13 197.327 1539.7 204.801 1533.12 212.981C1526.67 201.645 1514.48 194 1500.5 194C1486.22 194 1473.81 201.978 1467.48 213.719C1460.74 205.25 1453.11 197.526 1444.73 190.69C1457.31 173.879 1477.39 163 1500 163ZM1500.5 199C1513.36 199 1524.48 206.475 1529.75 217.318C1525.96 222.387 1522.49 227.703 1519.36 233.238C1513.02 232.421 1506.56 232 1500 232C1493.44 232 1486.98 232.421 1480.64 233.238C1477.68 228.003 1474.41 222.964 1470.86 218.144C1475.96 206.856 1487.31 199 1500.5 199ZM1200 90C1251.97 90 1297.42 117.919 1322.17 159.577C1312.2 161.448 1302.58 164.304 1293.41 168.043C1273.14 138.431 1239.09 119 1200.5 119C1161.77 119 1127.61 138.571 1107.37 168.364C1097.97 164.468 1088.08 161.501 1077.83 159.577C1102.58 117.919 1148.03 90 1200 90ZM1200.5 126C1236.21 126 1267.78 143.743 1286.87 170.894C1277.32 175.328 1268.32 180.736 1260 186.99C1246.31 168.779 1224.53 157 1200 157C1175.47 157 1153.69 168.779 1140 186.99C1131.89 180.901 1123.15 175.614 1113.89 171.246C1132.95 143.897 1164.63 126 1200.5 126ZM1200 163C1222.61 163 1242.69 173.879 1255.27 190.69C1247.13 197.327 1239.7 204.801 1233.12 212.981C1226.67 201.645 1214.48 194 1200.5 194C1186.22 194 1173.81 201.978 1167.48 213.719C1160.74 205.25 1153.11 197.526 1144.73 190.69C1157.31 173.879 1177.39 163 1200 163ZM1200.5 199C1213.36 199 1224.48 206.475 1229.75 217.318C1225.96 222.387 1222.49 227.703 1219.36 233.238C1213.02 232.421 1206.56 232 1200 232C1193.44 232 1186.98 232.421 1180.64 233.238C1177.68 228.003 1174.41 222.964 1170.86 218.144C1175.96 206.856 1187.31 199 1200.5 199ZM900 90C951.97 90 997.42 117.919 1022.17 159.577C1012.2 161.448 1002.58 164.304 993.408 168.043C973.143 138.431 939.091 119 900.5 119C861.77 119 827.611 138.571 807.374 168.364C797.97 164.468 788.085 161.501 777.831 159.577C802.58 117.919 848.029 90 900 90ZM900.5 126C936.211 126 967.778 143.743 986.866 170.894C977.323 175.328 968.325 180.736 959.998 186.99C946.315 168.779 924.533 157 900 157C875.467 157 853.685 168.779 840.002 186.99C831.895 180.901 823.151 175.614 813.888 171.246C832.95 143.897 864.635 126 900.5 126ZM900 163C922.615 163 942.688 173.879 955.272 190.69C947.133 197.327 939.704 204.801 933.116 212.981C926.665 201.645 914.475 194 900.5 194C886.223 194 873.81 201.978 867.475 213.719C860.741 205.25 853.111 197.526 844.728 190.69C857.312 173.879 877.385 163 900 163ZM900.5 199C913.365 199 924.484 206.475 929.751 217.318C925.964 222.387 922.491 227.703 919.359 233.238C913.022 232.421 906.56 232 900 232C893.44 232 886.979 232.421 880.641 233.238C877.679 228.003 874.411 222.964 870.862 218.144C875.957 206.856 887.311 199 900.5 199ZM600 90C651.971 90 697.42 117.919 722.169 159.577C712.199 161.448 702.577 164.304 693.408 168.043C673.143 138.431 639.091 119 600.5 119C561.77 119 527.611 138.571 507.374 168.364C497.97 164.468 488.085 161.501 477.831 159.577C502.58 117.919 548.029 90 600 90ZM600.5 126C636.211 126 667.778 143.743 686.866 170.894C677.323 175.328 668.325 180.736 659.998 186.99C646.315 168.779 624.533 157 600 157C575.467 157 553.685 168.779 540.002 186.99C531.895 180.901 523.151 175.614 513.888 171.246C532.95 143.897 564.635 126 600.5 126ZM600 163C622.615 163 642.688 173.879 655.272 190.69C647.133 197.327 639.704 204.801 633.116 212.981C626.665 201.645 614.475 194 600.5 194C586.223 194 573.81 201.978 567.475 213.719C560.741 205.25 553.111 197.526 544.728 190.69C557.312 173.879 577.385 163 600 163ZM600.5 199C613.365 199 624.484 206.475 629.751 217.318C625.964 222.387 622.491 227.703 619.359 233.238C613.022 232.421 606.56 232 600 232C593.44 232 586.979 232.421 580.641 233.238C577.679 228.003 574.411 222.964 570.862 218.144C575.957 206.856 587.311 199 600.5 199ZM300 90C351.97 90 397.42 117.919 422.169 159.577C412.199 161.448 402.577 164.304 393.408 168.043C373.143 138.431 339.091 119 300.5 119C261.77 119 227.611 138.571 207.374 168.364C197.97 164.468 188.085 161.501 177.831 159.577C202.58 117.919 248.03 90 300 90ZM300.5 126C336.211 126 367.778 143.743 386.866 170.894C377.323 175.328 368.325 180.736 359.998 186.99C346.315 168.779 324.533 157 300 157C275.467 157 253.685 168.779 240.002 186.99C231.895 180.901 223.151 175.614 213.887 171.246C232.95 143.897 264.635 126 300.5 126ZM300 163C322.615 163 342.688 173.879 355.272 190.69C347.133 197.327 339.704 204.801 333.116 212.981C326.665 201.645 314.475 194 300.5 194C286.223 194 273.81 201.978 267.475 213.719C260.741 205.25 253.111 197.526 244.728 190.69C257.312 173.879 277.385 163 300 163ZM300.5 199C313.365 199 324.484 206.475 329.751 217.318C325.964 222.387 322.491 227.703 319.359 233.238C313.022 232.421 306.56 232 300 232C293.44 232 286.979 232.421 280.641 233.238C277.679 228.003 274.411 222.964 270.862 218.144C275.957 206.856 287.311 199 300.5 199ZM27.8315 234.577C38.0849 236.501 47.9704 239.468 57.3737 243.364C77.6112 213.571 111.77 194 150.5 194C189.091 194 223.143 213.431 243.408 243.043C252.577 239.304 262.199 236.448 272.169 234.577C247.42 192.919 201.971 165 150 165C98.0297 165 52.5801 192.919 27.8315 234.577ZM236.866 245.894C217.778 218.743 186.211 201 150.5 201C114.635 201 82.9498 218.897 63.8877 246.246C73.151 250.614 81.895 255.901 90.002 261.99C103.686 243.779 125.467 232 150 232C174.533 232 196.315 243.779 209.998 261.99C218.325 255.736 227.323 250.328 236.866 245.894ZM94.452 265.465C102.944 272.357 110.668 280.157 117.475 288.719C123.81 276.978 136.224 269 150.5 269C164.476 269 176.665 276.645 183.116 287.981C189.704 279.801 197.133 272.327 205.273 265.69C192.688 248.879 172.615 238 150 238C127.386 238 107.312 248.879 94.7278 265.69C94.636 265.615 94.5441 265.54 94.452 265.465ZM179.751 292.318C174.484 281.475 163.365 274 150.5 274C137.311 274 125.957 281.856 120.862 293.144C124.411 297.964 127.679 303.003 130.641 308.238C136.979 307.421 143.44 307 150 307C156.56 307 163.022 307.421 169.359 308.238C172.491 302.703 175.965 297.387 179.751 292.318ZM2372.17 234.577C2347.42 192.919 2301.97 165 2250 165C2198.03 165 2152.58 192.919 2127.83 234.577C2138.08 236.501 2147.97 239.468 2157.37 243.364C2177.61 213.571 2211.77 194 2250.5 194C2289.09 194 2323.14 213.431 2343.41 243.043C2352.58 239.304 2362.2 236.448 2372.17 234.577ZM2336.87 245.894C2317.78 218.743 2286.21 201 2250.5 201C2214.64 201 2182.95 218.897 2163.89 246.246C2173.15 250.614 2181.9 255.901 2190 261.99C2203.69 243.779 2225.47 232 2250 232C2274.53 232 2296.31 243.779 2310 261.99C2318.32 255.736 2327.32 250.328 2336.87 245.894ZM2305.27 265.69C2292.69 248.879 2272.61 238 2250 238C2227.39 238 2207.31 248.879 2194.73 265.69C2209.18 277.477 2221.4 291.905 2230.64 308.238C2236.98 307.421 2243.44 307 2250 307C2256.56 307 2263.02 307.421 2269.36 308.238C2272.49 302.703 2275.96 297.387 2279.75 292.318C2274.48 281.475 2263.36 274 2250.5 274C2237.31 274 2225.96 281.856 2220.86 293.144C2219.76 291.648 2218.63 290.173 2217.48 288.719C2223.81 276.978 2236.22 269 2250.5 269C2264.48 269 2276.67 276.645 2283.12 287.981C2289.7 279.801 2297.13 272.327 2305.27 265.69ZM2072.17 234.577C2047.42 192.919 2001.97 165 1950 165C1898.03 165 1852.58 192.919 1827.83 234.577C1838.08 236.501 1847.97 239.468 1857.37 243.364C1877.61 213.571 1911.77 194 1950.5 194C1989.09 194 2023.14 213.431 2043.41 243.043C2052.58 239.304 2062.2 236.448 2072.17 234.577ZM2036.87 245.894C2017.78 218.743 1986.21 201 1950.5 201C1914.64 201 1882.95 218.897 1863.89 246.246C1873.15 250.614 1881.9 255.901 1890 261.99C1903.69 243.779 1925.47 232 1950 232C1974.53 232 1996.31 243.779 2010 261.99C2018.32 255.736 2027.32 250.328 2036.87 245.894ZM2005.27 265.69C1992.69 248.879 1972.61 238 1950 238C1927.39 238 1907.31 248.879 1894.73 265.69C1903.11 272.526 1910.74 280.25 1917.48 288.719C1923.81 276.978 1936.22 269 1950.5 269C1964.48 269 1976.67 276.645 1983.12 287.981C1989.7 279.801 1997.13 272.327 2005.27 265.69ZM1979.75 292.318C1974.48 281.475 1963.36 274 1950.5 274C1937.31 274 1925.96 281.856 1920.86 293.144C1924.41 297.964 1927.68 303.003 1930.64 308.238C1936.98 307.421 1943.44 307 1950 307C1956.56 307 1963.02 307.421 1969.36 308.238C1972.49 302.703 1975.96 297.387 1979.75 292.318ZM1772.17 234.577C1747.42 192.919 1701.97 165 1650 165C1598.03 165 1552.58 192.919 1527.83 234.577C1538.08 236.501 1547.97 239.468 1557.37 243.364C1577.61 213.571 1611.77 194 1650.5 194C1689.09 194 1723.14 213.431 1743.41 243.043C1752.58 239.304 1762.2 236.448 1772.17 234.577ZM1736.87 245.894C1717.78 218.743 1686.21 201 1650.5 201C1614.64 201 1582.95 218.897 1563.89 246.246C1573.15 250.614 1581.9 255.901 1590 261.99C1603.69 243.779 1625.47 232 1650 232C1674.53 232 1696.31 243.779 1710 261.99C1718.32 255.736 1727.32 250.328 1736.87 245.894ZM1705.27 265.69C1692.69 248.879 1672.61 238 1650 238C1627.39 238 1607.31 248.879 1594.73 265.69C1603.11 272.526 1610.74 280.25 1617.48 288.719C1623.81 276.978 1636.22 269 1650.5 269C1664.48 269 1676.67 276.645 1683.12 287.981C1689.7 279.801 1697.13 272.327 1705.27 265.69ZM1679.75 292.318C1674.48 281.475 1663.36 274 1650.5 274C1637.31 274 1625.96 281.856 1620.86 293.144C1624.41 297.964 1627.68 303.003 1630.64 308.238C1636.98 307.421 1643.44 307 1650 307C1656.56 307 1663.02 307.421 1669.36 308.238C1672.49 302.703 1675.96 297.387 1679.75 292.318ZM1472.17 234.577C1447.42 192.919 1401.97 165 1350 165C1298.03 165 1252.58 192.919 1227.83 234.577C1238.08 236.501 1247.97 239.468 1257.37 243.364C1277.61 213.571 1311.77 194 1350.5 194C1389.09 194 1423.14 213.431 1443.41 243.043C1452.58 239.304 1462.2 236.448 1472.17 234.577ZM1436.87 245.894C1417.78 218.743 1386.21 201 1350.5 201C1314.64 201 1282.95 218.897 1263.89 246.246C1273.15 250.614 1281.9 255.901 1290 261.99C1303.69 243.779 1325.47 232 1350 232C1374.53 232 1396.31 243.779 1410 261.99C1418.32 255.736 1427.32 250.328 1436.87 245.894ZM1405.27 265.69C1392.69 248.879 1372.61 238 1350 238C1327.39 238 1307.31 248.879 1294.73 265.69C1303.11 272.526 1310.74 280.25 1317.48 288.719C1323.81 276.978 1336.22 269 1350.5 269C1364.48 269 1376.67 276.645 1383.12 287.981C1389.7 279.801 1397.13 272.327 1405.27 265.69ZM1379.75 292.318C1374.48 281.475 1363.36 274 1350.5 274C1337.31 274 1325.96 281.856 1320.86 293.144C1324.41 297.964 1327.68 303.003 1330.64 308.238C1336.98 307.421 1343.44 307 1350 307C1356.56 307 1363.02 307.421 1369.36 308.238C1372.49 302.703 1375.96 297.387 1379.75 292.318ZM1172.17 234.577C1147.42 192.919 1101.97 165 1050 165C998.03 165 952.58 192.919 927.832 234.577C938.085 236.501 947.97 239.468 957.374 243.364C977.611 213.571 1011.77 194 1050.5 194C1089.09 194 1123.14 213.431 1143.41 243.043C1152.58 239.304 1162.2 236.448 1172.17 234.577ZM1136.87 245.894C1117.78 218.743 1086.21 201 1050.5 201C1014.64 201 982.95 218.897 963.888 246.246C973.151 250.614 981.895 255.901 990.002 261.99C1003.69 243.779 1025.47 232 1050 232C1074.53 232 1096.31 243.779 1110 261.99C1118.32 255.736 1127.32 250.328 1136.87 245.894ZM1105.27 265.69C1092.69 248.879 1072.61 238 1050 238C1027.39 238 1007.31 248.879 994.728 265.69C1003.11 272.526 1010.74 280.25 1017.48 288.719C1023.81 276.978 1036.22 269 1050.5 269C1064.48 269 1076.67 276.645 1083.12 287.981C1089.7 279.801 1097.13 272.327 1105.27 265.69ZM1079.75 292.318C1074.48 281.475 1063.36 274 1050.5 274C1037.31 274 1025.96 281.856 1020.86 293.144C1024.41 297.964 1027.68 303.003 1030.64 308.238C1036.98 307.421 1043.44 307 1050 307C1056.56 307 1063.02 307.421 1069.36 308.238C1072.49 302.703 1075.96 297.387 1079.75 292.318ZM872.169 234.577C847.42 192.919 801.971 165 750 165C698.03 165 652.58 192.919 627.831 234.577C638.085 236.501 647.97 239.468 657.374 243.364C677.611 213.571 711.77 194 750.5 194C789.091 194 823.143 213.431 843.408 243.043C852.577 239.304 862.199 236.448 872.169 234.577ZM836.866 245.894C817.778 218.743 786.211 201 750.5 201C714.635 201 682.95 218.897 663.888 246.246C673.151 250.614 681.895 255.901 690.002 261.99C703.685 243.779 725.467 232 750 232C774.533 232 796.315 243.779 809.998 261.99C818.325 255.736 827.323 250.328 836.866 245.894ZM805.273 265.69C792.688 248.879 772.615 238 750 238C727.386 238 707.312 248.879 694.728 265.69C703.111 272.526 710.742 280.25 717.475 288.719C723.81 276.978 736.224 269 750.5 269C764.476 269 776.665 276.645 783.116 287.981C789.704 279.801 797.133 272.327 805.273 265.69ZM779.751 292.318C774.484 281.475 763.365 274 750.5 274C737.311 274 725.957 281.856 720.862 293.144C724.411 297.964 727.679 303.003 730.641 308.238C736.979 307.421 743.44 307 750 307C756.56 307 763.022 307.421 769.359 308.238C772.491 302.703 775.965 297.387 779.751 292.318ZM572.169 234.577C547.42 192.919 501.971 165 450 165C398.03 165 352.58 192.919 327.831 234.577C338.085 236.501 347.97 239.468 357.374 243.364C377.611 213.571 411.77 194 450.5 194C489.091 194 523.143 213.431 543.408 243.043C552.577 239.304 562.199 236.448 572.169 234.577ZM536.866 245.894C517.778 218.743 486.211 201 450.5 201C414.635 201 382.95 218.897 363.888 246.246C373.151 250.614 381.895 255.901 390.002 261.99C403.685 243.779 425.467 232 450 232C474.533 232 496.315 243.779 509.998 261.99C518.325 255.736 527.323 250.328 536.866 245.894ZM505.273 265.69C492.688 248.879 472.615 238 450 238C427.386 238 407.312 248.879 394.728 265.69C403.111 272.526 410.742 280.25 417.475 288.719C423.81 276.978 436.224 269 450.5 269C464.476 269 476.665 276.645 483.116 287.981C489.704 279.801 497.133 272.327 505.273 265.69ZM479.751 292.318C474.484 281.475 463.365 274 450.5 274C437.311 274 425.957 281.856 420.862 293.144C424.411 297.964 427.679 303.003 430.641 308.238C436.979 307.421 443.44 307 450 307C456.56 307 463.022 307.421 469.359 308.238C472.491 302.703 475.965 297.387 479.751 292.318ZM300.5 344C314.475 344 326.665 351.645 333.116 362.981C339.704 354.801 347.133 347.327 355.272 340.69C342.688 323.879 322.615 313 300 313C277.385 313 257.312 323.879 244.728 340.69C253.111 347.526 260.741 355.25 267.475 363.719C273.81 351.978 286.223 344 300.5 344ZM600.5 344C614.475 344 626.665 351.645 633.116 362.981C639.704 354.801 647.133 347.327 655.272 340.69C642.688 323.879 622.615 313 600 313C577.385 313 557.312 323.879 544.728 340.69C553.111 347.526 560.741 355.25 567.475 363.719C573.81 351.978 586.223 344 600.5 344ZM900.5 344C914.475 344 926.665 351.645 933.116 362.981C939.704 354.801 947.133 347.327 955.272 340.69C942.688 323.879 922.615 313 900 313C877.385 313 857.312 323.879 844.728 340.69C853.111 347.526 860.741 355.25 867.475 363.719C873.81 351.978 886.223 344 900.5 344ZM1200.5 344C1214.48 344 1226.67 351.645 1233.12 362.981C1239.7 354.801 1247.13 347.327 1255.27 340.69C1242.69 323.879 1222.61 313 1200 313C1177.39 313 1157.31 323.879 1144.73 340.69C1153.11 347.526 1160.74 355.25 1167.48 363.719C1173.81 351.978 1186.22 344 1200.5 344ZM1500.5 344C1514.48 344 1526.67 351.645 1533.12 362.981C1539.7 354.801 1547.13 347.327 1555.27 340.69C1542.69 323.879 1522.61 313 1500 313C1477.39 313 1457.31 323.879 1444.73 340.69C1453.11 347.526 1460.74 355.25 1467.48 363.719C1473.81 351.978 1486.22 344 1500.5 344ZM1800.5 344C1814.48 344 1826.67 351.645 1833.12 362.981C1839.7 354.801 1847.13 347.327 1855.27 340.69C1842.69 323.879 1822.61 313 1800 313C1777.39 313 1757.31 323.879 1744.73 340.69C1753.11 347.526 1760.74 355.25 1767.48 363.719C1773.81 351.978 1786.22 344 1800.5 344ZM2100.5 344C2114.48 344 2126.67 351.645 2133.12 362.981C2139.7 354.801 2147.13 347.327 2155.27 340.69C2142.69 323.879 2122.61 313 2100 313C2077.39 313 2057.31 323.879 2044.73 340.69C2053.11 347.526 2060.74 355.25 2067.48 363.719C2073.81 351.978 2086.22 344 2100.5 344ZM207.374 318.364C197.97 314.468 188.085 311.501 177.831 309.577C202.58 267.919 248.03 240 300 240C351.97 240 397.42 267.919 422.169 309.577C412.199 311.448 402.577 314.304 393.408 318.043C373.143 288.431 339.091 269 300.5 269C261.77 269 227.611 288.571 207.374 318.364ZM300.5 276C336.211 276 367.778 293.743 386.866 320.894C377.323 325.328 368.325 330.736 359.998 336.99C346.315 318.779 324.533 307 300 307C275.467 307 253.685 318.779 240.002 336.99C231.895 330.901 223.151 325.614 213.887 321.246C232.95 293.897 264.635 276 300.5 276ZM507.374 318.364C497.97 314.468 488.085 311.501 477.831 309.577C502.58 267.919 548.029 240 600 240C651.971 240 697.42 267.919 722.169 309.577C712.199 311.448 702.577 314.304 693.408 318.043C673.143 288.431 639.091 269 600.5 269C561.77 269 527.611 288.571 507.374 318.364ZM600.5 276C636.211 276 667.778 293.743 686.866 320.894C677.323 325.328 668.325 330.736 659.998 336.99C646.315 318.779 624.533 307 600 307C575.467 307 553.685 318.779 540.002 336.99C531.895 330.901 523.151 325.614 513.888 321.246C532.95 293.897 564.635 276 600.5 276ZM807.374 318.364C797.97 314.468 788.085 311.501 777.831 309.577C802.58 267.919 848.029 240 900 240C951.97 240 997.42 267.919 1022.17 309.577C1012.2 311.448 1002.58 314.304 993.408 318.043C973.143 288.431 939.091 269 900.5 269C861.77 269 827.611 288.571 807.374 318.364ZM900.5 276C936.211 276 967.778 293.743 986.866 320.894C977.323 325.328 968.325 330.736 959.998 336.99C946.315 318.779 924.533 307 900 307C875.467 307 853.685 318.779 840.002 336.99C831.895 330.901 823.151 325.614 813.888 321.246C832.95 293.897 864.635 276 900.5 276ZM1107.37 318.364C1097.97 314.468 1088.08 311.501 1077.83 309.577C1102.58 267.919 1148.03 240 1200 240C1251.97 240 1297.42 267.919 1322.17 309.577C1312.2 311.448 1302.58 314.304 1293.41 318.043C1273.14 288.431 1239.09 269 1200.5 269C1161.77 269 1127.61 288.571 1107.37 318.364ZM1200.5 276C1236.21 276 1267.78 293.743 1286.87 320.894C1277.32 325.328 1268.32 330.736 1260 336.99C1246.31 318.779 1224.53 307 1200 307C1175.47 307 1153.69 318.779 1140 336.99C1131.89 330.901 1123.15 325.614 1113.89 321.246C1132.95 293.897 1164.63 276 1200.5 276ZM1407.37 318.364C1397.97 314.468 1388.08 311.501 1377.83 309.577C1402.58 267.919 1448.03 240 1500 240C1551.97 240 1597.42 267.919 1622.17 309.577C1612.2 311.448 1602.58 314.304 1593.41 318.043C1573.14 288.431 1539.09 269 1500.5 269C1461.77 269 1427.61 288.571 1407.37 318.364ZM1500.5 276C1536.21 276 1567.78 293.743 1586.87 320.894C1577.32 325.328 1568.32 330.736 1560 336.99C1546.31 318.779 1524.53 307 1500 307C1475.47 307 1453.69 318.779 1440 336.99C1431.89 330.901 1423.15 325.614 1413.89 321.246C1432.95 293.897 1464.63 276 1500.5 276ZM1707.37 318.364C1697.97 314.468 1688.08 311.501 1677.83 309.577C1702.58 267.919 1748.03 240 1800 240C1851.97 240 1897.42 267.919 1922.17 309.577C1912.2 311.448 1902.58 314.304 1893.41 318.043C1873.14 288.431 1839.09 269 1800.5 269C1761.77 269 1727.61 288.571 1707.37 318.364ZM1800.5 276C1836.21 276 1867.78 293.743 1886.87 320.894C1877.32 325.328 1868.32 330.736 1860 336.99C1846.31 318.779 1824.53 307 1800 307C1775.47 307 1753.69 318.779 1740 336.99C1731.89 330.901 1723.15 325.614 1713.89 321.246C1732.95 293.897 1764.63 276 1800.5 276ZM2007.37 318.364C1997.97 314.468 1988.08 311.501 1977.83 309.577C2002.58 267.919 2048.03 240 2100 240C2151.97 240 2197.42 267.919 2222.17 309.577C2212.2 311.448 2202.58 314.304 2193.41 318.043C2173.14 288.431 2139.09 269 2100.5 269C2061.77 269 2027.61 288.571 2007.37 318.364ZM2100.5 276C2136.21 276 2167.78 293.743 2186.87 320.894C2177.32 325.328 2168.32 330.736 2160 336.99C2146.31 318.779 2124.53 307 2100 307C2075.47 307 2053.69 318.779 2040 336.99C2031.89 330.901 2023.15 325.613 2013.89 321.246C2032.95 293.897 2064.63 276 2100.5 276Z" fill="#8D99AE"/>
<path d="M2265.35 598.18C2266.62 600.75 2267.95 603.278 2269.36 605.762C2263.02 606.579 2256.56 607 2250 607C2243.44 607 2236.98 606.579 2230.64 605.762C2232.05 603.278 2233.38 600.75 2234.65 598.18C2239.69 598.722 2244.81 599 2250 599C2255.19 599 2260.31 598.722 2265.35 598.18Z" fill="#8D99AE"/>
<path d="M1965.35 598.18C1966.62 600.75 1967.95 603.278 1969.36 605.762C1963.02 606.579 1956.56 607 1950 607C1943.44 607 1936.98 606.579 1930.64 605.762C1932.05 603.278 1933.38 600.75 1934.65 598.18C1939.69 598.722 1944.81 599 1950 599C1955.19 599 1960.31 598.722 1965.35 598.18Z" fill="#8D99AE"/>
<path d="M1665.35 598.18C1666.62 600.75 1667.95 603.278 1669.36 605.762C1663.02 606.579 1656.56 607 1650 607C1643.44 607 1636.98 606.579 1630.64 605.762C1632.05 603.278 1633.38 600.75 1634.65 598.18C1639.69 598.722 1644.81 599 1650 599C1655.19 599 1660.31 598.722 1665.35 598.18Z" fill="#8D99AE"/>
<path d="M1365.35 598.18C1366.62 600.75 1367.95 603.278 1369.36 605.762C1363.02 606.579 1356.56 607 1350 607C1343.44 607 1336.98 606.579 1330.64 605.762C1332.05 603.278 1333.38 600.75 1334.65 598.18C1339.69 598.722 1344.81 599 1350 599C1355.19 599 1360.31 598.722 1365.35 598.18Z" fill="#8D99AE"/>
<path d="M1065.35 598.18C1066.62 600.75 1067.95 603.278 1069.36 605.762C1063.02 606.579 1056.56 607 1050 607C1043.44 607 1036.98 606.579 1030.64 605.762C1032.05 603.278 1033.38 600.75 1034.65 598.18C1039.69 598.722 1044.81 599 1050 599C1055.19 599 1060.31 598.722 1065.35 598.18Z" fill="#8D99AE"/>
<path d="M765.351 598.18C766.617 600.75 767.954 603.278 769.359 605.762C763.022 606.579 756.56 607 750 607C743.44 607 736.979 606.579 730.641 605.762C732.047 603.278 733.384 600.75 734.649 598.18C739.692 598.722 744.813 599 750 599C755.187 599 760.309 598.722 765.351 598.18Z" fill="#8D99AE"/>
<path d="M465.351 598.18C466.617 600.75 467.954 603.278 469.359 605.762C463.022 606.579 456.56 607 450 607C443.44 607 436.979 606.579 430.641 605.762C432.047 603.278 433.384 600.75 434.649 598.18C439.692 598.722 444.813 599 450 599C455.187 599 460.309 598.722 465.351 598.18Z" fill="#8D99AE"/>
<path d="M165.351 598.18C166.617 600.75 167.954 603.278 169.359 605.762C163.022 606.579 156.56 607 150 607C143.44 607 136.979 606.579 130.641 605.762C132.047 603.278 133.384 600.75 134.649 598.18C139.692 598.722 144.813 599 150 599C155.187 599 160.309 598.722 165.351 598.18Z" fill="#8D99AE"/>
<path d="M150.5 569C148.801 569 147.111 568.962 145.431 568.888C146.011 566.594 146.538 564.278 147.011 561.943C148.17 561.981 149.333 562 150.5 562C151.334 562 152.166 561.99 152.995 561.971C153.469 564.31 153.998 566.629 154.58 568.927C153.226 568.976 151.866 569 150.5 569Z" fill="#8D99AE"/>
<path d="M450.5 569C448.801 569 447.111 568.962 445.431 568.888C446.011 566.594 446.538 564.278 447.011 561.943C448.169 561.981 449.333 562 450.5 562C451.334 562 452.166 561.99 452.995 561.971C453.469 564.31 453.998 566.629 454.58 568.927C453.226 568.976 451.866 569 450.5 569Z" fill="#8D99AE"/>
<path d="M750.5 569C748.801 569 747.111 568.962 745.431 568.888C746.011 566.594 746.538 564.278 747.011 561.943C748.169 561.981 749.333 562 750.5 562C751.334 562 752.166 561.99 752.995 561.971C753.469 564.31 753.998 566.629 754.58 568.927C753.226 568.976 751.866 569 750.5 569Z" fill="#8D99AE"/>
<path d="M1052.99 561.971C1053.47 564.31 1054 566.629 1054.58 568.927C1053.23 568.976 1051.87 569 1050.5 569C1048.8 569 1047.11 568.962 1045.43 568.888C1046.01 566.594 1046.54 564.278 1047.01 561.943C1048.17 561.981 1049.33 562 1050.5 562L1050.64 562L1050.83 562C1050.94 561.999 1051.06 561.999 1051.18 561.998C1051.28 561.997 1051.38 561.996 1051.49 561.995C1051.64 561.994 1051.79 561.992 1051.95 561.99C1052.3 561.986 1052.65 561.979 1052.99 561.971Z" fill="#8D99AE"/>
<path d="M1352.99 561.971C1353.47 564.31 1354 566.629 1354.58 568.927C1353.23 568.976 1351.87 569 1350.5 569C1348.8 569 1347.11 568.962 1345.43 568.888C1346.01 566.594 1346.54 564.278 1347.01 561.943C1348.17 561.981 1349.33 562 1350.5 562C1350.7 562 1350.9 561.999 1351.09 561.998C1351.73 561.995 1352.36 561.986 1352.99 561.971Z" fill="#8D99AE"/>
<path d="M1652.99 561.971C1653.47 564.31 1654 566.629 1654.58 568.927C1653.23 568.976 1651.87 569 1650.5 569C1648.8 569 1647.11 568.962 1645.43 568.888C1646.01 566.594 1646.54 564.278 1647.01 561.943C1648.17 561.981 1649.33 562 1650.5 562C1650.64 562 1650.78 562 1650.92 561.999C1651.61 561.996 1652.3 561.987 1652.99 561.971Z" fill="#8D99AE"/>
<path d="M1950.5 569C1948.8 569 1947.11 568.962 1945.43 568.888C1945.94 566.88 1946.41 564.857 1946.83 562.818L1946.93 562.343C1946.96 562.21 1946.98 562.077 1947.01 561.943C1948.17 561.981 1949.33 562 1950.5 562C1950.94 562 1951.38 561.997 1951.82 561.992C1952.21 561.987 1952.6 561.98 1952.99 561.971C1953.47 564.31 1954 566.629 1954.58 568.927C1953.23 568.976 1951.87 569 1950.5 569Z" fill="#8D99AE"/>
<path d="M2250.5 569C2248.8 569 2247.11 568.962 2245.43 568.888C2245.94 566.88 2246.41 564.857 2246.83 562.818L2246.93 562.361L2247.01 561.943C2248.17 561.981 2249.33 562 2250.5 562C2251.33 562 2252.17 561.99 2252.99 561.971C2253.47 564.31 2254 566.629 2254.58 568.927C2253.23 568.976 2251.87 569 2250.5 569Z" fill="#8D99AE"/>
<path d="M2250.5 489C2252.52 489 2254.5 488.816 2256.42 488.463C2255.95 489.991 2255.51 491.529 2255.1 493.078C2255.04 493.299 2254.98 493.52 2254.92 493.742C2253.47 493.912 2252 494 2250.5 494C2248.65 494 2246.82 493.865 2245.04 493.606C2244.57 491.806 2244.06 490.02 2243.52 488.248C2245.77 488.741 2248.1 489 2250.5 489Z" fill="#8D99AE"/>
<path d="M2250 526L2250.12 526C2250.04 527.926 2250 529.862 2250 531.807C2250 529.862 2249.96 527.926 2249.88 526L2250 526Z" fill="#8D99AE"/>
<path d="M1950.5 489C1952.52 489 1954.5 488.816 1956.42 488.463C1955.89 490.209 1955.39 491.969 1954.92 493.742C1953.47 493.912 1952 494 1950.5 494C1948.65 494 1946.82 493.865 1945.04 493.606C1944.57 491.806 1944.06 490.02 1943.52 488.248C1945.77 488.741 1948.1 489 1950.5 489Z" fill="#8D99AE"/>
<path d="M1950 526L1950.12 526C1950.04 527.926 1950 529.862 1950 531.807C1950 529.862 1949.96 527.926 1949.88 526L1950 526Z" fill="#8D99AE"/>
<path d="M1650.5 489C1652.52 489 1654.5 488.816 1656.42 488.463C1655.89 490.209 1655.39 491.969 1654.92 493.742C1653.47 493.912 1652 494 1650.5 494C1648.65 494 1646.82 493.865 1645.04 493.606C1644.57 491.806 1644.06 490.02 1643.52 488.248C1645.77 488.741 1648.1 489 1650.5 489Z" fill="#8D99AE"/>
<path d="M1650 526L1650.12 526C1650.04 527.926 1650 529.862 1650 531.807C1650 529.862 1649.96 527.926 1649.88 526L1650 526Z" fill="#8D99AE"/>
<path d="M1350.5 489C1352.52 489 1354.5 488.816 1356.42 488.463C1355.89 490.209 1355.39 491.969 1354.92 493.742C1353.47 493.912 1352 494 1350.5 494C1348.65 494 1346.82 493.865 1345.04 493.606C1344.57 491.806 1344.06 490.02 1343.52 488.248C1345.77 488.741 1348.1 489 1350.5 489Z" fill="#8D99AE"/>
<path d="M1350 526L1350.12 526C1350.04 527.926 1350 529.862 1350 531.807C1350 529.862 1349.96 527.926 1349.88 526L1350 526Z" fill="#8D99AE"/>
<path d="M1050.5 489C1052.52 489 1054.5 488.816 1056.42 488.463C1055.89 490.209 1055.39 491.969 1054.92 493.742C1053.47 493.912 1052 494 1050.5 494C1048.65 494 1046.82 493.865 1045.04 493.606C1044.57 491.806 1044.06 490.02 1043.52 488.248C1045.77 488.741 1048.1 489 1050.5 489Z" fill="#8D99AE"/>
<path d="M1050 526L1050.12 526C1050.04 527.926 1050 529.862 1050 531.807C1050 529.862 1049.96 527.926 1049.88 526L1050 526Z" fill="#8D99AE"/>
<path d="M750.5 489C752.521 489 754.498 488.816 756.416 488.463C755.887 490.209 755.389 491.969 754.923 493.742C753.472 493.912 751.997 494 750.5 494C748.646 494 746.823 493.865 745.041 493.606C744.566 491.806 744.059 490.02 743.519 488.248C745.768 488.741 748.104 489 750.5 489Z" fill="#8D99AE"/>
<path d="M750 526L750.118 526C750.042 527.935 750.002 529.879 750 531.833C749.998 529.88 749.958 527.935 749.882 526L750 526Z" fill="#8D99AE"/>
<path d="M450.5 489C452.521 489 454.498 488.816 456.416 488.463C455.887 490.209 455.389 491.969 454.923 493.742C453.473 493.912 451.997 494 450.5 494C448.646 494 446.823 493.865 445.041 493.606C444.566 491.806 444.059 490.02 443.519 488.248C445.768 488.741 448.104 489 450.5 489Z" fill="#8D99AE"/>
<path d="M450 526L450.118 526C450.042 527.935 450.002 529.879 450 531.833C449.998 529.88 449.958 527.935 449.882 526L450 526Z" fill="#8D99AE"/>
<path d="M150.5 489C152.521 489 154.498 488.816 156.416 488.463C155.887 490.209 155.389 491.969 154.923 493.742C153.473 493.912 151.997 494 150.5 494C148.646 494 146.823 493.865 145.041 493.606C144.566 491.806 144.059 490.02 143.519 488.248C145.768 488.741 148.104 489 150.5 489Z" fill="#8D99AE"/>
<path d="M150 526L150.118 526C150.042 527.935 150.002 529.879 150 531.832C149.998 529.879 149.959 527.935 149.882 526L150 526Z" fill="#8D99AE"/>
<path d="M-103.808 573.723C-102.004 571.992 -100.156 570.307 -98.2668 568.667C-102.619 557.107 -105 544.582 -105 531.5C-105 473.234 -57.766 426 0.5 426C36.2108 426 67.7776 443.743 86.8657 470.894C89.0191 469.893 91.2002 468.942 93.4076 468.043C73.1433 438.431 39.0908 419 0.5 419C-61.632 419 -112 469.368 -112 531.5C-112 546.432 -109.091 560.685 -103.808 573.723Z" fill="#8D99AE"/>
<path d="M-67.1722 547.844C-69.0175 548.77 -70.8411 549.733 -72.6419 550.732C-74.1813 544.744 -75 538.468 -75 532C-75 490.579 -41.4214 457 0 457C24.5329 457 46.3147 468.779 59.9982 486.99C58.3978 488.193 56.8222 489.426 55.2723 490.69C42.6881 473.879 22.6145 463 0 463C-38.1077 463 -69 493.892 -69 532C-69 537.452 -68.3676 542.757 -67.1722 547.844Z" fill="#8D99AE"/>
<path d="M-36.6677 536.514C-35.0461 536.107 -33.4139 535.726 -31.7718 535.371C-31.9225 534.102 -32 532.81 -32 531.5C-32 513.551 -17.4492 499 0.5 499C13.3647 499 24.4837 506.475 29.7507 517.318C30.8464 515.851 31.9682 514.405 33.1156 512.981C26.6651 501.645 14.4754 494 0.5 494C-20.2107 494 -37 510.789 -37 531.5C-37 533.2 -36.8869 534.874 -36.6677 536.514Z" fill="#8D99AE"/>
<path d="M2513 531.5C2513 546.697 2509.99 561.19 2504.52 574.415C2502.73 572.673 2500.9 570.975 2499.02 569.323C2503.53 557.582 2506 544.829 2506 531.5C2506 473.234 2458.77 426 2400.5 426C2364.63 426 2332.95 443.897 2313.89 471.246C2311.74 470.236 2309.57 469.274 2307.37 468.364C2327.61 438.571 2361.77 419 2400.5 419C2462.63 419 2513 469.368 2513 531.5Z" fill="#8D99AE"/>
<path d="M2472.64 550.732C2474.18 544.744 2475 538.468 2475 532C2475 490.579 2441.42 457 2400 457C2375.47 457 2353.69 468.779 2340 486.99C2341.6 488.193 2343.18 489.426 2344.73 490.69C2357.31 473.879 2377.39 463 2400 463C2438.11 463 2469 493.892 2469 532C2469 537.452 2468.37 542.757 2467.17 547.844C2469.02 548.77 2470.84 549.733 2472.64 550.732Z" fill="#8D99AE"/>
<path d="M2438 531.5C2438 533.285 2437.88 535.041 2437.63 536.76C2436.02 536.342 2434.39 535.95 2432.75 535.585C2432.91 534.247 2433 532.884 2433 531.5C2433 513.551 2418.45 499 2400.5 499C2387.31 499 2375.96 506.856 2370.86 518.144C2369.76 516.648 2368.63 515.173 2367.48 513.719C2373.81 501.978 2386.22 494 2400.5 494C2421.21 494 2438 510.789 2438 531.5Z" fill="#8D99AE"/>
<path d="M207.374 468.364C209.572 469.274 211.743 470.236 213.887 471.246C232.95 443.897 264.635 426 300.5 426C336.211 426 367.778 443.743 386.866 470.894C389.019 469.893 391.2 468.942 393.408 468.043C373.143 438.431 339.091 419 300.5 419C261.77 419 227.611 438.571 207.374 468.364Z" fill="#8D99AE"/>
<path d="M359.998 486.99C346.315 468.779 324.533 457 300 457C275.467 457 253.685 468.779 240.002 486.99C241.602 488.193 243.178 489.426 244.728 490.69C257.312 473.879 277.385 463 300 463C322.615 463 342.688 473.879 355.272 490.69C356.822 489.426 358.398 488.193 359.998 486.99Z" fill="#8D99AE"/>
<path d="M300.5 494C314.475 494 326.665 501.645 333.116 512.981C331.968 514.405 330.846 515.851 329.751 517.318C324.484 506.475 313.365 499 300.5 499C287.311 499 275.957 506.856 270.862 518.144C269.76 516.648 268.631 515.173 267.475 513.719C273.81 501.978 286.223 494 300.5 494Z" fill="#8D99AE"/>
<path d="M693.408 468.043C673.143 438.431 639.091 419 600.5 419C561.77 419 527.611 438.571 507.374 468.364C509.572 469.274 511.744 470.236 513.888 471.246C532.95 443.897 564.635 426 600.5 426C636.211 426 667.778 443.743 686.866 470.894C689.019 469.893 691.2 468.942 693.408 468.043Z" fill="#8D99AE"/>
<path d="M600 457C624.533 457 646.315 468.779 659.998 486.99C658.398 488.193 656.822 489.426 655.272 490.69C642.688 473.879 622.615 463 600 463C577.385 463 557.312 473.879 544.728 490.69C543.178 489.426 541.602 488.193 540.002 486.99C553.685 468.779 575.467 457 600 457Z" fill="#8D99AE"/>
<path d="M633.116 512.981C626.665 501.645 614.475 494 600.5 494C586.223 494 573.81 501.978 567.475 513.719C568.631 515.173 569.76 516.648 570.862 518.144C575.957 506.856 587.311 499 600.5 499C613.365 499 624.484 506.475 629.751 517.318C630.846 515.851 631.968 514.405 633.116 512.981Z" fill="#8D99AE"/>
<path d="M807.374 468.364C809.572 469.274 811.744 470.236 813.888 471.246C832.95 443.897 864.635 426 900.5 426C936.211 426 967.778 443.743 986.866 470.894C989.019 469.893 991.2 468.942 993.408 468.043C973.143 438.431 939.091 419 900.5 419C861.77 419 827.611 438.571 807.374 468.364Z" fill="#8D99AE"/>
<path d="M959.998 486.99C946.315 468.779 924.533 457 900 457C875.467 457 853.685 468.779 840.002 486.99C841.602 488.193 843.178 489.426 844.728 490.69C857.312 473.879 877.385 463 900 463C922.615 463 942.688 473.879 955.272 490.69C956.822 489.426 958.398 488.193 959.998 486.99Z" fill="#8D99AE"/>
<path d="M900.5 494C914.475 494 926.665 501.645 933.116 512.981C931.968 514.405 930.846 515.851 929.751 517.318C924.484 506.475 913.365 499 900.5 499C887.311 499 875.957 506.856 870.862 518.144C869.76 516.648 868.631 515.173 867.475 513.719C873.81 501.978 886.223 494 900.5 494Z" fill="#8D99AE"/>
<path d="M1293.41 468.043C1273.14 438.431 1239.09 419 1200.5 419C1161.77 419 1127.61 438.571 1107.37 468.364C1109.57 469.274 1111.74 470.236 1113.89 471.246C1132.95 443.897 1164.63 426 1200.5 426C1236.21 426 1267.78 443.743 1286.87 470.894C1289.02 469.893 1291.2 468.942 1293.41 468.043Z" fill="#8D99AE"/>
<path d="M1200 457C1224.53 457 1246.31 468.779 1260 486.99C1258.4 488.193 1256.82 489.426 1255.27 490.69C1242.69 473.879 1222.61 463 1200 463C1177.39 463 1157.31 473.879 1144.73 490.69C1143.18 489.426 1141.6 488.193 1140 486.99C1153.69 468.779 1175.47 457 1200 457Z" fill="#8D99AE"/>
<path d="M1233.12 512.981C1226.67 501.645 1214.48 494 1200.5 494C1186.22 494 1173.81 501.978 1167.48 513.719C1168.63 515.173 1169.76 516.648 1170.86 518.144C1175.96 506.856 1187.31 499 1200.5 499C1213.36 499 1224.48 506.475 1229.75 517.318C1230.85 515.851 1231.97 514.405 1233.12 512.981Z" fill="#8D99AE"/>
<path d="M1407.37 468.364C1409.57 469.274 1411.74 470.236 1413.89 471.246C1432.95 443.897 1464.63 426 1500.5 426C1536.21 426 1567.78 443.743 1586.87 470.894C1589.02 469.893 1591.2 468.942 1593.41 468.043C1573.14 438.431 1539.09 419 1500.5 419C1461.77 419 1427.61 438.571 1407.37 468.364Z" fill="#8D99AE"/>
<path d="M1560 486.99C1546.31 468.779 1524.53 457 1500 457C1475.47 457 1453.69 468.779 1440 486.99C1441.6 488.193 1443.18 489.426 1444.73 490.69C1457.31 473.879 1477.39 463 1500 463C1522.61 463 1542.69 473.879 1555.27 490.69C1556.82 489.426 1558.4 488.193 1560 486.99Z" fill="#8D99AE"/>
<path d="M1500.5 494C1514.48 494 1526.67 501.645 1533.12 512.981C1531.97 514.405 1530.85 515.851 1529.75 517.318C1524.48 506.475 1513.36 499 1500.5 499C1487.31 499 1475.96 506.856 1470.86 518.144C1469.76 516.648 1468.63 515.173 1467.48 513.719C1473.81 501.978 1486.22 494 1500.5 494Z" fill="#8D99AE"/>
<path d="M1893.41 468.043C1873.14 438.431 1839.09 419 1800.5 419C1761.77 419 1727.61 438.571 1707.37 468.364C1709.57 469.274 1711.74 470.236 1713.89 471.246C1732.95 443.897 1764.63 426 1800.5 426C1836.21 426 1867.78 443.743 1886.87 470.894C1889.02 469.893 1891.2 468.942 1893.41 468.043Z" fill="#8D99AE"/>
<path d="M1800 457C1824.53 457 1846.31 468.779 1860 486.99C1858.4 488.193 1856.82 489.426 1855.27 490.69C1842.69 473.879 1822.61 463 1800 463C1777.39 463 1757.31 473.879 1744.73 490.69C1743.18 489.426 1741.6 488.193 1740 486.99C1753.69 468.779 1775.47 457 1800 457Z" fill="#8D99AE"/>
<path d="M1833.12 512.981C1826.67 501.645 1814.48 494 1800.5 494C1786.22 494 1773.81 501.978 1767.48 513.719C1768.63 515.173 1769.76 516.648 1770.86 518.144C1775.96 506.856 1787.31 499 1800.5 499C1813.36 499 1824.48 506.475 1829.75 517.318C1830.85 515.851 1831.97 514.405 1833.12 512.981Z" fill="#8D99AE"/>
<path d="M2007.37 468.364C2009.57 469.274 2011.74 470.236 2013.89 471.246C2032.95 443.897 2064.63 426 2100.5 426C2136.21 426 2167.78 443.743 2186.87 470.894C2189.02 469.893 2191.2 468.942 2193.41 468.043C2173.14 438.431 2139.09 419 2100.5 419C2061.77 419 2027.61 438.571 2007.37 468.364Z" fill="#8D99AE"/>
<path d="M2160 486.99C2146.31 468.779 2124.53 457 2100 457C2075.47 457 2053.69 468.779 2040 486.99C2041.6 488.193 2043.18 489.426 2044.73 490.69C2057.31 473.879 2077.39 463 2100 463C2122.61 463 2142.69 473.879 2155.27 490.69C2156.82 489.426 2158.4 488.193 2160 486.99Z" fill="#8D99AE"/>
<path d="M2100.5 494C2114.48 494 2126.67 501.645 2133.12 512.981C2131.97 514.405 2130.85 515.851 2129.75 517.318C2124.48 506.475 2113.36 499 2100.5 499C2087.31 499 2075.96 506.856 2070.86 518.144C2069.76 516.648 2068.63 515.173 2067.48 513.719C2073.81 501.978 2086.22 494 2100.5 494Z" fill="#8D99AE"/>
</g>
</g>
<defs>
<linearGradient id="paint0_linear_937_9651" x1="1214.5" y1="0" x2="1214.5" y2="450" gradientUnits="userSpaceOnUse">
<stop offset="0.618818" stop-color="#FDFBFB"/>
<stop offset="1" stop-color="white" stop-opacity="0"/>
</linearGradient>
<clipPath id="clip0_937_9651">
<rect width="2400" height="450" fill="white"/>
</clipPath>
</defs>
</svg>
