<svg width="1920" height="1191" viewBox="0 0 1920 1191" fill="none" xmlns="http://www.w3.org/2000/svg">
<path d="M2335.21 543.304C2335.42 541.675 2335.63 539.999 2335.84 538.371C2330.63 533.171 2322.03 530.652 2311.78 529.917C2303.74 529.368 2295.64 529.25 2287.82 529.363C2271.05 529.59 2253.78 527.464 2237.13 527.608C2236.32 527.601 2235.43 527.438 2234.52 527.418C2223.03 526.864 2211.64 526.274 2200.15 525.72C2186.34 525.062 2172.52 524.499 2158.73 523.745C2153.39 523.448 2147.85 522.345 2142.77 522.421C2136.37 522.522 2130.15 522.013 2123.73 521.43C2118.52 520.954 2113.04 520.2 2108.15 521.129C2106.8 521.393 2104.8 521.136 2103.2 520.978C2078.19 519.073 2053.19 517.167 2028.18 515.262C2026.47 515.14 2024.71 515.4 2023.09 515.434C2023.63 517.5 2026.59 518.173 2028.69 519.174C2032.99 521.189 2032.74 523.153 2027.62 523.516C2023.84 523.76 2019.71 523.52 2015.77 523.402C2008.8 523.234 2003.03 520.788 1996.74 519.199C1990.75 517.697 1989.95 516.036 1993.49 513.717C1993.82 513.516 1993.96 513.242 1994.42 512.814C1991.33 512.416 1988.53 512.104 1985.84 511.709C1976.49 510.31 1973.96 508.67 1974.63 504.229C1974.72 503.511 1975.22 502.796 1974.81 502.061C1974.08 500.604 1973.68 498.995 1972.02 497.758C1969.23 495.744 1969.24 494.09 1970.38 492.337C1972.54 488.964 1977 486.617 1983.81 485.692C1989.5 484.866 1995.64 484.44 2001.76 484.109C2016.58 483.241 2031.57 482.591 2046.49 481.737C2055.17 481.248 2062.96 479.816 2069.74 477.573C2078.01 474.839 2079.86 469.917 2074.43 464.788C2072.44 462.925 2069.52 461.185 2066.7 459.507C2063.88 457.78 2060.14 456.861 2056.09 456.826C2050.51 456.79 2045.5 455.561 2040.54 453.948C2034.41 451.893 2028.37 449.995 2021.43 448.761C2006.84 446.25 1992.4 443.417 1977.83 440.762C1972.38 439.768 1966.78 439.145 1961.23 438.186C1955.08 437.102 1953.94 436.469 1953.52 433.445C1952.99 429.676 1949.54 426.602 1943.09 423.921C1932.89 419.638 1923.65 414.944 1915.52 409.611C1910.84 406.527 1904.15 404.156 1896.17 403.955C1892.13 403.824 1888.09 403.646 1884.08 403.324C1855.97 401.068 1828.11 397.724 1800.2 393.156C1798.9 392.941 1797.6 392.822 1796.4 392.716C1792.79 392.349 1789.2 391.935 1785.59 391.568C1784.19 391.436 1782.78 391.352 1781.07 391.23C1781.18 392.801 1781.5 394.206 1781.43 395.512C1781.36 397.693 1780.05 398.353 1775.5 398.254C1772.57 398.169 1769.57 397.879 1766.56 397.638C1758.23 396.907 1749.92 396.128 1741.49 395.432C1714.5 393.174 1687.65 391.373 1660.63 387.796C1657.23 387.359 1653.71 387.197 1650.45 387.265C1645.46 387.45 1642.72 388.997 1642.01 391.388C1641.51 392.882 1642.79 394.02 1645.71 394.98C1656.89 398.66 1668.08 402.388 1679.15 406.152C1684.4 407.947 1684.58 410.454 1679.58 411.514C1676.87 412.09 1673.9 412.34 1671.09 412.855C1667.45 413.555 1663.49 413.581 1659.42 412.91C1654.26 412.051 1649.61 411.891 1645.86 413.501C1641.93 410.95 1636.78 410.774 1631.95 410.444C1614.95 409.327 1598.16 406.63 1581.53 403.466C1566.38 400.638 1551.26 397.524 1536.07 394.984C1508.28 390.333 1480.43 386.018 1452.62 381.512C1439.5 379.385 1426.32 377.006 1413.23 374.736C1411.94 374.521 1410.68 374.067 1409.21 373.634C1418.85 371.224 1427.98 368.845 1437.19 366.623C1443.89 365.003 1450.58 363.43 1457.46 362.027C1460.69 361.371 1464.45 361.272 1464.75 358.925C1464.84 358.254 1466.72 357.815 1467.81 357.273C1470.4 356.001 1473.29 354.863 1475.49 353.491C1478.04 351.871 1481.46 351.289 1485.65 351.829C1489.24 352.291 1493.01 352.971 1496.12 354.004C1529.41 364.815 1564.4 373.507 1599.89 381.388C1602.35 381.949 1604.92 382.474 1607.42 382.748C1608.53 382.841 1609.91 382.337 1610.58 381.888C1610.91 381.687 1609.81 380.718 1609.05 380.328C1606.07 379.068 1603.1 377.76 1599.78 376.7C1570.13 366.748 1539.18 358.235 1508.47 349.412C1504.17 348.176 1499.97 346.905 1495.48 345.548C1497.6 344.068 1499.27 342.92 1501.04 341.784C1502.48 340.802 1504.35 340.458 1507.36 340.7C1514.29 341.251 1520.71 342.565 1527.27 344.431C1537.15 347.261 1547.61 349.485 1557.84 351.922C1559.91 352.431 1562 352.749 1564.07 353.163C1575.35 355.393 1586.73 357.589 1598 359.867C1606 361.483 1613.9 363.181 1622.11 363.995C1614.59 361.76 1607.05 359.622 1599.17 357.876C1578.67 353.24 1558.04 348.831 1537.54 344.244C1529.75 342.511 1521.98 340.634 1514.2 338.805C1514.13 338.552 1514.06 338.3 1514.09 338.061C1516.97 337.75 1519.85 337.439 1522.74 337.08C1527.48 336.522 1532.03 335.842 1535.2 334.059C1536.18 333.504 1537.26 332.962 1538.63 332.602C1541.15 331.904 1542.5 330.909 1542.9 329.354C1543.16 328.122 1542.95 326.634 1546.16 326.074C1547.86 327.071 1549.46 328.056 1551.17 328.958C1554.12 330.458 1557.38 330.294 1560.19 329.731C1561.44 329.502 1562.56 328.72 1562.64 328.05C1562.8 326.025 1555.85 320.943 1551.74 319.781C1547.14 318.507 1542.09 317.564 1538.04 315.923C1532.45 313.645 1526.62 312.457 1520.28 312.03C1503.99 310.955 1488.08 310.902 1472.31 311.306C1465.29 311.473 1461.09 313.319 1460.65 316.768C1460.38 318.875 1461.4 321.149 1462.14 323.337C1462.36 323.998 1463.26 324.845 1464.3 325.418C1470.88 328.699 1477.44 332.076 1486.62 333.257C1490.71 333.784 1494.74 334.789 1499.29 335.668C1496.76 338.798 1494.96 341.732 1489.26 343.433C1482.08 340.902 1474.91 338.371 1467.73 335.792C1465.21 334.883 1464.24 333.784 1465.23 332.402C1467.21 329.59 1467.13 329.434 1461.44 327.97C1448.49 324.598 1435.42 321.309 1422.36 318.02C1413.61 315.824 1404.46 314.45 1395.99 311.704C1388.79 309.365 1380.78 309.308 1373.42 309.772C1368.41 310.101 1365.74 311.9 1366.67 314.113C1367.76 316.688 1370.5 319.037 1375.29 320.48C1387.69 324.171 1400.31 327.744 1412.94 331.269C1428.02 335.45 1443.12 339.488 1458.32 343.538C1461.55 344.393 1464.92 345.069 1468.04 346.007C1473.41 347.624 1473.93 349.103 1469.69 350.553C1463.85 352.576 1457.64 354.357 1451.7 356.319C1447.05 357.814 1442.32 357.545 1436.89 355.581C1425.16 351.392 1413.31 347.287 1401.57 343.194C1393.8 340.49 1387.22 337.257 1381.3 333.622C1378.67 332.017 1375.94 330.351 1372.98 328.899C1368.79 326.849 1366.07 326.694 1362.34 328.113C1358.29 329.588 1357.69 331.117 1361.24 333.473C1363.67 335.1 1366.82 336.626 1369.89 337.995C1378.8 342.015 1388.74 345.193 1399.13 347.944C1410.41 350.954 1421.91 353.797 1433.3 356.676C1435.76 357.285 1437.98 358.155 1437.82 359.4C1437.73 360.119 1436.11 360.836 1434.75 361.196C1425.55 363.322 1416.36 365.401 1406.98 367.358C1401.45 368.545 1395.56 369.393 1390.12 370.689C1384.26 372.077 1378.09 371.964 1371.25 370.743C1356.67 368.184 1342.08 365.721 1327.48 363.306C1310.89 360.586 1294.28 358.058 1277.82 355.159C1261.56 352.286 1245.25 349.749 1228.62 348.143C1218.6 347.194 1208.55 345.753 1198.64 343.941C1175.84 339.838 1153.19 335.411 1130.53 331.033C1112.42 327.533 1094.4 324.093 1076.42 320.415C1061.6 317.386 1046.93 313.892 1032.11 310.863C1005.93 305.496 979.979 299.866 955.051 292.616C940.682 288.429 926.412 284.254 912.025 280.211C901.354 277.23 890.305 275.613 879.146 275.637C876.204 275.647 873.38 276.306 870.769 276.895C868.47 277.427 868.222 278.563 869.988 279.813C871.286 280.759 873.002 281.613 874.2 282.547C874.849 283.02 874.968 283.668 875.749 284.693C872.98 284.142 871.203 283.767 868.734 283.255C873.003 287.115 878.704 289.31 886.404 290.155C916.326 293.278 944.675 299.946 972.708 307.5C1012.79 318.357 1052.13 330.239 1093.53 339.513C1097.47 340.41 1101.43 341.943 1104.67 343.577C1107.62 345.076 1110.75 346.014 1114.3 346.812C1130.67 350.381 1147.15 353.963 1163.52 357.532C1178.52 360.778 1193.41 364.106 1208.41 367.304C1210.09 367.666 1212.88 368.026 1213.74 367.65C1217.4 365.979 1221.76 366.831 1226.22 367.601C1253.48 372.522 1280.79 377.013 1308.45 380.379C1312.04 380.794 1315.59 381.592 1318.97 382.172C1319.66 383.868 1321.46 385.61 1318.03 386.287C1312.93 387.286 1307.92 388.394 1301.44 387.559C1286.88 385.636 1272.42 383.725 1258.63 379.759C1256.28 379.068 1252.79 378.618 1250.62 378.923C1247.43 379.339 1244.54 378.918 1241.37 378.364C1232.55 376.694 1223.63 375.107 1214.82 373.436C1211.95 372.92 1209.63 372.769 1207.19 373.623C1205.38 374.266 1202.29 374.647 1199.78 374.422C1186.97 373.161 1174.05 371.839 1161.28 370.195C1127.26 365.815 1093.44 360.681 1059.78 355.081C1046.48 352.881 1033.05 350.812 1019.77 348.42C992.122 343.399 964.591 338.248 936.961 333.084C921.614 330.183 906.262 327.33 890.947 324.189C874.646 320.824 858.601 317.054 842.294 313.738C827.266 310.732 812.088 308.096 797.234 304.528C759.262 295.403 721.159 286.504 683.075 277.462C676.483 275.883 670.086 275.157 663.697 275.941C658.854 276.534 653.823 276.227 648.579 275.211C636.113 272.779 623.494 271.543 610.888 270.991C607.964 270.858 605.003 271.013 602.516 271.423C597.754 272.173 592.892 272.131 587.653 271.067C568.378 267.174 549.103 263.28 529.934 259.351C522.426 257.8 515.155 255.987 508.169 253.53C499.93 250.57 491.379 247.668 482.666 245.231C462.978 239.824 443.059 234.63 423.14 229.436C398.706 223.077 377.162 214.752 359.604 203.825C353.695 200.094 348.216 196.175 342.619 192.387C341.221 191.428 339.618 190.491 337.927 189.446C334.868 191.146 335.968 192.845 337.996 194.421C341.953 197.56 345.698 200.768 350.514 203.531C358.538 208.167 367.291 212.653 375.962 216.983C384.727 221.374 394.594 225.079 405.359 228.12C406.531 228.466 408.015 228.755 408.758 229.288C409.688 229.944 410.955 231.129 410.494 231.557C409.809 232.15 407.746 232.42 406.107 232.55C405.085 232.613 403.637 232.037 402.459 231.739C396.958 230.35 391.582 228.781 385.951 227.618C364.313 223.176 343.527 217.627 324.521 210.068C318.153 207.544 310.738 206.054 303.444 205.991C297.877 205.907 292.33 206.459 287.269 207.17C280.45 208.142 273.655 208.144 266.165 206.449C256.711 204.258 247.251 202.115 237.791 199.972C218.771 195.673 199.751 191.374 180.613 187.206C176.965 186.395 173.037 186.181 169.14 185.728C163.653 185.022 157.911 184.721 152.685 183.561C144.204 181.69 135.991 179.318 127.765 177.042C99.7507 169.345 71.7179 161.792 45.8016 151.979C38.1608 149.096 30.8933 145.677 24.355 142.109C14.9656 137.054 3.59476 137.148 -0.0691916 142.762C-1.70527 145.229 -3.08236 145.685 -8.75653 144.857C-21.6888 142.9 -34.8883 141.444 -47.4545 138.219C-63.1576 134.152 -79.159 130.826 -95.4215 127.953C-107.419 125.824 -119.23 123.037 -131.333 120.943C-137.98 119.796 -145.001 119.184 -151.747 118.802C-157.588 118.488 -162.599 119.596 -164.066 122.328C-165.54 125.108 -165.629 128.164 -160.532 131.109C-157.606 132.8 -154.991 134.549 -152.483 136.333C-145.805 141.185 -137.714 145.294 -128.333 148.839C-122.046 151.206 -115.546 153.504 -109.259 155.871C-99.1983 159.65 -88.9133 163.263 -79.2885 167.277C-62.4404 174.266 -44.9764 180.41 -24.854 184.024C-23.3637 184.264 -21.5741 184.543 -20.7317 185.09C-16.7071 187.702 -11.2509 188.648 -5.94387 189.964C22.8427 197.176 51.6293 204.388 80.2915 211.779C84.1206 212.759 87.5271 214.658 90.771 216.244C92.2058 216.916 92.8805 217.976 94.1662 219.018C97.7287 216.556 97.4159 215.834 93.2113 213.832C90.9219 212.709 87.5793 211.889 86.8037 210.037C93.462 210.31 95.701 211.036 99.4202 213.657C105.011 217.493 107.124 221.563 107.398 225.737C107.596 228.927 109.645 231.917 113.751 234.686C121.214 239.736 129.213 244.564 139.579 248.333C140.646 248.714 141.6 249.178 142.561 249.594C138.583 253.707 134.55 254.307 125.502 252.12C114.189 249.397 102.877 246.675 91.7885 243.787C68.6329 237.738 45.5832 231.654 22.6518 225.439C8.14584 221.527 -6.11741 217.304 -20.4928 213.165C-25.0891 211.843 -29.8038 210.652 -34.2818 209.199C-52.5748 203.192 -71.347 197.756 -88.1334 190.288C-106.08 182.378 -127.717 178.715 -149.011 175.535C-155.084 174.656 -161.368 174.626 -167.447 174.574C-173.12 174.525 -176.184 176.273 -176.636 178.99C-177.118 181.946 -175.786 184.991 -171.15 187.584C-163.476 191.785 -155.703 196 -147.387 199.943C-139.932 203.483 -132.578 207.011 -126.419 211.163C-123.055 213.398 -119.063 215.47 -113.937 216.617C-105.649 218.414 -99.4604 221.548 -93.2779 224.73C-91.8493 225.449 -90.8568 226.405 -89.7521 227.277C-87.6426 229.01 -85.751 230.86 -83.4358 232.57C-79.373 235.673 -81.7742 239.357 -88.4758 239.419C-93.6562 239.482 -99.0804 239.076 -104.393 238.587C-117.112 237.339 -128.045 234.032 -137.54 229.012C-138.963 228.244 -140.597 227.547 -142.237 226.898C-153.839 222.483 -166.461 219.689 -179.691 218.472C-199.842 216.657 -211.227 220.011 -216.738 228.942C-216.999 229.395 -217.266 229.896 -217.627 230.337C-219.071 232.098 -220.941 232.442 -224.994 231.628C-230.139 230.625 -234.48 228.897 -238.591 226.956C-242.989 224.88 -247.487 222.792 -252.445 221.131C-258.763 219.003 -265.66 217.433 -272.097 215.436C-283.909 211.87 -294.781 212.028 -305.177 214C-306.841 214.322 -308.161 215.126 -309.076 215.933C-310.316 216.893 -311.162 217.953 -311.915 219.073C-312.3 219.705 -312.499 220.458 -312.28 221.12C-310.29 226.147 -306.225 230.809 -298.745 234.937C-295.525 236.715 -292.008 237.752 -287.675 237.969C-285.961 238.044 -284.34 238.058 -282.625 238.132C-269.545 238.94 -257.844 247.312 -262.387 253.446C-264.177 252.388 -266.098 251.556 -267.185 250.54C-268.09 249.693 -268.16 248.661 -268.647 247.722C-269.854 245.279 -271.201 244.715 -277.436 244.302C-271.826 247.994 -273.001 250.813 -277.984 253.288C-279.498 254.018 -280.375 255.317 -280.53 256.514C-281.257 262.166 -280.407 264.223 -267.04 264.386C-266.841 264.411 -266.635 264.389 -266.436 264.415C-254.136 264.197 -245.142 267.595 -238.121 272.93C-234.608 275.573 -233.837 278.253 -235.298 280.937C-236.249 282.811 -240.539 282.258 -242.087 280.891C-243.186 279.97 -243.649 278.839 -243.825 277.843C-244.025 277.038 -243.415 276.24 -243.311 275.426C-243.157 273.45 -246.276 272.464 -249.207 271.6C-252.039 270.748 -255.007 270.171 -256.75 271.894C-256.107 272.415 -255.458 272.888 -254.915 273.396C-249.254 278.264 -252.565 281.927 -262.739 282.175C-264.16 282.187 -265.681 282.186 -267.19 282.089C-272.708 281.622 -278.344 281.286 -283.831 280.58C-291.313 279.616 -297.103 280.477 -302.125 282.46C-306.605 284.171 -306.753 285.321 -302.847 288.064C-298.947 290.854 -293.962 293.103 -288.442 295.128C-282.629 297.24 -276.928 299.434 -271.24 301.725C-256.874 307.518 -242.161 312.967 -226.668 317.883C-216.92 320.94 -207.19 324.14 -197.666 327.362C-194.654 328.383 -191.784 329.726 -189.426 331.101C-184.048 334.228 -183.755 334.315 -177.866 332.687C-173.865 331.547 -173.312 330.401 -177.124 328.498C-180.368 326.912 -184.235 325.44 -188.164 324.447C-199.345 321.498 -209.325 317.876 -217.617 312.962C-219.969 311.54 -222.104 309.999 -223.932 308.449C-224.663 307.819 -224.907 306.571 -224.247 306.169C-223.481 305.732 -221.274 305.919 -219.665 306.028C-218.655 306.061 -217.583 306.394 -216.604 306.666C-202.303 310.601 -187.991 314.44 -173.908 318.493C-166.768 320.532 -160.517 323.187 -159.252 327.537C-159.108 327.994 -157.243 328.477 -156.083 328.919C-155.704 328.335 -154.613 327.745 -154.951 327.215C-157.418 323.537 -159.369 319.781 -168.579 318.059C-171.553 317.53 -174.012 316.142 -173.871 314.262C-159.73 315.498 -146.105 322.316 -145.504 328.674C-145.112 332.717 -146.328 336.65 -146.809 340.386C-150.094 340.694 -152.862 340.922 -155.542 341.258C-166.568 342.614 -177.965 342.12 -189.968 340.039C-198.598 338.538 -207.384 337.456 -216.163 336.325C-221.251 335.67 -225.863 336.05 -230.039 336.973C-236.202 338.37 -237.589 341.259 -234.08 344.73C-233.269 345.516 -231.946 346.271 -231.134 347.057C-229.605 348.568 -228.075 350.08 -226.851 351.601C-226.071 352.626 -225.807 353.731 -225.133 354.792C-222.821 358.108 -220.039 359.343 -213.462 359.459C-208.506 359.562 -204.284 360.641 -199.775 361.855C-192.522 363.811 -185.263 365.719 -177.767 367.366C-168.987 369.276 -160.543 371.434 -152.727 374.534C-142.304 378.651 -131.097 382.188 -119.155 384.748C-112.445 386.196 -106.254 386.945 -101.164 384.435C-98.1362 382.975 -93.5728 382.978 -88.8151 383.834C-86.1399 384.325 -84.1374 385.313 -84.1918 386.523C-84.1998 389.735 -84.4072 392.922 -85.0137 396.057C-85.3355 397.769 -87.8902 398.706 -91.749 398.745C-96.3185 398.789 -100.807 398.99 -105.476 399.022C-126.385 399.154 -146.998 396.987 -167.503 391.62C-178.198 388.831 -189.236 386.339 -200.168 383.811C-212.185 381.047 -224.482 378.879 -237.025 378.627C-242.492 378.556 -247.661 377.745 -252.769 376.454C-283.052 369.049 -313.553 361.763 -343.718 354.227C-354.725 351.495 -365.246 348.145 -375.886 344.924C-379.404 343.887 -382.348 342.34 -385.741 341.124C-391.361 339.085 -397.429 337.379 -402.825 335.175C-412.082 331.451 -420.896 327.444 -429.934 323.602C-432.629 322.476 -435.318 321.302 -438.255 320.486C-441.579 319.522 -447.021 320.039 -447.879 321.194C-449.111 322.886 -446.205 323.942 -443.922 325.112C-443.641 325.294 -443.254 325.442 -442.867 325.589C-432.887 329.99 -423.124 334.509 -413.025 338.779C-402.733 343.123 -395.063 348.931 -382.796 352.117C-381.424 352.488 -380.401 353.204 -379.047 353.72C-369.31 357.651 -360.364 362.211 -349.17 365.064C-341.412 367.037 -334.015 369.45 -326.369 371.506C-314.9 374.589 -303.326 377.637 -291.62 380.459C-281.293 382.957 -271.178 385.526 -261.803 389.119C-259.77 389.867 -257.531 390.594 -255.248 390.985C-250.983 391.729 -247.708 393.076 -244.577 394.745C-240.59 396.865 -236.604 398.985 -232.623 401.153C-231.3 401.907 -230.19 402.732 -228.979 403.569C-229.739 403.958 -230.194 404.338 -230.493 404.3C-234.764 403.604 -238.223 404.473 -242 404.668C-248.022 404.964 -254.194 404.851 -260.299 403.432C-265.419 402.237 -270.302 400.781 -275.285 399.311C-287.796 395.656 -300.307 392 -312.699 388.213C-327.823 383.588 -342.699 378.605 -357.953 374.207C-370.37 370.612 -382.697 369.463 -393.402 373.051C-398.804 374.838 -399.264 376.045 -395.868 379.598C-391.31 384.372 -384.391 388.136 -375.777 391.339C-365.716 395.117 -355.98 399.049 -346.249 403.028C-337.098 406.787 -327.96 410.641 -319.027 414.518C-315.185 416.181 -311.143 417.87 -307.948 419.839C-305.321 421.492 -303.66 423.556 -302.186 425.499C-301.668 426.199 -302.62 427.293 -303.698 427.787C-305.212 428.518 -307.039 427.747 -308.761 426.941C-314.5 424.254 -320.71 423.649 -326.83 424.712C-334.197 426.003 -335.819 429.932 -330.415 433.647C-328.549 434.91 -325.842 435.94 -323.328 436.896C-318.295 438.762 -313.043 440.509 -308.004 442.326C-305.584 443.222 -302.877 444.253 -304.096 445.848C-305.303 447.348 -308.253 446.628 -310.729 446.163C-314.09 445.487 -317.339 444.727 -320.694 444.003C-327.497 442.494 -331.361 443.36 -332.497 446.671C-333.615 449.838 -330.955 452.809 -326.114 455.38C-323.175 456.976 -319.832 458.575 -316.239 459.816C-308.468 462.472 -304.922 465.655 -306.263 469.767C-306.288 469.959 -306.512 470.125 -306.755 470.435C-310.37 470.943 -313.831 470.254 -317.405 468.868C-322.245 467.077 -327.203 465.416 -332.28 463.886C-339.209 461.776 -346.275 459.942 -353.104 457.845C-361.979 455.096 -371.233 452.93 -380.749 451.218C-385.806 450.324 -391.018 449.847 -396.131 449.384C-400.439 448.975 -403.493 449.848 -404.407 451.434C-405.464 453.343 -402.906 454.744 -399.918 455.956C-396.637 457.255 -393.132 458.388 -389.739 459.604C-387.993 460.218 -386.358 460.915 -384.618 461.578C-387.18 461.783 -389.456 461.344 -391.301 461.496C-394.48 461.768 -396.95 461.256 -399.75 460.165C-404.004 458.546 -408.319 458.185 -412.319 459.326C-415.061 460.141 -417.867 459.877 -421.309 459.044C-426.23 457.875 -431.411 457.159 -436.481 456.361C-439.667 455.902 -442.827 456.03 -443.735 457.569C-445.141 459.822 -448.682 459.756 -452.76 459.133C-456.14 458.601 -459.488 457.829 -462.75 457.166C-465.02 456.679 -467.277 456.096 -469.566 455.752C-475.346 454.959 -478.381 455.689 -480.216 458.13C-480.944 459.059 -481.18 460.1 -482.001 460.968C-483.408 462.442 -484.96 462.68 -488.59 461.726C-492.219 460.772 -495.843 459.77 -499.248 458.65C-514.13 453.715 -528.787 448.614 -543.793 443.858C-549.736 441.973 -556.477 440.764 -562.875 439.259C-564.054 438.961 -565.339 438.698 -566.617 438.388C-570.072 437.651 -573.583 436.566 -577.087 436.212C-593.192 434.479 -604.371 429.145 -613.651 422.448C-616.34 420.495 -616.055 419.071 -613.533 417.594C-611.77 416.507 -609.377 416.036 -606.235 416.051C-594.876 416.053 -583.622 417.648 -572.578 420.092C-566.367 421.476 -560.168 422.956 -553.963 424.388C-551.5 424.948 -549.748 424.736 -548.802 423.689C-547.968 422.725 -548.761 421.795 -550.707 421.155C-553.713 420.087 -556.707 418.922 -559.95 418.115C-569.28 415.745 -578.703 413.315 -588.275 411.255C-598.24 409.095 -608.305 406.923 -618.456 405.421C-630.896 403.576 -639.502 405.827 -643.709 410.934C-645.744 413.349 -644.724 415.672 -641.392 418.146C-638.328 420.342 -635.264 422.538 -632.505 424.743C-628.555 427.93 -623.838 430.679 -618.074 433.174C-610.009 436.696 -602.503 440.632 -596.693 445.129C-594.297 446.996 -591.708 448.157 -587.325 448.77C-581.644 449.55 -577.334 451.517 -575.49 454.529C-573.891 457.072 -575.491 458.473 -580.228 459.032C-581.668 459.187 -583.332 459.509 -584.111 460.041C-588.302 462.666 -589.543 462.847 -596.496 460.93C-603.937 458.852 -611.265 456.691 -618.599 454.578C-623.002 453.33 -624.124 453.38 -626.565 455.013C-627.45 455.581 -628.147 456.27 -628.95 456.994C-628.202 457.48 -627.746 457.88 -626.972 458.174C-615.234 462.315 -603.863 466.944 -591.533 470.43C-577.251 474.508 -564.315 479.582 -550.257 483.827C-546.84 484.851 -543.902 485.667 -539.931 485.546C-532.912 485.378 -527.696 488.192 -527.672 491.944C-530.595 492.591 -533.956 491.914 -536.918 491.289C-553.799 487.704 -570.698 484.262 -586.583 479.247C-589.215 478.421 -591.604 478.065 -593.553 479.031C-595.503 479.997 -594.965 481.332 -592.882 482.477C-589.75 484.146 -586.306 485.758 -582.85 487.274C-578.06 489.449 -572.315 491.309 -568.372 493.764C-560.105 498.869 -550.598 503.015 -539.447 506.203C-512.942 513.803 -486.922 522.022 -459.707 528.837C-453.221 530.451 -451.602 533.63 -456.499 535.434C-458.094 536.007 -460.475 536.382 -462.688 536.244C-467.732 536.032 -471.478 536.767 -474.898 538.128C-483.459 541.603 -494.138 541.835 -506.023 539.623C-514.441 538.052 -522.704 536.063 -531.135 534.588C-535.899 533.78 -541.28 533.038 -545.581 533.361C-552.238 533.867 -558.242 533.24 -564.927 531.6C-575.941 528.916 -587.153 526.207 -598.434 524.024C-605.854 522.582 -613.76 521.758 -621.304 521.274C-628.748 520.802 -630.891 522.474 -629.028 526.122C-627.159 529.722 -624.878 533.278 -622.398 536.859C-621.63 537.981 -620.188 539.384 -618.335 539.963C-611.818 542.117 -607.132 545.106 -601.692 547.754C-600.263 548.473 -598.293 548.922 -596.54 549.488C-586.593 552.571 -576.433 555.583 -566.604 558.796C-553.076 563.216 -539.79 567.945 -525.31 571.27C-520.976 572.266 -516.648 573.31 -512.296 574.163C-507.151 575.166 -502.545 574.834 -498.625 573.537C-493.753 571.925 -493.369 569.735 -498.216 567.212C-501.928 565.322 -506.058 563.524 -510.548 562.167C-521.774 558.774 -533.225 555.547 -544.7 552.512C-561.463 548.016 -577.05 542.26 -594.156 538.061C-597.792 537.155 -600.756 534.972 -603.676 533.233C-604.431 532.795 -603.909 531.888 -603.885 530.917C-590.317 532.664 -577.268 533.712 -564.714 537.032C-558.047 538.816 -550.309 540.153 -546.899 544.389C-546.112 545.367 -543.487 546.241 -541.459 547.037C-538.952 548.042 -536.12 548.893 -533.613 549.898C-527.244 552.422 -520.552 554.793 -514.619 557.553C-508.306 560.508 -501.602 562.783 -493.894 564.36C-492.51 564.636 -491.132 564.959 -489.554 565.308C-489.948 568.374 -490.019 571.286 -490.782 574.06C-491.594 577.218 -494.888 579.958 -493.019 583.559C-498.561 584.062 -503.81 583.873 -509.203 583.228C-511.298 582.958 -513.599 582.71 -515.444 582.862C-519.134 583.166 -520.167 584.883 -517.415 586.357C-513.042 588.625 -511.131 591.11 -510.061 593.829C-509.373 595.573 -507.55 597.171 -504.189 597.847C-496.288 599.497 -490.474 602.388 -484.685 605.47C-480.505 607.664 -475.715 609.06 -469.955 609.217C-464.194 609.375 -462.566 610.12 -461.708 612.908C-461.339 613.978 -461.568 614.971 -461.604 616.038C-461.651 617.979 -461.798 619.908 -461.907 622.328C-463.346 622.484 -465.552 623.076 -467.971 622.959C-471.5 622.797 -475.21 622.465 -478.671 621.776C-487.27 620.036 -495.633 618.034 -504.213 616.151C-509.246 615.064 -511.14 615.599 -510.463 618.218C-509.999 620.128 -509.03 622.055 -507.849 623.911C-505.65 627.31 -501.233 630.021 -494.697 632.031C-486.795 634.461 -479.341 637.222 -471.433 639.603C-462.945 642.206 -454.438 644.664 -445.701 646.909C-440.2 648.299 -434.769 649.436 -430.327 651.956C-427.962 653.283 -424.439 654.272 -421.302 655.114C-417.086 656.241 -412.627 657.059 -408.306 658.151C-403.298 659.428 -398.19 660.719 -393.325 662.319C-386.808 664.473 -380.763 667.15 -374.021 669.138C-357.613 674.026 -340.849 678.521 -324.335 683.374C-301.964 690.004 -278.286 695.146 -256.506 702.429C-253.107 703.597 -249.241 704.29 -245.617 705.292C-238.364 707.248 -231.111 709.205 -223.971 711.244C-211.541 714.743 -199.591 718.814 -186.415 721.241C-177.305 722.949 -169.003 725.43 -163.25 729.579C-159.531 732.2 -154.872 733.822 -149.365 735.164C-139.524 737.503 -129.584 739.854 -119.749 742.24C-104.807 745.916 -89.4982 749.105 -75.5209 753.972C-74.3546 754.365 -73.3065 754.89 -72.1525 755.379C-74.8204 755.62 -77.1211 755.372 -79.4033 754.981C-89.1184 753.243 -98.8274 751.458 -108.549 749.768C-114.005 748.822 -119.585 748.055 -125.06 747.252C-126.058 747.124 -127.192 747.27 -129.125 747.313C-116.087 753.179 -101.601 756.456 -87.1699 760.165C-89.4056 761.776 -92.0869 761.333 -94.9554 760.769C-108.612 758.134 -122.268 755.5 -135.93 752.913C-139.298 752.284 -142.69 751.848 -146.188 751.446C-147.185 751.318 -148.843 751.591 -149.098 751.996C-149.353 752.402 -148.648 753.223 -147.799 753.722C-146.763 754.342 -145.404 754.809 -144.038 755.228C-138.269 756.896 -132.5 758.564 -126.607 760.053C-114.128 763.169 -101.631 766.142 -89.1458 769.21C-84.0321 770.452 -79.2486 771.896 -73.774 772.698C-70.1948 773.257 -65.7733 774.361 -63.8498 776.751C-68.6385 776.135 -73.0034 775.378 -77.4238 775.052C-83.9516 774.553 -90.069 773.229 -96.274 771.798C-104.156 770.004 -112.026 768.114 -120.089 766.93C-131.237 765.3 -142.125 763.216 -152.87 760.81C-155.433 760.237 -158.151 760.081 -161.344 759.67C-160.962 760.645 -161.054 761.363 -160.48 761.632C-158.852 762.377 -156.925 763.161 -154.954 763.609C-149.454 764.999 -143.717 766.127 -138.322 767.552C-131.263 769.435 -124.446 771.627 -117.38 773.462C-104.034 776.933 -90.7133 780.596 -76.6271 783.042C-70.5785 784.113 -64.5978 785.711 -58.7107 787.248C-48.5018 789.877 -38.6354 792.803 -28.3021 795.253C0.926693 802.181 30.1555 809.11 57.2186 818.68C60.4183 819.822 63.6365 820.821 67.6198 820.604C68.9475 820.531 71.7728 821.431 72.3035 822.034C73.184 823.073 73.1235 824.331 72.6947 825.298C72.0479 826.383 69.7163 826.375 67.4402 825.936C59.2339 824.295 53.3944 825.54 48.5103 828.027C47.3143 828.652 46.0246 829.216 44.735 829.781C40.3178 831.792 38.1398 834.531 38.6306 837.807C39.0772 840.64 40.0287 843.489 41.2796 846.377C42.3556 849.047 44.0426 851.699 45.3304 854.299C47.181 858.043 45.9541 858.907 38.6591 858.065C33.3654 857.432 28.0091 856.499 22.883 855.352C14.7949 853.581 6.84985 851.487 -1.11997 849.584C-50.5289 837.915 -99.9564 826.39 -149.241 814.543C-173.637 808.675 -197.641 802.127 -221.906 796.033C-225.642 795.114 -229.85 794.718 -233.853 794.3C-235.954 794.078 -237.999 794.205 -238.67 795.481C-239.236 796.723 -238.455 797.749 -236.553 798.724C-230.744 801.663 -224.582 804.209 -217.204 805.987C-210.413 807.591 -203.64 809.34 -197.316 811.42C-186.807 814.867 -175.944 817.142 -164.416 818.188C-154.296 819.15 -144.363 820.77 -134.629 823.143C-103.073 830.906 -71.6115 838.609 -40.1807 846.551C-24.7584 850.435 -8.49587 853.308 6.29807 858.134C7.66397 858.554 9.26634 858.711 10.6445 859.035C21.1959 861.367 31.7472 863.7 42.2985 866.032C48.1167 867.317 53.8475 868.493 59.678 869.682C62.0538 870.134 64.2424 870.464 64.8062 872.387C51.8667 869.698 39.4199 867.122 26.9792 864.498C14.6322 861.934 2.37875 859.431 -9.96217 856.82C-22.2033 854.221 -34.4321 851.527 -46.5673 848.893C-46.7977 849.107 -46.9344 849.382 -47.1648 849.595C-45.225 850.283 -43.4097 851.15 -41.3455 851.659C-35.0655 853.296 -28.6796 854.897 -22.3811 856.389C-4.27133 860.669 13.8446 864.9 31.9605 869.131C46.1353 872.466 60.4344 875.622 74.5906 879.1C79.9974 880.429 84.8942 882.569 90.046 884.303C95.0044 885.964 99.9382 887.816 105.133 889.216C117.781 892.597 131.031 894.449 144.281 896.301C156.04 897.913 167.812 899.428 179.429 901.362C188.857 902.966 198.516 904.355 206.987 907.88C208.721 908.591 210.997 909.03 213.073 909.443C230.296 912.732 247.519 916.021 264.861 919.179C285.071 922.9 305.417 926.348 325.049 931.407C327.014 931.904 329.383 932.404 330.806 933.171C333.744 934.767 336.353 936.563 338.973 938.264C345.138 942.369 350.857 943.64 359.396 942.695C363.304 942.273 367.137 941.647 370.684 940.886C375.788 939.839 381.18 939.706 387.16 940.524C394.243 941.436 401.239 942.24 408.303 943.295C412.786 943.921 417.369 944.56 421.479 945.722C428.427 947.688 435.597 948.709 442.868 949.742C446.06 950.153 449.222 950.804 452.402 951.311C459.155 952.423 465.965 953.884 472.779 954.518C491.129 956.151 509.024 958.942 526.927 962.464C536.518 964.381 546.208 966.31 555.799 968.226C557.876 968.64 560.064 968.97 562.016 969.563C565.92 970.747 569.923 971.165 573.982 971.152C583.002 971.193 591.863 972.48 600.78 974.115C607.321 975.298 613.905 976.146 620.596 976.959C625.291 977.515 630.035 977.687 634.736 978.195C652.924 980.294 671.081 982.632 689.293 984.538C700.099 985.686 710.013 987.45 718.585 991.767C720.488 992.742 723.038 993.411 725.265 994.233C729.156 994.734 732.947 995.223 736.838 995.724C739.193 994.761 742.018 995.66 744.612 995.994C750.797 996.791 757.045 997.887 763.18 998.288C771.435 998.766 779.67 998.609 787.943 998.944C795.106 999.233 802.481 999.453 809.558 1000.41C814.64 1001.12 818.194 1001.09 820.996 999.013C825.444 1001.48 830.227 1002.15 835.538 1001.86C842.482 1001.49 849.589 1001.43 856.608 1001.26C859.251 1001.21 861.994 1001.18 864.731 1001.19C867.979 1001.17 871.351 1000.97 874.656 1001.3C895.88 1003.44 916.991 1005.68 938.203 1007.92C944.207 1008.55 947.657 1010.11 949.824 1012.97C951.729 1015.5 958.75 1016.9 961.628 1015.03C964.387 1013.29 967.722 1013.38 972.018 1013.88C982.319 1015.01 992.544 1015.94 1002.77 1016.87C1010.89 1017.62 1019.04 1018.13 1027.16 1018.84C1035.78 1019.61 1044.24 1020.84 1052.5 1022.88C1059.58 1024.62 1063.37 1024.33 1066.69 1022.13C1062.52 1020.67 1060.33 1020.33 1054.42 1019.82C1044.39 1018.91 1034.25 1018.1 1024.28 1016.76C1008.03 1014.62 991.897 1012.3 975.581 1011.42C972.657 1011.29 970.094 1010.71 969.474 1008.44C972.141 1008.2 974.728 1007.8 977.571 1007.78C983.456 1007.76 989.485 1008.19 995.282 1008.06C1009.41 1007.84 1023.63 1007.62 1038.25 1009.07C1048.07 1010.04 1057.54 1008.92 1067.49 1010.45C1068.88 1010.67 1070.34 1010.38 1071.86 1010.38C1082.24 1010.11 1092.52 1009.78 1103.45 1011.52C1116.37 1013.58 1129.44 1015.31 1142.34 1017.46C1152.87 1019.2 1163.81 1020.85 1171.79 1025.87C1171.19 1027.35 1168.27 1027.17 1165.94 1027.16C1156.43 1026.96 1146.94 1026.67 1137.46 1026.27C1133.93 1026.11 1130.79 1026.1 1128.31 1027.24C1124.75 1028.87 1120.11 1029.44 1114.78 1029.15C1110.95 1028.95 1107.04 1028.54 1103.25 1028.05C1093.98 1026.86 1084.81 1026.36 1076.09 1027.13C1070.24 1027.65 1064.25 1027.7 1058.02 1027.24C1056.12 1027.09 1054.19 1027.09 1052.35 1027.19C1051.33 1027.26 1050.57 1027.65 1049.63 1027.87C1050.18 1028.28 1050.45 1028.56 1050.75 1028.59C1051.74 1028.82 1052.81 1029.1 1053.82 1029.14C1062.41 1029.41 1070.93 1030.95 1079.37 1032.38C1082.34 1032.91 1085.36 1033.15 1088.37 1033.39C1096 1033.93 1103.75 1034.45 1111.41 1034.8C1132.68 1035.83 1153.88 1036.57 1175.11 1037.89C1200.97 1039.46 1226.45 1040.07 1251.89 1040.18C1262.03 1040.22 1267.97 1038.16 1269.89 1033.49C1270.34 1032.33 1270.7 1031.11 1270.86 1029.87C1271.33 1025.45 1268.11 1022.89 1258.88 1021.36C1247.26 1019.43 1235.89 1016.4 1224.03 1015.51C1221.72 1015.36 1219.34 1014.91 1218.23 1013.3C1219.28 1013.05 1220.05 1012.61 1221.17 1012.56C1232.81 1011.97 1244.45 1011.32 1256.72 1012.12C1260.94 1012.42 1264.81 1013.12 1268.03 1014.85C1273.35 1017.67 1279.68 1018.93 1286.53 1019.22C1290.77 1019.38 1294.93 1019.38 1299.17 1019.54C1312.39 1020.07 1325.51 1020.54 1338.53 1024.17C1340.79 1024.8 1343.6 1025.01 1346.11 1025.19C1372.43 1027.17 1398.73 1029.24 1424.97 1031.06C1447.79 1032.63 1469.91 1032.51 1491.08 1030.37C1503.41 1029.13 1513.35 1025.93 1522.64 1022.36C1529.57 1019.7 1524.41 1014.89 1517.89 1013.52C1514.24 1012.76 1510.32 1012.45 1506.49 1012.25C1502.87 1012.07 1499.39 1012.3 1495.84 1012.29C1464 1012.23 1431.78 1011.24 1400.38 1012.46C1391.41 1012.81 1381.85 1012.26 1372.57 1011.85C1369.34 1011.73 1365.57 1011.14 1362.65 1010.18C1356.8 1008.31 1356.24 1005.56 1361.3 1004.12C1363.2 1003.53 1365.67 1003.27 1368.12 1003.14C1381.83 1002.18 1395.63 1001.33 1409.35 1000.32C1413.35 1000.01 1417.26 999.539 1420.99 998.9C1422.03 998.741 1423.15 997.912 1423.01 997.407C1422.88 996.855 1421.24 996.205 1420.2 995.633C1419.72 995.425 1419.01 995.383 1418.32 995.245C1409.42 993.466 1400.53 992.419 1391.6 992.438C1385.92 992.437 1380.21 991.897 1373.78 990.631C1375.02 990.497 1375.54 990.37 1376.15 990.399C1400.63 991.653 1425.11 992.906 1449.59 994.207C1459.56 994.713 1469.63 995.327 1479.66 996.959C1482.04 997.363 1484.61 997.11 1487.14 997.144C1492.1 997.198 1497.09 997.061 1502.14 997.225C1508.71 997.437 1515.34 997.902 1521.9 998.114C1530.99 998.456 1540.14 998.271 1549.26 999.104C1561.89 1000.29 1573.86 1000.23 1585.8 999.671C1592.74 999.347 1599.61 998.723 1606.71 998.76C1624.35 998.791 1641.97 999.015 1659.68 999.251C1665.96 999.329 1672.43 999.529 1678.84 1000.94C1679.82 1001.16 1681.03 1001.27 1681.94 1001.24C1699.32 1000.95 1716.25 1000.21 1731.74 997.282C1737.14 996.274 1741.09 994.737 1742.49 991.753C1743.58 989.604 1747 988.243 1752.1 988.803C1761.9 989.918 1772.04 990.736 1781.51 992.736C1792.07 995.02 1802.53 996.513 1813.26 997.408C1835.15 999.155 1856.12 999.323 1876.03 996.725C1887.27 995.252 1899.11 994.682 1911.38 994.656C1934.1 994.66 1957.06 995.96 1980.19 997.477C1990.04 998.114 1999.73 998.485 2008.65 997.003C2018.18 995.407 2020.91 993.129 2018.96 987.814C2018.2 985.818 2017.65 983.799 2017.3 981.806C2016.51 976.885 2011.6 973.282 2001.84 971.101C1997.31 970.079 1992.62 969.427 1987.95 968.68C1985.47 968.263 1982.7 967.712 1982.77 966.406C1982.79 965.435 1984.26 964.309 1985.93 963.94C1988.54 963.351 1991.78 963.331 1994.76 963.033C2001.85 962.338 2009.31 961.935 2016.03 960.902C2020.48 960.209 2024.89 959.852 2029.84 960.002C2044.88 960.575 2059.92 961.1 2074.98 961.481C2078.22 961.557 2081.62 961.119 2084.14 960.421C2090.99 958.478 2090.09 953.592 2082.32 950.936C2079.02 949.829 2074.96 949.015 2071.25 948.683C2059.73 947.589 2048.18 946.734 2036.63 945.832C2021.18 944.572 2005.83 943.278 1990.61 940.198C1972.52 936.506 1954.2 933.903 1935.73 932.354C1931.92 932.057 1928.05 931.413 1924.28 930.733C1922 930.294 1918.77 930.17 1918.19 928.439C1917.84 927.225 1921.22 925.325 1923.88 925.18C1925.51 925.098 1927.24 925.077 1928.85 925.138C1933.49 925.346 1938.24 925.471 1942.85 925.918C1947.26 926.34 1951.86 926.835 1956.11 927.722C1960.65 928.648 1964.94 930.028 1969.35 931.229C1974.05 932.516 1975.89 932.412 1979.78 930.527C1978.13 929.146 1976.39 927.753 1974.65 926.312C1977.42 925.257 1979.98 925.051 1983.19 925.318C1989.82 925.831 1996.45 926.343 2002.99 926.699C2034.54 928.229 2066.17 930.647 2097.82 933.796C2104.43 934.452 2111.06 934.917 2117.7 935.334C2124.24 935.738 2127.32 934.625 2128.81 931.749C2129.2 931.069 2129.29 930.351 2129.39 929.633C2129.73 927.778 2131.41 926.486 2134.65 925.734C2135.7 925.48 2136.84 925.286 2137.8 924.97C2146.46 922.24 2145.41 917.04 2135.1 913.571C2130.93 912.157 2126.28 911.218 2121.73 910.292C2116.89 909.327 2111.99 908.746 2107.12 907.973C2089.72 905.294 2072.22 902.554 2054.82 899.875C2048.65 898.935 2042.47 898.138 2036.43 896.972C2023.38 894.414 2010.27 892.24 1996.9 891.298C1994.69 891.159 1992.34 890.467 1990.07 890.028C1990.1 889.789 1990.12 889.597 1990.15 889.358C1996.02 889.48 2001.89 889.554 2007.75 889.725C2024.73 890.206 2041.6 890.723 2058.57 891.205C2060.69 891.283 2062.85 891.122 2065.18 891.082C2062.3 888.276 2058.24 888.289 2054.42 887.993C2029.44 885.944 2004.33 883.978 1979.35 881.881C1962.49 880.489 1945.55 878.941 1928.61 877.393C1900.55 874.802 1872.49 872.163 1844.54 869.537C1843.23 869.418 1841.92 869.395 1840.74 869.097C1839.66 868.812 1838.32 868.201 1838.17 867.792C1838.02 867.383 1839.21 866.806 1840.14 866.682C1844.25 866.238 1848.54 865.964 1852.66 865.519C1859.34 864.822 1866.09 865.156 1873.29 865.937C1886.29 867.367 1899.34 868.462 1912.38 869.557C1930.54 871.068 1948.67 872.087 1966.89 873.898C1985.92 875.764 2004.98 877.39 2024 878.525C2056.2 880.48 2088.41 882.387 2120.61 884.39C2131.67 885.085 2136.47 887.212 2139.61 892.777C2140.61 894.464 2142.35 895.857 2145.58 896.808C2153.61 899.059 2165.01 897.946 2167.41 894.215C2170.06 890.222 2176.27 889.221 2184.37 889.338C2202.3 889.504 2220.12 889.754 2238.06 889.824C2242.62 889.827 2247.12 889.53 2251.53 889.173C2255.52 888.859 2257.54 887.414 2257.4 885.351C2257.26 883.288 2255.25 881.521 2251.24 880.372C2248.21 879.543 2245.16 878.761 2241.98 878.254C2218.93 874.556 2195.92 872.128 2172.76 870.802C2149.91 869.467 2127.07 868.036 2104.33 866.666C2102.42 866.565 2100.5 866.513 2098.66 866.569C2095.92 866.605 2094.01 867.236 2094.22 868.772C2094.45 870.165 2096.57 871.022 2099.06 871.391C2102.44 871.876 2105.93 872.325 2109.35 872.57C2118.58 873.321 2127.75 873.82 2136.97 874.666C2143.09 875.21 2149.25 876.198 2155.33 876.982C2154.38 877.297 2153.46 877.373 2152.45 877.292C2137.91 876.053 2123.34 874.956 2108.82 873.525C2093 871.974 2077.12 870.807 2061.46 870.396C2049.02 870.11 2036.63 870.219 2024.05 869.475C2006.54 868.438 1989.01 866.764 1971.44 865.331C1966.12 864.889 1960.71 864.387 1955.42 863.707C1953.43 863.45 1951.18 862.819 1949.66 862.039C1945.66 859.967 1940.98 858.536 1935.93 857.545C1934.16 857.17 1932.39 856.7 1930.43 856.203C1930.71 855.607 1930.57 855.102 1931.01 854.866C1933.51 853.533 1933.98 852.278 1929.93 850.637C1929.06 850.282 1928.4 849.078 1928.77 848.637C1930.05 847.294 1931.29 845.602 1933.7 844.94C1942.32 842.593 1951.33 840.393 1960.5 838.506C1964.56 837.666 1969.55 837.529 1974.23 837.401C1981.86 837.167 1989.57 837.186 1997.27 837.204C2002.65 837.214 2008.12 837.237 2013.65 837.609C2015.96 837.76 2018.8 838.564 2020.71 839.491C2027.49 842.798 2035.15 843.152 2042.74 843.253C2045.88 843.316 2048.01 842.471 2047.41 840.884C2046.29 837.721 2050.04 836.987 2054.75 836.62C2061.21 836.088 2067.74 835.808 2074.09 835.264C2080.66 834.697 2087.41 834.203 2093.44 833.081C2104.57 830.959 2105.64 825.742 2096.3 820.351C2093.94 818.976 2090.96 817.716 2088.06 816.612C2085.16 815.508 2081.83 814.593 2078.71 813.607C2072.46 811.683 2071.6 810.501 2073.61 807.498C2075 805.388 2076.21 803.109 2076.6 800.823C2076.87 799.495 2075.98 797.773 2074.31 796.536C2068.39 792.122 2060.69 788.939 2050.36 787.999C2044.85 787.484 2039.24 786.956 2033.72 786.489C2031.81 786.341 2029.9 786.241 2027.97 786.284C2019.23 786.424 2010.75 786.891 2002.42 787.814C1992.44 788.915 1982.01 789.521 1970.89 788.526C1966.37 788.139 1963.09 786.841 1960.39 784.983C1955.35 781.56 1950.53 778.066 1945.28 774.712C1937.51 769.719 1927.9 767.167 1916.33 767.187C1913.39 767.198 1910.45 767.161 1907.51 767.171C1898.88 767.277 1891.14 765.94 1884.2 762.32C1879.73 759.992 1879.18 757.974 1883.92 756.636C1885.5 756.158 1887.67 755.853 1889.69 755.918C1897.96 756.253 1906.25 756.492 1914.57 757.271C1931 758.803 1947.49 760.731 1964 762.419C1982.22 764.326 2000.36 766.76 2018.28 770.186C2028.37 772.119 2038.49 773.86 2048.72 775.518C2055.48 776.631 2061.61 776.253 2065.77 773.915C2069.16 771.966 2073.67 771.622 2079.15 772.376C2085.13 773.195 2091.1 774.109 2097.1 774.736C2117.62 776.842 2138.23 779.009 2158.78 780.924C2177.62 782.669 2196.5 784.078 2214.89 783.816C2221.3 783.716 2227.74 783.28 2233.53 782.419C2243.05 780.966 2245.22 776.669 2239.79 771.636C2238.88 770.837 2237.96 770.038 2236.84 769.309C2229.62 764.728 2221.19 760.916 2210.63 758.631C2190.41 754.226 2171.15 748.63 2151.78 743.117C2150.41 742.746 2149.06 742.183 2148.02 741.563C2146.05 740.383 2142.33 739.32 2143.96 737.68C2145.59 736.04 2149 737.112 2151.89 737.532C2161.25 738.884 2170.58 740.426 2179.98 741.442C2191.69 742.706 2203.03 744.409 2213.99 747.524C2216.53 748.241 2219.4 748.806 2222.1 749.105C2230.51 749.944 2234.83 747.092 2231.61 743.025C2229.24 740.092 2225.31 738.368 2219.2 737.728C2201.9 735.889 2184.49 733.989 2167.2 732.054C2135.51 728.509 2103.79 725.156 2072.25 721.192C2038.12 716.895 2003.82 713.112 1969.94 706.899C1968.05 706.559 1966.18 706.123 1964.53 705.522C1963.37 705.08 1961.78 704.048 1962.02 703.786C1962.61 703.18 1963.99 702.628 1965.42 702.569C1967.78 702.385 1970.48 702.636 1973.02 702.67C1987.09 702.827 2001.17 702.936 2015.33 703.25C2023.72 703.454 2032.29 703.875 2040.83 704.488C2054.3 705.443 2067.74 707.369 2081.11 709.869C2090.12 711.565 2098.55 711.482 2105.91 709.459C2114.53 707.112 2116.55 704.013 2113.08 698.649C2112.4 697.636 2111.92 696.649 2111 695.167C2114.93 695.332 2117.98 695.287 2121.08 695.589C2134.59 696.988 2148.08 698.578 2161.5 699.916C2166.11 700.364 2171.03 700.706 2175.42 700.492C2182.88 700.088 2185.79 697.153 2183.55 693.309C2181.07 688.901 2174.28 685.738 2164.41 684.418C2150.05 682.521 2135.78 680.684 2121.41 678.882C2095.05 675.635 2069.74 670.574 2046.07 662.22C2042.97 661.138 2039.22 660.315 2035.74 659.721C2028.01 658.384 2021.62 656.004 2016.14 652.864C2013.12 651.112 2011.15 649.105 2012.82 647.178C2017.14 641.988 2018.29 636.197 2019.74 630.444C2020.12 629.032 2020.51 627.621 2021.28 626.309C2022.6 623.995 2025.69 622.835 2031.21 623.254C2046.17 624.402 2061.06 625.345 2076.02 626.541C2088.67 627.536 2101.28 628.867 2113.93 629.863C2131.9 631.3 2149.81 632.342 2167.86 634.762C2175.83 635.838 2183.7 636.217 2191.02 635.261C2196.9 634.461 2202.93 634.944 2209.12 636.472C2216.29 638.272 2223.09 638.222 2229.6 637.307C2235.18 636.516 2237.67 634.5 2237.05 631.402C2236.8 630.249 2236.24 629.058 2235.98 627.905C2235.55 625.707 2236.13 625.149 2240.25 624.705C2243.54 624.35 2247.19 624.333 2250.57 624.086C2257.64 623.536 2262.61 621.936 2263.81 618.147C2265.14 614.083 2268.93 613.06 2277.86 613.773C2281.27 614.066 2284.69 614.311 2288.09 614.7C2295.09 615.455 2299.72 614.105 2303.46 611.859C2306.97 609.78 2306.9 608.017 2303.09 605.287C2297.61 601.368 2290.46 598.646 2281.67 597.563C2260.9 595.035 2240.15 592.411 2219.41 590.423C2192.86 587.881 2166.34 585.927 2139.85 583.733C2129.41 582.876 2118.87 582.054 2108.5 581.402C2101.37 580.921 2094.49 579.986 2087.62 578.177C2083.21 576.977 2078.6 575.798 2074.03 575.064C2059.62 572.722 2045.1 570.511 2030.68 568.314C2007.31 564.672 1983.75 562.612 1960.44 558.491C1942.4 555.292 1923.87 552.711 1905.44 551.701C1904.63 551.646 1903.85 551.448 1902.46 551.22C1903.8 549.446 1905.02 547.85 1906.25 546.206C1908.08 543.765 1911.93 542.995 1917.54 543.57C1919.94 543.831 1922.23 544.174 1924.62 544.482C1933.41 545.517 1942.2 546.599 1950.91 547.478C1972.05 549.517 1993.34 551.091 2014.43 553.514C2055.81 558.209 2096.94 560.924 2138.18 563.557C2159.31 564.865 2180.49 566.618 2201.58 568.214C2213.33 569.094 2225.07 570.07 2236.91 571.107C2249.24 572.208 2261.44 571.929 2273.9 573.631C2277.39 574.08 2281.08 573.824 2284.61 573.938C2293.09 574.251 2295.94 571.063 2299.62 568.47C2300.17 568.103 2299.99 567.154 2299.33 566.729C2294.2 563.293 2289.19 559.63 2280.3 558.63C2273.29 557.875 2266.2 557.058 2259.15 556.686C2248.77 556.129 2238.34 555.224 2227.98 553.793C2225.69 553.449 2223.28 553.285 2220.96 553.181C2217.13 552.98 2213.38 552.936 2209.56 552.687C2203.32 552.322 2198.64 550.112 2198.18 547.375C2197.62 543.846 2201.12 541.862 2207.57 542.158C2211 542.307 2214.42 542.504 2217.76 542.545C2245.69 543.025 2273.78 544.645 2302.12 548.245C2315.64 549.548 2327.32 548.666 2335.21 543.304ZM-81.2284 224.09C-84.1226 222.939 -87.0107 221.739 -90.0231 220.718C-93.0356 219.697 -96.5963 218.995 -99.3908 217.857C-101.898 216.852 -106.548 217.519 -107.892 214.571C-97.3288 216.807 -88.3356 219.426 -81.3035 223.886C-81.2099 223.947 -81.3281 224.077 -81.3405 224.173C-77.823 225.21 -77.823 225.21 -76.4179 226.901C-76.7357 227.006 -77.1594 227.146 -77.4772 227.251C-78.657 226.174 -79.9427 225.132 -81.2284 224.09ZM48.6986 186.191C52.6932 185.098 52.6931 185.098 57.1908 187.187C53.7989 186.75 51.1053 186.403 48.5115 186.069C48.4767 187.915 49.5762 189.614 52.309 191.232C53.6255 192.035 54.6181 192.99 55.3113 193.907C56.3605 195.211 55.0524 195.919 52.2528 195.607C50.9559 195.44 49.6713 195.177 48.4989 194.831C43.0354 193.154 37.7531 191.646 31.7169 190.48C23.4046 188.874 16.3366 185.481 9.76747 182.152C7.76496 181.164 5.79321 179.936 6.96967 178.675C8.13996 177.463 10.8963 178.11 13.2094 178.262C14.0137 178.317 15.0051 178.493 15.722 178.439C19.3936 178.279 22.1068 179.261 24.8582 180.735C30.2672 183.623 37.0459 185.323 44.2104 186.392C45.5886 186.715 47.1652 186.285 48.6986 186.191ZM2167.07 555.834C2166.41 556.236 2166.28 556.462 2165.97 556.472C2164.13 556.576 2162.3 556.632 2160.37 556.627C2134.88 556.947 2108.96 555.801 2082.92 554.055C2062.01 552.629 2041.1 551.202 2020.12 549.523C2002.85 548.128 1985.5 546.624 1968.22 544.594C1959.43 543.559 1950.73 542.585 1941.99 541.947C1936.46 541.576 1930.88 540.808 1925.3 540.041C1922.1 539.63 1920.37 538.093 1922.17 537.497C1924.95 536.442 1927.18 534.879 1931.72 535.074C1945.93 535.735 1960.16 536.253 1974.28 536.854C1979.33 537.066 1984.47 537.338 1989.57 537.897C2008.38 539.881 2027.07 541.995 2045.87 544.075C2047.77 544.271 2049.68 544.372 2051.59 544.52C2059.43 545.043 2067.4 545.387 2075.22 546.102C2088.66 547.296 2102.06 548.73 2115.48 550.068C2116.38 550.136 2117.19 550.19 2118.09 550.306C2124.3 550.863 2130.41 551.503 2136.63 552.012C2142.35 552.505 2148.07 552.949 2153.8 553.346C2158.42 553.698 2162.86 553.832 2167.07 555.834ZM1942.07 886.331C1942.13 886.583 1942.3 886.848 1942.37 887.101C1930.71 886.281 1918.98 885.257 1907.29 884.677C1896.61 884.13 1885.42 882.835 1875.73 884.801C1875.11 884.916 1874.03 884.679 1873.22 884.624C1866.38 884.229 1859.62 883.895 1852.78 883.453C1851.08 883.33 1849.25 883.339 1847.78 882.906C1843.01 881.415 1838.16 881.229 1833.23 880.935C1824.88 880.444 1816.63 879.87 1808.3 879.234C1807.09 879.128 1805.82 878.77 1803.25 878.244C1810.46 877.419 1816.23 876.701 1822.18 876.153C1824.34 875.944 1826.76 876.061 1829.07 876.261C1854.68 878.195 1880.18 880.165 1905.79 882.147C1906.59 882.202 1907.48 882.413 1908.16 882.647C1912.32 884.205 1916.77 884.339 1921.29 884.678C1928.42 885.159 1935.24 885.745 1942.07 886.331ZM-418.342 480.898C-408.851 482.802 -399.921 485.12 -392.697 488.874C-388.804 490.933 -384.824 492.322 -379.531 492.955C-374.137 493.601 -370.725 495.452 -368.932 498.069C-387.341 493.751 -405.799 489.816 -418.342 480.898ZM291.97 730.69C290.168 730.507 289.357 730.5 288.559 730.397C284.487 729.727 284.728 727.859 283.08 726.478C278.961 723.026 279.474 719.83 281.09 716.728C282.16 714.723 283.487 714.651 288.944 715.597C290.012 717.536 291.293 719.405 290.224 721.409C289.54 722.782 289.635 724.401 289.843 725.937C290.17 727.342 291.194 728.837 291.97 730.69ZM170.923 243.556C170.793 243.783 170.725 244.31 170.464 244.763C169.09 247.556 166.528 247.762 161.519 245.705C156.317 243.575 154.736 240.888 154.283 238.103C153.982 236.506 155.689 235.85 158.607 236.031C165.639 236.547 171.486 239.977 170.923 243.556ZM1529.41 991.825C1529.47 992.126 1529.43 992.413 1529.5 992.713C1511.37 994.032 1492.58 991.904 1473.25 990.048C1474.01 989.659 1474.14 989.432 1474.44 989.423C1481.05 989.3 1487.66 989.177 1494.26 989.102C1495.28 989.087 1496.49 989.145 1497.37 989.356C1502.48 990.647 1507.46 990.558 1512.6 990.83C1518.15 991.057 1523.77 991.489 1529.41 991.825ZM829.351 649.775C826.26 646.212 827.443 644.903 833.925 644.18C836.913 645.392 839.072 646.742 837.435 648.43C834.842 648.875 832.255 649.272 829.351 649.775ZM27.6307 738.137C28.6193 740.699 28.6193 740.699 22.2798 741.1C19.4265 738.055 20.6226 737.43 27.6307 738.137ZM314.267 867.065C313.984 865.324 315.136 864.256 318.602 864.118C320.74 864.052 321.77 864.72 322.184 866.234C318.104 864.832 319.295 868.978 314.267 867.065ZM2050.09 823.166C2046.91 825.824 2045.2 825.749 2041.09 822.981C2043.72 822.296 2046.23 821.694 2050.09 823.166ZM-329.28 544.559C-335.039 541.237 -334.854 539.801 -328.596 539.243C-328.811 540.919 -329.027 542.596 -329.28 544.559ZM-572.43 449.665C-567.668 448.915 -567.668 448.915 -565.425 452.758C-569.141 452.474 -571.561 451.579 -572.43 449.665ZM358.57 829.388C355.008 827.907 352.507 826.854 350.099 825.863C350.323 825.697 350.454 825.47 350.678 825.304C353.259 825.734 355.835 826.212 358.616 826.667C358.617 827.446 358.543 828.021 358.57 829.388ZM253.33 818.905C256.186 819.565 259.036 820.273 260.952 821.931C256.495 821.893 254.523 820.665 253.33 818.905ZM1195.66 382.07C1199.19 380.578 1200.52 381.285 1201.92 383.023C1199.93 382.718 1198.34 382.465 1195.66 382.07ZM132.534 659.866C131.929 659.837 131.324 659.808 130.719 659.779C130.693 659.191 130.568 658.591 130.542 658.003C131.047 658.02 131.446 658.071 131.951 658.087C132.077 658.688 132.308 659.253 132.534 659.866Z" fill="#F14F63"/>
<path d="M1636.92 367.119C1644.9 368.925 1652.87 370.876 1660.98 372.456C1680.66 376.305 1700.45 380.167 1720.29 383.599C1732.99 385.77 1745.89 387.187 1758.65 388.927C1758.85 388.953 1759.05 388.978 1759.25 389.004C1761.36 389.178 1764.05 389.573 1764.22 388.184C1764.4 386.795 1761.7 386.496 1759.62 386.131C1754.77 385.214 1749.92 384.297 1745.16 383.441C1744.76 383.39 1744.27 383.277 1743.87 383.226C1740.38 382.776 1740.45 379.864 1736.47 380.034C1732.18 380.261 1731.13 378.178 1728.41 377.291C1725.58 376.392 1723.12 375.052 1720.75 373.773C1719.99 373.335 1719.48 372.588 1719.45 372.048C1719.27 370.272 1719.19 368.51 1719.32 366.725C1719.6 362.232 1725.01 359.57 1734.22 359.733C1743.13 359.857 1752.08 360.426 1760.9 362.827C1767.95 364.758 1773.93 367.135 1777.08 371.045C1777.95 372.132 1779.41 373.391 1781.35 374.127C1783.28 374.911 1786.14 375.475 1788.47 375.531C1791.1 375.577 1791.68 374.24 1791.53 373.052C1791.23 369.849 1789.17 366.906 1782.86 364.778C1771.19 360.842 1759.43 356.893 1747.77 352.909C1734.65 348.493 1720.55 345.363 1706.34 342.268C1699.73 340.832 1693.19 340.476 1686.67 340.708C1676.99 341.068 1673.18 343.888 1675.48 348.859C1676.9 351.963 1679.99 354.747 1684.76 357.114C1693.14 361.309 1696.93 366.568 1702.5 371.375C1705.23 373.772 1703.78 374.754 1698.63 374.626C1687.11 374.311 1675.62 372.93 1664.12 370.913C1655.29 369.338 1646.36 367.847 1637.53 366.321C1637.19 366.57 1637.06 366.844 1636.92 367.119Z" fill="#F14F63"/>
<path d="M1023.54 330.988C1019.83 329.877 1016.33 328.649 1012.5 327.717C996.658 323.924 980.911 320.193 965.059 316.496C955.611 314.257 945.921 312.328 936.598 309.91C927.767 307.605 918.606 305.5 911.294 301.637C910.346 301.126 908.027 301.022 906.506 301.021C901.73 301.088 898.02 299.977 895.249 297.867C891.922 295.345 887.388 293.544 882.062 292.372C871.91 290.091 861.745 287.906 851.575 285.768C838.641 283.032 825.82 280.213 812.756 277.703C783.959 272.145 755.144 266.731 726.429 261.329C722.669 260.602 718.753 260.293 714.956 259.852C712.555 259.592 710.698 259.84 710.531 261.133C710.377 262.33 712.043 262.788 714.113 263.249C756.044 272.348 797.968 281.495 839.998 290.607C850.063 292.78 859.238 295.568 867.759 299.489C872.543 301.712 878.96 303.073 884.866 304.467C898.841 307.776 912.947 310.858 927.034 314.083C928.019 314.308 929.21 314.51 930.084 314.817C943.07 319.508 957.547 321.274 971.64 323.673C986.032 326.11 1000.44 328.404 1014.85 330.698C1017.53 331.14 1020.34 331.404 1023.13 331.764C1023.16 331.524 1023.4 331.263 1023.54 330.988Z" fill="#F14F63"/>
<path d="M1587.3 309.023C1585.22 310.264 1583.55 311.412 1581.6 312.378C1579.76 313.214 1577.23 313.18 1574.57 312.594C1572.3 312.107 1570.04 311.572 1567.77 311.037C1562.46 309.768 1559.61 309.84 1556.99 311.304C1554.27 312.755 1553.7 315.555 1556.31 317.351C1562.36 321.539 1570.15 324.878 1579.29 327.174C1580.66 327.498 1582.7 327.419 1584.05 327.203C1592.73 325.935 1601.73 325.389 1611.41 325.808C1619.38 326.153 1623.16 324.351 1623.34 320.529C1623.53 316.707 1623.72 312.885 1623.41 308.998C1623.06 305.399 1620.99 301.773 1616.24 298.484C1611.21 295.012 1604.1 293.561 1597.42 294.99C1588.97 296.823 1583.08 300.057 1578.91 304.096C1577.29 305.641 1578.46 306.765 1582.08 307.815C1583.45 308.235 1584.94 308.475 1587.3 309.023Z" fill="#F14F63"/>
<path d="M264.722 186.934C262.608 186.029 261.279 185.322 259.732 184.734C247.662 180.015 235.493 175.283 223.523 170.577C208.272 164.572 194.224 157.895 183.714 149.725C181.773 148.258 180.58 146.498 179.88 144.849C178.848 142.623 180.462 141.906 184.838 141.788C185.043 141.765 185.243 141.791 185.442 141.817C187.88 141.79 190.761 142.258 191.575 140.659C192.383 139.107 190.94 136.925 187.759 135.639C185.638 134.782 183.206 133.982 180.743 133.421C165.539 130.198 150.33 127.023 135.121 123.847C133.637 123.559 132.153 123.27 130.656 123.077C126.061 122.534 123.986 123.679 125.523 125.922C127.316 128.539 132.006 129.922 136.339 130.139C147.717 130.776 152.648 135.014 157.784 139.229C158.153 139.52 158.415 139.846 158.683 140.124C165.211 149.29 178.163 156.606 192.505 163.37C206.934 170.243 223.156 175.788 239.815 181.098C245.079 182.75 250.449 184.366 255.719 185.97C258.444 186.856 260.995 187.525 264.722 186.934Z" fill="#F14F63"/>
<path d="M239.206 151.174C240.809 152.111 241.259 152.558 241.945 152.744C257.373 156.58 272.429 160.953 288.218 164.349C311.316 169.271 334.034 174.777 356.883 180.056C359.446 180.629 362.016 181.155 365.177 181.805C364.988 180.125 363.335 179.572 361.57 179.101C343.111 174.387 324.551 169.661 305.98 165.03C297.237 162.833 288.499 160.588 279.626 158.618C269.074 156.285 258.386 154.228 247.804 152.135C245.434 151.635 242.91 151.553 239.206 151.174Z" fill="#F14F63"/>
</svg>
