<svg width="1920" height="450" viewBox="0 0 1920 450" fill="none" xmlns="http://www.w3.org/2000/svg">
<mask id="mask0_639_7925" style="mask-type:alpha" maskUnits="userSpaceOnUse" x="0" y="0" width="1920" height="450">
<rect width="1920" height="450" fill="url(#paint0_linear_639_7925)"/>
</mask>
<g mask="url(#mask0_639_7925)">
<circle cx="60" cy="232" r="146" fill="#FDFBFB" stroke="#8D99AE" stroke-width="8"/>
<circle cx="60.5" cy="231.5" r="109" fill="#FDFBFB" stroke="#8D99AE" stroke-width="7"/>
<circle cx="60" cy="232" r="72" fill="#FDFBFB" stroke="#8D99AE" stroke-width="6"/>
<circle cx="60.5" cy="231.5" r="35" fill="#FDFBFB" stroke="#8D99AE" stroke-width="5"/>
<circle cx="360" cy="232" r="146" fill="#FDFBFB" stroke="#8D99AE" stroke-width="8"/>
<circle cx="360.5" cy="231.5" r="109" fill="#FDFBFB" stroke="#8D99AE" stroke-width="7"/>
<circle cx="360" cy="232" r="72" fill="#FDFBFB" stroke="#8D99AE" stroke-width="6"/>
<circle cx="360.5" cy="231.5" r="35" fill="#FDFBFB" stroke="#8D99AE" stroke-width="5"/>
<circle cx="660" cy="232" r="146" fill="#FDFBFB" stroke="#8D99AE" stroke-width="8"/>
<circle cx="660.5" cy="231.5" r="109" fill="#FDFBFB" stroke="#8D99AE" stroke-width="7"/>
<circle cx="660" cy="232" r="72" fill="#FDFBFB" stroke="#8D99AE" stroke-width="6"/>
<circle cx="660.5" cy="231.5" r="35" fill="#FDFBFB" stroke="#8D99AE" stroke-width="5"/>
<circle cx="960" cy="232" r="146" fill="#FDFBFB" stroke="#8D99AE" stroke-width="8"/>
<circle cx="960.5" cy="231.5" r="109" fill="#FDFBFB" stroke="#8D99AE" stroke-width="7"/>
<circle cx="960" cy="232" r="72" fill="#FDFBFB" stroke="#8D99AE" stroke-width="6"/>
<circle cx="960.5" cy="231.5" r="35" fill="#FDFBFB" stroke="#8D99AE" stroke-width="5"/>
<circle cx="1260" cy="232" r="146" fill="#FDFBFB" stroke="#8D99AE" stroke-width="8"/>
<circle cx="1260.5" cy="231.5" r="109" fill="#FDFBFB" stroke="#8D99AE" stroke-width="7"/>
<circle cx="1260" cy="232" r="72" fill="#FDFBFB" stroke="#8D99AE" stroke-width="6"/>
<circle cx="1260.5" cy="231.5" r="35" fill="#FDFBFB" stroke="#8D99AE" stroke-width="5"/>
<circle cx="1560" cy="232" r="146" fill="#FDFBFB" stroke="#8D99AE" stroke-width="8"/>
<circle cx="1560.5" cy="231.5" r="109" fill="#FDFBFB" stroke="#8D99AE" stroke-width="7"/>
<circle cx="1560" cy="232" r="72" fill="#FDFBFB" stroke="#8D99AE" stroke-width="6"/>
<circle cx="1560.5" cy="231.5" r="35" fill="#FDFBFB" stroke="#8D99AE" stroke-width="5"/>
<circle cx="1860" cy="232" r="146" fill="#FDFBFB" stroke="#8D99AE" stroke-width="8"/>
<circle cx="1860.5" cy="231.5" r="109" fill="#FDFBFB" stroke="#8D99AE" stroke-width="7"/>
<circle cx="1860" cy="232" r="72" fill="#FDFBFB" stroke="#8D99AE" stroke-width="6"/>
<circle cx="1860.5" cy="231.5" r="35" fill="#FDFBFB" stroke="#8D99AE" stroke-width="5"/>
<circle cx="-90" cy="307" r="146" fill="#FDFBFB" stroke="#8D99AE" stroke-width="8"/>
<circle cx="-89.5" cy="306.5" r="109" fill="#FDFBFB" stroke="#8D99AE" stroke-width="7"/>
<circle cx="210" cy="307" r="146" fill="#FDFBFB" stroke="#8D99AE" stroke-width="8"/>
<circle cx="210.5" cy="306.5" r="109" fill="#FDFBFB" stroke="#8D99AE" stroke-width="7"/>
<circle cx="210" cy="307" r="72" fill="#FDFBFB" stroke="#8D99AE" stroke-width="6"/>
<circle cx="210.5" cy="306.5" r="35" fill="#FDFBFB" stroke="#8D99AE" stroke-width="5"/>
<circle cx="510" cy="307" r="146" fill="#FDFBFB" stroke="#8D99AE" stroke-width="8"/>
<circle cx="510.5" cy="306.5" r="109" fill="#FDFBFB" stroke="#8D99AE" stroke-width="7"/>
<circle cx="510" cy="307" r="72" fill="#FDFBFB" stroke="#8D99AE" stroke-width="6"/>
<circle cx="510.5" cy="306.5" r="35" fill="#FDFBFB" stroke="#8D99AE" stroke-width="5"/>
<circle cx="810" cy="307" r="146" fill="#FDFBFB" stroke="#8D99AE" stroke-width="8"/>
<circle cx="810.5" cy="306.5" r="109" fill="#FDFBFB" stroke="#8D99AE" stroke-width="7"/>
<circle cx="810" cy="307" r="72" fill="#FDFBFB" stroke="#8D99AE" stroke-width="6"/>
<circle cx="810.5" cy="306.5" r="35" fill="#FDFBFB" stroke="#8D99AE" stroke-width="5"/>
<circle cx="1110" cy="307" r="146" fill="#FDFBFB" stroke="#8D99AE" stroke-width="8"/>
<circle cx="1110.5" cy="306.5" r="109" fill="#FDFBFB" stroke="#8D99AE" stroke-width="7"/>
<circle cx="1110" cy="307" r="72" fill="#FDFBFB" stroke="#8D99AE" stroke-width="6"/>
<circle cx="1110.5" cy="306.5" r="35" fill="#FDFBFB" stroke="#8D99AE" stroke-width="5"/>
<circle cx="1410" cy="307" r="146" fill="#FDFBFB" stroke="#8D99AE" stroke-width="8"/>
<circle cx="1410.5" cy="306.5" r="109" fill="#FDFBFB" stroke="#8D99AE" stroke-width="7"/>
<circle cx="1410" cy="307" r="72" fill="#FDFBFB" stroke="#8D99AE" stroke-width="6"/>
<circle cx="1410.5" cy="306.5" r="35" fill="#FDFBFB" stroke="#8D99AE" stroke-width="5"/>
<circle cx="1710" cy="307" r="146" fill="#FDFBFB" stroke="#8D99AE" stroke-width="8"/>
<circle cx="1710.5" cy="306.5" r="109" fill="#FDFBFB" stroke="#8D99AE" stroke-width="7"/>
<circle cx="1710" cy="307" r="72" fill="#FDFBFB" stroke="#8D99AE" stroke-width="6"/>
<circle cx="1710.5" cy="306.5" r="35" fill="#FDFBFB" stroke="#8D99AE" stroke-width="5"/>
<circle cx="2010" cy="307" r="146" fill="#FDFBFB" stroke="#8D99AE" stroke-width="8"/>
<circle cx="2010.5" cy="306.5" r="109" fill="#FDFBFB" stroke="#8D99AE" stroke-width="7"/>
<circle cx="60" cy="382" r="146" fill="#FDFBFB" stroke="#8D99AE" stroke-width="8"/>
<circle cx="60.5" cy="381.5" r="109" fill="#FDFBFB" stroke="#8D99AE" stroke-width="7"/>
<circle cx="60" cy="382" r="72" fill="#FDFBFB" stroke="#8D99AE" stroke-width="6"/>
<circle cx="60.5" cy="381.5" r="35" fill="#FDFBFB" stroke="#8D99AE" stroke-width="5"/>
<circle cx="360" cy="382" r="146" fill="#FDFBFB" stroke="#8D99AE" stroke-width="8"/>
<circle cx="360.5" cy="381.5" r="109" fill="#FDFBFB" stroke="#8D99AE" stroke-width="7"/>
<circle cx="360" cy="382" r="72" fill="#FDFBFB" stroke="#8D99AE" stroke-width="6"/>
<circle cx="360.5" cy="381.5" r="35" fill="#FDFBFB" stroke="#8D99AE" stroke-width="5"/>
<circle cx="660" cy="382" r="146" fill="#FDFBFB" stroke="#8D99AE" stroke-width="8"/>
<circle cx="660.5" cy="381.5" r="109" fill="#FDFBFB" stroke="#8D99AE" stroke-width="7"/>
<circle cx="660" cy="382" r="72" fill="#FDFBFB" stroke="#8D99AE" stroke-width="6"/>
<circle cx="660.5" cy="381.5" r="35" fill="#FDFBFB" stroke="#8D99AE" stroke-width="5"/>
<circle cx="960" cy="382" r="146" fill="#FDFBFB" stroke="#8D99AE" stroke-width="8"/>
<circle cx="960.5" cy="381.5" r="109" fill="#FDFBFB" stroke="#8D99AE" stroke-width="7"/>
<circle cx="960" cy="382" r="72" fill="#FDFBFB" stroke="#8D99AE" stroke-width="6"/>
<circle cx="960.5" cy="381.5" r="35" fill="#FDFBFB" stroke="#8D99AE" stroke-width="5"/>
<circle cx="1260" cy="382" r="146" fill="#FDFBFB" stroke="#8D99AE" stroke-width="8"/>
<circle cx="1260.5" cy="381.5" r="109" fill="#FDFBFB" stroke="#8D99AE" stroke-width="7"/>
<circle cx="1260" cy="382" r="72" fill="#FDFBFB" stroke="#8D99AE" stroke-width="6"/>
<circle cx="1260.5" cy="381.5" r="35" fill="#FDFBFB" stroke="#8D99AE" stroke-width="5"/>
<circle cx="1560" cy="382" r="146" fill="#FDFBFB" stroke="#8D99AE" stroke-width="8"/>
<circle cx="1560.5" cy="381.5" r="109" fill="#FDFBFB" stroke="#8D99AE" stroke-width="7"/>
<circle cx="1560" cy="382" r="72" fill="#FDFBFB" stroke="#8D99AE" stroke-width="6"/>
<circle cx="1560.5" cy="381.5" r="35" fill="#FDFBFB" stroke="#8D99AE" stroke-width="5"/>
<circle cx="1860" cy="382" r="146" fill="#FDFBFB" stroke="#8D99AE" stroke-width="8"/>
<circle cx="1860.5" cy="381.5" r="109" fill="#FDFBFB" stroke="#8D99AE" stroke-width="7"/>
<circle cx="1860" cy="382" r="72" fill="#FDFBFB" stroke="#8D99AE" stroke-width="6"/>
<circle cx="1860.5" cy="381.5" r="35" fill="#FDFBFB" stroke="#8D99AE" stroke-width="5"/>
<circle cx="-90" cy="457" r="146" fill="#FDFBFB" stroke="#8D99AE" stroke-width="8"/>
<circle cx="-89.5" cy="456.5" r="109" fill="#FDFBFB" stroke="#8D99AE" stroke-width="7"/>
<circle cx="210" cy="457" r="146" fill="#FDFBFB" stroke="#8D99AE" stroke-width="8"/>
<circle cx="210.5" cy="456.5" r="109" fill="#FDFBFB" stroke="#8D99AE" stroke-width="7"/>
<circle cx="210" cy="457" r="72" fill="#FDFBFB" stroke="#8D99AE" stroke-width="6"/>
<circle cx="210.5" cy="456.5" r="35" fill="#FDFBFB" stroke="#8D99AE" stroke-width="5"/>
<circle cx="510" cy="457" r="146" fill="#FDFBFB" stroke="#8D99AE" stroke-width="8"/>
<circle cx="510.5" cy="456.5" r="109" fill="#FDFBFB" stroke="#8D99AE" stroke-width="7"/>
<circle cx="510" cy="457" r="72" fill="#FDFBFB" stroke="#8D99AE" stroke-width="6"/>
<circle cx="510.5" cy="456.5" r="35" fill="#FDFBFB" stroke="#8D99AE" stroke-width="5"/>
<circle cx="810" cy="457" r="146" fill="#FDFBFB" stroke="#8D99AE" stroke-width="8"/>
<circle cx="810.5" cy="456.5" r="109" fill="#FDFBFB" stroke="#8D99AE" stroke-width="7"/>
<circle cx="810" cy="457" r="72" fill="#FDFBFB" stroke="#8D99AE" stroke-width="6"/>
<circle cx="810.5" cy="456.5" r="35" fill="#FDFBFB" stroke="#8D99AE" stroke-width="5"/>
<circle cx="1110" cy="457" r="146" fill="#FDFBFB" stroke="#8D99AE" stroke-width="8"/>
<circle cx="1110.5" cy="456.5" r="109" fill="#FDFBFB" stroke="#8D99AE" stroke-width="7"/>
<circle cx="1110" cy="457" r="72" fill="#FDFBFB" stroke="#8D99AE" stroke-width="6"/>
<circle cx="1110.5" cy="456.5" r="35" fill="#FDFBFB" stroke="#8D99AE" stroke-width="5"/>
<circle cx="1410" cy="457" r="146" fill="#FDFBFB" stroke="#8D99AE" stroke-width="8"/>
<circle cx="1410.5" cy="456.5" r="109" fill="#FDFBFB" stroke="#8D99AE" stroke-width="7"/>
<circle cx="1410" cy="457" r="72" fill="#FDFBFB" stroke="#8D99AE" stroke-width="6"/>
<circle cx="1410.5" cy="456.5" r="35" fill="#FDFBFB" stroke="#8D99AE" stroke-width="5"/>
<circle cx="1710" cy="457" r="146" fill="#FDFBFB" stroke="#8D99AE" stroke-width="8"/>
<circle cx="1710.5" cy="456.5" r="109" fill="#FDFBFB" stroke="#8D99AE" stroke-width="7"/>
<circle cx="1710" cy="457" r="72" fill="#FDFBFB" stroke="#8D99AE" stroke-width="6"/>
<circle cx="1710.5" cy="456.5" r="35" fill="#FDFBFB" stroke="#8D99AE" stroke-width="5"/>
<circle cx="2010" cy="457" r="146" fill="#FDFBFB" stroke="#8D99AE" stroke-width="8"/>
<circle cx="2010.5" cy="456.5" r="109" fill="#FDFBFB" stroke="#8D99AE" stroke-width="7"/>
<circle cx="60" cy="532" r="146" fill="#FDFBFB" stroke="#8D99AE" stroke-width="8"/>
<circle cx="60.5" cy="531.5" r="109" fill="#FDFBFB" stroke="#8D99AE" stroke-width="7"/>
<circle cx="360" cy="532" r="146" fill="#FDFBFB" stroke="#8D99AE" stroke-width="8"/>
<circle cx="360.5" cy="531.5" r="109" fill="#FDFBFB" stroke="#8D99AE" stroke-width="7"/>
<circle cx="660" cy="532" r="146" fill="#FDFBFB" stroke="#8D99AE" stroke-width="8"/>
<circle cx="660.5" cy="531.5" r="109" fill="#FDFBFB" stroke="#8D99AE" stroke-width="7"/>
<circle cx="960" cy="532" r="146" fill="#FDFBFB" stroke="#8D99AE" stroke-width="8"/>
<circle cx="960.5" cy="531.5" r="109" fill="#FDFBFB" stroke="#8D99AE" stroke-width="7"/>
<circle cx="1260" cy="532" r="146" fill="#FDFBFB" stroke="#8D99AE" stroke-width="8"/>
<circle cx="1260.5" cy="531.5" r="109" fill="#FDFBFB" stroke="#8D99AE" stroke-width="7"/>
<circle cx="1560" cy="532" r="146" fill="#FDFBFB" stroke="#8D99AE" stroke-width="8"/>
<circle cx="1560.5" cy="531.5" r="109" fill="#FDFBFB" stroke="#8D99AE" stroke-width="7"/>
<circle cx="1860" cy="532" r="146" fill="#FDFBFB" stroke="#8D99AE" stroke-width="8"/>
<circle cx="1860.5" cy="531.5" r="109" fill="#FDFBFB" stroke="#8D99AE" stroke-width="7"/>
</g>
<defs>
<linearGradient id="paint0_linear_639_7925" x1="960" y1="0" x2="960" y2="450" gradientUnits="userSpaceOnUse">
<stop offset="0.618818" stop-color="#FDFBFB"/>
<stop offset="1" stop-color="white" stop-opacity="0"/>
</linearGradient>
</defs>
</svg>
