<svg width="1920" height="1346" viewBox="0 0 1920 1346" fill="none" xmlns="http://www.w3.org/2000/svg">
<path d="M-688.346 702.777C-688.628 701.159 -688.919 699.495 -689.202 697.877C-683.913 692.395 -674.957 689.409 -664.198 688.119C-655.754 687.134 -647.236 686.578 -638.998 686.267C-621.347 685.587 -603.251 682.525 -585.722 681.768C-584.869 681.717 -583.937 681.505 -582.979 681.436C-570.908 680.259 -558.949 679.053 -546.878 677.877C-532.369 676.471 -517.844 675.16 -503.352 673.659C-497.747 673.072 -491.961 671.669 -486.611 671.47C-479.87 671.225 -473.34 670.378 -466.611 669.448C-461.143 668.69 -455.403 667.638 -450.226 668.303C-448.793 668.494 -446.702 668.129 -445.022 667.884C-418.775 664.625 -392.529 661.365 -366.283 658.105C-364.49 657.89 -362.63 658.055 -360.916 658.001C-361.412 660.098 -364.497 660.931 -366.671 662.046C-371.125 664.294 -370.784 666.244 -365.385 666.331C-361.394 666.369 -357.059 665.906 -352.917 665.575C-345.581 665.029 -339.602 662.27 -333.046 660.341C-326.796 658.514 -326.017 656.809 -329.834 654.681C-330.189 654.498 -330.344 654.231 -330.845 653.829C-327.605 653.263 -324.671 652.799 -321.857 652.259C-312.067 650.353 -309.469 648.576 -310.347 644.17C-310.471 643.457 -311.022 642.769 -310.616 642.011C-309.908 640.515 -309.547 638.884 -307.84 637.556C-304.987 635.391 -305.061 633.737 -306.325 632.046C-308.725 628.789 -313.508 626.683 -320.713 626.127C-326.726 625.609 -333.204 625.514 -339.666 625.515C-355.293 625.45 -371.096 625.611 -386.827 625.564C-395.984 625.546 -404.237 624.536 -411.457 622.66C-420.257 620.372 -422.391 615.549 -416.877 610.125C-414.852 608.154 -411.845 606.256 -408.934 604.424C-406.032 602.545 -402.135 601.423 -397.872 601.169C-392.007 600.831 -386.777 599.33 -381.614 597.448C-375.246 595.061 -368.957 592.836 -361.7 591.225C-346.446 587.924 -331.354 584.308 -316.124 580.864C-310.427 579.575 -304.557 578.648 -298.747 577.389C-292.317 575.972 -291.146 575.277 -290.817 572.229C-290.403 568.431 -286.88 565.169 -280.194 562.139C-269.623 557.303 -260.084 552.107 -251.723 546.333C-246.922 542.995 -239.968 540.261 -231.571 539.628C-227.324 539.279 -223.086 538.882 -218.872 538.342C-189.378 534.564 -160.179 529.71 -130.979 523.631C-129.629 523.346 -128.262 523.156 -127 522.985C-123.221 522.423 -119.45 521.813 -115.671 521.252C-114.2 521.044 -112.72 520.883 -110.927 520.668C-110.975 522.245 -111.264 523.668 -111.145 524.971C-110.98 527.148 -109.585 527.738 -104.799 527.392C-101.718 527.149 -98.5664 526.696 -95.4063 526.291C-86.6743 525.11 -77.9503 523.88 -69.1053 522.728C-40.7854 519.008 -12.6 515.753 15.7048 510.712C19.2579 510.092 22.9655 509.738 26.3928 509.63C31.6548 509.545 34.5915 510.944 35.4332 513.297C36.0126 514.764 34.7155 515.971 31.6801 517.089C20.0439 521.376 8.4162 525.711 -3.09877 530.075C-8.55107 532.154 -8.65004 534.671 -3.34291 535.46C-0.468142 535.89 2.67064 535.979 5.64173 536.343C9.49888 536.845 13.666 536.657 17.9259 535.766C23.327 534.627 28.2089 534.215 32.2239 535.622C36.2644 532.858 41.6772 532.403 46.7434 531.812C64.5879 529.775 82.1577 526.167 99.5403 522.102C115.38 518.454 131.171 514.52 147.06 511.157C176.139 505.001 205.277 499.177 234.381 493.163C248.1 490.326 261.884 487.233 275.579 484.253C276.929 483.969 278.238 483.446 279.764 482.934C269.526 481.045 259.828 479.161 250.05 477.437C242.938 476.179 235.834 474.968 228.546 473.937C225.123 473.456 221.157 473.56 220.75 471.229C220.634 470.563 218.636 470.226 217.475 469.743C214.693 468.611 211.614 467.629 209.241 466.376C206.505 464.893 202.882 464.496 198.493 465.263C194.73 465.92 190.792 466.804 187.556 468.006C152.928 480.622 116.438 491.21 79.381 501.014C76.8099 501.708 74.126 502.373 71.5049 502.782C70.347 502.935 68.8721 502.506 68.1537 502.092C67.7988 501.909 68.9116 500.882 69.6977 500.45C72.788 499.028 75.87 497.559 79.3151 496.32C110.143 484.76 142.394 474.569 174.378 464.082C178.861 462.613 183.23 461.114 187.904 459.514C185.62 458.148 183.819 457.09 181.915 456.05C180.357 455.145 178.376 454.903 175.216 455.308C167.947 456.234 161.237 457.896 154.409 460.118C144.12 463.483 133.192 466.274 122.514 469.266C120.361 469.887 118.175 470.318 116.005 470.844C104.224 473.685 92.3305 476.498 80.558 479.387C72.1927 481.436 63.9485 483.562 55.3374 484.82C63.1684 482.178 71.0162 479.631 79.2521 477.458C100.649 471.712 122.192 466.185 143.597 460.486C151.728 458.331 159.834 456.033 167.949 453.783C168.012 453.526 168.075 453.27 168.034 453.033C164.991 452.877 161.949 452.723 158.898 452.52C153.891 452.218 149.077 451.784 145.672 450.173C144.615 449.671 143.454 449.187 142.004 448.901C139.322 448.34 137.868 447.418 137.385 445.884C137.064 444.666 137.234 443.166 133.828 442.78C132.08 443.87 130.436 444.941 128.671 445.935C125.622 447.595 122.178 447.608 119.199 447.197C117.878 447.036 116.675 446.314 116.559 445.648C116.315 443.632 123.438 438.172 127.72 436.788C132.515 435.264 137.795 434.048 141.993 432.187C147.789 429.606 153.88 428.102 160.53 427.332C177.635 425.375 194.383 424.46 210.997 424.01C218.39 423.797 222.873 425.417 223.471 428.842C223.837 430.935 222.844 433.265 222.156 435.493C221.95 436.166 221.03 437.062 219.955 437.691C213.159 441.329 206.38 445.062 196.766 446.741C192.481 447.489 188.279 448.713 183.522 449.838C186.307 452.832 188.309 455.668 194.368 457.061C201.827 454.141 209.287 451.221 216.738 448.253C219.355 447.208 220.339 446.056 219.245 444.727C217.05 442.022 217.129 441.861 223.066 440.089C236.57 436.015 250.195 432.018 263.821 428.021C272.939 425.35 282.52 423.481 291.33 420.276C298.823 417.546 307.245 417.056 315.01 417.121C320.297 417.178 323.171 418.834 322.274 421.098C321.226 423.732 318.431 426.23 313.452 427.933C300.537 432.296 287.388 436.553 274.23 440.762C258.518 445.761 242.782 450.617 226.94 455.491C223.566 456.522 220.055 457.38 216.802 458.487C211.212 460.395 210.721 461.902 215.242 463.122C221.463 464.83 228.069 466.275 234.387 467.917C239.342 469.159 244.313 468.634 249.949 466.376C262.138 461.551 274.447 456.803 286.652 452.074C294.722 448.949 301.525 445.359 307.619 441.403C310.33 439.655 313.136 437.841 316.193 436.229C320.534 433.951 323.389 433.649 327.37 434.865C331.682 436.122 332.374 437.619 328.727 440.168C326.234 441.927 322.976 443.623 319.798 445.158C310.569 449.662 300.234 453.379 289.397 456.693C277.645 460.314 265.65 463.781 253.768 467.277C251.205 468.019 248.901 469.01 249.117 470.246C249.242 470.96 250.967 471.59 252.417 471.876C262.179 473.505 271.932 475.086 281.877 476.536C287.74 477.424 293.971 477.953 299.746 478.955C305.964 480.026 312.455 479.579 319.608 477.986C334.854 474.638 350.117 471.384 365.388 468.178C382.741 464.56 400.127 461.131 417.342 457.341C434.348 453.587 451.412 450.166 468.852 447.66C479.36 446.168 489.891 444.182 500.25 441.834C524.087 436.494 547.761 430.841 571.444 425.234C590.369 420.753 609.199 416.338 627.986 411.684C643.471 407.853 658.768 403.564 674.253 399.732C701.607 392.946 728.701 385.91 754.661 377.308C769.625 372.342 784.484 367.395 799.473 362.571C810.589 359.012 822.156 356.796 833.901 356.216C836.999 356.067 839.995 356.573 842.765 357.021C845.206 357.428 845.509 358.552 843.698 359.897C842.368 360.914 840.595 361.861 839.369 362.859C838.704 363.368 838.603 364.023 837.82 365.091C840.713 364.389 842.57 363.918 845.149 363.272C840.802 367.364 834.885 369.868 826.814 371.13C795.442 375.873 765.859 384.079 736.643 393.151C694.872 406.181 653.919 420.195 610.699 431.713C606.585 432.824 602.475 434.571 599.129 436.381C596.08 438.041 592.828 439.148 589.124 440.138C572.025 444.594 554.822 449.069 537.723 453.526C522.062 457.584 506.522 461.719 490.854 465.73C489.102 466.183 486.176 466.694 485.257 466.364C481.338 464.892 476.789 465.98 472.12 466.991C443.621 473.389 415.048 479.36 386.067 484.224C382.296 484.834 378.592 485.824 375.064 486.587C374.398 488.321 372.565 490.161 376.205 490.653C381.608 491.376 386.923 492.212 393.716 491.026C408.966 488.314 424.111 485.62 438.473 480.907C440.914 480.088 444.572 479.449 446.866 479.637C450.247 479.88 453.27 479.303 456.589 478.576C465.799 476.429 475.129 474.358 484.339 472.211C487.345 471.539 489.773 471.262 492.376 471.984C494.302 472.53 497.571 472.743 500.2 472.382C513.643 470.427 527.183 468.406 540.559 466.07C576.196 459.847 611.595 452.881 646.807 445.457C660.728 442.536 674.778 439.739 688.665 436.628C717.573 430.109 746.352 423.466 775.235 416.805C791.276 413.072 807.325 409.387 823.324 405.417C840.351 401.169 857.095 396.529 874.131 392.329C889.833 388.509 905.707 385.05 921.205 380.677C960.821 369.494 1000.58 358.531 1040.32 347.425C1047.2 345.489 1053.9 344.416 1060.66 344.854C1065.78 345.186 1071.06 344.606 1076.54 343.306C1089.57 340.198 1102.8 338.279 1116.05 337.044C1119.12 336.753 1122.24 336.747 1124.88 337.023C1129.91 337.515 1135.03 337.21 1140.5 335.862C1160.64 330.924 1180.78 325.986 1200.8 321.018C1208.65 319.061 1216.23 316.854 1223.49 314.018C1232.05 310.611 1240.94 307.245 1250.01 304.336C1270.53 297.862 1291.3 291.588 1312.06 285.315C1337.54 277.631 1359.89 268.138 1377.96 256.258C1384.04 252.207 1389.65 247.991 1395.4 243.899C1396.83 242.864 1398.49 241.84 1400.23 240.703C1403.51 242.237 1402.42 243.997 1400.34 245.683C1396.3 249.036 1392.48 252.448 1387.51 255.472C1379.24 260.544 1370.2 265.505 1361.24 270.305C1352.18 275.171 1341.94 279.411 1330.73 283.036C1329.51 283.445 1327.95 283.814 1327.19 284.388C1326.24 285.094 1324.95 286.349 1325.45 286.751C1326.2 287.308 1328.38 287.466 1330.11 287.507C1331.19 287.515 1332.69 286.861 1333.92 286.499C1339.65 284.811 1345.25 282.951 1351.13 281.483C1373.74 275.868 1395.4 269.193 1415.12 260.603C1421.72 257.734 1429.47 255.842 1437.14 255.384C1443 254.999 1448.86 255.25 1454.21 255.688C1461.43 256.291 1468.58 255.924 1476.4 253.824C1486.26 251.121 1496.14 248.465 1506.01 245.809C1525.87 240.479 1545.72 235.149 1565.7 229.944C1569.51 228.936 1573.64 228.509 1577.72 227.845C1583.47 226.842 1589.5 226.229 1594.96 224.787C1603.81 222.456 1612.37 219.639 1620.94 216.916C1650.13 207.701 1679.34 198.629 1706.25 187.411C1714.18 184.114 1721.7 180.301 1728.44 176.378C1738.13 170.813 1750.1 170.291 1754.17 175.708C1755.99 178.088 1757.45 178.469 1763.39 177.333C1776.93 174.675 1790.77 172.504 1803.87 168.599C1820.24 163.681 1836.96 159.488 1853.96 155.733C1866.51 152.954 1878.83 149.528 1891.49 146.778C1898.44 145.27 1905.81 144.278 1912.89 143.531C1919.03 142.9 1924.34 143.737 1925.99 146.39C1927.65 149.091 1927.86 152.143 1922.61 155.364C1919.59 157.214 1916.9 159.105 1914.33 161.025C1907.49 166.24 1899.13 170.788 1889.39 174.841C1882.86 177.55 1876.11 180.199 1869.58 182.908C1859.14 187.232 1848.45 191.402 1838.47 195.939C1821.01 203.842 1802.86 210.932 1781.82 215.636C1780.26 215.957 1778.39 216.333 1777.52 216.926C1773.39 219.756 1767.68 220.997 1762.15 222.601C1732.12 231.373 1702.1 240.146 1672.22 249.09C1668.22 250.277 1664.71 252.361 1661.36 254.124C1659.87 254.873 1659.2 255.97 1657.89 257.082C1654.05 254.812 1654.35 254.073 1658.7 251.843C1661.06 250.596 1664.55 249.595 1665.3 247.7C1658.3 248.334 1655.97 249.182 1652.16 252.005C1646.42 256.144 1644.35 260.329 1644.22 264.518C1644.13 267.72 1642.09 270.822 1637.87 273.813C1630.21 279.269 1621.97 284.531 1611.21 288.862C1610.1 289.3 1609.11 289.816 1608.12 290.284C1612.46 294.182 1616.73 294.565 1626.17 291.887C1637.97 288.551 1649.77 285.216 1661.33 281.727C1685.47 274.423 1709.5 267.09 1733.4 259.632C1748.51 254.933 1763.37 249.938 1778.34 245.019C1783.12 243.448 1788.04 242.001 1792.7 240.306C1811.72 233.307 1831.27 226.854 1848.66 218.475C1867.24 209.592 1889.88 204.757 1912.17 200.424C1918.52 199.215 1925.14 198.845 1931.53 198.463C1937.5 198.107 1940.79 199.69 1941.37 202.383C1941.99 205.314 1940.7 208.431 1935.92 211.275C1928.01 215.893 1919.98 220.529 1911.38 224.924C1903.67 228.868 1896.06 232.795 1889.74 237.281C1886.29 239.698 1882.16 241.987 1876.81 243.412C1868.16 245.658 1861.76 249.128 1855.38 252.645C1853.9 253.442 1852.89 254.452 1851.76 255.384C1849.61 257.231 1847.69 259.184 1845.32 261.02C1841.16 264.344 1843.83 267.898 1850.88 267.597C1856.33 267.38 1862.03 266.68 1867.6 265.903C1880.94 263.966 1892.32 260.067 1902.12 254.531C1903.59 253.687 1905.28 252.901 1906.99 252.163C1919.03 247.118 1932.21 243.641 1946.08 241.708C1967.22 238.801 1979.33 241.539 1985.47 250.173C1985.76 250.612 1986.06 251.099 1986.46 251.52C1988.04 253.204 1990.03 253.446 1994.26 252.413C1999.64 251.131 2004.14 249.168 2008.39 247.003C2012.94 244.689 2017.6 242.357 2022.75 240.427C2029.32 237.957 2036.52 236.013 2043.22 233.667C2055.51 229.461 2066.96 229.03 2077.98 230.44C2079.74 230.671 2081.16 231.404 2082.16 232.162C2083.5 233.055 2084.43 234.069 2085.26 235.149C2085.69 235.76 2085.93 236.503 2085.72 237.176C2083.82 242.312 2079.72 247.195 2072 251.729C2068.68 253.682 2065.02 254.909 2060.47 255.361C2058.67 255.529 2056.96 255.63 2055.16 255.798C2041.42 257.314 2029.43 266.321 2034.44 272.21C2036.29 271.055 2038.28 270.119 2039.38 269.044C2040.3 268.148 2040.34 267.112 2040.81 266.147C2041.99 263.637 2043.39 263.001 2049.93 262.25C2044.17 266.247 2045.51 269.003 2050.85 271.208C2052.47 271.856 2053.44 273.108 2053.65 274.297C2054.63 279.91 2053.81 282.014 2039.75 282.9C2039.55 282.937 2039.33 282.926 2039.12 282.962C2026.17 283.41 2016.83 287.296 2009.64 293.012C2006.05 295.846 2005.34 298.568 2006.98 301.174C2008.05 302.996 2012.54 302.212 2014.12 300.76C2015.24 299.78 2015.68 298.623 2015.83 297.617C2016.01 296.801 2015.34 296.036 2015.2 295.228C2014.96 293.259 2018.21 292.104 2021.26 291.081C2024.21 290.076 2027.31 289.338 2029.21 290.968C2028.55 291.523 2027.89 292.032 2027.33 292.569C2021.56 297.744 2025.19 301.229 2035.9 300.926C2037.4 300.861 2039 300.778 2040.58 300.599C2046.37 299.833 2052.29 299.192 2058.04 298.188C2065.88 296.819 2072 297.367 2077.36 299.078C2082.14 300.548 2082.34 301.689 2078.34 304.644C2074.34 307.646 2069.18 310.165 2063.44 312.49C2057.41 314.917 2051.49 317.42 2045.59 320.019C2030.69 326.592 2015.41 332.838 1999.29 338.594C1989.15 342.179 1979.03 345.907 1969.13 349.646C1966 350.83 1963.03 352.329 1960.6 353.832C1955.06 357.25 1954.75 357.353 1948.5 356.044C1944.24 355.12 1943.62 354.004 1947.56 351.894C1950.91 350.132 1954.92 348.45 1959.02 347.245C1970.68 343.69 1981.04 339.527 1989.58 334.163C1992 332.612 1994.19 330.956 1996.06 329.306C1996.8 328.637 1997.01 327.375 1996.3 327.009C1995.48 326.613 1993.16 326.919 1991.47 327.116C1990.41 327.204 1989.3 327.595 1988.28 327.92C1973.38 332.63 1958.46 337.245 1943.79 342.061C1936.35 344.487 1929.88 347.481 1928.71 351.901C1928.58 352.365 1926.63 352.95 1925.43 353.454C1925.01 352.89 1923.84 352.359 1924.17 351.811C1926.63 347.999 1928.54 344.136 1938.17 341.916C1941.28 341.225 1943.81 339.704 1943.59 337.831C1928.76 339.833 1914.68 347.39 1914.28 353.782C1914.03 357.847 1915.45 361.715 1916.1 365.426C1919.57 365.555 1922.49 365.634 1925.33 365.825C1936.98 366.584 1948.96 365.473 1961.51 362.741C1970.54 360.773 1979.74 359.215 1988.94 357.609C1994.27 356.678 1999.14 356.808 2003.57 357.505C2010.11 358.569 2011.67 361.384 2008.11 365.045C2007.29 365.875 2005.93 366.701 2005.1 367.532C2003.55 369.126 2002 370.721 2000.77 372.308C1999.98 373.376 1999.75 374.496 1999.08 375.593C1996.77 379.035 1993.89 380.421 1986.97 380.894C1981.76 381.265 1977.36 382.573 1972.66 384.031C1965.1 386.38 1957.53 388.682 1949.71 390.735C1940.54 393.12 1931.73 395.736 1923.63 399.26C1912.81 403.942 1901.15 408.086 1888.68 411.294C1881.67 413.105 1875.19 414.189 1869.74 411.955C1866.49 410.658 1861.69 410.909 1856.72 412.023C1853.92 412.658 1851.85 413.755 1851.95 414.962C1852.08 418.175 1852.42 421.351 1853.18 424.454C1853.58 426.148 1856.31 426.947 1860.37 426.777C1865.18 426.574 1869.91 426.532 1874.83 426.311C1896.84 425.311 1918.45 422.027 1939.82 415.549C1950.98 412.18 1962.5 409.09 1973.91 405.97C1986.45 402.554 1999.31 399.721 2012.5 398.79C2018.25 398.423 2023.66 397.331 2028.99 395.764C2060.58 386.718 2092.4 377.778 2123.86 368.608C2135.34 365.279 2146.29 361.358 2157.36 357.561C2161.02 356.333 2164.06 354.626 2167.59 353.226C2173.43 350.883 2179.75 348.848 2185.34 346.351C2194.94 342.126 2204.07 337.64 2213.43 333.308C2216.23 332.036 2219.01 330.716 2222.07 329.741C2225.54 328.597 2231.28 328.819 2232.23 329.928C2233.59 331.553 2230.57 332.767 2228.21 334.061C2227.92 334.258 2227.52 334.427 2227.12 334.595C2216.78 339.537 2206.68 344.586 2196.21 349.404C2185.55 354.306 2177.7 360.53 2164.91 364.381C2163.48 364.827 2162.43 365.598 2161.02 366.187C2150.92 370.646 2141.68 375.692 2130.01 379.152C2121.92 381.545 2114.23 384.359 2106.26 386.829C2094.3 390.534 2082.24 394.21 2070.03 397.666C2059.25 400.724 2048.7 403.84 2038.97 407.941C2036.86 408.8 2034.53 409.648 2032.15 410.163C2027.69 411.138 2024.29 412.662 2021.06 414.501C2016.94 416.838 2012.83 419.174 2008.72 421.558C2007.36 422.384 2006.22 423.269 2004.98 424.172C2005.79 424.52 2006.28 424.875 2006.6 424.821C2011.07 423.893 2014.74 424.575 2018.72 424.566C2025.07 424.536 2031.56 424.089 2037.93 422.339C2043.28 420.867 2048.36 419.145 2053.55 417.406C2066.58 413.072 2079.61 408.738 2092.5 404.28C2108.25 398.835 2123.71 393.046 2139.6 387.82C2152.53 383.552 2165.46 381.736 2176.86 384.745C2182.62 386.24 2183.15 387.422 2179.71 391.16C2175.09 396.182 2167.95 400.321 2159.01 403.99C2148.56 408.314 2138.46 412.774 2128.37 417.281C2118.89 421.536 2109.42 425.886 2100.16 430.247C2096.18 432.119 2091.99 434.027 2088.7 436.17C2086 437.965 2084.33 440.119 2082.85 442.142C2082.34 442.87 2083.38 443.913 2084.53 444.349C2086.15 444.998 2088.05 444.128 2089.83 443.228C2095.77 440.23 2102.28 439.289 2108.76 440.02C2116.56 440.913 2118.42 444.755 2112.87 448.763C2110.96 450.127 2108.15 451.304 2105.54 452.397C2100.31 454.535 2094.85 456.567 2089.62 458.658C2087.1 459.685 2084.29 460.862 2085.64 462.392C2086.96 463.827 2090.04 462.946 2092.63 462.348C2096.14 461.489 2099.53 460.554 2103.03 459.648C2110.14 457.77 2114.24 458.427 2115.56 461.677C2116.85 464.784 2114.17 467.9 2109.17 470.734C2106.14 472.489 2102.68 474.269 2098.95 475.705C2090.87 478.783 2087.26 482.158 2088.82 486.199C2088.86 486.389 2089.1 486.543 2089.37 486.839C2093.19 487.152 2096.81 486.275 2100.52 484.696C2105.54 482.642 2110.7 480.712 2115.98 478.907C2123.19 476.422 2130.56 474.204 2137.67 471.738C2146.9 468.507 2156.56 465.84 2166.51 463.613C2171.8 462.444 2177.27 461.685 2182.63 460.945C2187.15 460.303 2190.4 461.01 2191.42 462.548C2192.6 464.4 2189.96 465.939 2186.87 467.313C2183.46 468.79 2179.82 470.113 2176.29 471.513C2174.48 472.222 2172.78 473.008 2170.98 473.764C2173.68 473.831 2176.06 473.269 2178.01 473.321C2181.36 473.421 2183.94 472.775 2186.85 471.532C2191.26 469.683 2195.79 469.088 2200.04 470.012C2202.96 470.679 2205.9 470.263 2209.5 469.244C2214.63 467.808 2220.06 466.812 2225.36 465.738C2228.7 465.107 2232.03 465.064 2233.04 466.554C2234.61 468.732 2238.33 468.473 2242.6 467.63C2246.14 466.914 2249.63 465.961 2253.04 465.121C2255.41 464.511 2257.76 463.806 2260.16 463.338C2266.21 462.232 2269.43 462.797 2271.46 465.14C2272.26 466.029 2272.55 467.058 2273.44 467.881C2274.98 469.28 2276.62 469.434 2280.41 468.283C2284.19 467.132 2287.96 465.934 2291.51 464.629C2306.98 458.887 2322.21 452.992 2337.82 447.423C2344.01 445.215 2351.06 443.641 2357.73 441.789C2358.96 441.428 2360.3 441.095 2361.64 440.715C2365.25 439.791 2368.9 438.516 2372.57 437.972C2389.46 435.367 2401.02 429.426 2410.53 422.226C2413.29 420.127 2412.94 418.718 2410.22 417.377C2408.33 416.385 2405.79 416.044 2402.49 416.229C2390.53 416.846 2378.75 419.051 2367.22 422.093C2360.73 423.814 2354.27 425.63 2347.79 427.398C2345.22 428.092 2343.37 427.974 2342.33 426.978C2341.42 426.06 2342.22 425.087 2344.24 424.341C2347.36 423.109 2350.47 421.783 2353.85 420.8C2363.58 417.924 2373.41 414.983 2383.4 412.404C2393.81 409.705 2404.32 406.987 2414.94 404.935C2427.97 402.416 2437.11 404.202 2441.73 409.082C2443.96 411.388 2442.98 413.766 2439.57 416.421C2436.42 418.783 2433.28 421.145 2430.46 423.5C2426.43 426.901 2421.57 429.907 2415.6 432.714C2407.24 436.673 2399.49 441.017 2393.55 445.83C2391.1 447.826 2388.41 449.128 2383.82 449.978C2377.88 451.066 2373.41 453.267 2371.59 456.38C2370 459.01 2371.74 460.324 2376.75 460.626C2378.27 460.704 2380.03 460.935 2380.87 461.426C2385.38 463.824 2386.69 463.938 2393.94 461.644C2401.69 459.163 2409.32 456.605 2416.96 454.094C2421.55 452.607 2422.73 452.597 2425.36 454.098C2426.31 454.618 2427.07 455.27 2427.95 455.951C2427.18 456.477 2426.71 456.901 2425.91 457.238C2413.71 462.015 2401.92 467.26 2389.08 471.415C2374.2 476.267 2360.78 482.043 2346.14 487.049C2342.59 488.259 2339.53 489.234 2335.34 489.328C2327.95 489.54 2322.57 492.637 2322.68 496.391C2325.78 496.879 2329.3 496.021 2332.39 495.236C2350.02 490.735 2367.67 486.378 2384.2 480.501C2386.94 479.533 2389.44 479.048 2391.53 479.908C2393.62 480.769 2393.1 482.134 2390.95 483.391C2387.72 485.23 2384.16 487.029 2380.58 488.733C2375.62 491.167 2369.64 493.338 2365.59 496.007C2357.08 501.562 2347.23 506.223 2335.62 510.016C2308.01 519.052 2280.94 528.682 2252.55 536.972C2245.79 538.937 2244.21 542.204 2249.43 543.743C2251.13 544.23 2253.65 544.477 2255.97 544.218C2261.27 543.733 2265.24 544.266 2268.89 545.442C2278.04 548.454 2289.28 548.107 2301.71 545.251C2310.51 543.224 2319.13 540.788 2327.94 538.856C2332.93 537.789 2338.56 536.756 2343.1 536.846C2350.13 536.992 2356.42 536.04 2363.4 534.038C2374.88 530.757 2386.58 527.44 2398.37 524.646C2406.13 522.801 2414.42 521.55 2422.34 520.657C2430.15 519.782 2432.47 521.338 2430.65 525.088C2428.82 528.79 2426.55 532.47 2424.08 536.186C2423.31 537.349 2421.85 538.831 2419.92 539.51C2413.14 542.017 2408.33 545.261 2402.7 548.204C2401.22 549.001 2399.17 549.556 2397.34 550.218C2386.99 553.839 2376.41 557.402 2366.19 561.148C2352.12 566.301 2338.32 571.751 2323.21 575.86C2318.68 577.091 2314.17 578.37 2309.62 579.459C2304.24 580.74 2299.38 580.658 2295.21 579.573C2290.02 578.224 2289.53 576.054 2294.54 573.268C2298.37 571.177 2302.65 569.156 2307.33 567.555C2319.01 563.553 2330.94 559.706 2342.9 556.048C2360.37 550.644 2376.56 544.043 2394.4 538.917C2398.19 537.814 2401.23 535.47 2404.24 533.572C2405.02 533.093 2404.43 532.215 2404.37 531.245C2390.16 533.727 2376.46 535.481 2363.38 539.482C2356.43 541.627 2348.34 543.383 2344.91 547.806C2344.12 548.826 2341.39 549.842 2339.28 550.749C2336.68 551.889 2333.73 552.894 2331.13 554.034C2324.53 556.904 2317.57 559.638 2311.43 562.72C2304.9 566.017 2297.93 568.656 2289.88 570.65C2288.43 571.001 2287 571.399 2285.35 571.834C2285.88 574.878 2286.07 577.787 2286.97 580.521C2287.95 583.635 2291.52 586.198 2289.69 589.9C2295.54 590.104 2301.06 589.63 2306.71 588.692C2308.9 588.309 2311.32 587.937 2313.26 587.989C2317.16 588.093 2318.31 589.755 2315.47 591.378C2310.95 593.883 2309.04 596.472 2308.01 599.249C2307.36 601.031 2305.5 602.728 2301.99 603.586C2293.73 605.664 2287.72 608.871 2281.75 612.267C2277.43 614.688 2272.44 616.343 2266.39 616.812C2260.33 617.282 2258.65 618.115 2257.85 620.951C2257.5 622.041 2257.78 623.022 2257.86 624.086C2257.98 626.026 2258.21 627.947 2258.42 630.362C2259.94 630.439 2262.28 630.912 2264.82 630.665C2268.53 630.311 2272.42 629.779 2276.04 628.902C2285.02 626.696 2293.75 624.241 2302.71 621.892C2307.96 620.533 2309.98 620.966 2309.36 623.622C2308.95 625.557 2308 627.536 2306.83 629.457C2304.64 632.976 2300.1 635.927 2293.29 638.291C2285.07 641.149 2277.33 644.314 2269.1 647.124C2260.26 650.187 2251.4 653.106 2242.29 655.825C2236.56 657.513 2230.88 658.945 2226.3 661.705C2223.87 663.16 2220.2 664.341 2216.93 665.353C2212.53 666.708 2207.87 667.767 2203.36 669.094C2198.14 670.643 2192.82 672.21 2187.76 674.074C2180.98 676.581 2174.72 679.586 2167.7 681.939C2150.62 687.717 2133.14 693.121 2115.95 698.869C2092.65 706.711 2067.93 713.136 2045.29 721.601C2041.75 722.953 2037.71 723.855 2033.93 725.053C2026.38 727.403 2018.82 729.752 2011.38 732.179C1998.43 736.352 1986.01 741.07 1972.23 744.211C1962.71 746.413 1954.07 749.344 1948.17 753.805C1944.35 756.628 1939.51 758.503 1933.77 760.143C1923.5 763.015 1913.13 765.905 1902.87 768.824C1887.28 773.31 1871.29 777.328 1856.77 782.953C1855.55 783.41 1854.47 783.991 1853.27 784.543C1856.09 784.639 1858.5 784.267 1860.89 783.752C1871.05 781.488 1881.2 779.176 1891.37 776.96C1897.07 775.718 1902.92 774.649 1908.65 773.55C1909.69 773.367 1910.89 773.452 1912.93 773.391C1899.43 779.964 1884.31 784.026 1869.26 788.516C1871.68 790.006 1874.48 789.419 1877.48 788.699C1891.75 785.324 1906.02 781.95 1920.3 778.623C1923.82 777.812 1927.38 777.191 1931.04 776.6C1932.09 776.418 1933.84 776.601 1934.13 776.993C1934.41 777.385 1933.7 778.244 1932.82 778.789C1931.76 779.465 1930.34 780.006 1928.92 780.5C1922.92 782.48 1916.91 784.461 1910.76 786.269C1897.75 790.062 1884.71 793.711 1871.68 797.456C1866.35 798.976 1861.37 800.679 1855.64 801.778C1851.89 802.53 1847.28 803.874 1845.35 806.369C1850.36 805.493 1854.93 804.5 1859.57 803.934C1866.42 803.081 1872.81 801.427 1879.28 799.658C1887.51 797.437 1895.72 795.121 1904.16 793.5C1915.83 791.266 1927.21 788.592 1938.43 785.604C1941.11 784.892 1943.96 784.59 1947.3 784.006C1946.94 785.001 1947.06 785.714 1946.47 786.014C1944.79 786.847 1942.79 787.736 1940.73 788.291C1934.99 789.979 1929 791.418 1923.38 793.135C1916.02 795.401 1908.93 797.962 1901.56 800.18C1887.65 804.375 1873.77 808.759 1859.03 811.969C1852.71 813.368 1846.47 815.29 1840.34 817.146C1829.69 820.328 1819.42 823.789 1808.64 826.799C1778.14 835.311 1747.64 843.823 1719.52 854.861C1716.2 856.177 1712.85 857.35 1708.65 857.348C1707.25 857.348 1704.31 858.4 1703.77 859.033C1702.89 860.119 1703 861.374 1703.49 862.319C1704.21 863.369 1706.66 863.235 1709.04 862.672C1717.61 860.587 1723.81 861.515 1729.04 863.738C1730.32 864.299 1731.7 864.793 1733.08 865.288C1737.81 867.061 1740.2 869.682 1739.81 872.986C1739.45 875.843 1738.55 878.744 1737.35 881.7C1736.32 884.429 1734.64 887.173 1733.39 889.843C1731.58 893.688 1732.9 894.486 1740.55 893.249C1746.1 892.33 1751.7 891.106 1757.05 889.682C1765.49 887.472 1773.78 884.947 1782.09 882.612C1833.65 868.266 1885.23 854.062 1936.65 839.544C1962.1 832.354 1987.12 824.505 2012.42 817.096C2016.32 815.974 2020.73 815.351 2024.93 814.716C2027.13 814.38 2029.29 814.396 2030.04 815.636C2030.69 816.848 2029.9 817.916 2027.94 818.994C2021.94 822.248 2015.55 825.129 2007.85 827.306C2000.76 829.279 1993.7 831.394 1987.13 833.818C1976.2 837.834 1964.85 840.698 1952.76 842.368C1942.14 843.878 1931.75 846.036 1921.6 848.937C1888.68 858.411 1855.86 867.818 1823.09 877.464C1807 882.184 1790 885.938 1774.61 891.566C1773.19 892.06 1771.51 892.304 1770.07 892.702C1759.05 895.606 1748.04 898.51 1737.02 901.415C1730.95 903.015 1724.96 904.501 1718.87 906.006C1716.39 906.587 1714.09 907.036 1713.57 908.989C1727.09 905.6 1740.09 902.349 1753.09 899.05C1765.98 895.818 1778.78 892.651 1791.67 889.371C1804.46 886.109 1817.22 882.752 1829.9 879.461C1830.15 879.662 1830.3 879.929 1830.55 880.131C1828.54 880.924 1826.66 881.889 1824.51 882.51C1817.96 884.487 1811.3 886.434 1804.73 888.268C1785.83 893.529 1766.92 898.742 1748.02 903.955C1733.23 908.058 1718.3 911.988 1703.53 916.233C1697.89 917.856 1692.82 920.261 1687.46 922.275C1682.31 924.204 1677.19 926.324 1671.77 928.005C1658.59 932.072 1644.71 934.642 1630.84 937.212C1618.53 939.46 1606.19 941.614 1594.04 944.177C1584.18 946.291 1574.07 948.204 1565.29 952.189C1563.49 952.993 1561.11 953.555 1558.94 954.081C1540.94 958.303 1522.94 962.525 1504.81 966.623C1483.68 971.44 1462.4 975.989 1441.93 982.113C1439.88 982.716 1437.4 983.344 1435.93 984.189C1432.9 985.944 1430.23 987.882 1427.53 989.725C1421.2 994.164 1415.23 995.746 1406.21 995.262C1402.08 995.052 1398.02 994.633 1394.26 994.064C1388.85 993.294 1383.17 993.452 1376.91 994.595C1369.49 995.891 1362.15 997.073 1354.76 998.511C1350.06 999.38 1345.26 1000.27 1340.98 1001.65C1333.75 1003.99 1326.24 1005.4 1318.63 1006.83C1315.28 1007.41 1311.98 1008.24 1308.65 1008.92C1301.59 1010.39 1294.48 1012.22 1287.33 1013.23C1268.08 1015.85 1249.35 1019.61 1230.64 1024.11C1220.62 1026.54 1210.5 1029 1200.48 1031.43C1198.31 1031.96 1196.01 1032.41 1193.98 1033.11C1189.92 1034.5 1185.72 1035.14 1181.45 1035.34C1171.96 1035.87 1162.68 1037.64 1153.36 1039.76C1146.52 1041.3 1139.62 1042.5 1132.61 1043.68C1127.69 1044.49 1122.71 1044.92 1117.78 1045.68C1098.72 1048.76 1079.7 1052.08 1060.6 1054.98C1049.27 1056.71 1038.91 1059.01 1030.05 1063.79C1028.08 1064.87 1025.42 1065.68 1023.11 1066.62C1019.04 1067.33 1015.06 1068.03 1010.99 1068.74C1008.47 1067.9 1005.53 1068.96 1002.82 1069.43C996.338 1070.56 989.803 1072 983.362 1072.73C974.693 1073.66 966.02 1073.94 957.326 1074.73C949.798 1075.4 942.045 1076.02 934.633 1077.37C929.311 1078.34 925.57 1078.51 922.543 1076.59C917.955 1079.3 912.947 1080.22 907.346 1080.22C900.024 1080.22 892.542 1080.55 885.149 1080.76C882.365 1080.86 879.477 1080.97 876.597 1081.13C873.178 1081.28 869.621 1081.27 866.156 1081.78C843.901 1085.07 821.767 1088.45 799.529 1091.84C793.233 1092.79 789.662 1094.54 787.49 1097.52C785.581 1100.16 778.244 1101.93 775.145 1100.22C772.175 1098.63 768.668 1098.9 764.166 1099.63C753.369 1101.32 742.643 1102.8 731.917 1104.29C723.402 1105.48 714.845 1106.43 706.322 1107.58C697.277 1108.81 688.419 1110.51 679.806 1112.99C672.423 1115.12 668.423 1115.03 664.84 1113.01C669.175 1111.32 671.466 1110.87 677.674 1110.03C688.191 1108.59 698.829 1107.22 709.271 1105.35C726.297 1102.33 743.186 1099.13 760.324 1097.36C763.396 1097.07 766.071 1096.36 766.638 1094.06C763.821 1093.96 761.084 1093.7 758.091 1093.83C751.897 1094.13 745.569 1094.89 739.462 1095.08C724.587 1095.61 709.607 1096.17 694.275 1098.41C683.983 1099.91 673.97 1099.31 663.561 1101.37C662.106 1101.67 660.56 1101.45 658.959 1101.54C648.025 1101.83 637.188 1102.05 625.75 1104.39C612.231 1107.15 598.549 1109.58 585.046 1112.43C574.035 1114.75 562.581 1116.99 554.379 1122.44C555.063 1123.89 558.126 1123.56 560.58 1123.42C570.578 1122.7 580.559 1121.89 590.524 1120.99C594.232 1120.63 597.538 1120.45 600.191 1121.45C603.997 1122.9 608.899 1123.22 614.504 1122.63C618.525 1122.22 622.617 1121.61 626.589 1120.91C636.308 1119.22 645.934 1118.22 655.141 1118.53C661.314 1118.72 667.621 1118.45 674.159 1117.66C676.161 1117.4 678.188 1117.3 680.127 1117.3C681.206 1117.31 682.02 1117.66 683.019 1117.82C682.45 1118.27 682.178 1118.56 681.865 1118.61C680.836 1118.89 679.712 1119.24 678.65 1119.32C669.626 1120.07 660.713 1122.06 651.888 1123.95C648.778 1124.64 645.617 1125.04 642.457 1125.45C634.44 1126.41 626.31 1127.33 618.26 1128.1C595.918 1130.29 573.631 1132.17 551.339 1134.64C524.182 1137.62 497.39 1139.6 470.619 1141.09C459.952 1141.68 453.618 1139.94 451.42 1135.37C450.899 1134.24 450.474 1133.04 450.258 1131.8C449.599 1127.41 452.891 1124.68 462.552 1122.65C474.704 1120.08 486.561 1116.44 499.001 1114.91C501.429 1114.63 503.913 1114.05 505.022 1112.39C503.91 1112.19 503.088 1111.79 501.905 1111.8C489.634 1111.84 477.355 1111.83 464.472 1113.29C460.041 1113.82 455.999 1114.72 452.67 1116.63C447.183 1119.74 440.569 1121.34 433.363 1122.01C428.907 1122.39 424.531 1122.62 420.075 1123C406.186 1124.25 392.392 1125.44 378.825 1129.77C376.48 1130.52 373.529 1130.89 370.891 1131.2C343.27 1134.6 315.665 1138.1 288.123 1141.34C264.167 1144.15 240.878 1145.23 218.519 1144.23C205.496 1143.66 194.908 1141 185.002 1137.93C177.603 1135.64 182.854 1130.56 189.66 1128.83C193.477 1127.87 197.586 1127.35 201.607 1126.94C205.419 1126.57 209.089 1126.61 212.821 1126.4C246.325 1124.62 280.203 1121.89 313.288 1121.41C322.742 1121.28 332.786 1120.21 342.534 1119.29C345.928 1118.99 349.883 1118.2 352.918 1117.08C358.997 1114.9 359.481 1112.12 354.107 1110.95C352.085 1110.47 349.477 1110.33 346.894 1110.34C332.425 1110.12 317.868 1110.02 303.391 1109.75C299.174 1109.66 295.037 1109.4 291.084 1108.96C289.989 1108.86 288.777 1108.09 288.903 1107.58C289.021 1107.02 290.723 1106.28 291.798 1105.65C292.295 1105.42 293.035 1105.34 293.758 1105.16C303.056 1102.9 312.374 1101.37 321.769 1100.91C327.746 1100.6 333.736 1099.75 340.455 1098.13C339.151 1098.07 338.595 1097.97 337.96 1098.03C312.241 1100.61 286.522 1103.19 260.811 1105.82C250.332 1106.86 239.765 1108.02 229.268 1110.2C226.776 1110.73 224.064 1110.61 221.402 1110.79C216.181 1111.11 210.927 1111.24 205.619 1111.68C198.718 1112.25 191.754 1113.07 184.853 1113.64C175.307 1114.47 165.668 1114.78 156.1 1116.11C142.858 1117.98 130.252 1118.57 117.667 1118.66C110.353 1118.71 103.094 1118.45 95.6288 1118.88C77.0626 1119.86 58.5297 1121.04 39.8921 1122.24C33.2882 1122.65 26.4918 1123.2 19.7986 1124.96C18.7702 1125.24 17.5077 1125.41 16.5421 1125.43C-1.76026 1126.08 -19.6068 1126.25 -36.0172 1124.17C-41.7424 1123.45 -45.9578 1122.13 -47.543 1119.22C-48.7694 1117.13 -52.4211 1115.95 -57.7675 1116.79C-68.0339 1118.44 -78.6721 1119.8 -88.5719 1122.32C-99.5962 1125.17 -110.544 1127.23 -121.81 1128.71C-144.775 1131.64 -166.84 1132.94 -187.89 1131.42C-199.779 1130.56 -212.259 1130.63 -225.179 1131.27C-249.086 1132.5 -273.197 1135.05 -297.482 1137.82C-307.832 1138.99 -318.014 1139.88 -327.45 1138.88C-337.546 1137.8 -340.503 1135.67 -338.65 1130.25C-337.929 1128.21 -337.425 1126.16 -337.13 1124.15C-336.489 1119.19 -331.457 1115.32 -321.269 1112.61C-316.537 1111.34 -311.633 1110.43 -306.746 1109.43C-304.15 1108.88 -301.257 1108.18 -301.377 1106.88C-301.438 1105.91 -303.021 1104.86 -304.793 1104.58C-307.564 1104.14 -310.983 1104.29 -314.13 1104.15C-321.615 1103.84 -329.476 1103.84 -336.593 1103.18C-341.303 1102.72 -345.955 1102.6 -351.158 1103.02C-366.962 1104.41 -382.775 1105.75 -398.612 1106.95C-402.014 1107.2 -405.613 1106.94 -408.295 1106.38C-415.57 1104.81 -414.816 1099.87 -406.738 1096.8C-403.301 1095.51 -399.067 1094.48 -395.175 1093.94C-383.09 1092.23 -370.964 1090.75 -358.846 1089.22C-342.627 1087.12 -326.522 1084.99 -310.619 1081.09C-291.727 1076.42 -272.539 1072.82 -253.169 1070.27C-249.164 1069.77 -245.113 1068.92 -241.175 1068.03C-238.797 1067.47 -235.403 1067.17 -234.849 1065.41C-234.526 1064.17 -238.164 1062.46 -240.965 1062.46C-242.686 1062.46 -244.505 1062.53 -246.202 1062.68C-251.075 1063.14 -256.07 1063.52 -260.903 1064.22C-265.526 1064.88 -270.35 1065.63 -274.785 1066.74C-279.534 1067.92 -283.991 1069.53 -288.586 1070.97C-293.486 1072.51 -295.425 1072.51 -299.595 1070.83C-297.913 1069.36 -296.127 1067.87 -294.349 1066.34C-297.307 1065.43 -300.011 1065.36 -303.38 1065.81C-310.335 1066.68 -317.291 1067.55 -324.167 1068.26C-357.31 1071.5 -390.511 1075.63 -423.693 1080.49C-430.624 1081.51 -437.588 1082.33 -444.56 1083.11C-451.428 1083.86 -454.716 1082.92 -456.389 1080.12C-456.827 1079.46 -456.951 1078.75 -457.076 1078.04C-457.505 1076.2 -459.33 1075 -462.769 1074.42C-463.88 1074.23 -465.088 1074.09 -466.103 1073.83C-475.329 1071.57 -474.416 1066.31 -463.704 1062.28C-459.36 1060.64 -454.507 1059.45 -449.757 1058.28C-444.695 1057.05 -439.565 1056.2 -434.469 1055.17C-416.256 1051.55 -397.946 1047.86 -379.732 1044.24C-373.277 1042.96 -366.798 1041.83 -360.49 1040.34C-346.844 1037.07 -333.133 1034.19 -319.1 1032.52C-316.776 1032.26 -314.334 1031.44 -311.956 1030.88C-311.997 1030.64 -312.03 1030.45 -312.072 1030.22C-318.241 1030.66 -324.419 1031.05 -330.58 1031.54C-348.428 1032.94 -366.163 1034.37 -384.011 1035.77C-386.238 1035.96 -388.508 1035.92 -390.97 1036C-388.041 1033.04 -383.769 1032.83 -379.765 1032.33C-353.543 1028.93 -327.201 1025.6 -300.988 1022.15C-283.298 1019.85 -265.528 1017.38 -247.759 1014.92C-218.322 1010.8 -188.895 1006.65 -159.571 1002.51C-158.204 1002.32 -156.821 1002.22 -155.592 1001.86C-154.467 1001.52 -153.079 1000.83 -152.936 1000.42C-152.794 999.999 -154.068 999.486 -155.05 999.412C-159.396 999.191 -163.927 999.149 -168.273 998.927C-175.332 998.591 -182.425 999.291 -189.974 1000.46C-203.602 1002.6 -217.287 1004.4 -230.973 1006.2C-250.03 1008.69 -269.065 1010.69 -288.177 1013.49C-308.132 1016.39 -328.13 1019.05 -348.106 1021.21C-381.922 1024.91 -415.746 1028.56 -449.553 1032.31C-461.174 1033.6 -466.141 1035.99 -469.232 1041.73C-470.22 1043.47 -472.006 1044.96 -475.364 1046.08C-483.726 1048.77 -495.766 1048.27 -498.441 1044.67C-501.375 1040.82 -507.953 1040.16 -516.471 1040.71C-535.334 1041.85 -554.077 1043.06 -572.956 1044.1C-577.759 1044.36 -582.506 1044.3 -587.158 1044.18C-591.375 1044.09 -593.547 1042.75 -593.478 1040.68C-593.408 1038.61 -591.367 1036.73 -587.19 1035.36C-584.025 1034.37 -580.852 1033.42 -577.525 1032.75C-553.404 1027.8 -529.276 1024.12 -504.957 1021.54C-480.96 1018.97 -456.979 1016.3 -433.095 1013.7C-431.084 1013.5 -429.066 1013.34 -427.135 1013.3C-424.247 1013.19 -422.216 1013.71 -422.377 1015.26C-422.562 1016.67 -424.761 1017.64 -427.366 1018.14C-430.911 1018.81 -434.569 1019.45 -438.155 1019.88C-447.844 1021.13 -457.471 1022.12 -467.143 1023.47C-473.56 1024.35 -480.006 1025.67 -486.381 1026.78C-485.365 1027.04 -484.392 1027.07 -483.338 1026.94C-468.077 1024.91 -452.791 1023.02 -437.562 1020.8C-420.967 1018.4 -404.306 1016.37 -387.833 1015.11C-374.755 1014.15 -361.714 1013.59 -348.501 1012.16C-330.11 1010.18 -311.721 1007.56 -293.291 1005.17C-287.711 1004.44 -282.034 1003.65 -276.496 1002.68C-274.406 1002.31 -272.06 1001.56 -270.488 1000.7C-266.364 998.409 -261.489 996.725 -256.218 995.461C-254.361 994.99 -252.522 994.423 -250.473 993.821C-250.79 993.239 -250.664 992.726 -251.132 992.514C-253.818 991.316 -254.356 990.087 -250.158 988.226C-249.259 987.824 -248.614 986.584 -249.01 986.163C-250.417 984.889 -251.778 983.264 -254.348 982.732C-263.507 980.851 -273.068 979.138 -282.788 977.747C-287.096 977.127 -292.35 977.26 -297.282 977.386C-305.327 977.566 -313.436 978.001 -321.545 978.437C-327.2 978.738 -332.959 979.057 -338.766 979.728C-341.194 980.005 -344.15 980.963 -346.124 981.994C-353.128 985.668 -361.179 986.436 -369.166 986.949C-372.464 987.182 -374.745 986.452 -374.167 984.832C-373.114 981.609 -377.084 981.076 -382.058 980.964C-388.874 980.782 -395.754 980.856 -402.465 980.656C-409.395 980.444 -416.525 980.317 -422.91 979.52C-434.699 978 -436.031 972.84 -426.399 966.942C-423.969 965.44 -420.879 964.018 -417.868 962.757C-414.858 961.496 -411.387 960.399 -408.143 959.245C-401.645 956.983 -400.783 955.753 -403.012 952.858C-404.552 950.823 -405.908 948.609 -406.411 946.344C-406.748 945.03 -405.873 943.26 -404.166 941.932C-398.101 937.196 -390.114 933.596 -379.283 932.097C-373.502 931.283 -367.617 930.452 -361.827 929.686C-359.825 929.434 -357.814 929.23 -355.779 929.169C-346.576 928.836 -337.636 928.844 -328.83 929.316C-318.286 929.876 -307.294 929.918 -295.619 928.32C-290.883 927.689 -287.48 926.213 -284.706 924.209C-279.536 920.512 -274.592 916.756 -269.197 913.118C-261.204 907.702 -251.186 904.629 -239.015 904.024C-235.918 903.875 -232.829 903.679 -229.732 903.53C-220.642 903.168 -212.548 901.412 -205.384 897.416C-200.772 894.845 -200.268 892.797 -205.303 891.715C-206.987 891.323 -209.281 891.135 -211.404 891.31C-220.098 892.093 -228.809 892.78 -237.533 894.01C-254.772 896.432 -272.049 899.253 -289.367 901.836C-308.462 904.729 -327.465 908.146 -346.19 912.543C-356.742 915.023 -367.326 917.312 -378.032 919.525C-385.097 921.004 -391.567 920.957 -396.029 918.844C-399.675 917.079 -404.431 916.978 -410.171 918.029C-416.433 919.172 -422.679 920.409 -428.974 921.362C-450.489 924.58 -472.1 927.863 -493.649 930.891C-513.412 933.656 -533.234 936.088 -552.598 936.822C-559.34 937.068 -566.14 936.981 -572.266 936.433C-582.337 935.496 -584.79 931.316 -579.259 925.987C-578.331 925.139 -577.402 924.29 -576.247 923.501C-568.823 918.528 -560.092 914.258 -549.068 911.401C-527.951 905.9 -507.895 899.26 -487.718 892.698C-486.288 892.252 -484.892 891.616 -483.825 890.939C-481.788 889.652 -477.917 888.388 -479.696 886.836C-481.474 885.284 -485.024 886.541 -488.046 887.118C-497.845 888.976 -507.61 891.024 -517.467 892.549C-529.736 894.447 -541.608 896.765 -553.022 900.474C-555.673 901.329 -558.671 902.049 -561.5 902.494C-570.32 903.789 -574.977 901.171 -571.734 896.928C-569.361 893.866 -565.284 891.929 -558.884 890.958C-540.738 888.181 -522.496 885.339 -504.366 882.467C-471.146 877.205 -437.893 872.134 -404.853 866.462C-369.095 860.316 -333.141 854.675 -297.716 846.626C-295.747 846.184 -293.794 845.647 -292.084 844.956C-290.88 844.452 -289.244 843.333 -289.503 843.084C-290.142 842.509 -291.626 842.033 -293.13 842.051C-295.617 841.995 -298.455 842.392 -301.118 842.563C-315.926 843.482 -330.743 844.354 -345.632 845.434C-354.455 846.093 -363.455 846.978 -372.421 848.053C-386.558 849.738 -400.633 852.392 -414.608 855.617C-424.027 857.801 -432.9 858.174 -440.722 856.549C-449.882 854.668 -452.127 851.678 -448.681 846.125C-448.003 845.075 -447.534 844.062 -446.617 842.529C-450.751 842.908 -453.961 843.027 -457.217 843.498C-471.383 845.629 -485.517 847.95 -499.587 850.014C-504.419 850.711 -509.59 851.32 -514.217 851.344C-522.078 851.344 -525.256 848.565 -523.04 844.6C-520.603 840.057 -513.573 836.525 -503.236 834.671C-488.195 831.995 -473.251 829.386 -458.193 826.805C-430.579 822.13 -404.133 815.698 -379.538 806.06C-376.311 804.81 -372.398 803.784 -368.765 803.002C-360.671 801.246 -354.04 798.519 -348.394 795.082C-345.282 793.166 -343.282 791.052 -345.111 789.215C-349.853 784.258 -351.285 778.528 -353.03 772.852C-353.488 771.461 -353.946 770.071 -354.814 768.801C-356.283 766.557 -359.579 765.564 -365.377 766.282C-381.081 768.241 -396.714 769.99 -412.41 771.996C-425.686 773.677 -438.904 775.691 -452.18 777.372C-471.036 779.782 -489.854 781.794 -508.753 785.192C-517.105 786.7 -525.364 787.505 -533.108 786.945C-539.331 786.463 -545.651 787.273 -552.111 789.136C-559.59 791.324 -566.75 791.643 -573.633 791.081C-579.534 790.591 -582.232 788.709 -581.701 785.578C-581.474 784.41 -580.934 783.189 -580.707 782.022C-580.341 779.801 -580.971 779.273 -585.318 779.052C-588.795 778.875 -592.641 779.056 -596.205 778.992C-603.666 778.825 -608.96 777.494 -610.364 773.769C-611.923 769.776 -615.942 768.958 -625.318 770.155C-628.896 770.632 -632.483 771.062 -636.044 771.635C-643.385 772.77 -648.315 771.67 -652.334 769.627C-656.11 767.737 -656.095 765.97 -652.193 763.033C-646.575 758.817 -639.149 755.707 -629.944 754.148C-608.182 750.495 -586.436 746.747 -564.687 743.635C-536.843 739.655 -509.004 736.264 -481.207 732.636C-470.255 731.214 -459.191 729.821 -448.311 728.607C-440.816 727.739 -433.613 726.432 -426.456 724.251C-421.861 722.812 -417.049 721.383 -412.266 720.401C-397.196 717.279 -381.996 714.282 -366.901 711.302C-342.45 706.395 -317.725 703.058 -293.357 697.675C-274.486 693.498 -255.081 689.913 -235.724 687.905C-234.88 687.807 -234.06 687.566 -232.606 687.263C-234.087 685.561 -235.431 684.031 -236.784 682.453C-238.808 680.11 -242.891 679.549 -248.768 680.428C-251.285 680.819 -253.68 681.286 -256.188 681.724C-265.402 683.235 -274.606 684.793 -283.74 686.143C-305.907 689.327 -328.262 692.055 -350.363 695.62C-393.736 702.557 -436.919 707.5 -480.224 712.366C-502.411 714.819 -524.628 717.718 -546.765 720.456C-559.101 721.973 -571.419 723.585 -583.834 725.262C-596.771 727.031 -609.628 727.414 -622.674 729.79C-626.332 730.429 -630.219 730.372 -633.935 730.678C-642.846 731.45 -645.961 728.415 -649.933 726.021C-650.53 725.684 -650.375 724.725 -649.701 724.264C-644.427 720.549 -639.298 716.614 -629.973 715.133C-622.632 713.998 -615.196 712.797 -607.789 712.043C-596.892 710.925 -585.948 709.455 -575.096 707.462C-572.701 706.994 -570.168 706.699 -567.731 706.47C-563.71 706.062 -559.769 705.815 -555.756 705.359C-549.202 704.656 -544.355 702.191 -543.976 699.429C-543.52 695.869 -547.28 694.075 -554.06 694.719C-557.663 695.055 -561.258 695.437 -564.773 695.659C-594.148 697.651 -623.646 700.792 -653.334 705.928C-667.517 707.963 -679.838 707.713 -688.346 702.777ZM1842.67 252.658C1845.67 251.349 1848.67 249.993 1851.8 248.809C1854.93 247.625 1858.65 246.73 1861.55 245.44C1864.15 244.299 1869.07 244.715 1870.37 241.693C1859.34 244.502 1849.97 247.608 1842.74 252.449C1842.65 252.515 1842.78 252.64 1842.79 252.735C1839.13 253.963 1839.13 253.963 1837.72 255.729C1838.05 255.817 1838.51 255.935 1838.84 256.023C1840.04 254.881 1841.36 253.77 1842.67 252.658ZM1704.49 221.786C1700.25 220.91 1700.25 220.91 1695.6 223.242C1699.15 222.622 1701.97 222.129 1704.69 221.654C1704.79 223.499 1703.7 225.258 1700.89 227.024C1699.53 227.898 1698.52 228.908 1697.83 229.862C1696.77 231.223 1698.18 231.86 1701.11 231.397C1702.47 231.159 1703.81 230.827 1705.03 230.418C1710.72 228.444 1716.22 226.65 1722.53 225.156C1731.22 223.1 1738.53 219.324 1745.31 215.638C1747.38 214.542 1749.41 213.207 1748.13 212.01C1746.85 210.861 1743.97 211.657 1741.54 211.934C1740.7 212.032 1739.66 212.262 1738.91 212.247C1735.04 212.286 1732.22 213.415 1729.38 215.039C1723.8 218.22 1716.73 220.288 1709.23 221.744C1707.79 222.142 1706.11 221.798 1704.49 221.786ZM-510.915 706.205C-510.205 706.571 -510.059 706.791 -509.737 706.784C-507.798 706.788 -505.867 706.745 -503.84 706.636C-476.994 705.576 -449.762 703.026 -422.421 699.87C-400.468 697.311 -378.514 694.752 -356.498 691.936C-338.382 689.606 -320.178 687.163 -302.065 684.196C-292.852 682.685 -283.735 681.24 -274.56 680.128C-268.754 679.457 -262.909 678.388 -257.065 677.318C-253.721 676.734 -251.96 675.103 -253.878 674.604C-256.836 673.699 -259.242 672.257 -264.011 672.697C-278.946 674.129 -293.905 675.418 -308.744 676.783C-314.044 677.268 -319.44 677.818 -324.787 678.653C-344.508 681.656 -364.101 684.783 -383.806 687.881C-385.8 688.181 -387.811 688.385 -389.813 688.636C-398.048 689.584 -406.42 690.36 -414.621 691.498C-428.716 693.42 -442.77 695.58 -456.84 697.645C-457.789 697.761 -458.634 697.86 -459.574 698.024C-466.095 698.918 -472.495 699.888 -479.024 700.734C-485.023 701.537 -491.029 702.291 -497.044 702.999C-501.893 703.6 -506.566 703.975 -510.915 706.205ZM-261.578 1024.58C-261.641 1024.84 -261.809 1025.11 -261.872 1025.37C-249.633 1023.92 -237.322 1022.26 -225.042 1021.05C-213.823 1019.92 -202.093 1018.02 -191.826 1019.46C-191.165 1019.54 -190.033 1019.25 -189.188 1019.15C-181.999 1018.38 -174.905 1017.68 -167.724 1016.87C-165.931 1016.66 -164.008 1016.57 -162.482 1016.05C-157.511 1014.3 -152.42 1013.86 -147.241 1013.29C-138.467 1012.35 -129.815 1011.33 -121.066 1010.24C-119.804 1010.07 -118.478 1009.64 -115.794 1008.98C-123.409 1008.54 -129.51 1008.14 -135.796 1007.91C-138.074 1007.82 -140.615 1008.07 -143.035 1008.39C-169.917 1011.71 -196.686 1015.07 -223.559 1018.44C-224.404 1018.53 -225.327 1018.79 -226.034 1019.06C-230.353 1020.85 -235.027 1021.22 -239.771 1021.81C-247.266 1022.67 -254.422 1023.63 -261.578 1024.58ZM2207.2 491.263C2197.29 493.681 2187.98 496.483 2180.51 500.629C2176.5 502.899 2172.36 504.504 2166.81 505.424C2161.16 506.362 2157.64 508.398 2155.85 511.112C2175.06 505.797 2194.34 500.862 2207.2 491.263ZM1469.13 779.565C1471.02 779.284 1471.87 779.233 1472.7 779.087C1476.96 778.196 1476.64 776.341 1478.32 774.871C1482.53 771.195 1481.86 768.027 1480.05 765.011C1478.84 763.064 1477.44 763.063 1471.74 764.305C1470.69 766.302 1469.41 768.241 1470.61 770.188C1471.38 771.524 1471.34 773.148 1471.18 774.696C1470.89 776.119 1469.87 777.67 1469.13 779.565ZM1578.04 285.781C1578.18 286.001 1578.28 286.524 1578.57 286.963C1580.12 289.683 1582.82 289.75 1588.02 287.421C1593.41 285.009 1594.97 282.236 1595.34 279.426C1595.6 277.812 1593.78 277.248 1590.72 277.587C1583.33 278.484 1577.31 282.232 1578.04 285.781ZM176.718 1107.76C176.664 1108.06 176.713 1108.34 176.659 1108.65C195.779 1108.99 215.476 1105.84 235.754 1102.94C234.939 1102.59 234.794 1102.37 234.472 1102.38C227.513 1102.61 220.554 1102.85 213.603 1103.13C212.533 1103.17 211.262 1103.29 210.338 1103.55C205.012 1105.12 199.766 1105.3 194.37 1105.85C188.539 1106.38 182.637 1107.11 176.718 1107.76ZM900.501 727.731C903.619 724 902.324 722.756 895.475 722.383C892.376 723.758 890.155 725.224 891.942 726.824C894.688 727.129 897.425 727.386 900.501 727.731ZM1747.61 772.701C1746.66 775.316 1746.66 775.316 1753.35 775.374C1756.24 772.174 1754.95 771.614 1747.61 772.701ZM1450.83 917.174C1451.06 915.418 1449.81 914.411 1446.16 914.461C1443.91 914.511 1442.85 915.235 1442.47 916.772C1446.71 915.149 1445.61 919.36 1450.83 917.174ZM-377.667 967.256C-374.217 969.742 -372.416 969.575 -368.199 966.583C-370.987 966.041 -373.652 965.575 -377.667 967.256ZM2115.89 559.759C2121.82 556.125 2121.57 554.697 2114.96 554.479C2115.25 556.144 2115.55 557.809 2115.89 559.759ZM2368.18 451.68C2363.14 451.188 2363.14 451.188 2360.93 455.153C2364.83 454.668 2367.34 453.641 2368.18 451.68ZM1402.78 881.888C1406.47 880.214 1409.06 879.026 1411.56 877.904C1411.32 877.75 1411.17 877.53 1410.93 877.377C1408.23 877.946 1405.54 878.563 1402.63 879.17C1402.65 879.949 1402.75 880.52 1402.78 881.888ZM1513.14 865.705C1510.16 866.52 1507.18 867.382 1505.23 869.145C1509.92 868.865 1511.95 867.53 1513.14 865.705ZM504.835 479.808C501.054 478.508 499.682 479.286 498.276 481.101C500.358 480.688 502.022 480.349 504.835 479.808ZM1634.23 700.094C1634.87 700.033 1635.5 699.971 1636.14 699.909C1636.15 699.32 1636.25 698.712 1636.26 698.123C1635.73 698.167 1635.31 698.24 1634.78 698.284C1634.67 698.891 1634.45 699.469 1634.23 700.094Z" fill="#F14F63"/>
<path d="M1996.86 66.2684C2004.07 68.0498 2004.63 69.4221 1999.8 73.8437C1980.87 91.2668 1954.96 106.283 1922.86 119.192C1919.73 120.424 1916.63 121.751 1913.38 122.858C1911.04 123.659 1908.45 124.257 1905.58 125.101C1904.74 123.337 1907.04 122.347 1909.13 121.393C1915.82 118.363 1922.39 115.255 1929.19 112.302C1948.01 104.114 1962.07 94.5993 1973.06 84.1504C1973.8 83.4336 1974.53 82.6692 1975.15 81.9231C1978 78.5325 1977.59 78.0164 1971.81 76.9674C1970.92 76.828 1970.03 76.6409 1968.81 76.4611C1972.02 73.8903 1976.33 72.0114 1980.98 70.2681C1982.7 69.6248 1984.4 68.8865 1986 68.214C1989.65 67.5277 1993.31 66.8889 1996.86 66.2684Z" fill="#F14F63"/>
<path d="M39.8692 488.747C31.5371 490.986 23.23 493.368 14.7519 495.388C-5.82056 500.304 -26.4974 505.238 -47.2492 509.745C-60.5346 512.604 -74.0574 514.72 -87.4176 517.151C-87.6266 517.188 -87.8358 517.224 -88.0448 517.261C-90.256 517.549 -93.0694 518.089 -93.3103 516.71C-93.5512 515.33 -90.7212 514.885 -88.5432 514.407C-83.4722 513.227 -78.4011 512.047 -73.4264 510.933C-73.0084 510.86 -72.4943 510.722 -72.0763 510.649C-68.4186 510.01 -68.6033 507.101 -64.4112 507.055C-59.8891 507.05 -58.863 504.91 -56.0282 503.876C-53.0889 502.823 -50.5461 501.35 -48.0996 499.942C-47.3217 499.463 -46.811 498.687 -46.7979 498.146C-46.6789 496.36 -46.6644 494.593 -46.8672 492.815C-47.3262 488.336 -53.1248 485.966 -62.8093 486.628C-72.1803 487.235 -81.581 488.288 -90.7706 491.168C-98.1206 493.481 -104.326 496.182 -107.49 500.264C-108.369 501.398 -109.858 502.736 -111.865 503.577C-113.864 504.465 -116.862 505.185 -119.307 505.367C-122.074 505.556 -122.733 504.249 -122.618 503.053C-122.427 499.833 -120.376 496.779 -113.807 494.308C-101.681 489.739 -89.4517 485.153 -77.3346 480.537C-63.6914 475.409 -48.9711 471.515 -34.1382 467.65C-27.236 465.857 -20.3602 465.146 -13.489 465.025C-3.28677 464.861 0.831309 467.475 -1.4019 472.571C-2.7846 475.754 -5.93072 478.705 -10.857 481.33C-19.5219 485.981 -23.3061 491.446 -28.9832 496.555C-31.7695 499.1 -30.2114 500.005 -24.7902 499.597C-12.6771 498.658 -0.642307 496.655 11.389 494.015C20.6153 491.962 29.9626 489.987 39.1972 487.982C39.5605 488.213 39.7149 488.48 39.8692 488.747Z" fill="#F14F63"/>
<path d="M684.041 419.396C687.904 418.084 691.533 416.666 695.534 415.526C712.061 410.875 728.491 406.29 745.034 401.735C754.893 398.984 765.018 396.53 774.738 393.607C783.944 390.823 793.506 388.221 801.054 383.962C802.033 383.399 804.47 383.17 806.071 383.086C811.099 382.894 814.962 381.582 817.798 379.322C821.203 376.62 825.907 374.573 831.467 373.112C842.065 370.281 852.68 367.545 863.303 364.856C876.811 361.419 890.197 357.905 903.851 354.687C933.946 347.569 964.067 340.594 994.083 333.636C998.013 332.705 1002.12 332.183 1006.1 331.538C1008.62 331.147 1010.58 331.294 1010.81 332.579C1011.01 333.768 1009.28 334.316 1007.12 334.89C963.333 346.261 919.558 357.68 875.67 369.069C865.159 371.787 855.61 375.072 846.791 379.456C841.84 381.938 835.138 383.648 828.976 385.361C814.393 389.427 799.665 393.273 784.961 397.263C783.933 397.54 782.687 397.807 781.78 398.161C768.291 403.556 753.121 406.107 738.381 409.27C723.327 412.487 708.248 415.561 693.17 418.635C690.365 419.223 687.422 419.639 684.496 420.15C684.454 419.912 684.195 419.663 684.041 419.396Z" fill="#F14F63"/>
<path d="M89.8848 427.953C92.1279 429.081 93.9281 430.14 96.0169 431C97.9762 431.737 100.639 431.566 103.419 430.835C105.789 430.225 108.151 429.568 110.514 428.91C116.057 427.354 119.058 427.271 121.874 428.593C124.794 429.897 125.493 432.667 122.816 434.605C116.604 439.121 108.538 442.883 99.0102 445.674C97.5721 446.072 95.4238 446.104 93.9988 445.961C84.8132 445.163 75.3259 445.104 65.1521 446.047C56.7798 446.823 52.7315 445.226 52.3888 441.413C52.046 437.6 51.7035 433.788 51.8833 429.883C52.1129 426.265 54.1523 422.526 59.0252 418.979C64.1868 415.235 71.6198 413.397 78.6987 414.465C87.6621 415.841 93.9867 418.757 98.5298 422.571C100.292 424.028 99.0994 425.217 95.3323 426.463C93.9108 426.956 92.3514 427.278 89.8848 427.953Z" fill="#F14F63"/>
<path d="M1477.17 234.227C1479.36 233.207 1480.74 232.428 1482.34 231.756C1494.87 226.382 1507.49 220.991 1519.91 215.636C1535.73 208.804 1550.27 201.365 1561.02 192.624C1563 191.052 1564.19 189.226 1564.87 187.54C1565.87 185.257 1564.14 184.627 1559.53 184.746C1559.32 184.735 1559.11 184.771 1558.9 184.808C1556.33 184.913 1553.32 185.537 1552.4 183.982C1551.49 182.474 1552.93 180.213 1556.23 178.755C1558.43 177.782 1560.95 176.851 1563.53 176.156C1579.4 172.109 1595.29 168.11 1611.18 164.11C1612.73 163.741 1614.28 163.372 1615.85 163.098C1620.66 162.306 1622.89 163.339 1621.36 165.666C1619.57 168.38 1614.69 170.017 1610.13 170.469C1598.18 171.722 1593.15 176.228 1587.91 180.722C1587.53 181.033 1587.27 181.373 1587 181.666C1580.47 191.187 1567.12 199.206 1552.28 206.748C1537.36 214.403 1520.5 220.828 1503.17 227.041C1497.69 228.978 1492.1 230.885 1486.61 232.775C1483.78 233.809 1481.12 234.616 1477.17 234.227Z" fill="#F14F63"/>
<path d="M1502.67 197.078C1501.02 198.102 1500.56 198.573 1499.85 198.796C1483.76 203.469 1468.08 208.658 1451.59 212.91C1427.47 219.083 1403.77 225.82 1379.92 232.337C1377.24 233.05 1374.56 233.714 1371.26 234.536C1371.39 232.846 1373.11 232.203 1374.95 231.636C1394.2 225.922 1413.55 220.189 1432.92 214.552C1442.04 211.881 1451.15 209.163 1460.41 206.712C1471.43 203.808 1482.6 201.171 1493.66 198.505C1496.13 197.876 1498.79 197.658 1502.67 197.078Z" fill="#F14F63"/>
</svg>
