<svg width="3053" height="1191" viewBox="0 0 3053 1191" fill="none" xmlns="http://www.w3.org/2000/svg">
<path d="M3031.21 543.303C3031.42 541.675 3031.63 539.998 3031.84 538.37C3026.63 533.171 3018.03 530.652 3007.78 529.916C2999.74 529.367 2991.64 529.25 2983.82 529.362C2967.05 529.59 2949.78 527.463 2933.13 527.608C2932.32 527.601 2931.43 527.437 2930.52 527.417C2919.03 526.863 2907.64 526.274 2896.15 525.719C2882.34 525.061 2868.52 524.499 2854.73 523.745C2849.39 523.447 2843.85 522.345 2838.77 522.421C2832.37 522.522 2826.15 522.012 2819.73 521.43C2814.52 520.953 2809.04 520.199 2804.15 521.128C2802.8 521.392 2800.8 521.135 2799.2 520.978C2774.19 519.072 2749.19 517.167 2724.18 515.262C2722.47 515.139 2720.71 515.4 2719.09 515.434C2719.63 517.5 2722.59 518.173 2724.69 519.174C2728.99 521.189 2728.74 523.152 2723.62 523.516C2719.84 523.759 2715.71 523.52 2711.77 523.402C2704.8 523.234 2699.03 520.787 2692.74 519.199C2686.75 517.697 2685.95 516.036 2689.49 513.717C2689.82 513.516 2689.96 513.241 2690.42 512.814C2687.33 512.415 2684.53 512.104 2681.84 511.709C2672.49 510.31 2669.96 508.67 2670.63 504.229C2670.72 503.51 2671.22 502.795 2670.81 502.06C2670.08 500.604 2669.68 498.994 2668.02 497.757C2665.23 495.743 2665.24 494.089 2666.38 492.337C2668.54 488.963 2673 486.616 2679.81 485.692C2685.5 484.866 2691.64 484.439 2697.76 484.108C2712.58 483.241 2727.57 482.591 2742.49 481.736C2751.17 481.247 2758.96 479.816 2765.74 477.573C2774.01 474.839 2775.86 469.916 2770.43 464.787C2768.44 462.924 2765.52 461.185 2762.7 459.506C2759.88 457.78 2756.14 456.861 2752.09 456.826C2746.51 456.79 2741.5 455.56 2736.54 453.947C2730.41 451.893 2724.37 449.995 2717.43 448.76C2702.84 446.249 2688.4 443.416 2673.83 440.762C2668.38 439.768 2662.78 439.144 2657.23 438.185C2651.08 437.102 2649.94 436.469 2649.52 433.444C2648.99 429.676 2645.54 426.601 2639.09 423.921C2628.89 419.638 2619.65 414.943 2611.52 409.611C2606.84 406.526 2600.15 404.155 2592.17 403.954C2588.13 403.824 2584.09 403.645 2580.08 403.323C2551.97 401.068 2524.11 397.723 2496.2 393.156C2494.9 392.941 2493.6 392.822 2492.4 392.716C2488.79 392.349 2485.2 391.934 2481.59 391.568C2480.19 391.436 2478.78 391.352 2477.07 391.229C2477.18 392.8 2477.5 394.206 2477.43 395.512C2477.36 397.693 2476.05 398.353 2471.5 398.254C2468.57 398.168 2465.57 397.879 2462.56 397.637C2454.23 396.906 2445.92 396.128 2437.49 395.432C2410.5 393.174 2383.65 391.373 2356.63 387.796C2353.23 387.359 2349.71 387.197 2346.45 387.265C2341.46 387.449 2338.72 388.996 2338.01 391.387C2337.51 392.882 2338.79 394.019 2341.71 394.979C2352.89 398.66 2364.08 402.388 2375.15 406.151C2380.4 407.946 2380.58 410.453 2375.58 411.513C2372.87 412.089 2369.9 412.339 2367.09 412.854C2363.45 413.554 2359.49 413.58 2355.42 412.91C2350.26 412.05 2345.61 411.891 2341.86 413.5C2337.93 410.949 2332.78 410.773 2327.95 410.444C2310.95 409.327 2294.16 406.629 2277.53 403.465C2262.38 400.638 2247.26 397.523 2232.07 394.983C2204.28 390.333 2176.43 386.018 2148.62 381.511C2135.5 379.385 2122.32 377.006 2109.23 374.735C2107.94 374.52 2106.68 374.066 2105.21 373.634C2114.85 371.224 2123.98 368.845 2133.19 366.623C2139.89 365.002 2146.58 363.429 2153.46 362.026C2156.69 361.371 2160.45 361.271 2160.75 358.924C2160.84 358.254 2162.72 357.815 2163.81 357.273C2166.4 356 2169.29 354.862 2171.49 353.491C2174.04 351.871 2177.46 351.289 2181.65 351.828C2185.24 352.29 2189.01 352.97 2192.12 354.004C2225.41 364.815 2260.4 373.507 2295.89 381.388C2298.35 381.948 2300.92 382.474 2303.42 382.747C2304.53 382.84 2305.91 382.337 2306.58 381.887C2306.91 381.686 2305.81 380.718 2305.05 380.328C2302.07 379.067 2299.1 377.759 2295.78 376.7C2266.13 366.747 2235.18 358.234 2204.47 349.411C2200.17 348.176 2195.97 346.905 2191.48 345.548C2193.6 344.067 2195.27 342.919 2197.04 341.784C2198.48 340.801 2200.35 340.458 2203.36 340.699C2210.29 341.25 2216.71 342.564 2223.27 344.431C2233.15 347.261 2243.61 349.484 2253.84 351.922C2255.91 352.431 2258 352.749 2260.07 353.162C2271.35 355.393 2282.73 357.588 2294 359.867C2302 361.482 2309.9 363.18 2318.11 363.994C2310.59 361.76 2303.05 359.621 2295.17 357.875C2274.67 353.24 2254.04 348.831 2233.54 344.243C2225.75 342.51 2217.98 340.633 2210.2 338.804C2210.13 338.552 2210.06 338.3 2210.09 338.06C2212.97 337.749 2215.85 337.438 2218.74 337.08C2223.48 336.521 2228.03 335.841 2231.2 334.058C2232.18 333.503 2233.26 332.961 2234.63 332.601C2237.15 331.904 2238.5 330.909 2238.9 329.354C2239.16 328.121 2238.95 326.633 2242.16 326.073C2243.86 327.071 2245.46 328.056 2247.17 328.957C2250.12 330.457 2253.38 330.293 2256.19 329.73C2257.44 329.501 2258.56 328.72 2258.64 328.049C2258.8 326.025 2251.85 320.942 2247.74 319.78C2243.14 318.506 2238.09 317.564 2234.04 315.923C2228.45 313.645 2222.62 312.456 2216.28 312.03C2199.99 310.955 2184.08 310.902 2168.31 311.306C2161.29 311.473 2157.09 313.319 2156.65 316.767C2156.38 318.875 2157.4 321.149 2158.14 323.337C2158.36 323.998 2159.26 324.845 2160.3 325.417C2166.88 328.698 2173.44 332.075 2182.62 333.257C2186.71 333.783 2190.74 334.789 2195.29 335.667C2192.76 338.798 2190.96 341.731 2185.26 343.432C2178.08 340.901 2170.91 338.37 2163.73 335.791C2161.21 334.883 2160.24 333.783 2161.23 332.401C2163.21 329.59 2163.13 329.433 2157.44 327.97C2144.49 324.598 2131.42 321.309 2118.36 318.02C2109.61 315.823 2100.46 314.45 2091.99 311.704C2084.79 309.364 2076.78 309.307 2069.42 309.772C2064.41 310.1 2061.74 311.899 2062.67 314.113C2063.76 316.687 2066.5 319.036 2071.29 320.48C2083.69 324.171 2096.31 327.743 2108.94 331.268C2124.02 335.45 2139.12 339.487 2154.32 343.538C2157.55 344.393 2160.92 345.069 2164.04 346.007C2169.41 347.623 2169.93 349.102 2165.69 350.552C2159.85 352.576 2153.64 354.356 2147.7 356.319C2143.05 357.813 2138.32 357.545 2132.89 355.58C2121.16 351.392 2109.31 347.286 2097.57 343.193C2089.8 340.489 2083.22 337.256 2077.3 333.621C2074.67 332.016 2071.94 330.351 2068.98 328.899C2064.79 326.849 2062.07 326.694 2058.34 328.112C2054.29 329.588 2053.69 331.117 2057.24 333.473C2059.67 335.1 2062.82 336.625 2065.89 337.994C2074.8 342.015 2084.74 345.193 2095.13 347.943C2106.41 350.953 2117.91 353.797 2129.3 356.676C2131.76 357.284 2133.98 358.155 2133.82 359.4C2133.73 360.118 2132.11 360.836 2130.75 361.195C2121.55 363.322 2112.36 365.4 2102.98 367.358C2097.45 368.545 2091.56 369.393 2086.12 370.689C2080.26 372.077 2074.09 371.964 2067.25 370.742C2052.67 368.183 2038.08 365.72 2023.48 363.305C2006.89 360.586 1990.28 358.057 1973.82 355.159C1957.56 352.286 1941.25 349.748 1924.62 348.143C1914.6 347.193 1904.55 345.752 1894.64 343.941C1871.84 339.837 1849.19 335.411 1826.53 331.032C1808.42 327.532 1790.4 324.093 1772.42 320.414C1757.6 317.386 1742.93 313.891 1728.11 310.863C1701.93 305.495 1675.98 299.866 1651.05 292.615C1636.68 288.428 1622.41 284.254 1608.02 280.21C1597.35 277.23 1586.31 275.612 1575.15 275.636C1572.2 275.647 1569.38 276.306 1566.77 276.895C1564.47 277.426 1564.22 278.563 1565.99 279.813C1567.29 280.759 1569 281.613 1570.2 282.546C1570.85 283.019 1570.97 283.667 1571.75 284.693C1568.98 284.142 1567.2 283.767 1564.73 283.254C1569 287.115 1574.7 289.309 1582.4 290.155C1612.33 293.277 1640.68 299.946 1668.71 307.499C1708.79 318.356 1748.13 330.238 1789.53 339.513C1793.47 340.41 1797.43 341.942 1800.67 343.576C1803.62 345.076 1806.75 346.014 1810.3 346.811C1826.67 350.381 1843.15 353.963 1859.52 357.532C1874.52 360.777 1889.41 364.106 1904.41 367.304C1906.09 367.666 1908.88 368.025 1909.74 367.649C1913.4 365.979 1917.76 366.831 1922.22 367.601C1949.48 372.522 1976.79 377.012 2004.45 380.379C2008.04 380.793 2011.59 381.591 2014.97 382.171C2015.66 383.868 2017.46 385.609 2014.03 386.287C2008.93 387.286 2003.92 388.394 1997.44 387.559C1982.88 385.635 1968.42 383.725 1954.63 379.758C1952.28 379.067 1948.79 378.617 1946.62 378.922C1943.43 379.338 1940.54 378.918 1937.37 378.363C1928.55 376.693 1919.63 375.106 1910.82 373.436C1907.95 372.92 1905.63 372.768 1903.19 373.622C1901.38 374.266 1898.29 374.647 1895.78 374.421C1882.97 373.16 1870.05 371.839 1857.28 370.195C1823.26 365.814 1789.44 360.681 1755.78 355.081C1742.48 352.881 1729.05 350.811 1715.77 348.42C1688.12 343.399 1660.59 338.248 1632.96 333.083C1617.61 330.182 1602.26 327.329 1586.95 324.189C1570.65 320.824 1554.6 317.054 1538.29 313.737C1523.27 310.731 1508.09 308.095 1493.23 304.527C1455.26 295.402 1417.16 286.504 1379.07 277.462C1372.48 275.882 1366.09 275.156 1359.7 275.94C1354.85 276.534 1349.82 276.227 1344.58 275.211C1332.11 272.778 1319.49 271.543 1306.89 270.991C1303.96 270.858 1301 271.012 1298.52 271.422C1293.75 272.173 1288.89 272.131 1283.65 271.067C1264.38 267.173 1245.1 263.279 1225.93 259.351C1218.43 257.8 1211.15 255.987 1204.17 253.529C1195.93 250.57 1187.38 247.667 1178.67 245.231C1158.98 239.823 1139.06 234.629 1119.14 229.436C1094.71 223.076 1073.16 214.752 1055.6 203.824C1049.7 200.094 1044.22 196.175 1038.62 192.387C1037.22 191.428 1035.62 190.491 1033.93 189.445C1030.87 191.145 1031.97 192.845 1034 194.42C1037.95 197.559 1041.7 200.768 1046.51 203.53C1054.54 208.166 1063.29 212.653 1071.96 216.983C1080.73 221.373 1090.59 225.078 1101.36 228.12C1102.53 228.466 1104.02 228.754 1104.76 229.288C1105.69 229.943 1106.95 231.129 1106.49 231.556C1105.81 232.15 1103.75 232.42 1102.11 232.549C1101.08 232.613 1099.64 232.037 1098.46 231.739C1092.96 230.349 1087.58 228.78 1081.95 227.617C1060.31 223.176 1039.53 217.627 1020.52 210.067C1014.15 207.543 1006.74 206.053 999.444 205.99C993.877 205.906 988.33 206.458 983.269 207.17C976.45 208.142 969.655 208.143 962.165 206.449C952.711 204.258 943.251 202.115 933.791 199.972C914.771 195.672 895.751 191.373 876.613 187.205C872.965 186.394 869.037 186.181 865.14 185.728C859.653 185.021 853.911 184.72 848.685 183.561C840.204 181.69 831.991 179.317 823.765 177.041C795.751 169.344 767.718 161.791 741.802 151.979C734.161 149.096 726.893 145.677 720.355 142.109C710.966 137.053 699.595 137.147 695.931 142.762C694.295 145.229 692.918 145.684 687.243 144.857C674.311 142.899 661.112 141.443 648.546 138.218C632.842 134.152 616.841 130.826 600.579 127.953C588.581 125.824 576.77 123.037 564.667 120.943C558.02 119.795 550.999 119.183 544.253 118.802C538.412 118.488 533.401 119.595 531.934 122.328C530.46 125.108 530.371 128.164 535.468 131.108C538.394 132.8 541.009 134.548 543.517 136.332C550.195 141.184 558.286 145.293 567.667 148.838C573.954 151.206 580.454 153.503 586.741 155.871C596.802 159.649 607.087 163.262 616.712 167.277C633.56 174.266 651.024 180.41 671.146 184.023C672.636 184.264 674.426 184.543 675.268 185.089C679.293 187.701 684.749 188.647 690.056 189.963C718.843 197.175 747.629 204.387 776.291 211.778C780.121 212.758 783.527 214.657 786.771 216.244C788.206 216.915 788.881 217.976 790.166 219.018C793.729 216.555 793.416 215.833 789.211 213.831C786.922 212.709 783.579 211.889 782.804 210.036C789.462 210.309 791.701 211.036 795.42 213.657C801.011 217.493 803.124 221.563 803.398 225.736C803.596 228.927 805.645 231.917 809.751 234.685C817.214 239.736 825.213 244.564 835.579 248.333C836.646 248.713 837.6 249.177 838.561 249.593C834.583 253.706 830.55 254.307 821.502 252.119C810.189 249.397 798.877 246.674 787.789 243.786C764.633 237.737 741.583 231.654 718.652 225.439C704.146 221.526 689.883 217.304 675.507 213.165C670.911 211.843 666.196 210.651 661.718 209.198C643.425 203.191 624.653 197.756 607.867 190.287C589.92 182.377 568.283 178.715 546.989 175.535C540.916 174.656 534.632 174.626 528.553 174.573C522.88 174.525 519.816 176.272 519.364 178.989C518.882 181.946 520.214 184.99 524.85 187.583C532.524 191.785 540.297 195.999 548.613 199.942C556.068 203.483 563.422 207.01 569.581 211.163C572.945 213.397 576.937 215.469 582.063 216.616C590.351 218.414 596.54 221.547 602.722 224.729C604.151 225.449 605.143 226.404 606.248 227.277C608.357 229.009 610.249 230.859 612.564 232.569C616.627 235.673 614.226 239.356 607.524 239.418C602.344 239.482 596.92 239.075 591.607 238.586C578.888 237.338 567.955 234.032 558.46 229.011C557.037 228.244 555.403 227.547 553.763 226.897C542.161 222.482 529.539 219.688 516.309 218.472C496.158 216.656 484.773 220.011 479.262 228.941C479.001 229.395 478.734 229.896 478.373 230.336C476.929 232.098 475.059 232.441 471.006 231.627C465.861 230.624 461.52 228.897 457.409 226.955C453.011 224.88 448.513 222.791 443.555 221.13C437.237 219.002 430.34 217.433 423.903 215.435C412.091 211.869 401.219 212.028 390.823 214C389.159 214.321 387.839 215.125 386.924 215.932C385.684 216.893 384.838 217.952 384.085 219.072C383.7 219.704 383.501 220.458 383.72 221.119C385.71 226.147 389.775 230.809 397.255 234.937C400.475 236.714 403.992 237.752 408.325 237.969C410.039 238.043 411.66 238.057 413.375 238.132C426.455 238.94 438.156 247.311 433.613 253.445C431.823 252.387 429.902 251.556 428.815 250.539C427.91 249.692 427.84 248.661 427.353 247.722C426.146 245.278 424.799 244.715 418.564 244.302C424.174 247.994 422.999 250.813 418.016 253.287C416.502 254.017 415.625 255.316 415.47 256.514C414.743 262.165 415.593 264.222 428.96 264.385C429.159 264.411 429.365 264.389 429.564 264.415C441.864 264.197 450.858 267.594 457.879 272.929C461.392 275.572 462.163 278.252 460.702 280.937C459.751 282.81 455.461 282.258 453.913 280.89C452.814 279.97 452.351 278.839 452.175 277.843C451.975 277.038 452.585 276.24 452.689 275.426C452.843 273.449 449.724 272.463 446.793 271.599C443.961 270.748 440.993 270.171 439.25 271.894C439.893 272.415 440.542 272.888 441.085 273.396C446.746 278.263 443.435 281.927 433.261 282.175C431.84 282.187 430.319 282.186 428.81 282.089C423.292 281.622 417.656 281.286 412.169 280.579C404.687 279.616 398.897 280.477 393.875 282.459C389.395 284.171 389.247 285.32 393.153 288.063C397.053 290.854 402.038 293.102 407.558 295.127C413.371 297.239 419.072 299.434 424.76 301.724C439.126 307.518 453.839 312.967 469.332 317.883C479.08 320.939 488.81 324.139 498.334 327.362C501.346 328.383 504.216 329.726 506.574 331.101C511.952 334.228 512.245 334.314 518.134 332.687C522.135 331.546 522.688 330.4 518.876 328.498C515.632 326.911 511.765 325.44 507.836 324.447C496.655 321.498 486.675 317.876 478.383 312.962C476.031 311.539 473.896 309.998 472.068 308.448C471.337 307.819 471.093 306.57 471.753 306.168C472.519 305.731 474.726 305.918 476.335 306.028C477.345 306.06 478.417 306.393 479.396 306.665C493.697 310.6 508.009 314.439 522.092 318.492C529.232 320.531 535.483 323.186 536.748 327.537C536.892 327.993 538.757 328.477 539.917 328.918C540.296 328.334 541.387 327.744 541.049 327.214C538.582 323.537 536.631 319.78 527.421 318.059C524.447 317.53 521.988 316.142 522.129 314.261C536.27 315.498 549.895 322.316 550.496 328.674C550.888 332.717 549.672 336.65 549.191 340.386C545.906 340.693 543.138 340.921 540.458 341.258C529.432 342.613 518.035 342.119 506.032 340.038C497.402 338.538 488.616 337.455 479.837 336.325C474.749 335.67 470.137 336.05 465.961 336.973C459.798 338.37 458.411 341.259 461.92 344.729C462.731 345.515 464.054 346.27 464.866 347.056C466.395 348.568 467.925 350.079 469.149 351.6C469.929 352.626 470.193 353.731 470.867 354.791C473.179 358.108 475.961 359.342 482.538 359.459C487.494 359.561 491.716 360.641 496.225 361.854C503.478 363.81 510.737 365.719 518.233 367.366C527.013 369.275 535.457 371.433 543.273 374.533C553.696 378.651 564.903 382.187 576.845 384.747C583.555 386.196 589.746 386.944 594.836 384.435C597.864 382.974 602.427 382.978 607.185 383.834C609.86 384.324 611.863 385.312 611.808 386.522C611.8 389.735 611.593 392.922 610.986 396.057C610.665 397.768 608.11 398.705 604.251 398.744C599.681 398.789 595.193 398.99 590.524 399.022C569.615 399.153 549.002 396.986 528.497 391.619C517.802 388.83 506.764 386.338 495.832 383.811C483.815 381.046 471.518 378.879 458.975 378.627C453.508 378.556 448.339 377.744 443.231 376.454C412.948 369.049 382.447 361.762 352.282 354.227C341.275 351.495 330.754 348.144 320.114 344.924C316.596 343.887 313.652 342.339 310.259 341.123C304.639 339.085 298.571 337.379 293.175 335.175C283.918 331.451 275.104 327.443 266.066 323.602C263.371 322.476 260.682 321.302 257.745 320.485C254.421 319.522 248.979 320.038 248.121 321.194C246.889 322.885 249.795 323.941 252.078 325.112C252.359 325.294 252.746 325.441 253.133 325.588C263.113 329.989 272.876 334.508 282.975 338.779C293.267 343.123 300.937 348.93 313.204 352.116C314.576 352.488 315.599 353.204 316.953 353.719C326.69 357.651 335.636 362.211 346.83 365.064C354.588 367.037 361.985 369.45 369.631 371.505C381.1 374.589 392.674 377.637 404.38 380.459C414.707 382.957 424.822 385.525 434.197 389.118C436.23 389.867 438.469 390.593 440.752 390.984C445.017 391.728 448.292 393.075 451.423 394.744C455.41 396.864 459.396 398.984 463.377 401.152C464.7 401.907 465.81 402.731 467.021 403.569C466.261 403.958 465.806 404.338 465.507 404.299C461.236 403.603 457.777 404.472 454 404.668C447.978 404.963 441.806 404.85 435.701 403.431C430.581 402.237 425.698 400.78 420.715 399.311C408.204 395.655 395.693 391.999 383.301 388.213C368.177 383.588 353.301 378.605 338.047 374.206C325.63 370.611 313.303 369.462 302.598 373.05C297.196 374.838 296.736 376.045 300.132 379.598C304.69 384.372 311.609 388.135 320.223 391.338C330.284 395.117 340.02 399.048 349.751 403.028C358.902 406.786 368.04 410.641 376.973 414.517C380.815 416.181 384.857 417.87 388.052 419.839C390.679 421.492 392.34 423.556 393.814 425.498C394.332 426.198 393.38 427.293 392.302 427.787C390.788 428.517 388.961 427.746 387.239 426.94C381.5 424.254 375.29 423.649 369.17 424.711C361.803 426.002 360.181 429.932 365.585 433.646C367.451 434.909 370.158 435.939 372.672 436.896C377.705 438.761 382.957 440.509 387.996 442.326C390.416 443.222 393.123 444.252 391.904 445.848C390.697 447.348 387.747 446.627 385.271 446.162C381.91 445.486 378.661 444.727 375.306 444.003C368.503 442.494 364.639 443.36 363.503 446.67C362.385 449.837 365.045 452.809 369.886 455.38C372.825 456.975 376.168 458.574 379.761 459.816C387.532 462.472 391.078 465.655 389.737 469.767C389.712 469.959 389.488 470.124 389.245 470.434C385.63 470.942 382.169 470.253 378.595 468.868C373.755 467.076 368.797 465.415 363.72 463.885C356.791 461.776 349.725 459.941 342.896 457.845C334.021 455.095 324.767 452.93 315.251 451.218C310.194 450.323 304.982 449.847 299.869 449.383C295.561 448.975 292.507 449.847 291.593 451.434C290.536 453.343 293.094 454.743 296.082 455.955C299.363 457.254 302.868 458.387 306.261 459.603C308.007 460.218 309.642 460.915 311.382 461.577C308.82 461.783 306.544 461.344 304.699 461.496C301.52 461.768 299.05 461.255 296.25 460.164C291.996 458.545 287.681 458.185 283.681 459.325C280.939 460.141 278.133 459.877 274.691 459.044C269.77 457.875 264.589 457.159 259.519 456.36C256.333 455.901 253.173 456.03 252.265 457.568C250.859 459.822 247.318 459.755 243.24 459.133C239.86 458.6 236.512 457.828 233.25 457.165C230.98 456.678 228.723 456.095 226.434 455.752C220.654 454.959 217.619 455.688 215.784 458.13C215.056 459.058 214.82 460.099 213.999 460.967C212.592 462.441 211.04 462.68 207.41 461.726C203.781 460.771 200.157 459.769 196.752 458.649C181.87 453.714 167.213 448.614 152.207 443.858C146.264 441.973 139.523 440.764 133.125 439.258C131.946 438.961 130.661 438.698 129.383 438.387C125.928 437.65 122.417 436.565 118.913 436.211C102.808 434.478 91.6289 429.144 82.3494 422.447C79.6598 420.494 79.9445 419.07 82.4673 417.594C84.23 416.506 86.6232 416.035 89.7652 416.05C101.124 416.052 112.378 417.647 123.422 420.092C129.633 421.476 135.832 422.955 142.037 424.387C144.5 424.948 146.252 424.735 147.198 423.689C148.032 422.725 147.239 421.795 145.293 421.155C142.287 420.086 139.293 418.922 136.05 418.115C126.72 415.745 117.297 413.314 107.725 411.254C97.76 409.095 87.6951 406.922 77.5439 405.421C65.1044 403.576 56.4983 405.827 52.2913 410.933C50.2561 413.349 51.2755 415.671 54.608 418.145C57.672 420.341 60.736 422.537 63.4946 424.743C67.4452 427.929 72.1621 430.679 77.9258 433.174C85.9914 436.695 93.4966 440.632 99.3068 445.129C101.703 446.995 104.292 448.156 108.676 448.769C114.356 449.549 118.666 451.516 120.51 454.529C122.109 457.072 120.509 458.473 115.772 459.031C114.332 459.187 112.668 459.508 111.889 460.041C107.698 462.666 106.457 462.847 99.5036 460.929C92.0634 458.851 84.7354 456.691 77.4011 454.578C72.9981 453.329 71.876 453.379 69.4346 455.013C68.5501 455.58 67.8529 456.27 67.0497 456.994C67.7985 457.48 68.2541 457.879 69.0276 458.174C80.7659 462.314 92.1371 466.943 104.467 470.429C118.749 474.508 131.685 479.582 145.743 483.826C149.16 484.851 152.098 485.667 156.069 485.545C163.088 485.378 168.304 488.192 168.328 491.944C165.405 492.59 162.044 491.914 159.082 491.289C142.201 487.704 125.302 484.262 109.417 479.246C106.785 478.421 104.396 478.065 102.447 479.031C100.497 479.997 101.035 481.332 103.118 482.477C106.25 484.146 109.694 485.758 113.15 487.274C117.94 489.449 123.685 491.308 127.628 493.763C135.895 498.869 145.402 503.014 156.553 506.203C183.058 513.803 209.078 522.022 236.293 528.837C242.779 530.451 244.398 533.629 239.501 535.433C237.906 536.007 235.525 536.382 233.312 536.243C228.268 536.032 224.522 536.767 221.102 538.128C212.541 541.602 201.862 541.834 189.977 539.622C181.559 538.051 173.296 536.062 164.865 534.587C160.101 533.779 154.72 533.038 150.419 533.36C143.762 533.866 137.758 533.239 131.073 531.6C120.059 528.916 108.847 526.206 97.5662 524.023C90.1457 522.581 82.2397 521.758 74.6958 521.273C67.2517 520.802 65.1095 522.474 66.9724 526.122C68.8414 529.722 71.1219 533.278 73.6018 536.859C74.3702 537.98 75.8122 539.383 77.6646 539.963C84.1822 542.116 88.8682 545.105 94.308 547.753C95.7366 548.473 97.7072 548.921 99.4598 549.488C109.407 552.57 119.567 555.582 129.396 558.795C142.924 563.215 156.21 567.944 170.69 571.269C175.024 572.266 179.352 573.31 183.704 574.162C188.849 575.166 193.455 574.834 197.375 573.537C202.247 571.925 202.631 569.734 197.784 567.211C194.072 565.321 189.942 563.524 185.452 562.167C174.226 558.774 162.775 555.547 151.3 552.511C134.537 548.016 118.95 542.26 101.844 538.061C98.2081 537.155 95.2439 534.971 92.3239 533.232C91.5689 532.794 92.0913 531.888 92.1149 530.917C105.683 532.664 118.732 533.711 131.286 537.032C137.953 538.815 145.691 540.152 149.101 544.389C149.888 545.367 152.513 546.24 154.541 547.037C157.048 548.041 159.88 548.893 162.387 549.897C168.756 552.421 175.448 554.792 181.381 557.553C187.694 560.508 194.398 562.783 202.106 564.36C203.49 564.635 204.868 564.959 206.446 565.308C206.052 568.373 205.981 571.285 205.218 574.06C204.406 577.217 201.112 579.958 202.981 583.558C197.439 584.062 192.19 583.873 186.797 583.227C184.702 582.957 182.401 582.71 180.556 582.862C176.866 583.166 175.833 584.883 178.585 586.357C182.958 588.624 184.869 591.11 185.939 593.828C186.627 595.572 188.45 597.17 191.811 597.846C199.712 599.497 205.526 602.387 211.315 605.47C215.495 607.664 220.285 609.059 226.046 609.217C231.806 609.374 233.434 610.119 234.292 612.908C234.661 613.978 234.432 614.971 234.396 616.037C234.349 617.979 234.202 619.907 234.093 622.328C232.654 622.483 230.448 623.075 228.029 622.959C224.5 622.797 220.79 622.465 217.329 621.776C208.73 620.036 200.367 618.034 191.787 616.15C186.754 615.064 184.86 615.599 185.537 618.218C186.001 620.128 186.97 622.054 188.151 623.91C190.35 627.309 194.767 630.021 201.303 632.031C209.205 634.46 216.659 637.221 224.567 639.603C233.055 642.205 241.562 644.664 250.299 646.908C255.8 648.298 261.231 649.436 265.673 651.955C268.038 653.282 271.561 654.271 274.698 655.114C278.914 656.241 283.373 657.058 287.694 658.15C292.702 659.428 297.81 660.718 302.675 662.319C309.192 664.472 315.237 667.149 321.979 669.137C338.387 674.025 355.151 678.521 371.665 683.374C394.036 690.003 417.714 695.145 439.494 702.429C442.893 703.597 446.759 704.29 450.383 705.292C457.636 707.248 464.889 709.204 472.029 711.244C484.459 714.743 496.409 718.813 509.585 721.24C518.695 722.949 526.997 725.429 532.75 729.578C536.469 732.2 541.128 733.822 546.635 735.164C556.476 737.502 566.416 739.853 576.251 742.239C591.193 745.916 606.502 749.104 620.479 753.971C621.645 754.365 622.694 754.889 623.847 755.379C621.18 755.62 618.879 755.372 616.597 754.981C606.882 753.243 597.173 751.457 587.451 749.767C581.995 748.821 576.415 748.054 570.94 747.252C569.942 747.124 568.808 747.27 566.875 747.313C579.913 753.179 594.399 756.456 608.83 760.164C606.594 761.775 603.913 761.333 601.045 760.768C587.388 758.134 573.732 755.499 560.07 752.912C556.702 752.284 553.31 751.847 549.812 751.445C548.815 751.317 547.157 751.59 546.902 751.996C546.647 752.401 547.352 753.222 548.201 753.721C549.237 754.341 550.596 754.809 551.962 755.228C557.731 756.896 563.5 758.564 569.393 760.053C581.872 763.169 594.369 766.141 606.854 769.209C611.968 770.452 616.751 771.896 622.226 772.698C625.805 773.256 630.227 774.361 632.15 776.751C627.361 776.134 622.997 775.378 618.576 775.052C612.048 774.552 605.931 773.229 599.726 771.797C591.844 770.003 583.974 768.113 575.911 766.929C564.762 765.299 553.875 763.216 543.13 760.81C540.567 760.236 537.849 760.081 534.656 759.67C535.038 760.644 534.946 761.363 535.52 761.631C537.148 762.376 539.075 763.16 541.046 763.609C546.546 764.999 552.283 766.127 557.678 767.552C564.737 769.434 571.554 771.627 578.62 773.461C591.966 776.933 605.287 780.595 619.373 783.042C625.421 784.113 631.402 785.711 637.289 787.248C647.498 789.877 657.365 792.802 667.698 795.253C696.927 802.181 726.156 809.109 753.219 818.68C756.418 819.822 759.636 820.821 763.62 820.603C764.947 820.531 767.773 821.43 768.304 822.034C769.184 823.072 769.123 824.33 768.695 825.298C768.048 826.383 765.716 826.375 763.44 825.936C755.234 824.295 749.394 825.539 744.51 828.026C743.314 828.651 742.025 829.216 740.735 829.78C736.318 831.792 734.14 834.53 734.631 837.807C735.077 840.639 736.029 843.489 737.28 846.376C738.356 849.046 740.043 851.698 741.33 854.298C743.181 858.042 741.954 858.907 734.659 858.065C729.365 857.432 724.009 856.499 718.883 855.352C710.795 853.58 702.85 851.486 694.88 849.583C645.471 837.915 596.044 826.39 546.759 814.542C522.363 808.675 498.359 802.127 474.094 796.033C470.358 795.113 466.15 794.718 462.147 794.3C460.046 794.078 458.001 794.204 457.33 795.481C456.764 796.723 457.545 797.748 459.447 798.724C465.256 801.662 471.418 804.209 478.796 805.986C485.587 807.591 492.36 809.339 498.684 811.42C509.193 814.866 520.056 817.141 531.584 818.188C541.704 819.15 551.637 820.769 561.371 823.143C592.927 830.906 624.388 838.608 655.819 846.55C671.242 850.435 687.504 853.308 702.298 858.134C703.664 858.553 705.266 858.711 706.645 859.034C717.196 861.367 727.747 863.699 738.298 866.031C744.117 867.316 749.847 868.492 755.678 869.681C758.054 870.133 760.242 870.464 760.806 872.386C747.867 869.698 735.42 867.121 722.979 864.497C710.632 861.934 698.379 859.431 686.038 856.819C673.797 854.221 661.568 851.526 649.433 848.893C649.202 849.107 649.066 849.381 648.835 849.595C650.775 850.283 652.59 851.15 654.654 851.659C660.934 853.295 667.32 854.896 673.619 856.389C691.729 860.668 709.845 864.9 727.961 869.131C742.135 872.465 756.434 875.621 770.591 879.099C775.997 880.428 780.894 882.568 786.046 884.303C791.004 885.964 795.938 887.816 801.133 889.215C813.781 892.596 827.031 894.449 840.281 896.301C852.04 897.912 863.812 899.428 875.429 901.362C884.857 902.965 894.516 904.355 902.987 907.88C904.721 908.59 906.997 909.029 909.073 909.443C926.296 912.731 943.52 916.02 960.861 919.178C981.071 922.9 1001.42 926.347 1021.05 931.407C1023.01 931.903 1025.38 932.403 1026.81 933.171C1029.74 934.766 1032.35 936.563 1034.97 938.263C1041.14 942.368 1046.86 943.64 1055.4 942.694C1059.3 942.273 1063.14 941.646 1066.68 940.886C1071.79 939.839 1077.18 939.705 1083.16 940.524C1090.24 941.436 1097.24 942.239 1104.3 943.295C1108.79 943.921 1113.37 944.56 1117.48 945.722C1124.43 947.687 1131.6 948.708 1138.87 949.742C1142.06 950.153 1145.22 950.803 1148.4 951.31C1155.15 952.423 1161.96 953.884 1168.78 954.518C1187.13 956.15 1205.02 958.941 1222.93 962.464C1232.52 964.38 1242.21 966.309 1251.8 968.226C1253.88 968.639 1256.06 968.97 1258.02 969.562C1261.92 970.746 1265.92 971.164 1269.98 971.151C1279 971.193 1287.86 972.48 1296.78 974.115C1303.32 975.298 1309.91 976.146 1316.6 976.958C1321.29 977.514 1326.04 977.687 1330.74 978.195C1348.92 980.293 1367.08 982.631 1385.29 984.538C1396.1 985.686 1406.01 987.449 1414.58 991.766C1416.49 992.741 1419.04 993.411 1421.27 994.233C1425.16 994.734 1428.95 995.222 1432.84 995.723C1435.19 994.76 1438.02 995.66 1440.61 995.994C1446.8 996.79 1453.05 997.887 1459.18 998.287C1467.43 998.766 1475.67 998.609 1483.94 998.944C1491.11 999.233 1498.48 999.452 1505.56 1000.41C1510.64 1001.12 1514.19 1001.09 1517 999.012C1521.44 1001.48 1526.23 1002.15 1531.54 1001.86C1538.48 1001.49 1545.59 1001.43 1552.61 1001.26C1555.25 1001.21 1557.99 1001.17 1560.73 1001.19C1563.98 1001.17 1567.35 1000.97 1570.66 1001.3C1591.88 1003.44 1612.99 1005.68 1634.2 1007.92C1640.21 1008.55 1643.66 1010.11 1645.82 1012.97C1647.73 1015.5 1654.75 1016.9 1657.63 1015.03C1660.39 1013.29 1663.72 1013.38 1668.02 1013.88C1678.32 1015.01 1688.54 1015.94 1698.77 1016.87C1706.89 1017.62 1715.04 1018.13 1723.16 1018.84C1731.78 1019.61 1740.24 1020.84 1748.5 1022.88C1755.58 1024.62 1759.37 1024.33 1762.69 1022.13C1758.52 1020.66 1756.33 1020.33 1750.42 1019.82C1740.39 1018.91 1730.25 1018.1 1720.28 1016.76C1704.03 1014.62 1687.9 1012.3 1671.58 1011.42C1668.66 1011.28 1666.09 1010.71 1665.47 1008.44C1668.14 1008.2 1670.73 1007.8 1673.57 1007.78C1679.46 1007.76 1685.48 1008.19 1691.28 1008.06C1705.41 1007.84 1719.63 1007.62 1734.25 1009.07C1744.07 1010.04 1753.54 1008.92 1763.49 1010.45C1764.88 1010.67 1766.34 1010.38 1767.86 1010.38C1778.24 1010.11 1788.52 1009.77 1799.45 1011.52C1812.37 1013.58 1825.44 1015.31 1838.34 1017.46C1848.87 1019.2 1859.81 1020.85 1867.79 1025.87C1867.19 1027.35 1864.27 1027.17 1861.94 1027.16C1852.43 1026.96 1842.94 1026.67 1833.46 1026.27C1829.93 1026.11 1826.79 1026.09 1824.31 1027.24C1820.75 1028.87 1816.11 1029.44 1810.78 1029.15C1806.95 1028.94 1803.04 1028.54 1799.25 1028.05C1789.98 1026.86 1780.81 1026.36 1772.09 1027.13C1766.24 1027.65 1760.25 1027.7 1754.02 1027.24C1752.12 1027.09 1750.19 1027.09 1748.35 1027.19C1747.33 1027.26 1746.57 1027.65 1745.63 1027.87C1746.18 1028.28 1746.45 1028.56 1746.75 1028.59C1747.74 1028.82 1748.81 1029.1 1749.82 1029.14C1758.41 1029.41 1766.93 1030.95 1775.37 1032.38C1778.34 1032.91 1781.36 1033.15 1784.37 1033.39C1792 1033.93 1799.75 1034.44 1807.41 1034.8C1828.68 1035.83 1849.88 1036.57 1871.11 1037.89C1896.97 1039.46 1922.45 1040.07 1947.89 1040.18C1958.03 1040.22 1963.97 1038.16 1965.89 1033.49C1966.34 1032.33 1966.7 1031.11 1966.86 1029.86C1967.33 1025.45 1964.11 1022.89 1954.88 1021.36C1943.26 1019.42 1931.89 1016.4 1920.03 1015.51C1917.72 1015.36 1915.34 1014.91 1914.23 1013.3C1915.28 1013.05 1916.05 1012.61 1917.17 1012.56C1928.81 1011.96 1940.45 1011.32 1952.72 1012.12C1956.94 1012.42 1960.81 1013.11 1964.03 1014.84C1969.35 1017.67 1975.68 1018.92 1982.53 1019.22C1986.77 1019.38 1990.93 1019.38 1995.17 1019.54C2008.39 1020.07 2021.51 1020.54 2034.53 1024.17C2036.79 1024.8 2039.6 1025.01 2042.11 1025.19C2068.43 1027.17 2094.73 1029.24 2120.97 1031.06C2143.79 1032.63 2165.91 1032.51 2187.08 1030.37C2199.41 1029.13 2209.35 1025.93 2218.64 1022.36C2225.57 1019.7 2220.41 1014.89 2213.89 1013.52C2210.24 1012.76 2206.32 1012.45 2202.49 1012.25C2198.87 1012.07 2195.39 1012.3 2191.84 1012.29C2160 1012.23 2127.78 1011.24 2096.38 1012.46C2087.41 1012.81 2077.85 1012.26 2068.57 1011.85C2065.34 1011.72 2061.57 1011.14 2058.65 1010.18C2052.8 1008.31 2052.24 1005.56 2057.3 1004.12C2059.2 1003.53 2061.67 1003.27 2064.12 1003.14C2077.83 1002.18 2091.63 1001.33 2105.35 1000.32C2109.35 1000.01 2113.26 999.539 2116.99 998.9C2118.03 998.741 2119.15 997.911 2119.01 997.407C2118.88 996.854 2117.24 996.205 2116.2 995.632C2115.72 995.424 2115.01 995.382 2114.32 995.245C2105.42 993.466 2096.53 992.418 2087.6 992.438C2081.92 992.437 2076.21 991.896 2069.78 990.63C2071.02 990.497 2071.54 990.369 2072.15 990.399C2096.63 991.652 2121.11 992.906 2145.59 994.207C2155.56 994.712 2165.63 995.326 2175.66 996.959C2178.04 997.363 2180.61 997.109 2183.14 997.143C2188.1 997.198 2193.09 997.061 2198.14 997.224C2204.7 997.437 2211.34 997.901 2217.9 998.113C2226.99 998.455 2236.14 998.27 2245.26 999.104C2257.89 1000.29 2269.86 1000.23 2281.8 999.67C2288.74 999.346 2295.61 998.722 2302.71 998.759C2320.35 998.791 2337.97 999.015 2355.68 999.251C2361.96 999.329 2368.43 999.528 2374.84 1000.94C2375.82 1001.16 2377.03 1001.27 2377.94 1001.24C2395.32 1000.95 2412.25 1000.2 2427.74 997.282C2433.14 996.273 2437.09 994.737 2438.49 991.752C2439.58 989.604 2443 988.243 2448.1 988.802C2457.9 989.917 2468.04 990.736 2477.51 992.735C2488.07 995.02 2498.53 996.512 2509.26 997.407C2531.15 999.154 2552.12 999.322 2572.03 996.725C2583.27 995.251 2595.11 994.682 2607.38 994.656C2630.1 994.659 2653.06 995.959 2676.19 997.477C2686.04 998.113 2695.73 998.484 2704.65 997.003C2714.18 995.406 2716.91 993.128 2714.96 987.813C2714.2 985.817 2713.65 983.799 2713.3 981.806C2712.51 976.884 2707.6 973.282 2697.84 971.1C2693.31 970.078 2688.62 969.427 2683.95 968.679C2681.47 968.262 2678.7 967.711 2678.77 966.405C2678.79 965.434 2680.26 964.308 2681.93 963.939C2684.54 963.35 2687.78 963.33 2690.76 963.032C2697.85 962.338 2705.31 961.935 2712.03 960.902C2716.48 960.209 2720.89 959.851 2725.84 960.002C2740.88 960.574 2755.92 961.099 2770.98 961.481C2774.22 961.557 2777.62 961.118 2780.14 960.421C2786.99 958.478 2786.09 953.592 2778.32 950.935C2775.02 949.828 2770.96 949.014 2767.25 948.683C2755.73 947.589 2744.18 946.734 2732.63 945.832C2717.18 944.572 2701.83 943.277 2686.61 940.197C2668.52 936.506 2650.2 933.903 2631.73 932.353C2627.92 932.057 2624.05 931.412 2620.28 930.732C2618 930.293 2614.77 930.17 2614.19 928.438C2613.84 927.225 2617.22 925.324 2619.88 925.179C2621.51 925.097 2623.24 925.076 2624.85 925.138C2629.49 925.346 2634.24 925.47 2638.85 925.918C2643.26 926.339 2647.86 926.834 2652.11 927.722C2656.65 928.648 2660.94 930.027 2665.35 931.228C2670.05 932.515 2671.89 932.411 2675.78 930.527C2674.13 929.146 2672.39 927.753 2670.65 926.311C2673.42 925.256 2675.98 925.05 2679.19 925.318C2685.82 925.83 2692.45 926.343 2698.99 926.699C2730.54 928.229 2762.17 930.647 2793.82 933.796C2800.43 934.452 2807.06 934.916 2813.7 935.333C2820.24 935.737 2823.32 934.625 2824.81 931.749C2825.2 931.069 2825.29 930.35 2825.39 929.632C2825.73 927.777 2827.41 926.485 2830.65 925.734C2831.7 925.479 2832.84 925.285 2833.8 924.97C2842.46 922.239 2841.41 917.04 2831.1 913.571C2826.93 912.156 2822.28 911.217 2817.73 910.291C2812.89 909.327 2807.99 908.745 2803.12 907.972C2785.72 905.293 2768.22 902.553 2750.82 899.875C2744.66 898.934 2738.47 898.138 2732.43 896.971C2719.38 894.414 2706.27 892.239 2692.9 891.297C2690.69 891.158 2688.34 890.467 2686.07 890.028C2686.1 889.788 2686.12 889.597 2686.15 889.357C2692.02 889.479 2697.89 889.554 2703.75 889.724C2720.73 890.206 2737.6 890.723 2754.57 891.204C2756.69 891.282 2758.85 891.121 2761.18 891.081C2758.3 888.276 2754.24 888.289 2750.42 887.992C2725.44 885.943 2700.33 883.977 2675.35 881.88C2658.49 880.489 2641.55 878.94 2624.61 877.392C2596.55 874.801 2568.49 872.163 2540.54 869.537C2539.23 869.418 2537.92 869.394 2536.74 869.096C2535.66 868.811 2534.32 868.201 2534.17 867.792C2534.02 867.383 2535.21 866.806 2536.14 866.682C2540.25 866.238 2544.55 865.963 2548.66 865.519C2555.34 864.821 2562.09 865.155 2569.29 865.936C2582.29 867.367 2595.34 868.462 2608.38 869.557C2626.54 871.068 2644.67 872.087 2662.89 873.898C2681.92 875.763 2700.98 877.39 2720 878.524C2752.2 880.48 2784.41 882.387 2816.61 884.39C2827.67 885.084 2832.47 887.212 2835.61 892.776C2836.61 894.463 2838.35 895.857 2841.58 896.807C2849.61 899.058 2861.01 897.946 2863.41 894.214C2866.06 890.221 2872.27 889.22 2880.37 889.338C2898.3 889.504 2916.12 889.753 2934.06 889.823C2938.62 889.827 2943.12 889.53 2947.53 889.172C2951.52 888.859 2953.54 887.414 2953.4 885.351C2953.26 883.288 2951.25 881.521 2947.24 880.371C2944.21 879.542 2941.16 878.761 2937.98 878.254C2914.93 874.555 2891.92 872.128 2868.76 870.802C2845.91 869.467 2823.07 868.036 2800.33 866.665C2798.42 866.565 2796.5 866.512 2794.66 866.568C2791.92 866.605 2790.01 867.236 2790.22 868.772C2790.45 870.164 2792.57 871.022 2795.06 871.391C2798.44 871.875 2801.93 872.325 2805.35 872.57C2814.58 873.321 2823.75 873.819 2832.97 874.666C2839.09 875.21 2845.25 876.198 2851.33 876.981C2850.38 877.297 2849.46 877.373 2848.45 877.292C2833.91 876.052 2819.34 874.956 2804.82 873.524C2789 871.974 2773.12 870.806 2757.46 870.396C2745.02 870.109 2732.63 870.218 2720.05 869.475C2702.54 868.437 2685.01 866.764 2667.44 865.33C2662.12 864.889 2656.71 864.387 2651.42 863.706C2649.43 863.449 2647.18 862.818 2645.66 862.038C2641.66 859.966 2636.98 858.535 2631.93 857.545C2630.16 857.17 2628.39 856.699 2626.43 856.203C2626.71 855.606 2626.57 855.101 2627.01 854.865C2629.51 853.532 2629.98 852.278 2625.93 850.637C2625.06 850.282 2624.4 849.077 2624.77 848.637C2626.05 847.293 2627.29 845.602 2629.7 844.939C2638.32 842.592 2647.33 840.392 2656.5 838.505C2660.56 837.665 2665.55 837.528 2670.23 837.401C2677.86 837.167 2685.57 837.185 2693.27 837.203C2698.65 837.214 2704.12 837.237 2709.65 837.608C2711.96 837.76 2714.8 838.563 2716.71 839.491C2723.49 842.798 2731.15 843.151 2738.74 843.252C2741.88 843.315 2744.01 842.471 2743.41 840.883C2742.29 837.721 2746.04 836.986 2750.75 836.619C2757.21 836.087 2763.74 835.808 2770.09 835.263C2776.66 834.696 2783.41 834.203 2789.44 833.08C2800.57 830.958 2801.64 825.741 2792.3 820.351C2789.94 818.976 2786.96 817.716 2784.06 816.612C2781.16 815.508 2777.83 814.592 2774.71 813.607C2768.46 811.683 2767.6 810.501 2769.61 807.497C2771 805.388 2772.21 803.108 2772.6 800.822C2772.87 799.494 2771.98 797.772 2770.31 796.535C2764.39 792.121 2756.69 788.938 2746.36 787.998C2740.85 787.483 2735.24 786.956 2729.72 786.489C2727.81 786.341 2725.9 786.24 2723.97 786.283C2715.23 786.424 2706.75 786.89 2698.42 787.814C2688.44 788.915 2678.01 789.52 2666.89 788.525C2662.37 788.139 2659.09 786.84 2656.39 784.983C2651.35 781.559 2646.53 778.065 2641.28 774.712C2633.51 769.718 2623.9 767.167 2612.33 767.187C2609.39 767.198 2606.45 767.16 2603.51 767.171C2594.88 767.276 2587.14 765.939 2580.2 762.32C2575.73 759.992 2575.18 757.973 2579.92 756.635C2581.5 756.157 2583.67 755.852 2585.69 755.918C2593.96 756.253 2602.25 756.492 2610.57 757.271C2627 758.802 2643.49 760.73 2660 762.419C2678.22 764.325 2696.36 766.759 2714.28 770.186C2724.37 772.118 2734.49 773.86 2744.72 775.518C2751.48 776.631 2757.61 776.252 2761.77 773.914C2765.16 771.966 2769.67 771.621 2775.15 772.375C2781.13 773.194 2787.1 774.108 2793.1 774.735C2813.62 776.842 2834.23 779.009 2854.78 780.924C2873.62 782.668 2892.5 784.077 2910.89 783.816C2917.3 783.715 2923.74 783.279 2929.53 782.418C2939.05 780.966 2941.22 776.669 2935.79 771.636C2934.88 770.837 2933.96 770.038 2932.84 769.309C2925.62 764.728 2917.19 760.915 2906.63 758.631C2886.41 754.225 2867.15 748.63 2847.78 743.117C2846.41 742.745 2845.06 742.183 2844.02 741.562C2842.05 740.383 2838.33 739.32 2839.96 737.68C2841.59 736.039 2845 737.112 2847.89 737.532C2857.25 738.883 2866.58 740.426 2875.98 741.442C2887.69 742.705 2899.03 744.409 2909.99 747.524C2912.53 748.241 2915.4 748.805 2918.1 749.104C2926.51 749.944 2930.83 747.092 2927.61 743.024C2925.24 740.091 2921.31 738.367 2915.2 737.728C2897.9 735.888 2880.49 733.989 2863.2 732.054C2831.51 728.509 2799.79 725.155 2768.25 721.192C2734.12 716.895 2699.82 713.112 2665.94 706.898C2664.05 706.559 2662.18 706.123 2660.53 705.521C2659.37 705.08 2657.78 704.047 2658.02 703.786C2658.61 703.179 2659.99 702.628 2661.42 702.568C2663.78 702.385 2666.48 702.636 2669.02 702.67C2683.09 702.827 2697.17 702.936 2711.33 703.249C2719.72 703.453 2728.29 703.875 2736.83 704.488C2750.3 705.443 2763.74 707.368 2777.11 709.869C2786.12 711.564 2794.55 711.481 2801.91 709.459C2810.53 707.111 2812.55 704.012 2809.08 698.648C2808.4 697.636 2807.92 696.648 2807 695.166C2810.93 695.332 2813.98 695.286 2817.08 695.589C2830.59 696.987 2844.08 698.578 2857.5 699.916C2862.11 700.363 2867.03 700.705 2871.42 700.491C2878.88 700.088 2881.79 697.152 2879.55 693.309C2877.07 688.9 2870.28 685.737 2860.41 684.418C2846.05 682.52 2831.78 680.683 2817.41 678.882C2791.05 675.634 2765.74 670.574 2742.07 662.219C2738.97 661.137 2735.22 660.314 2731.74 659.721C2724.01 658.384 2717.62 656.003 2712.14 652.864C2709.12 651.111 2707.15 649.105 2708.82 647.177C2713.14 641.988 2714.29 636.196 2715.74 630.443C2716.12 629.032 2716.51 627.621 2717.28 626.309C2718.6 623.995 2721.69 622.835 2727.21 623.254C2742.17 624.401 2757.06 625.345 2772.02 626.54C2784.67 627.536 2797.28 628.867 2809.93 629.863C2827.9 631.3 2845.81 632.341 2863.86 634.762C2871.83 635.837 2879.7 636.217 2887.02 635.261C2892.9 634.46 2898.93 634.944 2905.12 636.471C2912.29 638.271 2919.09 638.222 2925.6 637.307C2931.18 636.516 2933.67 634.499 2933.05 631.401C2932.8 630.249 2932.24 629.057 2931.98 627.904C2931.55 625.707 2932.13 625.148 2936.25 624.704C2939.54 624.349 2943.19 624.333 2946.57 624.086C2953.64 623.535 2958.61 621.936 2959.81 618.146C2961.14 614.082 2964.93 613.06 2973.86 613.772C2977.27 614.065 2980.69 614.31 2984.09 614.699C2991.09 615.455 2995.72 614.104 2999.46 611.859C3002.97 609.779 3002.9 608.017 2999.09 605.287C2993.61 601.368 2986.46 598.645 2977.67 597.563C2956.9 595.035 2936.15 592.411 2915.41 590.422C2888.86 587.881 2862.34 585.926 2835.85 583.732C2825.41 582.876 2814.87 582.054 2804.5 581.401C2797.37 580.92 2790.49 579.986 2783.62 578.177C2779.21 576.976 2774.6 575.798 2770.03 575.063C2755.62 572.722 2741.1 570.511 2726.68 568.313C2703.31 564.672 2679.75 562.611 2656.44 558.491C2638.4 555.291 2619.87 552.71 2601.44 551.701C2600.63 551.646 2599.85 551.447 2598.46 551.22C2599.8 549.445 2601.02 547.849 2602.25 546.206C2604.08 543.764 2607.93 542.994 2613.54 543.57C2615.94 543.83 2618.23 544.174 2620.62 544.482C2629.41 545.517 2638.2 546.599 2646.91 547.477C2668.05 549.517 2689.34 551.09 2710.43 553.513C2751.81 558.209 2792.94 560.924 2834.18 563.556C2855.31 564.865 2876.49 566.617 2897.58 568.213C2909.33 569.093 2921.07 570.069 2932.91 571.106C2945.24 572.207 2957.44 571.929 2969.9 573.63C2973.39 574.08 2977.08 573.824 2980.61 573.938C2989.09 574.251 2991.94 571.063 2995.62 568.469C2996.17 568.102 2995.99 567.154 2995.33 566.729C2990.2 563.292 2985.19 559.629 2976.3 558.63C2969.29 557.874 2962.2 557.058 2955.15 556.685C2944.77 556.129 2934.34 555.224 2923.98 553.792C2921.69 553.449 2919.28 553.284 2916.96 553.18C2913.13 552.98 2909.38 552.936 2905.56 552.687C2899.32 552.322 2894.64 550.112 2894.18 547.375C2893.62 543.846 2897.12 541.862 2903.57 542.157C2907 542.307 2910.42 542.504 2913.76 542.545C2941.69 543.025 2969.78 544.645 2998.12 548.245C3011.64 549.548 3023.32 548.665 3031.21 543.303ZM614.772 224.09C611.877 222.938 608.989 221.738 605.977 220.718C602.964 219.697 599.404 218.995 596.609 217.856C594.102 216.852 589.452 217.519 588.108 214.57C598.671 216.807 607.664 219.426 614.697 223.885C614.79 223.946 614.672 224.077 614.66 224.173C618.177 225.21 618.177 225.21 619.582 226.9C619.264 227.005 618.841 227.145 618.523 227.251C617.343 226.174 616.057 225.132 614.772 224.09ZM744.699 186.19C748.693 185.098 748.693 185.098 753.191 187.186C749.799 186.749 747.105 186.403 744.511 186.069C744.477 187.914 745.576 189.614 748.309 191.232C749.626 192.034 750.618 192.99 751.311 193.907C752.36 195.21 751.052 195.918 748.253 195.606C746.956 195.439 745.671 195.177 744.499 194.831C739.035 193.154 733.753 191.646 727.717 190.479C719.405 188.873 712.337 185.48 705.767 182.151C703.765 181.163 701.793 179.935 702.97 178.675C704.14 177.462 706.896 178.109 709.209 178.261C710.014 178.316 711.005 178.492 711.722 178.439C715.394 178.278 718.107 179.261 720.858 180.735C726.267 183.622 733.046 185.323 740.21 186.391C741.589 186.715 743.165 186.285 744.699 186.19ZM2863.07 555.833C2862.41 556.235 2862.28 556.462 2861.97 556.471C2860.13 556.575 2858.3 556.631 2856.37 556.627C2830.88 556.947 2804.96 555.801 2778.92 554.055C2758.01 552.628 2737.1 551.202 2716.12 549.523C2698.85 548.128 2681.5 546.624 2664.22 544.593C2655.43 543.559 2646.73 542.585 2637.99 541.946C2632.46 541.575 2626.88 540.808 2621.3 540.041C2618.1 539.629 2616.37 538.092 2618.17 537.496C2620.95 536.441 2623.18 534.878 2627.72 535.073C2641.93 535.735 2656.16 536.253 2670.28 536.854C2675.33 537.065 2680.47 537.337 2685.57 537.896C2704.38 539.88 2723.07 541.995 2741.87 544.074C2743.77 544.271 2745.68 544.371 2747.59 544.519C2755.43 545.042 2763.4 545.387 2771.22 546.101C2784.66 547.296 2798.06 548.729 2811.48 550.067C2812.38 550.135 2813.19 550.19 2814.09 550.306C2820.3 550.863 2826.41 551.502 2832.63 552.011C2838.35 552.504 2844.07 552.949 2849.8 553.346C2854.42 553.697 2858.86 553.831 2863.07 555.833ZM2638.07 886.33C2638.13 886.583 2638.3 886.848 2638.37 887.1C2626.71 886.281 2614.98 885.257 2603.29 884.677C2592.61 884.129 2581.42 882.834 2571.73 884.801C2571.11 884.915 2570.02 884.678 2569.22 884.623C2562.38 884.229 2555.62 883.895 2548.78 883.452C2547.08 883.33 2545.25 883.338 2543.78 882.906C2539.01 881.414 2534.16 881.229 2529.23 880.935C2520.88 880.443 2512.63 879.869 2504.3 879.234C2503.09 879.128 2501.82 878.769 2499.25 878.244C2506.46 877.419 2512.23 876.701 2518.18 876.153C2520.34 875.944 2522.76 876.06 2525.07 876.26C2550.68 878.195 2576.18 880.164 2601.79 882.146C2602.59 882.201 2603.48 882.413 2604.16 882.646C2608.32 884.204 2612.77 884.339 2617.29 884.677C2624.42 885.158 2631.24 885.744 2638.07 886.33ZM277.658 480.898C287.149 482.801 296.079 485.12 303.303 488.874C307.196 490.933 311.176 492.322 316.469 492.955C321.863 493.6 325.275 495.452 327.068 498.068C308.659 493.75 290.201 489.816 277.658 480.898ZM987.97 730.69C986.168 730.506 985.357 730.499 984.559 730.397C980.487 729.726 980.728 727.858 979.08 726.478C974.961 723.026 975.474 719.83 977.09 716.727C978.16 714.723 979.487 714.65 984.944 715.596C986.012 717.535 987.293 719.404 986.224 721.409C985.54 722.781 985.635 724.4 985.843 725.937C986.17 727.342 987.194 728.837 987.97 730.69ZM866.923 243.556C866.793 243.783 866.725 244.309 866.464 244.763C865.09 247.556 862.528 247.761 857.519 245.705C852.317 243.574 850.736 240.887 850.283 238.103C849.982 236.506 851.689 235.849 854.607 236.03C861.64 236.546 867.486 239.977 866.923 243.556ZM2225.41 991.825C2225.47 992.125 2225.43 992.413 2225.5 992.713C2207.37 994.031 2188.58 991.904 2169.25 990.047C2170.01 989.658 2170.14 989.432 2170.44 989.422C2177.05 989.299 2183.66 989.176 2190.26 989.101C2191.28 989.086 2192.49 989.144 2193.37 989.356C2198.48 990.646 2203.46 990.557 2208.6 990.829C2214.15 991.057 2219.77 991.489 2225.41 991.825ZM1525.35 649.774C1522.26 646.211 1523.44 644.903 1529.93 644.18C1532.91 645.392 1535.07 646.741 1533.43 648.429C1530.84 648.874 1528.26 649.272 1525.35 649.774ZM723.631 738.137C724.619 740.699 724.619 740.699 718.28 741.1C715.427 738.054 716.623 737.429 723.631 738.137ZM1010.27 867.065C1009.98 865.324 1011.14 864.255 1014.6 864.117C1016.74 864.052 1017.77 864.72 1018.18 866.234C1014.1 864.832 1015.29 868.978 1010.27 867.065ZM2746.09 823.166C2742.91 825.823 2741.2 825.749 2737.09 822.98C2739.72 822.296 2742.23 821.694 2746.09 823.166ZM366.72 544.559C360.961 541.237 361.146 539.8 367.404 539.243C367.189 540.919 366.973 542.595 366.72 544.559ZM123.57 449.665C128.332 448.915 128.332 448.915 130.575 452.758C126.859 452.474 124.439 451.578 123.57 449.665ZM1054.57 829.387C1051.01 827.906 1048.51 826.854 1046.1 825.862C1046.32 825.696 1046.45 825.47 1046.68 825.304C1049.26 825.734 1051.83 826.211 1054.62 826.667C1054.62 827.446 1054.54 828.021 1054.57 829.387ZM949.33 818.904C952.186 819.564 955.036 820.272 956.953 821.931C952.495 821.892 950.523 820.665 949.33 818.904ZM1891.66 382.07C1895.19 380.578 1896.52 381.284 1897.92 383.023C1895.93 382.718 1894.34 382.464 1891.66 382.07ZM828.534 659.866C827.929 659.837 827.324 659.808 826.719 659.778C826.693 659.191 826.568 658.59 826.542 658.003C827.047 658.019 827.446 658.071 827.951 658.087C828.077 658.687 828.308 659.253 828.534 659.866Z" fill="#EF233C"/>
<path d="M461.842 46.0154C455.075 48.1628 454.591 49.5611 459.329 53.7253C477.904 70.1394 503.022 83.7928 533.927 95.0267C536.934 96.0954 539.928 97.2599 543.052 98.1978C545.297 98.8764 547.773 99.3411 550.523 100.036C551.263 98.2324 549.042 97.3623 547.021 96.5178C540.571 93.8372 534.234 91.0736 527.672 88.4759C509.533 81.2716 495.855 72.4994 485.057 62.6372C484.332 61.9597 483.615 61.2344 482.996 60.5218C480.168 57.285 480.541 56.7488 485.988 55.4052C486.823 55.2206 487.664 54.988 488.811 54.7461C485.672 52.3457 481.524 50.6918 477.052 49.1909C475.399 48.6373 473.759 47.9879 472.212 47.3993C468.726 46.9018 465.234 46.4522 461.842 46.0154Z" fill="#EF233C"/>
<path d="M2332.92 367.118C2340.9 368.924 2348.87 370.875 2356.98 372.455C2376.66 376.304 2396.45 380.166 2416.29 383.598C2428.99 385.769 2441.89 387.186 2454.65 388.926C2454.85 388.952 2455.05 388.978 2455.25 389.003C2457.36 389.177 2460.05 389.572 2460.22 388.183C2460.4 386.794 2457.7 386.495 2455.62 386.13C2450.77 385.213 2445.92 384.296 2441.16 383.44C2440.76 383.389 2440.27 383.276 2439.87 383.225C2436.38 382.775 2436.45 379.863 2432.47 380.033C2428.18 380.26 2427.13 378.177 2424.41 377.29C2421.58 376.391 2419.12 375.051 2416.75 373.772C2415.99 373.334 2415.48 372.587 2415.45 372.047C2415.27 370.271 2415.19 368.509 2415.32 366.724C2415.6 362.231 2421.01 359.569 2430.22 359.732C2439.13 359.856 2448.08 360.425 2456.9 362.826C2463.95 364.757 2469.93 367.134 2473.08 371.044C2473.95 372.131 2475.41 373.39 2477.35 374.126C2479.28 374.91 2482.14 375.474 2484.47 375.53C2487.1 375.576 2487.68 374.239 2487.53 373.051C2487.23 369.848 2485.17 366.905 2478.86 364.777C2467.19 360.841 2455.43 356.892 2443.77 352.908C2430.65 348.492 2416.55 345.362 2402.34 342.267C2395.73 340.831 2389.19 340.475 2382.67 340.707C2372.99 341.067 2369.18 343.887 2371.48 348.858C2372.9 351.963 2375.99 354.746 2380.76 357.113C2389.14 361.308 2392.93 366.567 2398.5 371.374C2401.23 373.771 2399.78 374.753 2394.63 374.625C2383.11 374.31 2371.62 372.929 2360.12 370.912C2351.29 369.337 2342.36 367.846 2333.53 366.32C2333.19 366.569 2333.06 366.843 2332.92 367.118Z" fill="#EF233C"/>
<path d="M1719.54 330.987C1715.83 329.876 1712.33 328.648 1708.5 327.716C1692.66 323.923 1676.91 320.192 1661.06 316.495C1651.61 314.256 1641.92 312.327 1632.6 309.909C1623.77 307.604 1614.61 305.499 1607.29 301.636C1606.35 301.125 1604.03 301.021 1602.51 301.02C1597.73 301.087 1594.02 299.976 1591.25 297.866C1587.92 295.345 1583.39 293.543 1578.06 292.371C1567.91 290.09 1557.75 287.905 1547.57 285.767C1534.64 283.031 1521.82 280.212 1508.76 277.702C1479.96 272.144 1451.14 266.73 1422.43 261.329C1418.67 260.601 1414.75 260.292 1410.96 259.851C1408.56 259.591 1406.7 259.839 1406.53 261.132C1406.38 262.329 1408.04 262.787 1410.11 263.248C1452.04 272.347 1493.97 281.494 1536 290.607C1546.06 292.779 1555.24 295.567 1563.76 299.488C1568.54 301.711 1574.96 303.072 1580.87 304.466C1594.84 307.775 1608.95 310.857 1623.03 314.082C1624.02 314.307 1625.21 314.509 1626.08 314.816C1639.07 319.507 1653.55 321.273 1667.64 323.672C1682.03 326.109 1696.44 328.403 1710.85 330.697C1713.53 331.139 1716.34 331.403 1719.13 331.763C1719.16 331.523 1719.4 331.262 1719.54 330.987Z" fill="#EF233C"/>
<path d="M2283.3 309.023C2281.22 310.263 2279.55 311.412 2277.6 312.378C2275.76 313.213 2273.23 313.179 2270.57 312.593C2268.3 312.106 2266.04 311.571 2263.77 311.036C2258.46 309.768 2255.61 309.839 2252.99 311.303C2250.27 312.754 2249.7 315.554 2252.31 317.351C2258.36 321.538 2266.15 324.878 2275.29 327.174C2276.66 327.497 2278.7 327.419 2280.05 327.203C2288.73 325.935 2297.73 325.389 2307.41 325.808C2315.38 326.152 2319.16 324.351 2319.34 320.528C2319.53 316.706 2319.72 312.884 2319.41 308.998C2319.06 305.399 2316.99 301.773 2312.24 298.483C2307.21 295.012 2300.1 293.56 2293.42 294.989C2284.97 296.822 2279.08 300.056 2274.91 304.096C2273.29 305.64 2274.46 306.765 2278.08 307.815C2279.45 308.234 2280.94 308.475 2283.3 309.023Z" fill="#EF233C"/>
<path d="M960.722 186.933C958.608 186.028 957.279 185.321 955.732 184.733C943.662 180.014 931.493 175.282 919.523 170.576C904.273 164.571 890.224 157.894 879.714 149.724C877.774 148.257 876.58 146.497 875.88 144.848C874.848 142.622 876.462 141.905 880.838 141.787C881.044 141.764 881.243 141.79 881.443 141.816C883.88 141.789 886.761 142.257 887.575 140.658C888.384 139.106 886.94 136.924 883.759 135.638C881.638 134.781 879.206 133.981 876.743 133.42C861.54 130.197 846.33 127.022 831.121 123.846C829.637 123.558 828.153 123.269 826.656 123.076C822.061 122.533 819.987 123.678 821.523 125.921C823.316 128.538 828.006 129.921 832.339 130.138C843.717 130.775 848.648 135.013 853.785 139.228C854.153 139.519 854.415 139.845 854.684 140.123C861.211 149.289 874.163 156.605 888.505 163.369C902.934 170.242 919.157 175.787 935.815 181.097C941.079 182.749 946.449 184.365 951.719 185.969C954.445 186.855 956.995 187.524 960.722 186.933Z" fill="#EF233C"/>
<path d="M382.839 693.479C382.387 691.473 378.926 690.784 376.195 689.945C364.975 686.505 353.736 683.207 342.522 679.719C334.527 677.229 326.537 674.691 318.666 672.022C313.415 670.274 308.451 669.44 303.709 670.826C300.026 671.861 300.185 673.781 304.021 675.492C305.362 676.103 307.021 676.608 308.587 677.053C324.658 681.411 340.717 685.864 356.9 690.139C364.453 692.134 376.642 693.557 382.839 693.479Z" fill="#EF233C"/>
<path d="M935.206 151.173C936.809 152.11 937.259 152.557 937.945 152.743C953.373 156.579 968.428 160.952 984.218 164.349C1007.32 169.27 1030.03 174.776 1052.88 180.055C1055.45 180.628 1058.02 181.154 1061.18 181.804C1060.99 180.124 1059.33 179.571 1057.57 179.1C1039.11 174.386 1020.55 169.66 1001.98 165.029C993.236 162.832 984.499 160.587 975.625 158.617C965.074 156.284 954.386 154.227 943.804 152.134C941.434 151.634 938.909 151.552 935.206 151.173Z" fill="#EF233C"/>
<path d="M2959.82 499.105C2957.77 499.279 2956.55 499.317 2955.42 499.415C2957.41 502.836 2960.96 504.413 2967.32 504.695C2977.1 505.127 2981.6 503.272 2980.86 498.747C2980.62 497.498 2979.29 495.964 2977.5 494.906C2972.12 491.779 2962.11 490.782 2956.3 492.566C2952.4 493.767 2952.28 494.677 2955.85 496.841C2956.88 497.51 2958.02 498.095 2959.82 499.105Z" fill="#EF233C"/>
</svg>
