<svg width="300" height="450" viewBox="0 0 300 450" fill="none" xmlns="http://www.w3.org/2000/svg">
<g clip-path="url(#clip0_646_7900)">
<mask id="mask0_646_7900" style="mask-type:alpha" maskUnits="userSpaceOnUse" x="0" y="0" width="300" height="450">
<rect width="300" height="450" fill="url(#paint0_linear_646_7900)"/>
</mask>
<g mask="url(#mask0_646_7900)">
<circle cy="232" r="146" fill="#FDFBFB" stroke="#8D99AE" stroke-width="8"/>
<circle cx="0.5" cy="231.5" r="109" fill="#FDFBFB" stroke="#8D99AE" stroke-width="7"/>
<circle cy="232" r="72" fill="#FDFBFB" stroke="#8D99AE" stroke-width="6"/>
<circle cx="0.5" cy="231.5" r="35" fill="#FDFBFB" stroke="#8D99AE" stroke-width="5"/>
<circle cx="300" cy="232" r="146" fill="#FDFBFB" stroke="#8D99AE" stroke-width="8"/>
<circle cx="300.5" cy="231.5" r="109" fill="#FDFBFB" stroke="#8D99AE" stroke-width="7"/>
<circle cx="300" cy="232" r="72" fill="#FDFBFB" stroke="#8D99AE" stroke-width="6"/>
<circle cx="300.5" cy="231.5" r="35" fill="#FDFBFB" stroke="#8D99AE" stroke-width="5"/>
<circle cx="150" cy="307" r="146" fill="#FDFBFB" stroke="#8D99AE" stroke-width="8"/>
<circle cx="150.5" cy="306.5" r="109" fill="#FDFBFB" stroke="#8D99AE" stroke-width="7"/>
<circle cx="150" cy="307" r="72" fill="#FDFBFB" stroke="#8D99AE" stroke-width="6"/>
<circle cx="150.5" cy="306.5" r="35" fill="#FDFBFB" stroke="#8D99AE" stroke-width="5"/>
<circle cy="382" r="146" fill="#FDFBFB" stroke="#8D99AE" stroke-width="8"/>
<circle cx="0.5" cy="381.5" r="109" fill="#FDFBFB" stroke="#8D99AE" stroke-width="7"/>
<circle cy="382" r="72" fill="#FDFBFB" stroke="#8D99AE" stroke-width="6"/>
<circle cx="0.5" cy="381.5" r="35" fill="#FDFBFB" stroke="#8D99AE" stroke-width="5"/>
<circle cx="300" cy="382" r="146" fill="#FDFBFB" stroke="#8D99AE" stroke-width="8"/>
<circle cx="300.5" cy="381.5" r="109" fill="#FDFBFB" stroke="#8D99AE" stroke-width="7"/>
<circle cx="300" cy="382" r="72" fill="#FDFBFB" stroke="#8D99AE" stroke-width="6"/>
<circle cx="300.5" cy="381.5" r="35" fill="#FDFBFB" stroke="#8D99AE" stroke-width="5"/>
<circle cx="150" cy="457" r="146" fill="#FDFBFB" stroke="#8D99AE" stroke-width="8"/>
<circle cx="150.5" cy="456.5" r="109" fill="#FDFBFB" stroke="#8D99AE" stroke-width="7"/>
<circle cx="150" cy="457" r="72" fill="#FDFBFB" stroke="#8D99AE" stroke-width="6"/>
<circle cx="150.5" cy="456.5" r="35" fill="#FDFBFB" stroke="#8D99AE" stroke-width="5"/>
<circle cy="532" r="146" fill="#FDFBFB" stroke="#8D99AE" stroke-width="8"/>
<circle cx="0.5" cy="531.5" r="109" fill="#FDFBFB" stroke="#8D99AE" stroke-width="7"/>
<circle cx="300" cy="532" r="146" fill="#FDFBFB" stroke="#8D99AE" stroke-width="8"/>
<circle cx="300.5" cy="531.5" r="109" fill="#FDFBFB" stroke="#8D99AE" stroke-width="7"/>
</g>
</g>
<defs>
<linearGradient id="paint0_linear_646_7900" x1="150" y1="0" x2="150" y2="450" gradientUnits="userSpaceOnUse">
<stop offset="0.618818" stop-color="#FDFBFB"/>
<stop offset="1" stop-color="white" stop-opacity="0"/>
</linearGradient>
<clipPath id="clip0_646_7900">
<rect width="300" height="450" fill="white"/>
</clipPath>
</defs>
</svg>
