<svg width="250" height="250" viewBox="0 0 250 250" fill="none" xmlns="http://www.w3.org/2000/svg">
<path fill-rule="evenodd" clip-rule="evenodd" d="M231.893 0H18.8452C8.65476 0 0 8.05952 0 17.9881V232C0 241.94 5.67857 250 15.8691 250H228.917C239.119 250 250 241.94 250 232V17.9881C250 8.05952 242.095 0 231.893 0ZM95.2381 95.2381H128.893V112.393H129.262C134.393 103.143 149.548 93.75 168.286 93.75C204.25 93.75 214.286 112.845 214.286 148.214V214.286H178.571V154.726C178.571 138.893 172.25 125 157.464 125C139.512 125 130.952 137.155 130.952 157.107V214.286H95.2381V95.2381ZM35.7143 214.286H71.4286V95.2381H35.7143V214.286ZM75.8929 53.5714C75.8929 65.9048 65.9048 75.8929 53.5714 75.8929C41.2381 75.8929 31.25 65.9048 31.25 53.5714C31.25 41.2381 41.2381 31.25 53.5714 31.25C65.9048 31.25 75.8929 41.2381 75.8929 53.5714Z" fill="#141522"/>
</svg>
