<svg width="53" height="56" viewBox="0 0 53 56" fill="none" xmlns="http://www.w3.org/2000/svg">
<path d="M21.0559 0L18.8321 3.96677L2.16369 33.4571L0 37.2836H4.38752H37.7244H42.1119L39.9482 33.4571L23.2798 3.96677L21.0559 0V0ZM21.0559 10.4178L33.3369 32.1548H8.77503L21.0559 10.4178V10.4178Z" fill="#141522"/>
<path d="M42.1121 37.2836H37.7246H23.5002L21.0562 32.1548H33.3371H39.2124L39.9484 33.4571L42.1121 37.2836Z" fill="#F14F63"/>
<path d="M31.5837 56L33.8075 52.0332L50.476 22.5429L52.6396 18.7164H48.2521L14.9153 18.7164H10.5277L12.6914 22.5429L29.3599 52.0332L31.5837 56V56ZM31.5837 45.5822L19.3028 23.8451L43.8646 23.8451L31.5837 45.5822V45.5822Z" fill="#F14F63"/>
</svg>
