<svg width="2400" height="312" viewBox="0 0 2400 312" fill="none" xmlns="http://www.w3.org/2000/svg">
<g clip-path="url(#clip0_648_8550)">
<mask id="mask0_648_8550" style="mask-type:alpha" maskUnits="userSpaceOnUse" x="-326" y="0" width="3029" height="312">
<rect x="-326" width="3029" height="312" fill="url(#paint0_linear_648_8550)"/>
</mask>
<g mask="url(#mask0_648_8550)">
<circle cy="178" r="146" fill="#FDFBFB" stroke="#8D99AE" stroke-width="8"/>
<circle cx="0.5" cy="177.5" r="109" fill="#FDFBFB" stroke="#8D99AE" stroke-width="7"/>
<circle cy="178" r="72" fill="#FDFBFB" stroke="#8D99AE" stroke-width="6"/>
<circle cx="0.5" cy="177.5" r="35" fill="#FDFBFB" stroke="#8D99AE" stroke-width="5"/>
<circle cx="300" cy="178" r="146" fill="#FDFBFB" stroke="#8D99AE" stroke-width="8"/>
<circle cx="300.5" cy="177.5" r="109" fill="#FDFBFB" stroke="#8D99AE" stroke-width="7"/>
<circle cx="300" cy="178" r="72" fill="#FDFBFB" stroke="#8D99AE" stroke-width="6"/>
<circle cx="300.5" cy="177.5" r="35" fill="#FDFBFB" stroke="#8D99AE" stroke-width="5"/>
<circle cx="600" cy="178" r="146" fill="#FDFBFB" stroke="#8D99AE" stroke-width="8"/>
<circle cx="600.5" cy="177.5" r="109" fill="#FDFBFB" stroke="#8D99AE" stroke-width="7"/>
<circle cx="600" cy="178" r="72" fill="#FDFBFB" stroke="#8D99AE" stroke-width="6"/>
<circle cx="600.5" cy="177.5" r="35" fill="#FDFBFB" stroke="#8D99AE" stroke-width="5"/>
<circle cx="900" cy="178" r="146" fill="#FDFBFB" stroke="#8D99AE" stroke-width="8"/>
<circle cx="900.5" cy="177.5" r="109" fill="#FDFBFB" stroke="#8D99AE" stroke-width="7"/>
<circle cx="900" cy="178" r="72" fill="#FDFBFB" stroke="#8D99AE" stroke-width="6"/>
<circle cx="900.5" cy="177.5" r="35" fill="#FDFBFB" stroke="#8D99AE" stroke-width="5"/>
<circle cx="1200" cy="178" r="146" fill="#FDFBFB" stroke="#8D99AE" stroke-width="8"/>
<circle cx="1200.5" cy="177.5" r="109" fill="#FDFBFB" stroke="#8D99AE" stroke-width="7"/>
<circle cx="1200" cy="178" r="72" fill="#FDFBFB" stroke="#8D99AE" stroke-width="6"/>
<circle cx="1200.5" cy="177.5" r="35" fill="#FDFBFB" stroke="#8D99AE" stroke-width="5"/>
<circle cx="1500" cy="178" r="146" fill="#FDFBFB" stroke="#8D99AE" stroke-width="8"/>
<circle cx="1500.5" cy="177.5" r="109" fill="#FDFBFB" stroke="#8D99AE" stroke-width="7"/>
<circle cx="1500" cy="178" r="72" fill="#FDFBFB" stroke="#8D99AE" stroke-width="6"/>
<circle cx="1500.5" cy="177.5" r="35" fill="#FDFBFB" stroke="#8D99AE" stroke-width="5"/>
<circle cx="1800" cy="178" r="146" fill="#FDFBFB" stroke="#8D99AE" stroke-width="8"/>
<circle cx="1800.5" cy="177.5" r="109" fill="#FDFBFB" stroke="#8D99AE" stroke-width="7"/>
<circle cx="1800" cy="178" r="72" fill="#FDFBFB" stroke="#8D99AE" stroke-width="6"/>
<circle cx="1800.5" cy="177.5" r="35" fill="#FDFBFB" stroke="#8D99AE" stroke-width="5"/>
<circle cx="2100" cy="178" r="146" fill="#FDFBFB" stroke="#8D99AE" stroke-width="8"/>
<circle cx="2100.5" cy="177.5" r="109" fill="#FDFBFB" stroke="#8D99AE" stroke-width="7"/>
<circle cx="2100" cy="178" r="72" fill="#FDFBFB" stroke="#8D99AE" stroke-width="6"/>
<circle cx="2100.5" cy="177.5" r="35" fill="#FDFBFB" stroke="#8D99AE" stroke-width="5"/>
<circle cx="2400" cy="178" r="146" fill="#FDFBFB" stroke="#8D99AE" stroke-width="8"/>
<circle cx="2400.5" cy="177.5" r="109" fill="#FDFBFB" stroke="#8D99AE" stroke-width="7"/>
<circle cx="2400" cy="178" r="72" fill="#FDFBFB" stroke="#8D99AE" stroke-width="6"/>
<circle cx="2400.5" cy="177.5" r="35" fill="#FDFBFB" stroke="#8D99AE" stroke-width="5"/>
<circle cx="150" cy="253" r="146" fill="#FDFBFB" stroke="#8D99AE" stroke-width="8"/>
<circle cx="150.5" cy="252.5" r="109" fill="#FDFBFB" stroke="#8D99AE" stroke-width="7"/>
<circle cx="150" cy="253" r="72" fill="#FDFBFB" stroke="#8D99AE" stroke-width="6"/>
<circle cx="150.5" cy="252.5" r="35" fill="#FDFBFB" stroke="#8D99AE" stroke-width="5"/>
<circle cx="450" cy="253" r="146" fill="#FDFBFB" stroke="#8D99AE" stroke-width="8"/>
<circle cx="450.5" cy="252.5" r="109" fill="#FDFBFB" stroke="#8D99AE" stroke-width="7"/>
<circle cx="450" cy="253" r="72" fill="#FDFBFB" stroke="#8D99AE" stroke-width="6"/>
<circle cx="450.5" cy="252.5" r="35" fill="#FDFBFB" stroke="#8D99AE" stroke-width="5"/>
<circle cx="750" cy="253" r="146" fill="#FDFBFB" stroke="#8D99AE" stroke-width="8"/>
<circle cx="750.5" cy="252.5" r="109" fill="#FDFBFB" stroke="#8D99AE" stroke-width="7"/>
<circle cx="750" cy="253" r="72" fill="#FDFBFB" stroke="#8D99AE" stroke-width="6"/>
<circle cx="750.5" cy="252.5" r="35" fill="#FDFBFB" stroke="#8D99AE" stroke-width="5"/>
<circle cx="1050" cy="253" r="146" fill="#FDFBFB" stroke="#8D99AE" stroke-width="8"/>
<circle cx="1050.5" cy="252.5" r="109" fill="#FDFBFB" stroke="#8D99AE" stroke-width="7"/>
<circle cx="1050" cy="253" r="72" fill="#FDFBFB" stroke="#8D99AE" stroke-width="6"/>
<circle cx="1050.5" cy="252.5" r="35" fill="#FDFBFB" stroke="#8D99AE" stroke-width="5"/>
<circle cx="1350" cy="253" r="146" fill="#FDFBFB" stroke="#8D99AE" stroke-width="8"/>
<circle cx="1350.5" cy="252.5" r="109" fill="#FDFBFB" stroke="#8D99AE" stroke-width="7"/>
<circle cx="1350" cy="253" r="72" fill="#FDFBFB" stroke="#8D99AE" stroke-width="6"/>
<circle cx="1350.5" cy="252.5" r="35" fill="#FDFBFB" stroke="#8D99AE" stroke-width="5"/>
<circle cx="1650" cy="253" r="146" fill="#FDFBFB" stroke="#8D99AE" stroke-width="8"/>
<circle cx="1650.5" cy="252.5" r="109" fill="#FDFBFB" stroke="#8D99AE" stroke-width="7"/>
<circle cx="1650" cy="253" r="72" fill="#FDFBFB" stroke="#8D99AE" stroke-width="6"/>
<circle cx="1650.5" cy="252.5" r="35" fill="#FDFBFB" stroke="#8D99AE" stroke-width="5"/>
<circle cx="1950" cy="253" r="146" fill="#FDFBFB" stroke="#8D99AE" stroke-width="8"/>
<circle cx="1950.5" cy="252.5" r="109" fill="#FDFBFB" stroke="#8D99AE" stroke-width="7"/>
<circle cx="1950" cy="253" r="72" fill="#FDFBFB" stroke="#8D99AE" stroke-width="6"/>
<circle cx="1950.5" cy="252.5" r="35" fill="#FDFBFB" stroke="#8D99AE" stroke-width="5"/>
<circle cx="2250" cy="253" r="146" fill="#FDFBFB" stroke="#8D99AE" stroke-width="8"/>
<circle cx="2250.5" cy="252.5" r="109" fill="#FDFBFB" stroke="#8D99AE" stroke-width="7"/>
<circle cx="2250" cy="253" r="72" fill="#FDFBFB" stroke="#8D99AE" stroke-width="6"/>
<circle cx="2250.5" cy="252.5" r="35" fill="#FDFBFB" stroke="#8D99AE" stroke-width="5"/>
<circle cy="328" r="146" fill="#FDFBFB" stroke="#8D99AE" stroke-width="8"/>
<circle cx="0.5" cy="327.5" r="109" fill="#FDFBFB" stroke="#8D99AE" stroke-width="7"/>
<circle cy="328" r="72" fill="#FDFBFB" stroke="#8D99AE" stroke-width="6"/>
<circle cx="0.5" cy="327.5" r="35" fill="#FDFBFB" stroke="#8D99AE" stroke-width="5"/>
<circle cx="300" cy="328" r="146" fill="#FDFBFB" stroke="#8D99AE" stroke-width="8"/>
<circle cx="300.5" cy="327.5" r="109" fill="#FDFBFB" stroke="#8D99AE" stroke-width="7"/>
<circle cx="300" cy="328" r="72" fill="#FDFBFB" stroke="#8D99AE" stroke-width="6"/>
<circle cx="300.5" cy="327.5" r="35" fill="#FDFBFB" stroke="#8D99AE" stroke-width="5"/>
<circle cx="600" cy="328" r="146" fill="#FDFBFB" stroke="#8D99AE" stroke-width="8"/>
<circle cx="600.5" cy="327.5" r="109" fill="#FDFBFB" stroke="#8D99AE" stroke-width="7"/>
<circle cx="600" cy="328" r="72" fill="#FDFBFB" stroke="#8D99AE" stroke-width="6"/>
<circle cx="600.5" cy="327.5" r="35" fill="#FDFBFB" stroke="#8D99AE" stroke-width="5"/>
<circle cx="900" cy="328" r="146" fill="#FDFBFB" stroke="#8D99AE" stroke-width="8"/>
<circle cx="900.5" cy="327.5" r="109" fill="#FDFBFB" stroke="#8D99AE" stroke-width="7"/>
<circle cx="900" cy="328" r="72" fill="#FDFBFB" stroke="#8D99AE" stroke-width="6"/>
<circle cx="900.5" cy="327.5" r="35" fill="#FDFBFB" stroke="#8D99AE" stroke-width="5"/>
<circle cx="1200" cy="328" r="146" fill="#FDFBFB" stroke="#8D99AE" stroke-width="8"/>
<circle cx="1200.5" cy="327.5" r="109" fill="#FDFBFB" stroke="#8D99AE" stroke-width="7"/>
<circle cx="1200" cy="328" r="72" fill="#FDFBFB" stroke="#8D99AE" stroke-width="6"/>
<circle cx="1200.5" cy="327.5" r="35" fill="#FDFBFB" stroke="#8D99AE" stroke-width="5"/>
<circle cx="1500" cy="328" r="146" fill="#FDFBFB" stroke="#8D99AE" stroke-width="8"/>
<circle cx="1500.5" cy="327.5" r="109" fill="#FDFBFB" stroke="#8D99AE" stroke-width="7"/>
<circle cx="1500" cy="328" r="72" fill="#FDFBFB" stroke="#8D99AE" stroke-width="6"/>
<circle cx="1500.5" cy="327.5" r="35" fill="#FDFBFB" stroke="#8D99AE" stroke-width="5"/>
<circle cx="1800" cy="328" r="146" fill="#FDFBFB" stroke="#8D99AE" stroke-width="8"/>
<circle cx="1800.5" cy="327.5" r="109" fill="#FDFBFB" stroke="#8D99AE" stroke-width="7"/>
<circle cx="1800" cy="328" r="72" fill="#FDFBFB" stroke="#8D99AE" stroke-width="6"/>
<circle cx="1800.5" cy="327.5" r="35" fill="#FDFBFB" stroke="#8D99AE" stroke-width="5"/>
<circle cx="2100" cy="328" r="146" fill="#FDFBFB" stroke="#8D99AE" stroke-width="8"/>
<circle cx="2100.5" cy="327.5" r="109" fill="#FDFBFB" stroke="#8D99AE" stroke-width="7"/>
<circle cx="2100" cy="328" r="72" fill="#FDFBFB" stroke="#8D99AE" stroke-width="6"/>
<circle cx="2100.5" cy="327.5" r="35" fill="#FDFBFB" stroke="#8D99AE" stroke-width="5"/>
<circle cx="2400" cy="328" r="146" fill="#FDFBFB" stroke="#8D99AE" stroke-width="8"/>
<circle cx="2400.5" cy="327.5" r="109" fill="#FDFBFB" stroke="#8D99AE" stroke-width="7"/>
<circle cx="2400" cy="328" r="72" fill="#FDFBFB" stroke="#8D99AE" stroke-width="6"/>
<circle cx="2400.5" cy="327.5" r="35" fill="#FDFBFB" stroke="#8D99AE" stroke-width="5"/>
<circle cx="150" cy="403" r="146" fill="#FDFBFB" stroke="#8D99AE" stroke-width="8"/>
<circle cx="150.5" cy="402.5" r="109" fill="#FDFBFB" stroke="#8D99AE" stroke-width="7"/>
<circle cx="450" cy="403" r="146" fill="#FDFBFB" stroke="#8D99AE" stroke-width="8"/>
<circle cx="450.5" cy="402.5" r="109" fill="#FDFBFB" stroke="#8D99AE" stroke-width="7"/>
<circle cx="750" cy="403" r="146" fill="#FDFBFB" stroke="#8D99AE" stroke-width="8"/>
<circle cx="750.5" cy="402.5" r="109" fill="#FDFBFB" stroke="#8D99AE" stroke-width="7"/>
<circle cx="1050" cy="403" r="146" fill="#FDFBFB" stroke="#8D99AE" stroke-width="8"/>
<circle cx="1050.5" cy="402.5" r="109" fill="#FDFBFB" stroke="#8D99AE" stroke-width="7"/>
<circle cx="1350" cy="403" r="146" fill="#FDFBFB" stroke="#8D99AE" stroke-width="8"/>
<circle cx="1350.5" cy="402.5" r="109" fill="#FDFBFB" stroke="#8D99AE" stroke-width="7"/>
<circle cx="1650" cy="403" r="146" fill="#FDFBFB" stroke="#8D99AE" stroke-width="8"/>
<circle cx="1650.5" cy="402.5" r="109" fill="#FDFBFB" stroke="#8D99AE" stroke-width="7"/>
<circle cx="1950" cy="403" r="146" fill="#FDFBFB" stroke="#8D99AE" stroke-width="8"/>
<circle cx="1950.5" cy="402.5" r="109" fill="#FDFBFB" stroke="#8D99AE" stroke-width="7"/>
<circle cx="2250" cy="403" r="146" fill="#FDFBFB" stroke="#8D99AE" stroke-width="8"/>
<circle cx="2250.5" cy="402.5" r="109" fill="#FDFBFB" stroke="#8D99AE" stroke-width="7"/>
</g>
</g>
<defs>
<linearGradient id="paint0_linear_648_8550" x1="1188.5" y1="0" x2="1188.5" y2="312" gradientUnits="userSpaceOnUse">
<stop offset="0.9999" stop-color="#FDFBFB"/>
<stop offset="1" stop-color="white" stop-opacity="0"/>
</linearGradient>
<clipPath id="clip0_648_8550">
<rect width="2400" height="312" fill="white"/>
</clipPath>
</defs>
</svg>
