<svg width="1920" height="312" viewBox="0 0 1920 312" fill="none" xmlns="http://www.w3.org/2000/svg">
<mask id="mask0_639_8602" style="mask-type:alpha" maskUnits="userSpaceOnUse" x="0" y="0" width="1920" height="312">
<rect width="1920" height="312" fill="url(#paint0_linear_639_8602)"/>
</mask>
<g mask="url(#mask0_639_8602)">
<circle cx="60" cy="178" r="146" fill="#FDFBFB" stroke="#8D99AE" stroke-width="8"/>
<circle cx="60.5" cy="177.5" r="109" fill="#FDFBFB" stroke="#8D99AE" stroke-width="7"/>
<circle cx="60" cy="178" r="72" fill="#FDFBFB" stroke="#8D99AE" stroke-width="6"/>
<circle cx="60.5" cy="177.5" r="35" fill="#FDFBFB" stroke="#8D99AE" stroke-width="5"/>
<circle cx="360" cy="178" r="146" fill="#FDFBFB" stroke="#8D99AE" stroke-width="8"/>
<circle cx="360.5" cy="177.5" r="109" fill="#FDFBFB" stroke="#8D99AE" stroke-width="7"/>
<circle cx="360" cy="178" r="72" fill="#FDFBFB" stroke="#8D99AE" stroke-width="6"/>
<circle cx="360.5" cy="177.5" r="35" fill="#FDFBFB" stroke="#8D99AE" stroke-width="5"/>
<circle cx="660" cy="178" r="146" fill="#FDFBFB" stroke="#8D99AE" stroke-width="8"/>
<circle cx="660.5" cy="177.5" r="109" fill="#FDFBFB" stroke="#8D99AE" stroke-width="7"/>
<circle cx="660" cy="178" r="72" fill="#FDFBFB" stroke="#8D99AE" stroke-width="6"/>
<circle cx="660.5" cy="177.5" r="35" fill="#FDFBFB" stroke="#8D99AE" stroke-width="5"/>
<circle cx="960" cy="178" r="146" fill="#FDFBFB" stroke="#8D99AE" stroke-width="8"/>
<circle cx="960.5" cy="177.5" r="109" fill="#FDFBFB" stroke="#8D99AE" stroke-width="7"/>
<circle cx="960" cy="178" r="72" fill="#FDFBFB" stroke="#8D99AE" stroke-width="6"/>
<circle cx="960.5" cy="177.5" r="35" fill="#FDFBFB" stroke="#8D99AE" stroke-width="5"/>
<circle cx="1260" cy="178" r="146" fill="#FDFBFB" stroke="#8D99AE" stroke-width="8"/>
<circle cx="1260.5" cy="177.5" r="109" fill="#FDFBFB" stroke="#8D99AE" stroke-width="7"/>
<circle cx="1260" cy="178" r="72" fill="#FDFBFB" stroke="#8D99AE" stroke-width="6"/>
<circle cx="1260.5" cy="177.5" r="35" fill="#FDFBFB" stroke="#8D99AE" stroke-width="5"/>
<circle cx="1560" cy="178" r="146" fill="#FDFBFB" stroke="#8D99AE" stroke-width="8"/>
<circle cx="1560.5" cy="177.5" r="109" fill="#FDFBFB" stroke="#8D99AE" stroke-width="7"/>
<circle cx="1560" cy="178" r="72" fill="#FDFBFB" stroke="#8D99AE" stroke-width="6"/>
<circle cx="1560.5" cy="177.5" r="35" fill="#FDFBFB" stroke="#8D99AE" stroke-width="5"/>
<circle cx="1860" cy="178" r="146" fill="#FDFBFB" stroke="#8D99AE" stroke-width="8"/>
<circle cx="1860.5" cy="177.5" r="109" fill="#FDFBFB" stroke="#8D99AE" stroke-width="7"/>
<circle cx="1860" cy="178" r="72" fill="#FDFBFB" stroke="#8D99AE" stroke-width="6"/>
<circle cx="1860.5" cy="177.5" r="35" fill="#FDFBFB" stroke="#8D99AE" stroke-width="5"/>
<circle cx="-90" cy="253" r="146" fill="#FDFBFB" stroke="#8D99AE" stroke-width="8"/>
<circle cx="-89.5" cy="252.5" r="109" fill="#FDFBFB" stroke="#8D99AE" stroke-width="7"/>
<circle cx="210" cy="253" r="146" fill="#FDFBFB" stroke="#8D99AE" stroke-width="8"/>
<circle cx="210.5" cy="252.5" r="109" fill="#FDFBFB" stroke="#8D99AE" stroke-width="7"/>
<circle cx="210" cy="253" r="72" fill="#FDFBFB" stroke="#8D99AE" stroke-width="6"/>
<circle cx="210.5" cy="252.5" r="35" fill="#FDFBFB" stroke="#8D99AE" stroke-width="5"/>
<circle cx="510" cy="253" r="146" fill="#FDFBFB" stroke="#8D99AE" stroke-width="8"/>
<circle cx="510.5" cy="252.5" r="109" fill="#FDFBFB" stroke="#8D99AE" stroke-width="7"/>
<circle cx="510" cy="253" r="72" fill="#FDFBFB" stroke="#8D99AE" stroke-width="6"/>
<circle cx="510.5" cy="252.5" r="35" fill="#FDFBFB" stroke="#8D99AE" stroke-width="5"/>
<circle cx="810" cy="253" r="146" fill="#FDFBFB" stroke="#8D99AE" stroke-width="8"/>
<circle cx="810.5" cy="252.5" r="109" fill="#FDFBFB" stroke="#8D99AE" stroke-width="7"/>
<circle cx="810" cy="253" r="72" fill="#FDFBFB" stroke="#8D99AE" stroke-width="6"/>
<circle cx="810.5" cy="252.5" r="35" fill="#FDFBFB" stroke="#8D99AE" stroke-width="5"/>
<circle cx="1110" cy="253" r="146" fill="#FDFBFB" stroke="#8D99AE" stroke-width="8"/>
<circle cx="1110.5" cy="252.5" r="109" fill="#FDFBFB" stroke="#8D99AE" stroke-width="7"/>
<circle cx="1110" cy="253" r="72" fill="#FDFBFB" stroke="#8D99AE" stroke-width="6"/>
<circle cx="1110.5" cy="252.5" r="35" fill="#FDFBFB" stroke="#8D99AE" stroke-width="5"/>
<circle cx="1410" cy="253" r="146" fill="#FDFBFB" stroke="#8D99AE" stroke-width="8"/>
<circle cx="1410.5" cy="252.5" r="109" fill="#FDFBFB" stroke="#8D99AE" stroke-width="7"/>
<circle cx="1410" cy="253" r="72" fill="#FDFBFB" stroke="#8D99AE" stroke-width="6"/>
<circle cx="1410.5" cy="252.5" r="35" fill="#FDFBFB" stroke="#8D99AE" stroke-width="5"/>
<circle cx="1710" cy="253" r="146" fill="#FDFBFB" stroke="#8D99AE" stroke-width="8"/>
<circle cx="1710.5" cy="252.5" r="109" fill="#FDFBFB" stroke="#8D99AE" stroke-width="7"/>
<circle cx="1710" cy="253" r="72" fill="#FDFBFB" stroke="#8D99AE" stroke-width="6"/>
<circle cx="1710.5" cy="252.5" r="35" fill="#FDFBFB" stroke="#8D99AE" stroke-width="5"/>
<circle cx="2010" cy="253" r="146" fill="#FDFBFB" stroke="#8D99AE" stroke-width="8"/>
<circle cx="2010.5" cy="252.5" r="109" fill="#FDFBFB" stroke="#8D99AE" stroke-width="7"/>
<circle cx="60" cy="328" r="146" fill="#FDFBFB" stroke="#8D99AE" stroke-width="8"/>
<circle cx="60.5" cy="327.5" r="109" fill="#FDFBFB" stroke="#8D99AE" stroke-width="7"/>
<circle cx="60" cy="328" r="72" fill="#FDFBFB" stroke="#8D99AE" stroke-width="6"/>
<circle cx="60.5" cy="327.5" r="35" fill="#FDFBFB" stroke="#8D99AE" stroke-width="5"/>
<circle cx="360" cy="328" r="146" fill="#FDFBFB" stroke="#8D99AE" stroke-width="8"/>
<circle cx="360.5" cy="327.5" r="109" fill="#FDFBFB" stroke="#8D99AE" stroke-width="7"/>
<circle cx="360" cy="328" r="72" fill="#FDFBFB" stroke="#8D99AE" stroke-width="6"/>
<circle cx="360.5" cy="327.5" r="35" fill="#FDFBFB" stroke="#8D99AE" stroke-width="5"/>
<circle cx="660" cy="328" r="146" fill="#FDFBFB" stroke="#8D99AE" stroke-width="8"/>
<circle cx="660.5" cy="327.5" r="109" fill="#FDFBFB" stroke="#8D99AE" stroke-width="7"/>
<circle cx="660" cy="328" r="72" fill="#FDFBFB" stroke="#8D99AE" stroke-width="6"/>
<circle cx="660.5" cy="327.5" r="35" fill="#FDFBFB" stroke="#8D99AE" stroke-width="5"/>
<circle cx="960" cy="328" r="146" fill="#FDFBFB" stroke="#8D99AE" stroke-width="8"/>
<circle cx="960.5" cy="327.5" r="109" fill="#FDFBFB" stroke="#8D99AE" stroke-width="7"/>
<circle cx="960" cy="328" r="72" fill="#FDFBFB" stroke="#8D99AE" stroke-width="6"/>
<circle cx="960.5" cy="327.5" r="35" fill="#FDFBFB" stroke="#8D99AE" stroke-width="5"/>
<circle cx="1260" cy="328" r="146" fill="#FDFBFB" stroke="#8D99AE" stroke-width="8"/>
<circle cx="1260.5" cy="327.5" r="109" fill="#FDFBFB" stroke="#8D99AE" stroke-width="7"/>
<circle cx="1260" cy="328" r="72" fill="#FDFBFB" stroke="#8D99AE" stroke-width="6"/>
<circle cx="1260.5" cy="327.5" r="35" fill="#FDFBFB" stroke="#8D99AE" stroke-width="5"/>
<circle cx="1560" cy="328" r="146" fill="#FDFBFB" stroke="#8D99AE" stroke-width="8"/>
<circle cx="1560.5" cy="327.5" r="109" fill="#FDFBFB" stroke="#8D99AE" stroke-width="7"/>
<circle cx="1560" cy="328" r="72" fill="#FDFBFB" stroke="#8D99AE" stroke-width="6"/>
<circle cx="1560.5" cy="327.5" r="35" fill="#FDFBFB" stroke="#8D99AE" stroke-width="5"/>
<circle cx="1860" cy="328" r="146" fill="#FDFBFB" stroke="#8D99AE" stroke-width="8"/>
<circle cx="1860.5" cy="327.5" r="109" fill="#FDFBFB" stroke="#8D99AE" stroke-width="7"/>
<circle cx="1860" cy="328" r="72" fill="#FDFBFB" stroke="#8D99AE" stroke-width="6"/>
<circle cx="1860.5" cy="327.5" r="35" fill="#FDFBFB" stroke="#8D99AE" stroke-width="5"/>
<circle cx="-90" cy="403" r="146" fill="#FDFBFB" stroke="#8D99AE" stroke-width="8"/>
<circle cx="-89.5" cy="402.5" r="109" fill="#FDFBFB" stroke="#8D99AE" stroke-width="7"/>
<circle cx="210" cy="403" r="146" fill="#FDFBFB" stroke="#8D99AE" stroke-width="8"/>
<circle cx="210.5" cy="402.5" r="109" fill="#FDFBFB" stroke="#8D99AE" stroke-width="7"/>
<circle cx="510" cy="403" r="146" fill="#FDFBFB" stroke="#8D99AE" stroke-width="8"/>
<circle cx="510.5" cy="402.5" r="109" fill="#FDFBFB" stroke="#8D99AE" stroke-width="7"/>
<circle cx="810" cy="403" r="146" fill="#FDFBFB" stroke="#8D99AE" stroke-width="8"/>
<circle cx="810.5" cy="402.5" r="109" fill="#FDFBFB" stroke="#8D99AE" stroke-width="7"/>
<circle cx="1110" cy="403" r="146" fill="#FDFBFB" stroke="#8D99AE" stroke-width="8"/>
<circle cx="1110.5" cy="402.5" r="109" fill="#FDFBFB" stroke="#8D99AE" stroke-width="7"/>
<circle cx="1410" cy="403" r="146" fill="#FDFBFB" stroke="#8D99AE" stroke-width="8"/>
<circle cx="1410.5" cy="402.5" r="109" fill="#FDFBFB" stroke="#8D99AE" stroke-width="7"/>
<circle cx="1710" cy="403" r="146" fill="#FDFBFB" stroke="#8D99AE" stroke-width="8"/>
<circle cx="1710.5" cy="402.5" r="109" fill="#FDFBFB" stroke="#8D99AE" stroke-width="7"/>
<circle cx="2010" cy="403" r="146" fill="#FDFBFB" stroke="#8D99AE" stroke-width="8"/>
<circle cx="2010.5" cy="402.5" r="109" fill="#FDFBFB" stroke="#8D99AE" stroke-width="7"/>
</g>
<defs>
<linearGradient id="paint0_linear_639_8602" x1="960" y1="0" x2="960" y2="312" gradientUnits="userSpaceOnUse">
<stop offset="0.9999" stop-color="#FDFBFB"/>
<stop offset="1" stop-color="white" stop-opacity="0"/>
</linearGradient>
</defs>
</svg>
