<svg width="1920" height="608" viewBox="0 0 1920 608" fill="none" xmlns="http://www.w3.org/2000/svg">
<path d="M-535.974 298.059C-536.054 299.699 -536.136 301.387 -536.216 303.027C-530.607 307.796 -521.834 309.625 -511.558 309.545C-503.497 309.454 -495.415 308.929 -487.625 308.196C-470.933 306.639 -453.548 307.389 -436.961 305.924C-436.152 305.866 -435.25 305.959 -434.341 305.906C-422.843 305.547 -411.448 305.231 -399.951 304.872C-386.132 304.433 -372.309 303.897 -358.496 303.554C-353.153 303.427 -347.545 304.087 -342.487 303.608C-336.113 302.999 -329.869 303.013 -323.428 303.085C-318.194 303.146 -312.671 303.463 -307.874 302.15C-306.547 301.779 -304.537 301.877 -302.927 301.907C-277.847 301.822 -252.767 301.738 -227.688 301.653C-225.975 301.639 -224.244 301.24 -222.624 301.077C-223.332 299.061 -226.332 298.624 -228.507 297.793C-232.957 296.126 -232.861 294.149 -227.789 293.38C-224.036 292.838 -219.903 292.749 -215.966 292.554C-208.998 292.168 -203.052 294.149 -196.66 295.234C-190.567 296.256 -189.637 297.848 -192.986 300.441C-193.299 300.667 -193.414 300.952 -193.839 301.414C-190.724 301.566 -187.909 301.655 -185.199 301.835C-175.764 302.487 -173.115 303.922 -173.434 308.403C-173.469 309.126 -173.908 309.878 -173.439 310.578C-172.6 311.973 -172.073 313.545 -170.314 314.646C-167.379 316.433 -167.258 318.083 -168.254 319.92C-170.138 323.454 -174.398 326.147 -181.116 327.609C-186.716 328.884 -192.803 329.796 -198.885 330.612C-213.587 332.653 -228.48 334.49 -243.282 336.526C-251.899 337.702 -259.552 339.747 -266.132 342.52C-274.152 345.901 -275.606 350.955 -269.792 355.638C-267.659 357.337 -264.61 358.839 -261.659 360.288C-258.711 361.785 -254.914 362.405 -250.872 362.118C-245.314 361.712 -240.218 362.54 -235.141 363.754C-228.873 365.316 -222.698 366.729 -215.681 367.409C-200.943 368.755 -186.322 370.433 -171.59 371.924C-166.079 372.482 -160.448 372.659 -154.833 373.174C-148.618 373.767 -147.436 374.308 -146.776 377.289C-145.949 381.004 -142.258 383.794 -135.616 385.954C-125.11 389.415 -115.534 393.362 -106.999 398.032C-102.096 400.736 -95.2361 402.569 -87.2593 402.135C-83.2219 401.945 -79.1867 401.803 -75.1587 401.805C-46.9619 401.824 -18.9197 402.947 9.26488 405.286C10.5686 405.397 11.8768 405.413 13.0847 405.423C16.7062 405.503 20.3256 405.631 23.9472 405.71C25.356 405.73 26.7673 405.702 28.4799 405.689C28.2536 404.131 27.817 402.756 27.7799 401.449C27.6846 399.268 28.9301 398.507 33.4749 398.245C36.4025 398.097 39.421 398.147 42.442 398.149C50.7974 398.218 59.1503 398.334 67.6083 398.359C94.6929 398.468 121.598 398.134 148.82 399.555C152.236 399.722 155.766 399.603 159.004 399.278C163.967 398.697 166.571 396.938 167.092 394.498C167.469 392.969 166.109 391.936 163.123 391.211C151.677 388.43 140.234 385.6 128.893 382.728C123.522 381.354 123.139 378.87 128.044 377.417C130.701 376.627 133.645 376.142 136.4 375.406C139.972 374.42 143.916 374.08 148.028 374.425C153.244 374.872 157.886 374.663 161.503 372.76C165.624 374.991 170.772 374.758 175.609 374.704C192.639 374.469 209.592 375.826 226.422 377.66C241.751 379.276 257.066 381.182 272.41 382.509C300.489 384.939 328.585 387.032 356.671 389.317C369.912 390.397 383.241 391.722 396.475 392.946C397.779 393.058 399.07 393.411 400.566 393.726C391.147 396.893 382.235 399.989 373.229 402.935C366.679 405.082 360.132 407.18 353.391 409.125C350.225 410.034 346.479 410.432 346.364 412.795C346.331 413.471 344.49 414.058 343.453 414.684C340.964 416.159 338.179 417.522 336.089 419.064C333.685 420.881 330.32 421.732 326.1 421.527C322.483 421.351 318.675 420.972 315.491 420.189C281.445 412.053 245.881 406.165 209.872 401.125C207.372 400.761 204.769 400.441 202.255 400.367C201.148 400.362 199.809 400.973 199.18 401.475C198.867 401.701 200.032 402.58 200.822 402.908C203.894 403.928 206.964 404.996 210.35 405.789C240.697 413.358 272.226 419.389 303.538 425.747C307.926 426.638 312.211 427.571 316.795 428.568C314.802 430.211 313.229 431.489 311.555 432.761C310.193 433.855 308.356 434.346 305.335 434.344C298.387 434.344 291.88 433.544 285.198 432.203C275.125 430.166 264.518 428.78 254.124 427.162C252.025 426.818 249.918 426.667 247.815 426.42C236.4 425.09 224.881 423.805 213.467 422.427C205.358 421.453 197.353 420.386 189.103 420.226C196.778 421.857 204.458 423.391 212.46 424.506C233.261 427.5 254.174 430.258 274.978 433.205C282.879 434.315 290.774 435.569 298.671 436.775C298.76 437.021 298.848 437.267 298.837 437.508C295.991 438.047 293.145 438.585 290.297 439.172C285.619 440.104 281.137 441.143 278.118 443.172C277.181 443.803 276.143 444.43 274.812 444.897C272.351 445.792 271.089 446.891 270.81 448.473C270.649 449.722 270.981 451.189 267.819 452.002C266.048 451.142 264.378 450.287 262.602 449.524C259.542 448.263 256.299 448.685 253.541 449.47C252.317 449.797 251.268 450.664 251.235 451.34C251.237 453.37 258.57 457.885 262.759 458.718C267.448 459.623 272.558 460.161 276.724 461.476C282.476 463.303 288.382 464.026 294.73 463.948C311.055 463.727 326.925 462.517 342.615 460.863C349.599 460.14 353.632 457.967 353.801 454.494C353.905 452.372 352.702 450.186 351.798 448.063C351.527 447.422 350.558 446.649 349.474 446.161C342.659 443.412 335.848 440.567 326.605 440.117C322.486 439.916 318.391 439.234 313.783 438.719C316.06 435.397 317.619 432.331 323.161 430.183C330.519 432.137 337.876 434.09 345.23 436.092C347.814 436.798 348.873 437.816 347.996 439.272C346.241 442.233 346.334 442.382 352.126 443.389C365.306 445.723 378.59 447.965 391.875 450.207C400.765 451.703 409.999 452.346 418.66 454.411C426.026 456.172 434.01 455.594 441.312 454.547C446.282 453.822 448.796 451.817 447.692 449.684C446.403 447.204 443.485 445.08 438.602 444.02C425.943 441.325 413.077 438.765 400.208 436.254C384.844 433.282 369.473 430.455 354.001 427.623C350.707 427.028 347.303 426.62 344.114 425.933C338.633 424.748 337.997 423.315 342.112 421.533C347.772 419.052 353.824 416.785 359.581 414.357C364.103 412.498 368.842 412.391 374.407 413.918C386.434 417.163 398.567 420.316 410.599 423.464C418.554 425.543 425.372 428.244 431.562 431.398C434.314 432.789 437.165 434.233 440.228 435.445C444.575 437.156 447.297 437.095 450.905 435.385C454.819 433.593 455.299 432.021 451.573 429.954C449.024 428.525 445.762 427.254 442.594 426.133C433.389 422.832 423.233 420.453 412.652 418.535C401.173 416.43 389.484 414.507 377.898 412.541C375.4 412.13 373.117 411.438 373.178 410.184C373.214 409.461 374.765 408.618 376.097 408.151C385.098 405.301 394.096 402.5 403.291 399.805C408.707 398.183 414.512 396.87 419.832 395.147C425.562 393.298 431.723 392.921 438.639 393.596C453.375 394.99 468.115 396.288 482.858 397.537C499.608 398.932 516.368 400.135 533.008 401.718C549.447 403.292 565.903 404.528 582.606 404.809C592.669 404.96 602.809 405.599 612.83 406.618C635.882 408.9 658.816 411.515 681.753 414.082C700.082 416.134 718.313 418.134 736.532 420.374C751.549 422.217 766.441 424.537 781.457 426.38C807.985 429.653 834.297 433.206 859.722 438.456C874.378 441.49 888.934 444.519 903.597 447.408C914.47 449.533 925.613 450.268 936.735 449.359C939.667 449.115 942.429 448.235 944.985 447.44C947.236 446.728 947.392 445.575 945.533 444.469C944.164 443.629 942.386 442.914 941.117 442.079C940.433 441.659 940.262 441.022 939.403 440.062C942.206 440.391 944.008 440.624 946.51 440.939C941.948 437.43 936.091 435.694 928.348 435.462C898.272 434.724 869.483 430.325 840.94 425.02C800.123 417.377 759.963 408.654 717.957 402.694C713.957 402.112 709.887 400.899 706.53 399.527C703.469 398.266 700.28 397.579 696.68 397.065C680.072 394.806 663.365 392.543 646.757 390.284C631.55 388.239 616.447 386.102 601.237 384.104C599.536 383.877 596.723 383.74 595.896 384.183C592.377 386.139 587.97 385.634 583.459 385.221C555.898 382.478 528.316 380.169 500.477 379.007C496.858 378.88 493.258 378.366 489.849 378.055C489.022 376.419 487.086 374.826 490.455 373.878C495.458 372.478 500.365 370.976 506.895 371.294C521.561 372.056 536.126 372.813 550.187 375.673C552.579 376.176 556.096 376.348 558.234 375.872C561.388 375.203 564.299 375.393 567.507 375.694C576.423 376.66 585.444 377.534 594.36 378.5C597.266 378.786 599.584 378.754 601.951 377.709C603.701 376.924 606.753 376.299 609.269 376.325C622.148 376.565 635.125 376.858 647.985 377.484C682.244 379.151 716.366 381.585 750.363 384.497C763.802 385.634 777.349 386.632 790.779 387.962C818.739 390.774 846.592 393.725 874.545 396.68C890.073 398.355 905.603 399.981 921.119 401.896C937.635 403.957 953.929 406.442 970.448 408.455C985.667 410.259 1001.01 411.682 1016.1 414.061C1054.67 420.144 1093.36 425.992 1132.04 431.984C1138.74 433.035 1145.17 433.251 1151.48 431.963C1156.26 430.987 1161.3 430.893 1166.61 431.49C1179.23 432.926 1191.91 433.156 1204.52 432.706C1207.44 432.607 1210.38 432.218 1212.83 431.612C1217.51 430.487 1222.37 430.143 1227.67 430.787C1247.19 433.14 1266.72 435.492 1286.14 437.887C1293.75 438.838 1301.14 440.068 1308.3 441.963C1316.74 444.26 1325.5 446.475 1334.38 448.212C1354.43 452.041 1374.7 455.638 1394.97 459.235C1419.83 463.636 1441.97 470.225 1460.34 479.725C1466.52 482.975 1472.3 486.447 1478.18 489.779C1479.65 490.624 1481.32 491.431 1483.09 492.339C1486 490.401 1484.77 488.794 1482.62 487.385C1478.43 484.57 1474.44 481.668 1469.42 479.297C1461.05 475.312 1451.97 471.534 1442.99 467.906C1433.9 464.224 1423.77 461.314 1412.8 459.136C1411.6 458.884 1410.1 458.715 1409.32 458.241C1408.34 457.662 1406.98 456.581 1407.41 456.118C1408.04 455.472 1410.08 455.039 1411.7 454.78C1412.72 454.636 1414.2 455.095 1415.4 455.298C1421 456.247 1426.48 457.384 1432.18 458.097C1454.11 460.808 1475.27 464.69 1494.81 470.718C1501.36 472.729 1508.87 473.626 1516.15 473.11C1521.7 472.752 1527.19 471.762 1532.18 470.651C1538.9 469.141 1545.67 468.6 1553.27 469.695C1562.87 471.129 1572.47 472.515 1582.07 473.901C1601.37 476.677 1620.67 479.454 1640.08 482.091C1643.78 482.609 1647.72 482.511 1651.64 482.653C1657.16 482.922 1662.91 482.766 1668.21 483.508C1676.81 484.7 1685.19 486.413 1693.57 488.03C1722.11 493.48 1750.65 498.785 1777.26 506.51C1785.11 508.778 1792.62 511.609 1799.43 514.648C1809.19 518.942 1820.51 517.946 1823.72 512.059C1825.16 509.47 1826.49 508.906 1832.21 509.281C1845.26 510.206 1858.53 510.611 1871.32 512.828C1887.29 515.636 1903.51 517.682 1919.95 519.256C1932.08 520.426 1944.07 522.267 1956.3 523.394C1963.02 524.011 1970.07 524.064 1976.82 523.909C1982.67 523.759 1987.58 522.257 1988.82 519.417C1990.07 516.529 1989.92 513.475 1984.6 510.944C1981.55 509.49 1978.81 507.955 1976.16 506.376C1969.12 502.069 1960.73 498.614 1951.1 495.825C1944.64 493.964 1937.98 492.189 1931.53 490.328C1921.2 487.359 1910.66 484.574 1900.75 481.336C1883.4 475.705 1865.5 470.966 1845.15 468.961C1843.65 468.839 1841.84 468.703 1840.96 468.225C1836.74 465.941 1831.23 465.431 1825.83 464.54C1796.56 459.634 1767.3 454.729 1738.14 449.636C1734.24 448.963 1730.7 447.339 1727.34 446.016C1725.85 445.46 1725.1 444.456 1723.73 443.52C1720.38 446.257 1720.75 446.952 1725.1 448.614C1727.47 449.551 1730.86 450.103 1731.78 451.889C1725.13 452.145 1722.84 451.598 1718.92 449.28C1713.04 445.9 1710.61 442.011 1710.01 437.872C1709.56 434.708 1707.28 431.889 1702.97 429.455C1695.13 425.013 1686.77 420.835 1676.14 417.9C1675.04 417.605 1674.06 417.219 1673.06 416.88C1676.7 412.464 1680.68 411.546 1689.87 413.008C1701.36 414.825 1712.85 416.641 1724.14 418.641C1747.7 422.833 1771.16 427.069 1794.51 431.445C1809.28 434.194 1823.84 437.272 1838.49 440.257C1843.18 441.211 1847.98 442.024 1852.55 443.117C1871.27 447.654 1890.41 451.583 1907.74 457.696C1926.25 464.157 1948.11 466.091 1969.59 467.572C1975.72 467.966 1981.98 467.498 1988.05 467.068C1993.71 466.666 1996.62 464.681 1996.86 461.937C1997.1 458.951 1995.53 456.022 1990.71 453.805C1982.72 450.226 1974.64 446.641 1966.04 443.37C1958.33 440.432 1950.71 437.5 1944.24 433.849C1940.71 431.888 1936.57 430.139 1931.37 429.403C1922.97 428.269 1916.55 425.636 1910.13 422.954C1908.65 422.351 1907.59 421.477 1906.42 420.695C1904.18 419.135 1902.14 417.441 1899.7 415.92C1895.4 413.148 1897.5 409.286 1904.18 408.693C1909.34 408.218 1914.78 408.193 1920.11 408.259C1932.89 408.494 1944.05 410.923 1953.92 415.174C1955.39 415.826 1957.08 416.392 1958.77 416.909C1970.68 420.39 1983.48 422.173 1996.77 422.336C2017 422.547 2028.08 418.3 2032.87 408.96C2033.09 408.488 2033.32 407.967 2033.64 407.499C2034.94 405.629 2036.78 405.138 2040.89 405.628C2046.09 406.22 2050.56 407.597 2054.81 409.206C2059.36 410.926 2064.01 412.652 2069.08 413.914C2075.55 415.534 2082.55 416.551 2089.12 418.032C2101.18 420.649 2112.01 419.629 2122.21 416.838C2123.85 416.386 2125.1 415.48 2125.95 414.602C2127.11 413.547 2127.87 412.423 2128.53 411.247C2128.86 410.586 2129 409.819 2128.73 409.178C2126.35 404.324 2121.93 399.999 2114.14 396.478C2110.79 394.961 2107.2 394.206 2102.87 394.333C2101.15 394.395 2099.53 394.51 2097.82 394.571C2084.72 394.804 2072.39 387.387 2076.43 380.912C2078.3 381.825 2080.28 382.501 2081.44 383.428C2082.41 384.2 2082.56 385.223 2083.12 386.121C2084.52 388.461 2085.91 388.915 2092.16 388.833C2086.27 385.597 2087.22 382.694 2091.99 379.832C2093.44 378.984 2094.21 377.619 2094.27 376.414C2094.55 370.722 2093.54 368.739 2080.2 369.637C2080 369.627 2079.8 369.666 2079.6 369.656C2067.35 370.849 2058.12 368.175 2050.69 363.415C2046.98 361.058 2046 358.448 2047.25 355.656C2048.05 353.713 2052.37 353.923 2054.02 355.164C2055.18 355.994 2055.74 357.085 2055.99 358.064C2056.25 358.851 2055.71 359.694 2055.67 360.514C2055.67 362.497 2058.86 363.232 2061.85 363.861C2064.74 364.485 2067.75 364.825 2069.35 362.969C2068.66 362.5 2067.98 362.08 2067.4 361.617C2061.37 357.214 2064.38 353.299 2074.5 352.245C2075.92 352.12 2077.43 352.001 2078.95 351.978C2084.48 352.005 2090.13 351.893 2095.65 352.162C2103.19 352.529 2108.89 351.211 2113.74 348.836C2118.07 346.775 2118.13 345.617 2114.02 343.193C2109.91 340.721 2104.76 338.875 2099.1 337.294C2093.13 335.65 2087.28 333.915 2081.42 332.083C2066.64 327.447 2051.54 323.183 2035.71 319.512C2025.75 317.238 2015.8 314.82 2006.05 312.363C2002.97 311.585 2000 310.473 1997.54 309.29C1991.93 306.6 1991.63 306.537 1985.89 308.626C1981.99 310.08 1981.53 311.267 1985.48 312.861C1988.84 314.185 1992.81 315.345 1996.81 316.023C2008.19 318.076 2018.42 320.894 2027.08 325.135C2029.54 326.366 2031.79 327.733 2033.73 329.133C2034.51 329.703 2034.85 330.928 2034.23 331.381C2033.5 331.878 2031.28 331.866 2029.67 331.885C2028.66 331.932 2027.57 331.686 2026.57 331.492C2012 328.704 1997.43 326.013 1983.07 323.09C1975.79 321.624 1969.35 319.473 1967.74 315.237C1967.56 314.793 1965.66 314.459 1964.47 314.111C1964.14 314.723 1963.1 315.398 1963.48 315.9C1966.23 319.369 1968.47 322.96 1977.79 323.945C1980.8 324.236 1983.36 325.425 1983.37 327.31C1969.17 327.2 1955.05 321.484 1953.95 315.194C1953.24 311.195 1954.14 307.178 1954.32 303.415C1957.57 302.848 1960.31 302.402 1962.95 301.853C1973.84 299.627 1985.24 299.215 1997.37 300.337C2006.09 301.149 2014.93 301.531 2023.78 301.961C2028.9 302.21 2033.47 301.466 2037.56 300.214C2043.59 298.332 2044.74 295.343 2040.97 292.161C2040.1 291.442 2038.72 290.795 2037.85 290.076C2036.2 288.69 2034.56 287.305 2033.22 285.886C2032.36 284.925 2032.01 283.845 2031.25 282.841C2028.69 279.719 2025.81 278.709 2019.25 279.114C2014.3 279.405 2010.01 278.664 2005.41 277.812C1998.03 276.438 1990.64 275.111 1983.04 274.064C1974.13 272.857 1965.55 271.376 1957.51 268.906C1946.79 265.629 1935.34 262.992 1923.23 261.388C1916.43 260.476 1910.2 260.221 1905.32 263.127C1902.42 264.823 1897.87 265.181 1893.06 264.706C1890.35 264.429 1888.28 263.603 1888.24 262.392C1887.99 259.189 1887.95 255.996 1888.3 252.822C1888.49 251.091 1890.96 249.954 1894.8 249.609C1899.35 249.202 1903.81 248.646 1908.46 248.244C1929.3 246.453 1950.02 246.978 1970.88 250.701C1981.77 252.633 1992.97 254.242 2004.06 255.894C2016.26 257.696 2028.69 258.881 2041.22 258.137C2046.67 257.774 2051.89 258.173 2057.08 259.054C2087.86 264.033 2118.84 268.877 2149.51 273.995C2160.7 275.845 2171.45 278.351 2182.31 280.717C2185.9 281.471 2188.96 282.781 2192.44 283.724C2198.2 285.309 2204.39 286.529 2209.94 288.298C2219.46 291.276 2228.57 294.571 2237.88 297.683C2240.66 298.592 2243.43 299.549 2246.42 300.13C2249.81 300.827 2255.2 299.88 2255.96 298.66C2257.06 296.876 2254.08 296.054 2251.71 295.069C2251.41 294.909 2251.01 294.793 2250.62 294.677C2240.32 291.082 2230.23 287.351 2219.82 283.896C2209.22 280.382 2201.11 275.201 2188.63 272.999C2187.23 272.737 2186.16 272.105 2184.77 271.699C2174.75 268.552 2165.47 264.716 2154.08 262.76C2146.19 261.409 2138.63 259.59 2130.84 258.148C2119.17 255.984 2107.39 253.864 2095.49 251.979C2085 250.308 2074.71 248.551 2065.08 245.713C2063 245.128 2060.71 244.582 2058.4 244.373C2054.09 243.969 2050.72 242.887 2047.47 241.471C2043.32 239.674 2039.18 237.877 2035.04 236.032C2033.66 235.385 2032.49 234.651 2031.22 233.912C2031.94 233.464 2032.37 233.049 2032.67 233.064C2036.98 233.419 2040.36 232.278 2044.11 231.784C2050.09 231.011 2056.25 230.634 2062.45 231.564C2067.65 232.349 2072.63 233.414 2077.71 234.483C2090.48 237.134 2103.24 239.786 2115.89 242.578C2131.33 245.988 2146.56 249.775 2162.11 252.949C2174.78 255.548 2187.16 255.715 2197.54 251.289C2202.79 249.079 2203.15 247.839 2199.48 244.567C2194.56 240.169 2187.36 236.967 2178.52 234.458C2168.19 231.489 2158.18 228.342 2148.16 225.148C2138.74 222.127 2129.32 219.009 2120.11 215.854C2116.15 214.501 2111.99 213.138 2108.65 211.428C2105.9 209.989 2104.08 208.063 2102.45 206.243C2101.88 205.587 2102.74 204.42 2103.78 203.842C2105.23 202.994 2107.11 203.618 2108.89 204.285C2114.83 206.507 2121.07 206.617 2127.08 205.073C2134.32 203.202 2135.63 199.156 2129.95 195.881C2127.99 194.771 2125.21 193.959 2122.62 193.204C2117.46 191.744 2112.09 190.419 2106.92 189.007C2104.43 188.306 2101.65 187.494 2102.74 185.807C2103.83 184.216 2106.82 184.7 2109.33 184.967C2112.73 185.374 2116.03 185.873 2119.43 186.329C2126.34 187.293 2130.12 186.124 2130.99 182.733C2131.85 179.488 2128.96 176.737 2123.93 174.558C2120.88 173.201 2117.42 171.872 2113.74 170.919C2105.78 168.888 2101.99 165.996 2103.01 161.791C2103.01 161.598 2103.22 161.415 2103.44 161.087C2107.01 160.294 2110.51 160.706 2114.18 161.803C2119.15 163.205 2124.22 164.468 2129.41 165.59C2136.48 167.143 2143.67 168.411 2150.64 169.96C2159.71 171.996 2169.11 173.42 2178.73 174.372C2183.84 174.863 2189.07 174.924 2194.21 174.98C2198.53 175.046 2201.51 173.934 2202.29 172.28C2203.2 170.293 2200.54 169.1 2197.46 168.128C2194.09 167.094 2190.5 166.243 2187.02 165.3C2185.23 164.826 2183.55 164.261 2181.76 163.738C2184.3 163.33 2186.6 163.587 2188.43 163.289C2191.58 162.766 2194.08 163.081 2196.96 163.946C2201.33 165.222 2205.66 165.24 2209.56 163.786C2212.22 162.755 2215.04 162.796 2218.54 163.353C2223.54 164.128 2228.76 164.43 2233.88 164.824C2237.09 165.029 2240.23 164.65 2241.01 163.044C2242.23 160.686 2245.77 160.472 2249.88 160.769C2253.3 161.031 2256.69 161.535 2260 161.938C2262.3 162.243 2264.6 162.645 2266.9 162.806C2272.73 163.137 2275.7 162.17 2277.33 159.59C2277.99 158.607 2278.14 157.551 2278.89 156.62C2280.17 155.039 2281.7 154.678 2285.39 155.341C2289.09 156.005 2292.78 156.716 2296.26 157.563C2311.49 161.301 2326.51 165.223 2341.84 168.773C2347.92 170.181 2354.73 170.851 2361.23 171.844C2362.43 172.047 2363.73 172.207 2365.03 172.416C2368.53 172.876 2372.12 173.679 2375.64 173.754C2391.83 174.204 2403.4 178.634 2413.18 184.573C2416.01 186.307 2415.84 187.749 2413.45 189.421C2411.77 190.645 2409.43 191.304 2406.29 191.539C2394.97 192.438 2383.62 191.741 2372.42 190.18C2366.12 189.294 2359.82 188.31 2353.52 187.375C2351.02 187.012 2349.3 187.363 2348.44 188.481C2347.68 189.508 2348.54 190.372 2350.54 190.856C2353.62 191.683 2356.69 192.606 2359.99 193.153C2369.48 194.775 2379.06 196.45 2388.77 197.745C2398.88 199.107 2409.08 200.474 2419.32 201.165C2431.87 202.018 2440.27 199.091 2444.05 193.667C2445.89 191.097 2444.69 188.863 2441.17 186.661C2437.94 184.715 2434.72 182.769 2431.79 180.79C2427.6 177.927 2422.68 175.56 2416.74 173.53C2408.42 170.66 2400.62 167.331 2394.47 163.309C2391.94 161.639 2389.26 160.687 2384.85 160.423C2379.12 160.096 2374.67 158.478 2372.59 155.621C2370.8 153.213 2372.28 151.689 2376.96 150.757C2378.38 150.488 2380.01 150.035 2380.75 149.442C2384.72 146.493 2385.94 146.214 2393.02 147.574C2400.61 149.055 2408.08 150.628 2415.56 152.152C2420.05 153.047 2421.16 152.908 2423.47 151.086C2424.3 150.45 2424.95 149.708 2425.69 148.922C2424.9 148.497 2424.42 148.135 2423.62 147.903C2411.59 144.707 2399.89 140.995 2387.32 138.498C2372.76 135.565 2359.46 131.533 2345.11 128.418C2341.63 127.668 2338.63 127.087 2334.68 127.523C2327.7 128.247 2322.28 125.856 2321.96 122.118C2324.82 121.242 2328.22 121.649 2331.23 122.037C2348.34 124.272 2365.46 126.362 2381.69 130.101C2384.38 130.715 2386.79 130.881 2388.65 129.763C2390.52 128.645 2389.88 127.357 2387.71 126.381C2384.46 124.966 2380.9 123.632 2377.33 122.395C2372.38 120.607 2366.51 119.209 2362.38 117.075C2353.74 112.641 2343.93 109.263 2332.56 106.969C2305.54 101.496 2278.95 95.3675 2251.28 90.7333C2244.68 89.6388 2242.82 86.5988 2247.56 84.4121C2249.1 83.7137 2251.45 83.1509 2253.66 83.1138C2258.71 82.9242 2262.38 81.8943 2265.68 80.2662C2273.94 76.1234 2284.57 75.0452 2296.59 76.3072C2305.11 77.2051 2313.5 78.5322 2322.02 79.3337C2326.84 79.7614 2332.26 80.0736 2336.52 79.4108C2343.12 78.3781 2349.15 78.5268 2355.95 79.631C2367.14 81.4327 2378.53 83.2441 2389.95 84.525C2397.46 85.3741 2405.41 85.5674 2412.97 85.4517C2420.42 85.3312 2422.43 83.4948 2420.28 80.0061C2418.13 76.5656 2415.58 73.202 2412.82 69.8286C2411.97 68.7717 2410.42 67.4876 2408.52 67.0571C2401.86 65.4272 2396.95 62.8193 2391.32 60.6113C2389.83 60.0074 2387.83 59.7167 2386.04 59.291C2375.88 57.0077 2365.51 54.8111 2355.46 52.3879C2341.63 49.0554 2328.01 45.3952 2313.31 43.2295C2308.91 42.5802 2304.51 41.8828 2300.11 41.3782C2294.9 40.7863 2290.33 41.4827 2286.53 43.0864C2281.8 45.0802 2281.59 47.294 2286.62 49.4245C2290.47 51.0139 2294.73 52.4782 2299.32 53.4748C2310.78 55.9665 2322.45 58.2749 2334.13 60.3904C2351.19 63.5417 2367.19 68.0428 2384.57 70.8712C2388.27 71.4862 2391.4 73.4272 2394.45 74.9293C2395.23 75.306 2394.78 76.2512 2394.84 77.2207C2381.17 76.5558 2368.08 76.5471 2355.3 74.2331C2348.52 72.9842 2340.7 72.2652 2336.96 68.3124C2336.1 67.4002 2333.41 66.7376 2331.33 66.1044C2328.75 65.302 2325.86 64.6778 2323.28 63.8754C2316.73 61.8646 2309.87 60.032 2303.74 57.7513C2297.21 55.3064 2290.35 53.5703 2282.54 52.6101C2281.14 52.4452 2279.74 52.232 2278.14 52.0091C2278.29 48.9222 2278.13 46.0135 2278.67 43.1873C2279.23 39.9753 2282.29 36.982 2280.14 33.5414C2285.63 32.5997 2290.88 32.3716 2296.3 32.5874C2298.41 32.6901 2300.73 32.7543 2302.55 32.4564C2306.21 31.8607 2307.1 30.067 2304.24 28.8159C2299.7 26.9028 2297.6 24.5765 2296.32 21.9517C2295.49 20.2678 2293.55 18.8195 2290.15 18.4121C2282.14 17.3939 2276.11 14.9734 2270.1 12.36C2265.76 10.5049 2260.87 9.49362 2255.12 9.79371C2249.36 10.0938 2247.68 9.48011 2246.6 6.76863C2246.15 5.7313 2246.3 4.72329 2246.25 3.65728C2246.14 1.71819 2246.14 -0.216014 2246.05 -2.63744C2247.48 -2.90662 2249.63 -3.67208 2252.05 -3.74767C2255.58 -3.86593 2259.3 -3.82973 2262.81 -3.41742C2271.52 -2.36502 2280.01 -1.03302 2288.72 0.164085C2293.82 0.847551 2295.67 0.163877 2294.78 -2.39313C2294.17 -4.26019 2293.05 -6.10348 2291.73 -7.86008C2289.26 -11.0741 2284.65 -13.4262 2277.97 -14.9114C2269.9 -16.7062 2262.25 -18.8673 2254.18 -20.6139C2245.51 -22.5345 2236.84 -24.3103 2227.95 -25.8549C2222.36 -26.8039 2216.85 -27.507 2212.22 -29.6661C2209.76 -30.8012 2206.17 -31.5078 2202.98 -32.0984C2198.68 -32.8874 2194.17 -33.3485 2189.78 -34.0942C2184.69 -34.9706 2179.49 -35.852 2174.52 -37.0611C2167.85 -38.691 2161.61 -40.88 2154.73 -42.3268C2137.99 -45.8975 2120.92 -49.0488 2104.07 -52.5761C2081.25 -57.4097 2057.23 -60.6572 2034.95 -66.1899C2031.46 -67.0845 2027.56 -67.4682 2023.86 -68.1796C2016.48 -69.5543 2009.09 -70.929 2001.81 -72.3953C1989.15 -74.8974 1976.91 -78.0069 1963.58 -79.3807C1954.37 -80.3611 1945.89 -82.1754 1939.83 -85.8549C1935.91 -88.1727 1931.14 -89.4203 1925.55 -90.3211C1915.55 -91.8712 1905.45 -93.4261 1895.46 -95.0244C1880.27 -97.504 1864.76 -99.4677 1850.44 -103.21C1849.25 -103.51 1848.16 -103.95 1846.97 -104.346C1849.61 -104.798 1851.93 -104.734 1854.23 -104.525C1864.05 -103.563 1873.87 -102.554 1883.7 -101.64C1889.21 -101.13 1894.84 -100.808 1900.36 -100.443C1901.36 -100.394 1902.48 -100.63 1904.4 -100.826C1890.94 -105.639 1876.24 -107.756 1861.56 -110.308C1863.66 -112.091 1866.37 -111.863 1869.28 -111.528C1883.1 -109.985 1896.92 -108.442 1910.74 -106.948C1914.15 -106.588 1917.57 -106.422 1921.09 -106.299C1922.09 -106.25 1923.72 -106.654 1923.94 -107.079C1924.17 -107.503 1923.4 -108.266 1922.51 -108.696C1921.43 -109.232 1920.04 -109.59 1918.64 -109.899C1912.76 -111.104 1906.88 -112.309 1900.88 -113.326C1888.2 -115.442 1875.5 -117.414 1862.81 -119.481C1857.62 -120.315 1852.74 -121.374 1847.21 -121.739C1843.6 -122.012 1839.11 -122.762 1837 -124.992C1841.82 -124.758 1846.23 -124.35 1850.67 -124.376C1857.21 -124.395 1863.42 -123.562 1869.71 -122.627C1877.71 -121.464 1885.71 -120.204 1893.84 -119.664C1905.08 -118.923 1916.1 -117.71 1927 -116.164C1929.6 -115.796 1932.33 -115.857 1935.54 -115.7C1935.08 -116.641 1935.12 -117.365 1934.53 -117.587C1932.84 -118.201 1930.86 -118.829 1928.86 -119.12C1923.27 -120.069 1917.46 -120.738 1911.97 -121.731C1904.78 -123.047 1897.81 -124.692 1890.62 -125.96C1877.04 -128.362 1863.47 -130.956 1849.24 -132.277C1843.12 -132.865 1837.03 -133.983 1831.04 -135.048C1820.66 -136.859 1810.59 -138.993 1800.1 -140.616C1770.41 -145.203 1740.72 -149.79 1712.99 -157.183C1709.71 -158.068 1706.42 -158.808 1702.47 -158.276C1701.15 -158.098 1698.26 -158.77 1697.68 -159.33C1696.72 -160.296 1696.68 -161.555 1697.03 -162.553C1697.59 -163.686 1699.92 -163.863 1702.22 -163.606C1710.53 -162.621 1716.25 -164.325 1720.93 -167.192C1722.07 -167.91 1723.31 -168.574 1724.55 -169.239C1728.79 -171.595 1730.75 -174.498 1730 -177.725C1729.33 -180.513 1728.15 -183.278 1726.68 -186.057C1725.39 -188.634 1723.5 -191.143 1722.01 -193.633C1719.87 -197.218 1721.02 -198.177 1728.36 -197.917C1733.69 -197.706 1739.1 -197.201 1744.3 -196.464C1752.51 -195.34 1760.59 -193.883 1768.69 -192.618C1818.87 -184.906 1869.05 -177.339 1919.12 -169.439C1943.91 -165.526 1968.36 -160.903 1993.03 -156.753C1996.83 -156.133 2001.05 -156.073 2005.08 -155.974C2007.19 -155.919 2009.22 -156.207 2009.78 -157.533C2010.25 -158.816 2009.39 -159.776 2007.42 -160.598C2001.39 -163.067 1995.05 -165.116 1987.55 -166.302C1980.65 -167.363 1973.76 -168.569 1967.29 -170.141C1956.55 -172.743 1945.54 -174.149 1933.96 -174.277C1923.8 -174.433 1913.77 -175.26 1903.87 -176.853C1871.8 -182.089 1839.83 -187.271 1807.87 -192.694C1792.19 -195.343 1775.75 -196.916 1760.62 -200.553C1759.22 -200.863 1757.61 -200.893 1756.21 -201.106C1745.51 -202.594 1734.81 -204.082 1724.1 -205.57C1718.2 -206.389 1712.4 -207.106 1706.49 -207.829C1704.08 -208.091 1701.88 -208.247 1701.16 -210.119C1714.27 -208.465 1726.89 -206.885 1739.5 -205.256C1752.01 -203.68 1764.42 -202.157 1776.93 -200.533C1789.34 -198.914 1801.74 -197.198 1814.05 -195.536C1814.26 -195.767 1814.38 -196.052 1814.59 -196.283C1812.6 -196.815 1810.72 -197.535 1808.62 -197.879C1802.23 -199.011 1795.74 -200.101 1789.34 -201.089C1770.95 -203.918 1752.56 -206.699 1734.16 -209.48C1719.77 -211.679 1705.26 -213.69 1690.88 -216.034C1685.38 -216.93 1680.33 -218.675 1675.06 -219.995C1669.98 -221.257 1664.92 -222.712 1659.63 -223.695C1646.75 -226.062 1633.4 -226.857 1620.04 -227.652C1608.19 -228.326 1596.34 -228.903 1584.6 -229.909C1575.08 -230.759 1565.34 -231.378 1556.61 -234.22C1554.83 -234.79 1552.52 -235.048 1550.42 -235.295C1532.99 -237.207 1515.56 -239.119 1498.03 -240.891C1477.58 -242.998 1457.03 -244.82 1437.06 -248.306C1435.06 -248.645 1432.66 -248.955 1431.18 -249.607C1428.12 -250.965 1425.38 -252.549 1422.63 -254.036C1416.16 -257.639 1410.36 -258.453 1401.92 -256.833C1398.06 -256.102 1394.29 -255.174 1390.81 -254.134C1385.81 -252.686 1380.44 -252.125 1374.42 -252.466C1367.29 -252.813 1360.25 -253.059 1353.12 -253.551C1348.6 -253.819 1343.98 -254.093 1339.79 -254.925C1332.71 -256.333 1325.48 -256.782 1318.15 -257.235C1314.94 -257.392 1311.74 -257.789 1308.53 -258.042C1301.71 -258.616 1294.8 -259.532 1287.96 -259.623C1269.54 -259.795 1251.48 -261.157 1233.35 -263.248C1223.64 -264.397 1213.83 -265.552 1204.11 -266.701C1202.01 -266.949 1199.8 -267.104 1197.81 -267.54C1193.82 -268.411 1189.8 -268.51 1185.76 -268.175C1176.76 -267.501 1167.83 -268.081 1158.81 -269.003C1152.19 -269.663 1145.56 -269.986 1138.83 -270.265C1134.1 -270.447 1129.36 -270.243 1124.63 -270.376C1106.34 -271.025 1088.05 -271.915 1069.75 -272.37C1058.88 -272.657 1048.86 -273.629 1039.97 -277.252C1038 -278.073 1035.4 -278.538 1033.12 -279.181C1029.2 -279.372 1025.38 -279.557 1021.46 -279.748C1019.19 -278.602 1016.3 -279.274 1013.69 -279.401C1007.46 -279.704 1001.15 -280.302 995.001 -280.214C986.734 -280.036 978.538 -279.227 970.264 -278.904C963.1 -278.624 955.731 -278.258 948.6 -278.653C943.479 -278.951 939.939 -278.639 937.309 -276.35C932.679 -278.461 927.859 -278.744 922.588 -278.033C915.695 -277.112 908.615 -276.489 901.631 -275.766C899 -275.507 896.269 -275.253 893.54 -275.047C890.304 -274.77 886.958 -274.304 883.638 -274.369C862.31 -274.827 841.088 -275.376 819.765 -275.93C813.73 -276.079 810.168 -277.364 807.78 -280.043C805.68 -282.418 798.571 -283.247 795.85 -281.155C793.238 -279.204 789.906 -279.027 785.584 -279.189C775.226 -279.5 764.959 -279.613 754.693 -279.726C746.541 -279.832 738.377 -279.698 730.223 -279.756C721.566 -279.839 713.034 -280.4 704.641 -281.775C697.447 -282.947 693.693 -282.356 690.552 -279.898C694.827 -278.772 697.035 -278.616 702.975 -278.568C713.04 -278.465 723.211 -278.454 733.255 -277.917C749.629 -277.071 765.893 -276.038 782.228 -276.452C785.153 -276.551 787.753 -276.183 788.552 -273.968C785.912 -273.517 783.365 -272.916 780.533 -272.667C774.668 -272.178 768.624 -272.134 762.855 -271.545C748.791 -270.199 734.627 -268.857 719.938 -269.137C710.078 -269.327 700.722 -267.462 690.687 -268.192C689.283 -268.308 687.853 -267.894 686.336 -267.775C676.011 -266.682 665.784 -265.536 654.749 -266.411C641.707 -267.433 628.548 -268.122 615.511 -269.24C604.88 -270.144 593.84 -270.923 585.493 -275.293C585.97 -276.817 588.893 -276.868 591.218 -277.045C600.711 -277.599 610.2 -278.055 619.683 -278.416C623.214 -278.534 626.347 -278.768 628.728 -280.103C632.145 -282.016 636.722 -282.953 642.066 -283.08C645.897 -283.183 649.82 -283.089 653.638 -282.903C662.982 -282.449 672.157 -282.679 680.789 -284.144C686.576 -285.12 692.544 -285.651 698.789 -285.686C700.703 -285.689 702.623 -285.838 704.448 -286.087C705.462 -286.231 706.189 -286.679 707.11 -286.973C706.523 -287.34 706.234 -287.596 705.932 -287.61C704.932 -287.756 703.834 -287.954 702.825 -287.907C694.245 -287.502 685.626 -288.357 677.103 -289.11C674.096 -289.402 671.075 -289.404 668.054 -289.406C660.397 -289.343 652.637 -289.237 644.971 -288.982C623.691 -288.325 602.496 -287.375 581.229 -287.008C555.324 -286.528 529.877 -285.107 504.507 -283.199C494.4 -282.434 488.637 -279.91 487.094 -275.102C486.734 -273.911 486.472 -272.667 486.411 -271.413C486.295 -266.971 489.709 -264.677 499.036 -263.885C510.769 -262.879 522.348 -260.768 534.234 -260.818C536.552 -260.85 538.956 -260.588 540.192 -259.078C539.168 -258.741 538.439 -258.245 537.325 -258.105C525.77 -256.589 514.214 -255.024 501.919 -254.849C497.688 -254.813 493.779 -255.197 490.426 -256.665C484.904 -259.061 478.495 -259.808 471.635 -259.562C467.396 -259.381 463.251 -259.051 459.013 -258.871C445.795 -258.354 432.676 -257.784 419.407 -260.363C417.113 -260.813 414.293 -260.805 411.774 -260.783C385.384 -260.665 358.998 -260.644 332.7 -260.377C309.828 -260.136 287.783 -258.26 266.852 -254.444C254.66 -252.233 245 -248.255 236.029 -243.954C229.327 -240.751 234.854 -236.372 241.46 -235.519C245.163 -235.049 249.091 -235.051 252.923 -235.154C256.553 -235.268 260.002 -235.777 263.54 -236.04C295.281 -238.508 327.483 -240.083 358.681 -243.786C367.595 -244.851 377.172 -245.062 386.452 -245.384C389.681 -245.517 393.495 -245.235 396.48 -244.509C402.455 -243.106 403.23 -240.41 398.306 -238.57C396.458 -237.838 394.018 -237.377 391.586 -237.06C377.992 -235.014 364.302 -233.07 350.706 -230.976C346.748 -230.346 342.883 -229.568 339.212 -228.634C338.193 -228.394 337.142 -227.478 337.319 -226.986C337.494 -226.446 339.181 -225.928 340.265 -225.44C340.76 -225.271 341.466 -225.285 342.167 -225.203C351.178 -224.136 360.125 -223.797 369.022 -224.524C374.684 -224.974 380.42 -224.888 386.929 -224.136C385.709 -223.906 385.198 -223.737 384.592 -223.718C360.087 -223.025 335.582 -222.332 311.079 -221.688C301.095 -221.4 291.016 -221.214 280.885 -222.045C278.478 -222.259 275.938 -221.802 273.413 -221.635C268.462 -221.296 263.501 -220.764 258.454 -220.526C251.893 -220.217 245.244 -220.154 238.683 -219.845C229.601 -219.465 220.493 -218.554 211.334 -218.661C198.654 -218.843 186.721 -217.829 174.866 -216.327C167.975 -215.453 161.171 -214.286 154.096 -213.76C136.507 -212.392 118.927 -211.217 101.246 -210.047C94.9818 -209.627 88.5216 -209.312 82.0192 -210.209C81.0192 -210.354 79.8113 -210.365 78.9 -210.264C61.5978 -208.592 44.7792 -206.51 29.5726 -202.367C24.2661 -200.933 20.4502 -199.088 19.293 -196.002C18.3789 -193.774 15.0769 -192.146 9.94838 -192.299C0.0955719 -192.633 -10.0751 -192.645 -19.6826 -193.886C-30.388 -195.325 -40.93 -195.984 -51.7034 -196.024C-73.6571 -196.029 -94.5761 -194.533 -114.215 -190.364C-125.307 -188.003 -137.062 -186.496 -149.296 -185.496C-171.942 -183.698 -194.928 -183.172 -218.106 -182.85C-227.983 -182.702 -237.67 -182.303 -246.437 -180.119C-255.816 -177.772 -258.354 -175.284 -255.986 -170.141C-255.073 -168.211 -254.363 -166.243 -253.854 -164.284C-252.68 -159.441 -247.498 -156.239 -237.597 -154.839C-232.996 -154.18 -228.277 -153.902 -223.562 -153.527C-221.055 -153.309 -218.251 -152.979 -218.214 -151.671C-218.16 -150.702 -219.53 -149.463 -221.165 -148.963C-223.722 -148.168 -226.958 -147.891 -229.904 -147.357C-236.914 -146.103 -244.314 -145.109 -250.936 -143.546C-255.317 -142.502 -259.682 -141.796 -264.628 -141.554C-279.663 -140.932 -294.701 -140.261 -309.746 -139.446C-312.977 -139.265 -316.335 -138.558 -318.796 -137.663C-325.462 -135.183 -324.185 -130.383 -316.228 -128.352C-312.845 -127.51 -308.739 -127.021 -305.015 -126.984C-293.442 -126.808 -281.858 -126.873 -270.276 -126.889C-254.769 -126.86 -239.365 -126.787 -223.947 -124.924C-205.627 -122.679 -187.152 -121.538 -168.626 -121.459C-164.799 -121.466 -160.888 -121.13 -157.079 -120.752C-154.776 -120.494 -151.547 -120.627 -150.823 -118.948C-150.377 -117.766 -153.604 -115.603 -156.24 -115.248C-157.861 -115.036 -159.581 -114.878 -161.196 -114.812C-165.836 -114.651 -170.581 -114.398 -175.21 -114.479C-179.637 -114.549 -184.264 -114.678 -188.567 -115.225C-193.172 -115.788 -197.553 -116.823 -202.044 -117.67C-206.833 -118.58 -208.658 -118.33 -212.39 -116.143C-210.638 -114.897 -208.785 -113.647 -206.935 -112.348C-209.615 -111.077 -212.153 -110.668 -215.375 -110.68C-222.022 -110.665 -228.67 -110.65 -235.223 -110.486C-266.792 -109.508 -298.519 -109.408 -330.311 -110.037C-336.952 -110.167 -343.601 -110.104 -350.253 -109.992C-356.805 -109.876 -359.791 -108.522 -361.044 -105.538C-361.381 -104.829 -361.416 -104.105 -361.451 -103.382C-361.643 -101.506 -363.223 -100.084 -366.394 -99.0777C-367.417 -98.7408 -368.539 -98.4569 -369.464 -98.0668C-377.888 -94.6574 -376.424 -89.558 -365.878 -86.9175C-361.6 -85.839 -356.895 -85.2716 -352.29 -84.7091C-347.383 -84.1319 -342.458 -83.9405 -337.542 -83.5562C-319.981 -82.2665 -302.322 -80.9236 -284.761 -79.6339C-278.539 -79.186 -272.311 -78.8828 -266.201 -78.1987C-252.981 -76.6851 -239.743 -75.5574 -226.343 -75.6788C-224.126 -75.7159 -221.733 -75.2127 -219.43 -74.9555C-219.441 -74.7144 -219.451 -74.5215 -219.462 -74.2803C-225.32 -73.9369 -231.18 -73.5452 -237.036 -73.25C-253.996 -72.3833 -270.854 -71.5599 -287.815 -70.6932C-289.934 -70.6029 -292.065 -70.2715 -294.392 -70.0464C-291.295 -67.4783 -287.25 -67.8132 -283.423 -67.8204C-258.35 -67.7605 -233.172 -67.7922 -208.102 -67.684C-191.186 -67.6343 -174.176 -67.435 -157.166 -67.2357C-128.986 -66.8795 -100.808 -66.4751 -72.7308 -66.0756C-71.4224 -66.0603 -70.1093 -66.1414 -68.9107 -65.938C-67.8126 -65.7396 -66.4272 -65.237 -66.2451 -64.8414C-66.0629 -64.4457 -67.203 -63.776 -68.119 -63.5789C-72.1846 -62.8098 -76.4444 -62.1952 -80.51 -61.4261C-87.1155 -60.2005 -93.8726 -59.9975 -101.113 -60.2049C-114.186 -60.5993 -127.275 -60.6561 -140.364 -60.713C-158.588 -60.778 -176.736 -60.3559 -195.047 -60.7152C-214.164 -61.0654 -233.293 -61.1745 -252.345 -60.7963C-284.6 -60.1905 -316.858 -59.5364 -349.111 -58.9788C-360.197 -58.7931 -365.148 -60.5329 -368.717 -65.8313C-369.847 -67.4335 -371.7 -68.6839 -374.989 -69.3758C-383.169 -70.9826 -394.446 -68.969 -396.549 -65.0586C-398.868 -60.8685 -404.983 -59.3773 -413.065 -58.852C-430.951 -57.5952 -448.732 -56.43 -466.623 -55.0767C-471.172 -54.7179 -475.635 -54.0649 -479.999 -53.3587C-483.958 -52.7295 -485.848 -51.1293 -485.545 -49.084C-485.242 -47.0387 -483.104 -45.4359 -479.015 -44.6084C-475.922 -44.0227 -472.826 -43.4853 -469.616 -43.2324C-446.343 -41.3745 -423.209 -40.7805 -400.022 -41.2958C-377.138 -41.7776 -354.259 -42.1629 -331.478 -42.6013C-329.562 -42.6531 -327.644 -42.7531 -325.822 -42.9545C-323.091 -43.2084 -321.24 -43.9885 -321.569 -45.5033C-321.905 -46.8734 -324.087 -47.5597 -326.597 -47.7302C-330.01 -47.9447 -333.526 -48.1159 -336.952 -48.0892C-346.216 -48.1049 -355.391 -47.8746 -364.651 -47.9868C-370.791 -48.0439 -377.011 -48.5399 -383.139 -48.8382C-382.214 -49.2283 -381.3 -49.3772 -380.293 -49.3765C-365.695 -49.2946 -351.089 -49.3573 -336.501 -49.0825C-320.603 -48.7923 -304.687 -48.8879 -289.037 -49.7217C-276.616 -50.4226 -264.277 -51.5142 -251.676 -51.7712C-234.136 -52.1263 -216.526 -51.8494 -198.904 -51.8137C-193.568 -51.7957 -188.133 -51.7246 -182.808 -51.4655C-180.799 -51.3677 -178.505 -50.9176 -176.925 -50.2606C-172.781 -48.5118 -167.998 -47.4571 -162.891 -46.8701C-161.089 -46.6374 -159.293 -46.3082 -157.295 -45.9693C-157.527 -45.352 -157.349 -44.8599 -157.765 -44.5901C-160.155 -43.0626 -160.52 -41.775 -156.355 -40.4603C-155.462 -40.1751 -154.712 -39.0267 -155.037 -38.559C-156.215 -37.1176 -157.309 -35.3336 -159.667 -34.4814C-168.072 -31.4578 -176.874 -28.5502 -185.863 -25.9419C-189.847 -24.782 -194.807 -24.2499 -199.464 -23.7514C-207.058 -22.9122 -214.741 -22.3192 -222.423 -21.7261C-227.781 -21.31 -233.239 -20.8988 -238.781 -20.8301C-241.099 -20.7978 -243.991 -21.3737 -245.968 -22.1468C-252.984 -24.9056 -260.65 -24.6501 -268.227 -24.1486C-271.358 -23.9626 -273.421 -22.951 -272.69 -21.4167C-271.329 -18.3529 -275.004 -17.3232 -279.673 -16.5834C-286.068 -15.5409 -292.552 -14.7445 -298.847 -13.6971C-305.345 -12.6113 -312.041 -11.5835 -317.96 -9.986C-328.881 -6.98816 -329.542 -1.70212 -319.797 2.92995C-317.337 4.11331 -314.265 5.1331 -311.286 6.00326C-308.307 6.87345 -304.914 7.52198 -301.728 8.25726C-295.352 9.67953 -294.399 10.7896 -296.164 13.9429C-297.379 16.1561 -298.4 18.5237 -298.614 20.834C-298.78 22.1796 -297.752 23.8251 -295.993 24.926C-289.739 28.8564 -281.807 31.4181 -271.44 31.5358C-265.905 31.6118 -260.27 31.6926 -254.733 31.7204C-252.819 31.7168 -250.903 31.6651 -248.98 31.4686C-240.278 30.635 -231.865 29.4974 -223.63 27.9159C-213.77 26.0268 -203.428 24.5962 -192.255 24.7048C-187.725 24.7319 -184.351 25.7663 -181.511 27.4033C-176.219 30.4166 -171.133 33.5167 -165.636 36.4433C-157.49 40.8042 -147.707 42.5856 -136.181 41.6478C-133.249 41.4037 -130.319 41.2079 -127.387 40.9639C-118.788 40.1736 -110.968 40.8926 -103.766 43.9506C-99.1281 45.9168 -98.4182 47.8852 -103.033 49.5945C-104.573 50.1964 -106.711 50.6725 -108.729 50.7677C-117.003 51.0902 -125.281 51.5093 -133.634 51.3928C-150.139 51.1697 -166.726 50.5559 -183.324 50.1832C-201.631 49.7274 -219.911 48.7411 -238.042 46.7468C-248.259 45.621 -258.485 44.6882 -268.817 43.8469C-275.637 43.2733 -281.722 44.1375 -285.678 46.7974C-288.908 49.0092 -293.373 49.7105 -298.896 49.3934C-304.922 49.0518 -310.943 48.6137 -316.978 48.465C-337.6 47.9932 -358.319 47.4683 -378.95 47.1895C-397.871 46.9455 -416.808 47.0392 -435.12 48.7588C-441.494 49.3672 -447.885 50.3131 -453.588 51.631C-462.96 53.834 -464.788 58.2897 -458.969 62.8757C-457.997 63.5999 -457.026 64.324 -455.848 64.9615C-448.288 68.9555 -439.579 72.0868 -428.873 73.5264C-408.364 76.3133 -388.722 80.3635 -368.975 84.322C-367.578 84.5834 -366.19 85.0377 -365.109 85.5738C-363.043 86.5929 -359.254 87.3575 -360.749 89.1219C-362.245 90.8863 -365.731 90.0882 -368.642 89.8981C-378.079 89.2938 -387.507 88.4965 -396.96 88.2299C-408.726 87.899 -420.168 87.1004 -431.338 84.8646C-433.931 84.3516 -436.836 84.0169 -439.551 83.9331C-448.002 83.7636 -452.084 86.9492 -448.543 90.7476C-445.957 93.4841 -441.897 94.8904 -435.761 95.044C-418.361 95.504 -400.864 96.0172 -383.469 96.5736C-351.595 97.5931 -319.711 98.4196 -287.958 99.8682C-253.594 101.444 -219.103 102.494 -184.832 105.999C-182.928 106.188 -181.028 106.474 -179.339 106.943C-178.148 107.291 -176.479 108.194 -176.694 108.474C-177.23 109.125 -178.571 109.785 -179.989 109.957C-182.324 110.327 -185.041 110.292 -187.567 110.459C-201.612 111.419 -215.659 112.428 -229.797 113.238C-238.178 113.701 -246.751 113.96 -255.314 114.027C-268.814 114.144 -282.368 113.291 -295.894 111.859C-305.01 110.883 -313.406 111.635 -320.581 114.235C-328.986 117.259 -330.756 120.508 -326.874 125.58C-326.115 126.536 -325.556 127.482 -324.517 128.886C-328.452 129.033 -331.487 129.32 -334.606 129.265C-348.186 128.943 -361.756 128.427 -375.237 128.158C-379.866 128.078 -384.803 128.128 -389.16 128.689C-396.56 129.683 -399.232 132.84 -396.69 136.493C-393.874 140.692 -386.851 143.306 -376.907 143.838C-362.442 144.59 -348.075 145.289 -333.605 145.945C-307.074 147.091 -281.442 150.128 -257.183 156.578C-254.001 157.41 -250.2 157.933 -246.691 158.249C-238.87 158.968 -232.315 160.834 -226.605 163.53C-223.456 165.037 -221.33 166.881 -222.84 168.934C-226.734 174.45 -227.422 180.315 -228.412 186.165C-228.683 187.602 -228.954 189.039 -229.625 190.409C-230.75 192.82 -233.738 194.221 -239.278 194.242C-254.285 194.285 -269.201 194.526 -284.206 194.521C-296.896 194.532 -309.569 194.205 -322.258 194.216C-340.284 194.209 -358.229 194.593 -376.409 193.611C-384.444 193.172 -392.311 193.418 -399.535 194.951C-405.337 196.216 -411.379 196.212 -417.674 195.181C-424.965 193.956 -431.742 194.544 -438.156 195.973C-443.654 197.204 -445.976 199.412 -445.117 202.451C-444.769 203.58 -444.12 204.723 -443.772 205.852C-443.172 208.009 -443.705 208.611 -447.771 209.38C-451.023 209.996 -454.664 210.302 -458.012 210.816C-465.015 211.926 -469.845 213.914 -470.738 217.787C-471.746 221.944 -475.435 223.263 -484.398 223.262C-487.821 223.241 -491.247 223.267 -494.665 223.149C-501.705 222.952 -506.219 224.666 -509.766 227.201C-513.103 229.552 -512.887 231.304 -508.875 233.723C-503.103 237.195 -495.755 239.341 -486.911 239.723C-466.007 240.595 -445.108 241.564 -424.278 241.901C-397.611 242.329 -371.017 242.172 -344.436 242.257C-333.963 242.284 -323.388 242.266 -313.007 242.095C-305.853 242.008 -298.923 242.393 -291.935 243.652C-287.444 244.499 -282.751 245.308 -278.136 245.677C-263.592 246.869 -248.94 247.92 -234.388 248.967C-210.809 250.743 -187.152 250.927 -163.596 253.186C-145.353 254.944 -126.676 256.046 -108.224 255.59C-107.418 255.581 -106.619 255.717 -105.215 255.833C-106.414 257.709 -107.503 259.396 -108.595 261.132C-110.231 263.712 -114.009 264.785 -119.642 264.656C-122.056 264.586 -124.365 264.426 -126.776 264.308C-135.622 263.975 -144.465 263.593 -153.218 263.408C-174.449 263.052 -195.805 263.173 -217.017 262.431C-258.642 261.034 -299.857 261.59 -341.178 262.238C-362.344 262.61 -383.59 262.543 -404.742 262.626C-416.527 262.681 -428.308 262.639 -440.187 262.544C-452.568 262.425 -464.713 263.671 -477.267 262.964C-480.783 262.793 -484.435 263.34 -487.968 263.507C-496.445 263.868 -499.028 267.271 -502.491 270.149C-503.015 270.558 -502.758 271.489 -502.071 271.861C-496.679 274.879 -491.399 278.134 -482.45 278.424C-475.411 278.622 -468.273 278.873 -461.214 278.684C-450.828 278.416 -440.359 278.491 -429.915 279.096C-427.607 279.256 -425.188 279.229 -422.868 279.148C-419.036 279.045 -415.298 278.792 -411.468 278.736C-405.218 278.605 -400.372 280.437 -399.698 283.129C-398.86 286.602 -402.192 288.857 -408.648 289.075C-412.078 289.198 -415.506 289.273 -418.84 289.497C-446.719 291.235 -474.846 291.848 -503.381 290.508C-516.965 290.282 -528.534 292.088 -535.974 298.059ZM1898.17 424.548C1901.15 425.466 1904.12 426.433 1907.21 427.212C1910.29 427.99 1913.9 428.407 1916.77 429.321C1919.35 430.123 1923.93 429.089 1925.51 431.922C1914.8 430.53 1905.63 428.633 1898.26 424.746C1898.16 424.693 1898.27 424.553 1898.28 424.456C1894.69 423.702 1894.69 423.702 1893.15 422.128C1893.46 421.998 1893.87 421.825 1894.18 421.695C1895.44 422.675 1896.81 423.611 1898.17 424.548ZM1771.66 472.636C1767.77 474.042 1767.77 474.042 1763.12 472.317C1766.53 472.483 1769.25 472.616 1771.86 472.743C1771.75 470.9 1770.51 469.293 1767.66 467.897C1766.29 467.202 1765.22 466.328 1764.46 465.469C1763.31 464.253 1764.56 463.443 1767.37 463.532C1768.68 463.595 1769.98 463.755 1771.17 464.007C1776.75 465.245 1782.14 466.329 1788.25 467.013C1796.66 467.955 1803.98 470.777 1810.79 473.574C1812.86 474.4 1814.93 475.467 1813.85 476.817C1812.78 478.119 1809.99 477.692 1807.67 477.725C1806.86 477.734 1805.86 477.637 1805.15 477.747C1801.5 478.198 1798.72 477.434 1795.86 476.183C1790.24 473.734 1783.35 472.576 1776.12 472.08C1774.72 471.867 1773.18 472.42 1771.66 472.636ZM-369.359 272.228C-368.732 271.775 -368.62 271.539 -368.316 271.505C-366.491 271.256 -364.669 271.054 -362.748 270.906C-337.357 268.564 -311.431 267.65 -285.333 267.325C-264.375 267.088 -243.416 266.851 -222.369 266.86C-205.049 266.881 -187.632 267.003 -170.242 267.656C-161.396 267.99 -152.649 268.271 -143.884 268.214C-138.342 268.145 -132.718 268.467 -127.094 268.789C-123.879 268.946 -122.034 270.341 -123.782 271.078C-126.462 272.349 -128.561 274.085 -133.1 274.25C-147.323 274.719 -161.552 275.331 -175.676 275.853C-180.721 276.042 -185.864 276.179 -190.992 276.026C-209.901 275.541 -228.703 274.916 -247.607 274.334C-249.518 274.29 -251.434 274.341 -253.348 274.345C-261.208 274.446 -269.177 274.735 -277.028 274.643C-290.517 274.518 -303.993 274.152 -317.475 273.883C-318.381 273.887 -319.188 273.896 -320.092 273.852C-326.332 273.79 -332.468 273.637 -338.711 273.623C-344.45 273.586 -350.19 273.596 -355.933 273.655C-360.567 273.671 -365.008 273.89 -369.359 272.228ZM-171.286 -75.0783C-171.375 -75.3243 -171.564 -75.5753 -171.653 -75.8213C-159.966 -75.9294 -148.188 -75.8396 -136.489 -76.1889C-125.799 -76.4905 -114.54 -76.0876 -105.042 -78.8163C-104.429 -78.9799 -103.329 -78.8296 -102.523 -78.8387C-95.6676 -78.9886 -88.9102 -79.1915 -82.0574 -79.2931C-80.3447 -79.3065 -78.5246 -79.4596 -77.0293 -79.1451C-72.1487 -78.0373 -67.3049 -78.2368 -62.3656 -78.3348C-53.9986 -78.5078 -45.7369 -78.5891 -37.377 -78.6174C-36.169 -78.607 -34.8724 -78.3505 -32.2694 -78.0304C-39.3868 -76.6363 -45.0831 -75.4631 -50.9738 -74.4444C-53.1071 -74.0648 -55.5277 -73.9892 -57.8432 -74.0052C-83.5282 -73.9015 -109.11 -73.8412 -134.793 -73.7857C-135.599 -73.7766 -136.499 -73.917 -137.195 -74.096C-141.466 -75.3191 -145.907 -75.1002 -150.44 -75.079C-157.595 -74.9921 -164.44 -75.0352 -171.286 -75.0783ZM2213.85 141.803C2204.24 140.659 2195.15 139.056 2187.65 135.887C2183.61 134.143 2179.53 133.074 2174.2 132.863C2168.77 132.648 2165.23 131.073 2163.23 128.607C2181.92 131.45 2200.64 133.908 2213.85 141.803ZM1485.96 -50.8458C1487.77 -50.806 1488.58 -50.8634 1489.38 -50.8242C1493.49 -50.4791 1493.4 -48.598 1495.15 -47.3524C1499.53 -44.2384 1499.27 -41.0117 1497.91 -37.7905C1497 -35.7074 1495.68 -35.5298 1490.17 -36.0399C1488.95 -37.8881 1487.53 -39.6496 1488.43 -41.7327C1489.01 -43.1552 1488.78 -44.7616 1488.45 -46.2764C1488.02 -47.6513 1486.88 -49.0605 1485.96 -50.8458ZM1645.27 425.149C1645.38 424.912 1645.41 424.382 1645.63 423.909C1646.78 421.016 1649.32 420.608 1654.47 422.261C1659.83 423.972 1661.62 426.524 1662.29 429.265C1662.72 430.832 1661.07 431.622 1658.15 431.673C1651.09 431.717 1644.99 428.761 1645.27 425.149ZM231.702 -212.981C231.616 -213.275 231.63 -213.564 231.543 -213.859C249.502 -216.611 268.404 -215.981 287.825 -215.664C287.098 -215.216 286.986 -214.98 286.683 -214.946C280.105 -214.299 273.528 -213.652 266.953 -213.054C265.941 -212.958 264.731 -212.92 263.831 -213.061C258.637 -213.942 253.679 -213.458 248.537 -213.322C242.987 -213.108 237.347 -213.093 231.702 -212.981ZM956.689 72.4501C960.053 75.7564 958.978 77.1545 952.573 78.3899C949.499 77.4184 947.24 76.2448 948.738 74.4322C951.287 73.7827 953.834 73.1814 956.689 72.4501ZM1748.87 -79.2421C1747.68 -81.7173 1747.68 -81.7173 1753.97 -82.62C1757.06 -79.8107 1755.91 -79.0928 1748.87 -79.2421ZM1452.91 -185.022C1453.33 -183.309 1452.27 -182.152 1448.82 -181.74C1446.7 -181.505 1445.62 -182.089 1445.08 -183.565C1449.26 -182.492 1447.75 -186.53 1452.91 -185.022ZM-273.963 -3.54188C-271.002 -6.44364 -269.287 -6.50523 -264.975 -4.07138C-267.536 -3.18074 -269.991 -2.38165 -273.963 -3.54188ZM2120.02 85.4087C2126.02 88.2633 2125.95 89.7102 2119.76 90.7625C2119.84 89.0743 2119.92 87.3862 2120.02 85.4087ZM2369.93 160.712C2365.24 161.838 2365.24 161.838 2362.7 158.185C2366.43 158.173 2368.91 158.874 2369.93 160.712ZM1411.74 -143.948C1415.4 -142.754 1417.98 -141.904 1420.46 -141.106C1420.25 -140.923 1420.14 -140.687 1419.93 -140.504C1417.32 -140.727 1414.71 -140.999 1411.91 -141.233C1411.84 -142.009 1411.87 -142.588 1411.74 -143.948ZM1517.48 -141.848C1514.58 -142.279 1511.68 -142.759 1509.64 -144.26C1514.08 -144.576 1516.15 -143.508 1517.48 -141.848ZM612.778 368.373C609.369 370.141 607.988 369.542 606.456 367.92C608.463 368.066 610.068 368.193 612.778 368.373ZM1650.51 7.10507C1651.11 7.08617 1651.72 7.06726 1652.32 7.04836C1652.4 7.63203 1652.57 8.22059 1652.64 8.8043C1652.14 8.82807 1651.74 8.80854 1651.23 8.83232C1651.06 8.24376 1650.78 7.69852 1650.51 7.10507Z" fill="#F14F63"/>
<path d="M174.092 418.287C165.991 417.119 157.898 415.807 149.686 414.875C129.756 412.6 109.726 410.32 89.6745 408.474C76.8405 407.317 63.8684 406.928 51.0132 406.205C50.8123 406.195 50.6112 406.186 50.4103 406.176C48.2958 406.17 45.5855 405.989 45.5174 407.388C45.4493 408.787 48.1643 408.871 50.2695 409.07C55.1783 409.599 60.0872 410.128 64.898 410.604C65.2998 410.623 65.7996 410.696 66.2015 410.715C69.7179 410.887 69.8786 413.795 73.8297 413.311C78.0869 412.744 79.2989 414.737 82.0862 415.405C84.974 416.077 87.5368 417.217 90.0016 418.304C90.7889 418.681 91.3588 419.385 91.4335 419.921C91.7508 421.677 91.9678 423.428 91.9814 425.217C92.0645 429.717 86.8791 432.801 77.6872 433.369C68.7968 433.952 59.827 434.095 50.8459 432.401C43.6616 431.036 37.51 429.141 34.0622 425.493C33.1045 424.479 31.5488 423.34 29.5629 422.76C27.5793 422.131 24.675 421.796 22.3525 421.925C19.7262 422.087 19.2563 423.467 19.5014 424.639C20.0521 427.808 22.3343 430.578 28.8013 432.199C40.7401 435.197 52.7792 438.2 64.7156 441.247C78.1473 444.608 92.451 446.609 106.857 448.568C113.561 449.474 120.114 449.309 126.596 448.561C136.218 447.434 139.793 444.32 137.105 439.548C135.437 436.566 132.137 434.037 127.198 432.056C118.507 428.539 114.316 423.597 108.385 419.247C105.469 417.074 106.832 415.98 111.982 415.699C123.491 415.099 135.05 415.565 146.678 416.663C155.599 417.532 164.624 418.309 173.547 419.131C173.863 418.856 173.977 418.571 174.092 418.287Z" fill="#F14F63"/>
<path d="M788.408 405.639C792.196 406.451 795.775 407.399 799.672 408.024C815.763 410.547 831.756 413.018 847.851 415.445C857.447 416.927 867.259 418.082 876.745 419.752C885.731 421.35 895.03 422.721 902.625 425.991C903.611 426.426 905.931 426.346 907.448 426.226C912.202 425.781 915.99 426.593 918.919 428.477C922.435 430.727 927.098 432.162 932.5 432.909C942.801 434.377 953.107 435.749 963.416 437.072C976.525 438.774 989.53 440.567 1002.75 442.032C1031.9 445.288 1061.05 448.399 1090.11 451.505C1093.91 451.932 1097.84 451.93 1101.66 452.067C1104.07 452.137 1105.91 451.742 1105.97 450.44C1106.03 449.234 1104.33 448.91 1102.23 448.614C1059.71 442.871 1017.19 437.079 974.571 431.33C964.366 429.963 954.999 427.912 946.194 424.679C941.248 422.843 934.743 421.995 928.746 421.074C914.552 418.885 900.246 416.931 885.947 414.834C884.947 414.688 883.744 414.581 882.849 414.344C869.532 410.699 854.96 410.086 840.722 408.813C826.182 407.525 811.635 406.382 797.088 405.239C794.381 405.011 791.563 404.97 788.75 404.833C788.738 405.074 788.523 405.354 788.408 405.639Z" fill="#F14F63"/>
<path d="M228.163 472.263C230.144 470.86 231.717 469.583 233.584 468.465C235.344 467.487 237.87 467.32 240.571 467.693C242.872 467.999 245.171 468.352 247.47 468.706C252.867 469.549 255.701 469.252 258.199 467.584C260.798 465.922 261.137 463.086 258.395 461.502C252.028 457.808 244.003 455.097 234.714 453.533C233.314 453.319 231.289 453.559 229.964 453.882C221.409 455.834 212.486 457.092 202.801 457.443C194.831 457.732 191.205 459.828 191.321 463.653C191.437 467.478 191.553 471.303 192.171 475.152C192.803 478.712 195.153 482.163 200.148 485.065C205.437 488.126 212.645 489.009 219.185 487.055C227.464 484.557 233.081 480.866 236.919 476.508C238.41 474.84 237.151 473.812 233.462 473.052C232.067 472.743 230.562 472.621 228.163 472.263Z" fill="#F14F63"/>
<path d="M1556.26 489.034C1558.44 489.769 1559.82 490.368 1561.41 490.832C1573.81 494.578 1586.32 498.33 1598.63 502.071C1614.31 506.847 1628.84 512.389 1639.96 519.699C1642.02 521.007 1643.34 522.668 1644.17 524.255C1645.38 526.393 1643.83 527.236 1639.47 527.701C1639.27 527.739 1639.07 527.729 1638.87 527.72C1636.44 527.94 1633.53 527.702 1632.85 529.36C1632.16 530.971 1633.78 533.032 1637.05 534.061C1639.23 534.748 1641.72 535.352 1644.22 535.715C1659.63 537.723 1675.04 539.681 1690.46 541.64C1691.96 541.81 1693.46 541.98 1694.97 542.053C1699.59 542.23 1701.57 540.924 1699.86 538.81C1697.87 536.344 1693.08 535.338 1688.74 535.465C1677.35 535.732 1672.1 531.899 1666.64 528.104C1666.25 527.844 1665.97 527.54 1665.68 527.284C1658.44 518.664 1644.95 512.399 1630.12 506.794C1615.19 501.088 1598.58 496.847 1581.55 492.876C1576.17 491.647 1570.69 490.462 1565.31 489.281C1562.52 488.614 1559.93 488.149 1556.26 489.034Z" fill="#F14F63"/>
<path d="M1584.53 522.658C1582.86 521.851 1582.38 521.441 1581.68 521.31C1565.99 518.709 1550.64 515.545 1534.63 513.412C1511.21 510.339 1488.13 506.653 1464.93 503.203C1462.33 502.835 1459.73 502.515 1456.53 502.117C1456.85 503.777 1458.54 504.197 1460.34 504.527C1479.11 507.761 1497.99 511 1516.87 514.143C1525.76 515.639 1534.65 517.184 1543.65 518.444C1554.35 519.932 1565.17 521.135 1575.88 522.382C1578.29 522.692 1580.81 522.573 1584.53 522.658Z" fill="#F14F63"/>
</svg>
