<svg width="3009" height="962" viewBox="0 0 3009 962" fill="none" xmlns="http://www.w3.org/2000/svg">
<path d="M8.02557 652.059C7.94576 653.699 7.8636 655.387 7.78379 657.027C13.3926 661.796 22.1658 663.625 32.4416 663.545C40.5025 663.454 48.5845 662.929 56.3745 662.196C73.0667 660.639 90.4523 661.389 107.039 659.924C107.848 659.866 108.75 659.959 109.659 659.906C121.157 659.547 132.552 659.231 144.049 658.872C157.868 658.433 171.69 657.897 185.504 657.554C190.847 657.427 196.455 658.087 201.513 657.608C207.887 656.999 214.131 657.013 220.572 657.085C225.806 657.146 231.329 657.463 236.126 656.15C237.454 655.779 239.463 655.877 241.073 655.907C266.153 655.822 291.233 655.737 316.312 655.653C318.025 655.639 319.757 655.24 321.376 655.077C320.668 653.061 317.668 652.624 315.493 651.793C311.043 650.126 311.139 648.149 316.212 647.38C319.964 646.838 324.097 646.749 328.034 646.554C335.002 646.168 340.948 648.149 347.34 649.234C353.433 650.255 354.363 651.848 351.014 654.441C350.701 654.667 350.586 654.952 350.161 655.414C353.276 655.566 356.091 655.655 358.801 655.835C368.236 656.487 370.885 657.922 370.566 662.403C370.531 663.126 370.092 663.878 370.561 664.578C371.4 665.972 371.927 667.545 373.686 668.646C376.621 670.433 376.742 672.082 375.746 673.92C373.862 677.454 369.602 680.147 362.884 681.609C357.284 682.884 351.197 683.796 345.115 684.612C330.413 686.653 315.52 688.49 300.718 690.525C292.101 691.702 284.448 693.746 277.868 696.52C269.849 699.901 268.394 704.955 274.209 709.638C276.341 711.337 279.39 712.839 282.341 714.288C285.289 715.785 289.086 716.405 293.128 716.118C298.686 715.712 303.782 716.54 308.859 717.754C315.127 719.316 321.302 720.729 328.319 721.409C343.057 722.754 357.678 724.433 372.41 725.924C377.921 726.482 383.552 726.659 389.167 727.174C395.382 727.767 396.564 728.308 397.224 731.289C398.051 735.004 401.742 737.794 408.384 739.954C418.89 743.415 428.466 747.362 437.001 752.032C441.904 754.736 448.764 756.569 456.741 756.135C460.778 755.945 464.813 755.803 468.841 755.805C497.038 755.824 525.08 756.947 553.265 759.286C554.569 759.397 555.877 759.413 557.085 759.423C560.706 759.503 564.326 759.63 567.947 759.71C569.356 759.73 570.767 759.702 572.48 759.689C572.254 758.131 571.817 756.756 571.78 755.449C571.685 753.268 572.93 752.507 577.475 752.245C580.402 752.097 583.421 752.147 586.442 752.149C594.797 752.218 603.15 752.334 611.608 752.359C638.693 752.468 665.598 752.134 692.82 753.555C696.236 753.722 699.766 753.603 703.005 753.278C707.967 752.697 710.571 750.938 711.092 748.498C711.469 746.969 710.109 745.936 707.123 745.211C695.677 742.43 684.234 739.6 672.893 736.728C667.522 735.354 667.139 732.87 672.044 731.417C674.701 730.627 677.645 730.142 680.4 729.406C683.972 728.42 687.916 728.08 692.029 728.425C697.243 728.872 701.886 728.663 705.503 726.76C709.625 728.991 714.772 728.758 719.608 728.703C736.639 728.469 753.592 729.826 770.422 731.66C785.751 733.276 801.066 735.182 816.41 736.509C844.489 738.939 872.585 741.031 900.671 743.317C913.912 744.396 927.241 745.722 940.475 746.946C941.779 747.058 943.071 747.411 944.566 747.725C935.147 750.893 926.235 753.989 917.229 756.935C910.679 759.082 904.132 761.18 897.391 763.125C894.225 764.034 890.479 764.432 890.364 766.795C890.331 767.471 888.49 768.058 887.452 768.684C884.964 770.159 882.179 771.522 880.089 773.064C877.685 774.881 874.32 775.732 870.1 775.527C866.483 775.351 862.675 774.972 859.491 774.189C825.445 766.053 789.881 760.165 753.872 755.125C751.372 754.761 748.769 754.441 746.255 754.367C745.147 754.362 743.809 754.973 743.18 755.475C742.867 755.701 744.032 756.58 744.822 756.908C747.894 757.928 750.964 758.996 754.35 759.789C784.697 767.358 816.226 773.389 847.538 779.747C851.926 780.638 856.211 781.571 860.795 782.568C858.802 784.211 857.229 785.489 855.556 786.761C854.193 787.855 852.356 788.346 849.335 788.344C842.387 788.344 835.88 787.544 829.198 786.203C819.125 784.166 808.518 782.779 798.124 781.162C796.026 780.818 793.918 780.667 791.815 780.42C780.399 779.09 768.881 777.805 757.467 776.427C749.358 775.452 741.353 774.386 733.103 774.226C740.778 775.857 748.458 777.391 756.46 778.505C777.261 781.5 798.174 784.258 818.978 787.205C826.879 788.314 834.774 789.569 842.671 790.775C842.76 791.021 842.849 791.267 842.837 791.508C839.991 792.047 837.145 792.585 834.297 793.172C829.619 794.104 825.137 795.143 822.118 797.172C821.181 797.803 820.143 798.43 818.811 798.897C816.351 799.792 815.089 800.891 814.811 802.473C814.649 803.722 814.981 805.189 811.819 806.002C810.048 805.142 808.378 804.287 806.602 803.524C803.542 802.263 800.299 802.685 797.541 803.47C796.317 803.797 795.268 804.664 795.235 805.34C795.237 807.37 802.57 811.885 806.759 812.717C811.448 813.623 816.558 814.161 820.724 815.476C826.476 817.303 832.382 818.026 838.73 817.948C855.055 817.727 870.925 816.517 886.615 814.863C893.599 814.14 897.632 811.967 897.801 808.494C897.905 806.372 896.702 804.186 895.798 802.063C895.527 801.421 894.558 800.649 893.474 800.161C886.659 797.412 879.848 794.567 870.605 794.117C866.486 793.916 862.391 793.234 857.783 792.719C860.06 789.397 861.619 786.331 867.161 784.183C874.519 786.137 881.876 788.09 889.23 790.092C891.814 790.798 892.873 791.816 891.996 793.272C890.241 796.233 890.334 796.382 896.126 797.389C909.306 799.723 922.591 801.965 935.875 804.207C944.765 805.703 953.999 806.346 962.66 808.411C970.026 810.172 978.01 809.593 985.312 808.547C990.282 807.822 992.796 805.817 991.692 803.684C990.403 801.204 987.485 799.08 982.602 798.02C969.943 795.325 957.077 792.765 944.208 790.253C928.844 787.282 913.473 784.455 898.001 781.623C894.707 781.027 891.303 780.62 888.114 779.933C882.633 778.748 881.997 777.315 886.112 775.533C891.772 773.052 897.824 770.785 903.581 768.357C908.103 766.498 912.842 766.391 918.407 767.918C930.434 771.163 942.567 774.316 954.599 777.464C962.554 779.543 969.371 782.244 975.562 785.398C978.315 786.789 981.165 788.233 984.228 789.445C988.575 791.156 991.297 791.095 994.905 789.385C998.819 787.593 999.299 786.021 995.572 783.954C993.024 782.525 989.762 781.254 986.594 780.133C977.389 776.832 967.233 774.452 956.652 772.535C945.173 770.43 933.484 768.507 921.898 766.541C919.4 766.13 917.117 765.438 917.178 764.184C917.214 763.461 918.765 762.618 920.097 762.151C929.098 759.301 938.096 756.5 947.291 753.805C952.707 752.183 958.512 750.87 963.832 749.147C969.562 747.298 975.723 746.921 982.639 747.596C997.375 748.99 1012.12 750.288 1026.86 751.537C1043.61 752.932 1060.37 754.135 1077.01 755.718C1093.45 757.292 1109.9 758.528 1126.61 758.809C1136.67 758.96 1146.81 759.599 1156.83 760.618C1179.88 762.9 1202.82 765.515 1225.75 768.082C1244.08 770.134 1262.31 772.134 1280.53 774.374C1295.55 776.217 1310.44 778.537 1325.46 780.38C1351.98 783.653 1378.3 787.206 1403.72 792.456C1418.38 795.49 1432.93 798.519 1447.6 801.408C1458.47 803.533 1469.61 804.268 1480.73 803.359C1483.67 803.115 1486.43 802.234 1488.99 801.44C1491.24 800.728 1491.39 799.575 1489.53 798.469C1488.16 797.629 1486.39 796.914 1485.12 796.079C1484.43 795.659 1484.26 795.022 1483.4 794.061C1486.21 794.391 1488.01 794.624 1490.51 794.939C1485.95 791.43 1480.09 789.694 1472.35 789.462C1442.27 788.724 1413.48 784.325 1384.94 779.02C1344.12 771.377 1303.96 762.654 1261.96 756.693C1257.96 756.112 1253.89 754.899 1250.53 753.527C1247.47 752.266 1244.28 751.579 1240.68 751.065C1224.07 748.806 1207.36 746.543 1190.76 744.284C1175.55 742.239 1160.45 740.102 1145.24 738.104C1143.54 737.877 1140.72 737.74 1139.9 738.183C1136.38 740.139 1131.97 739.634 1127.46 739.221C1099.9 736.478 1072.32 734.169 1044.48 733.007C1040.86 732.88 1037.26 732.366 1033.85 732.055C1033.02 730.419 1031.09 728.826 1034.45 727.878C1039.46 726.478 1044.36 724.976 1050.89 725.294C1065.56 726.056 1080.13 726.813 1094.19 729.673C1096.58 730.176 1100.1 730.348 1102.23 729.871C1105.39 729.203 1108.3 729.393 1111.51 729.694C1120.42 730.66 1129.44 731.534 1138.36 732.5C1141.27 732.786 1143.58 732.754 1145.95 731.709C1147.7 730.924 1150.75 730.299 1153.27 730.325C1166.15 730.565 1179.12 730.858 1191.98 731.484C1226.24 733.151 1260.37 735.585 1294.36 738.497C1307.8 739.634 1321.35 740.632 1334.78 741.962C1362.74 744.774 1390.59 747.724 1418.54 750.68C1434.07 752.355 1449.6 753.981 1465.12 755.896C1481.64 757.957 1497.93 760.442 1514.45 762.455C1529.67 764.259 1545.01 765.682 1560.1 768.061C1598.67 774.144 1637.36 779.992 1676.04 785.984C1682.74 787.035 1689.17 787.251 1695.48 785.963C1700.26 784.987 1705.3 784.893 1710.61 785.49C1723.23 786.926 1735.91 787.156 1748.52 786.706C1751.44 786.607 1754.38 786.218 1756.83 785.612C1761.51 784.487 1766.37 784.142 1771.67 784.787C1791.19 787.14 1810.72 789.492 1830.14 791.887C1837.75 792.838 1845.14 794.068 1852.3 795.963C1860.74 798.26 1869.5 800.475 1878.38 802.212C1898.43 806.041 1918.7 809.638 1938.97 813.235C1963.83 817.636 1985.97 824.225 2004.34 833.725C2010.52 836.975 2016.3 840.447 2022.18 843.779C2023.65 844.624 2025.32 845.43 2027.09 846.338C2030 844.401 2028.77 842.794 2026.62 841.385C2022.43 838.57 2018.44 835.668 2013.42 833.297C2005.05 829.312 1995.97 825.534 1986.99 821.906C1977.9 818.224 1967.77 815.314 1956.8 813.136C1955.6 812.884 1954.1 812.714 1953.32 812.241C1952.34 811.662 1950.98 810.581 1951.41 810.118C1952.04 809.472 1954.08 809.039 1955.7 808.78C1956.72 808.636 1958.2 809.095 1959.4 809.298C1965 810.247 1970.48 811.384 1976.18 812.097C1998.11 814.808 2019.27 818.69 2038.81 824.718C2045.36 826.729 2052.87 827.626 2060.15 827.11C2065.7 826.752 2071.19 825.762 2076.18 824.651C2082.9 823.141 2089.67 822.6 2097.27 823.695C2106.87 825.129 2116.47 826.515 2126.07 827.901C2145.37 830.677 2164.67 833.454 2184.08 836.091C2187.78 836.609 2191.72 836.51 2195.64 836.653C2201.16 836.922 2206.91 836.766 2212.21 837.508C2220.81 838.7 2229.19 840.413 2237.57 842.03C2266.11 847.48 2294.65 852.785 2321.26 860.51C2329.11 862.778 2336.62 865.609 2343.43 868.647C2353.19 872.942 2364.51 871.946 2367.72 866.059C2369.16 863.47 2370.49 862.906 2376.21 863.281C2389.26 864.206 2402.53 864.611 2415.32 866.828C2431.29 869.636 2447.51 871.682 2463.95 873.256C2476.08 874.426 2488.07 876.267 2500.3 877.394C2507.02 878.011 2514.07 878.064 2520.82 877.909C2526.67 877.759 2531.58 876.257 2532.82 873.417C2534.07 870.528 2533.92 867.475 2528.6 864.944C2525.55 863.49 2522.81 861.955 2520.16 860.376C2513.12 856.068 2504.73 852.614 2495.1 849.825C2488.64 847.963 2481.98 846.189 2475.53 844.328C2465.2 841.359 2454.66 838.574 2444.75 835.336C2427.4 829.705 2409.5 824.966 2389.15 822.961C2387.65 822.839 2385.84 822.703 2384.96 822.225C2380.74 819.941 2375.23 819.431 2369.83 818.54C2340.56 813.634 2311.3 808.729 2282.14 803.635C2278.24 802.962 2274.7 801.339 2271.34 800.016C2269.85 799.46 2269.1 798.456 2267.73 797.52C2264.38 800.257 2264.75 800.952 2269.1 802.614C2271.47 803.551 2274.86 804.103 2275.78 805.889C2269.13 806.145 2266.84 805.598 2262.92 803.28C2257.04 799.9 2254.61 796.011 2254.01 791.872C2253.56 788.707 2251.28 785.889 2246.97 783.455C2239.13 779.013 2230.77 774.835 2220.14 771.9C2219.04 771.605 2218.06 771.218 2217.06 770.88C2220.7 766.464 2224.68 765.546 2233.87 767.008C2245.36 768.825 2256.85 770.641 2268.14 772.641C2291.7 776.833 2315.16 781.069 2338.51 785.445C2353.28 788.194 2367.84 791.271 2382.49 794.257C2387.18 795.21 2391.98 796.024 2396.55 797.117C2415.27 801.654 2434.41 805.583 2451.74 811.696C2470.25 818.157 2492.11 820.091 2513.59 821.572C2519.72 821.966 2525.98 821.498 2532.05 821.068C2537.71 820.666 2540.62 818.681 2540.86 815.936C2541.1 812.951 2539.53 810.022 2534.71 807.805C2526.72 804.226 2518.64 800.641 2510.04 797.37C2502.33 794.432 2494.71 791.5 2488.24 787.849C2484.71 785.888 2480.57 784.139 2475.37 783.403C2466.97 782.269 2460.55 779.636 2454.13 776.954C2452.65 776.35 2451.59 775.477 2450.42 774.695C2448.18 773.135 2446.14 771.441 2443.7 769.92C2439.4 767.148 2441.5 763.286 2448.18 762.692C2453.34 762.218 2458.78 762.193 2464.11 762.259C2476.89 762.494 2488.05 764.923 2497.92 769.174C2499.39 769.826 2501.08 770.392 2502.77 770.909C2514.68 774.39 2527.48 776.173 2540.77 776.336C2561 776.547 2572.08 772.3 2576.87 762.96C2577.09 762.488 2577.32 761.967 2577.64 761.499C2578.94 759.629 2580.78 759.138 2584.89 759.628C2590.09 760.22 2594.56 761.597 2598.81 763.206C2603.36 764.926 2608.01 766.651 2613.08 767.914C2619.55 769.534 2626.55 770.551 2633.12 772.032C2645.18 774.649 2656.01 773.629 2666.21 770.838C2667.85 770.386 2669.1 769.48 2669.95 768.602C2671.11 767.547 2671.87 766.423 2672.53 765.247C2672.86 764.586 2673 763.819 2672.73 763.178C2670.35 758.324 2665.93 753.999 2658.14 750.478C2654.79 748.961 2651.2 748.206 2646.87 748.333C2645.15 748.395 2643.53 748.51 2641.82 748.571C2628.72 748.804 2616.39 741.387 2620.43 734.912C2622.3 735.825 2624.28 736.501 2625.44 737.428C2626.41 738.2 2626.56 739.223 2627.12 740.121C2628.52 742.461 2629.91 742.915 2636.16 742.833C2630.27 739.597 2631.22 736.694 2635.99 733.832C2637.44 732.984 2638.21 731.619 2638.27 730.414C2638.55 724.722 2637.54 722.739 2624.2 723.637C2624 723.627 2623.8 723.666 2623.6 723.656C2611.35 724.849 2602.12 722.175 2594.69 717.415C2590.98 715.058 2590 712.448 2591.25 709.656C2592.05 707.713 2596.37 707.923 2598.02 709.164C2599.18 709.994 2599.74 711.085 2599.99 712.064C2600.25 712.851 2599.71 713.694 2599.67 714.514C2599.67 716.497 2602.86 717.232 2605.85 717.861C2608.74 718.485 2611.75 718.825 2613.35 716.969C2612.66 716.5 2611.98 716.08 2611.4 715.617C2605.37 711.214 2608.38 707.299 2618.5 706.245C2619.92 706.12 2621.43 706.001 2622.95 705.978C2628.48 706.005 2634.13 705.893 2639.65 706.162C2647.19 706.529 2652.89 705.211 2657.74 702.836C2662.07 700.775 2662.13 699.617 2658.02 697.193C2653.91 694.721 2648.76 692.875 2643.1 691.294C2637.13 689.65 2631.28 687.915 2625.42 686.083C2610.64 681.447 2595.55 677.183 2579.71 673.512C2569.75 671.238 2559.8 668.82 2550.05 666.363C2546.97 665.585 2544 664.473 2541.54 663.29C2535.93 660.599 2535.63 660.536 2529.89 662.626C2525.99 664.08 2525.53 665.266 2529.48 666.861C2532.84 668.185 2536.81 669.345 2540.81 670.023C2552.19 672.075 2562.42 674.894 2571.08 679.135C2573.54 680.366 2575.79 681.733 2577.73 683.133C2578.51 683.703 2578.85 684.928 2578.23 685.381C2577.5 685.877 2575.28 685.866 2573.67 685.885C2572.66 685.932 2571.57 685.685 2570.57 685.492C2556 682.704 2541.43 680.013 2527.07 677.09C2519.79 675.623 2513.35 673.473 2511.74 669.237C2511.56 668.793 2509.66 668.459 2508.47 668.111C2508.14 668.723 2507.1 669.398 2507.48 669.9C2510.23 673.369 2512.47 676.96 2521.79 677.945C2524.8 678.236 2527.36 679.424 2527.37 681.31C2513.17 681.2 2499.05 675.484 2497.95 669.194C2497.24 665.195 2498.14 661.178 2498.32 657.415C2501.57 656.848 2504.31 656.402 2506.95 655.853C2517.84 653.627 2529.24 653.215 2541.37 654.337C2550.09 655.149 2558.93 655.531 2567.78 655.961C2572.9 656.21 2577.47 655.466 2581.56 654.214C2587.59 652.332 2588.74 649.343 2584.97 646.161C2584.1 645.442 2582.72 644.795 2581.85 644.076C2580.2 642.69 2578.56 641.305 2577.22 639.886C2576.36 638.925 2576.01 637.845 2575.25 636.841C2572.69 633.718 2569.81 632.708 2563.25 633.114C2558.3 633.405 2554.01 632.664 2549.41 631.812C2542.03 630.438 2534.64 629.111 2527.04 628.064C2518.13 626.857 2509.55 625.376 2501.51 622.906C2490.79 619.628 2479.34 616.992 2467.23 615.388C2460.43 614.476 2454.2 614.221 2449.32 617.127C2446.42 618.823 2441.87 619.181 2437.06 618.706C2434.35 618.429 2432.28 617.603 2432.24 616.392C2431.99 613.189 2431.95 609.996 2432.3 606.822C2432.49 605.091 2434.96 603.954 2438.8 603.609C2443.35 603.202 2447.81 602.646 2452.46 602.244C2473.3 600.453 2494.02 600.978 2514.88 604.701C2525.77 606.633 2536.97 608.242 2548.06 609.894C2560.26 611.696 2572.69 612.881 2585.22 612.137C2590.67 611.774 2595.89 612.173 2601.08 613.054C2631.86 618.033 2662.84 622.877 2693.51 627.995C2704.7 629.845 2715.45 632.351 2726.31 634.717C2729.9 635.471 2732.96 636.781 2736.44 637.724C2742.2 639.309 2748.39 640.529 2753.94 642.298C2763.46 645.275 2772.57 648.571 2781.88 651.683C2784.66 652.592 2787.43 653.549 2790.42 654.13C2793.81 654.827 2799.2 653.88 2799.96 652.66C2801.06 650.876 2798.08 650.054 2795.71 649.069C2795.41 648.909 2795.01 648.793 2794.62 648.677C2784.32 645.082 2774.23 641.351 2763.82 637.896C2753.22 634.382 2745.11 629.201 2732.63 626.998C2731.23 626.737 2730.16 626.105 2728.77 625.698C2718.75 622.552 2709.47 618.716 2698.08 616.76C2690.19 615.409 2682.63 613.59 2674.84 612.148C2663.17 609.984 2651.39 607.864 2639.49 605.979C2629 604.308 2618.71 602.551 2609.08 599.713C2607 599.128 2604.71 598.582 2602.4 598.373C2598.09 597.969 2594.72 596.887 2591.47 595.471C2587.32 593.674 2583.18 591.877 2579.04 590.032C2577.66 589.385 2576.49 588.651 2575.22 587.912C2575.94 587.464 2576.37 587.049 2576.67 587.064C2580.98 587.419 2584.36 586.278 2588.11 585.784C2594.09 585.011 2600.25 584.634 2606.45 585.564C2611.65 586.349 2616.63 587.413 2621.71 588.483C2634.48 591.134 2647.24 593.786 2659.89 596.577C2675.33 599.988 2690.56 603.775 2706.11 606.949C2718.78 609.548 2731.16 609.715 2741.54 605.289C2746.79 603.079 2747.15 601.839 2743.48 598.567C2738.56 594.169 2731.36 590.967 2722.52 588.457C2712.19 585.489 2702.18 582.342 2692.16 579.147C2682.74 576.127 2673.32 573.009 2664.11 569.854C2660.15 568.5 2655.99 567.138 2652.65 565.428C2649.9 563.989 2648.08 562.063 2646.45 560.243C2645.88 559.587 2646.74 558.42 2647.78 557.842C2649.23 556.994 2651.11 557.618 2652.89 558.284C2658.83 560.507 2665.07 560.617 2671.08 559.073C2678.32 557.201 2679.63 553.155 2673.95 549.881C2671.99 548.771 2669.21 547.959 2666.62 547.204C2661.46 545.744 2656.09 544.419 2650.92 543.007C2648.43 542.306 2645.65 541.494 2646.74 539.807C2647.83 538.216 2650.82 538.7 2653.33 538.967C2656.73 539.374 2660.03 539.873 2663.43 540.329C2670.34 541.293 2674.12 540.124 2674.99 536.733C2675.85 533.488 2672.96 530.737 2667.93 528.558C2664.88 527.2 2661.42 525.872 2657.74 524.919C2649.78 522.888 2645.99 519.996 2647.01 515.791C2647.01 515.598 2647.22 515.415 2647.44 515.087C2651.01 514.293 2654.51 514.706 2658.18 515.803C2663.15 517.205 2668.22 518.467 2673.41 519.59C2680.48 521.143 2687.67 522.411 2694.64 523.959C2703.71 525.996 2713.11 527.42 2722.73 528.372C2727.84 528.863 2733.07 528.924 2738.21 528.98C2742.53 529.046 2745.51 527.934 2746.29 526.28C2747.2 524.293 2744.54 523.1 2741.46 522.128C2738.09 521.094 2734.5 520.243 2731.02 519.3C2729.23 518.826 2727.55 518.26 2725.76 517.738C2728.3 517.33 2730.6 517.587 2732.43 517.289C2735.58 516.766 2738.08 517.081 2740.96 517.946C2745.33 519.222 2749.66 519.24 2753.56 517.786C2756.22 516.755 2759.04 516.796 2762.54 517.353C2767.54 518.128 2772.76 518.43 2777.88 518.824C2781.09 519.029 2784.23 518.65 2785.01 517.044C2786.23 514.686 2789.77 514.472 2793.88 514.769C2797.3 515.031 2800.69 515.535 2804 515.938C2806.3 516.243 2808.6 516.645 2810.9 516.806C2816.73 517.137 2819.7 516.17 2821.33 513.59C2821.99 512.607 2822.14 511.551 2822.89 510.62C2824.17 509.039 2825.7 508.678 2829.39 509.341C2833.09 510.005 2836.78 510.716 2840.26 511.562C2855.49 515.301 2870.51 519.223 2885.84 522.773C2891.92 524.181 2898.73 524.851 2905.23 525.844C2906.43 526.047 2907.73 526.207 2909.03 526.416C2912.53 526.876 2916.12 527.679 2919.64 527.754C2935.83 528.203 2947.4 532.634 2957.18 538.573C2960.01 540.307 2959.84 541.749 2957.45 543.421C2955.77 544.645 2953.43 545.304 2950.29 545.539C2938.97 546.438 2927.62 545.741 2916.42 544.18C2910.12 543.294 2903.82 542.31 2897.52 541.375C2895.02 541.012 2893.3 541.363 2892.44 542.481C2891.68 543.508 2892.54 544.372 2894.54 544.856C2897.62 545.683 2900.69 546.606 2903.99 547.153C2913.48 548.775 2923.06 550.45 2932.77 551.745C2942.88 553.107 2953.08 554.474 2963.32 555.165C2975.87 556.018 2984.27 553.09 2988.05 547.667C2989.89 545.097 2988.69 542.863 2985.17 540.661C2981.94 538.715 2978.72 536.769 2975.79 534.79C2971.6 531.927 2966.68 529.56 2960.74 527.53C2952.42 524.66 2944.62 521.331 2938.47 517.309C2935.94 515.638 2933.26 514.687 2928.85 514.423C2923.12 514.096 2918.67 512.477 2916.59 509.621C2914.8 507.213 2916.28 505.689 2920.96 504.757C2922.38 504.487 2924.01 504.035 2924.75 503.442C2928.72 500.493 2929.94 500.214 2937.02 501.574C2944.61 503.055 2952.08 504.628 2959.56 506.152C2964.05 507.047 2965.16 506.908 2967.47 505.086C2968.3 504.45 2968.95 503.708 2969.69 502.922C2968.9 502.497 2968.42 502.135 2967.62 501.903C2955.59 498.707 2943.89 494.995 2931.32 492.497C2916.76 489.565 2903.46 485.533 2889.11 482.418C2885.63 481.668 2882.63 481.087 2878.68 481.523C2871.7 482.247 2866.28 479.856 2865.96 476.117C2868.82 475.241 2872.22 475.649 2875.23 476.037C2892.34 478.272 2909.46 480.362 2925.69 484.101C2928.38 484.715 2930.79 484.881 2932.65 483.763C2934.52 482.645 2933.88 481.357 2931.71 480.381C2928.46 478.966 2924.9 477.632 2921.33 476.395C2916.38 474.607 2910.51 473.209 2906.38 471.075C2897.74 466.641 2887.93 463.263 2876.56 460.969C2849.54 455.496 2822.95 449.367 2795.28 444.733C2788.68 443.639 2786.82 440.599 2791.56 438.412C2793.1 437.714 2795.45 437.151 2797.66 437.114C2802.71 436.924 2806.38 435.894 2809.68 434.266C2817.94 430.123 2828.57 429.045 2840.59 430.307C2849.11 431.205 2857.5 432.532 2866.02 433.334C2870.84 433.761 2876.26 434.074 2880.52 433.411C2887.12 432.378 2893.15 432.527 2899.95 433.631C2911.14 435.433 2922.53 437.244 2933.95 438.525C2941.46 439.374 2949.41 439.567 2956.97 439.452C2964.42 439.331 2966.43 437.495 2964.28 434.006C2962.13 430.565 2959.58 427.202 2956.82 423.829C2955.97 422.772 2954.42 421.488 2952.52 421.057C2945.86 419.427 2940.95 416.819 2935.32 414.611C2933.83 414.007 2931.83 413.717 2930.04 413.291C2919.88 411.008 2909.51 408.811 2899.46 406.388C2885.63 403.055 2872.01 399.395 2857.31 397.229C2852.91 396.58 2848.51 395.883 2844.11 395.378C2838.9 394.786 2834.33 395.483 2830.53 397.086C2825.8 399.08 2825.59 401.294 2830.62 403.424C2834.47 405.014 2838.73 406.478 2843.32 407.475C2854.78 409.966 2866.45 412.275 2878.13 414.39C2895.19 417.542 2911.19 422.043 2928.57 424.871C2932.27 425.486 2935.4 427.427 2938.45 428.929C2939.23 429.306 2938.78 430.251 2938.84 431.221C2925.17 430.556 2912.08 430.547 2899.3 428.233C2892.52 426.984 2884.7 426.265 2880.96 422.312C2880.1 421.4 2877.41 420.738 2875.33 420.104C2872.75 419.302 2869.86 418.678 2867.28 417.875C2860.73 415.865 2853.87 414.032 2847.74 411.751C2841.21 409.306 2834.35 407.57 2826.54 406.61C2825.14 406.445 2823.74 406.232 2822.14 406.009C2822.29 402.922 2822.13 400.013 2822.67 397.187C2823.23 393.975 2826.29 390.982 2824.14 387.541C2829.63 386.6 2834.88 386.372 2840.3 386.587C2842.41 386.69 2844.73 386.754 2846.55 386.456C2850.21 385.861 2851.1 384.067 2848.24 382.816C2843.7 380.903 2841.6 378.576 2840.32 375.952C2839.49 374.268 2837.55 372.819 2834.15 372.412C2826.14 371.394 2820.11 368.973 2814.1 366.36C2809.76 364.505 2804.87 363.494 2799.12 363.794C2793.36 364.094 2791.68 363.48 2790.6 360.769C2790.15 359.731 2790.3 358.723 2790.25 357.657C2790.14 355.718 2790.14 353.784 2790.05 351.362C2791.48 351.093 2793.63 350.328 2796.05 350.252C2799.58 350.134 2803.3 350.17 2806.81 350.583C2815.52 351.635 2824.01 352.967 2832.72 354.164C2837.82 354.847 2839.67 354.164 2838.78 351.607C2838.17 349.74 2837.05 347.896 2835.73 346.14C2833.26 342.926 2828.65 340.574 2821.97 339.089C2813.9 337.294 2806.25 335.133 2798.18 333.386C2789.51 331.465 2780.84 329.69 2771.95 328.145C2766.36 327.196 2760.85 326.493 2756.22 324.334C2753.76 323.199 2750.17 322.492 2746.98 321.902C2742.68 321.113 2738.17 320.651 2733.78 319.906C2728.69 319.029 2723.49 318.148 2718.52 316.939C2711.85 315.309 2705.61 313.12 2698.73 311.673C2681.99 308.102 2664.92 304.951 2648.07 301.424C2625.25 296.59 2601.23 293.343 2578.95 287.81C2575.46 286.915 2571.56 286.532 2567.86 285.82C2560.48 284.446 2553.09 283.071 2545.81 281.605C2533.15 279.103 2520.91 275.993 2507.58 274.619C2498.37 273.639 2489.89 271.825 2483.83 268.145C2479.91 265.827 2475.14 264.58 2469.55 263.679C2459.55 262.129 2449.45 260.574 2439.46 258.975C2424.27 256.496 2408.76 254.532 2394.44 250.789C2393.25 250.49 2392.16 250.05 2390.97 249.654C2393.61 249.202 2395.93 249.266 2398.23 249.475C2408.05 250.437 2417.87 251.446 2427.7 252.36C2433.21 252.87 2438.84 253.192 2444.36 253.557C2445.36 253.606 2446.48 253.37 2448.4 253.174C2434.94 248.361 2420.24 246.243 2405.56 243.692C2407.66 241.909 2410.37 242.137 2413.28 242.472C2427.1 244.015 2440.92 245.558 2454.74 247.052C2458.15 247.412 2461.57 247.578 2465.09 247.701C2466.09 247.75 2467.72 247.345 2467.94 246.921C2468.17 246.497 2467.4 245.734 2466.51 245.304C2465.43 244.768 2464.04 244.41 2462.64 244.101C2456.76 242.896 2450.88 241.691 2444.88 240.674C2432.2 238.558 2419.5 236.586 2406.81 234.518C2401.62 233.685 2396.74 232.626 2391.21 232.261C2387.6 231.988 2383.11 231.237 2381 229.008C2385.82 229.242 2390.23 229.65 2394.67 229.624C2401.21 229.605 2407.42 230.438 2413.71 231.373C2421.71 232.536 2429.71 233.796 2437.84 234.336C2449.08 235.077 2460.1 236.29 2471 237.836C2473.6 238.204 2476.33 238.143 2479.54 238.3C2479.08 237.359 2479.12 236.635 2478.53 236.413C2476.84 235.799 2474.86 235.171 2472.86 234.88C2467.27 233.931 2461.46 233.262 2455.97 232.269C2448.78 230.953 2441.81 229.308 2434.62 228.04C2421.04 225.638 2407.47 223.044 2393.24 221.723C2387.12 221.135 2381.03 220.017 2375.04 218.952C2364.66 217.141 2354.59 215.007 2344.1 213.384C2314.41 208.797 2284.72 204.21 2256.99 196.817C2253.71 195.932 2250.42 195.192 2246.47 195.724C2245.15 195.902 2242.26 195.23 2241.68 194.67C2240.72 193.704 2240.68 192.445 2241.03 191.447C2241.59 190.314 2243.92 190.137 2246.22 190.394C2254.53 191.379 2260.25 189.675 2264.93 186.808C2266.07 186.09 2267.31 185.425 2268.55 184.761C2272.79 182.405 2274.75 179.502 2274 176.275C2273.33 173.487 2272.15 170.722 2270.68 167.943C2269.39 165.366 2267.5 162.857 2266.01 160.367C2263.87 156.782 2265.02 155.823 2272.36 156.083C2277.69 156.294 2283.1 156.799 2288.3 157.536C2296.51 158.66 2304.59 160.117 2312.69 161.382C2362.87 169.093 2413.05 176.661 2463.12 184.561C2487.91 188.474 2512.36 193.097 2537.03 197.247C2540.83 197.867 2545.05 197.927 2549.08 198.026C2551.19 198.081 2553.22 197.793 2553.78 196.467C2554.25 195.184 2553.39 194.223 2551.42 193.402C2545.39 190.933 2539.05 188.884 2531.55 187.697C2524.65 186.637 2517.76 185.431 2511.3 183.859C2500.55 181.257 2489.54 179.851 2477.96 179.723C2467.8 179.567 2457.77 178.74 2447.87 177.147C2415.8 171.911 2383.83 166.729 2351.87 161.306C2336.19 158.657 2319.75 157.084 2304.62 153.447C2303.22 153.137 2301.61 153.107 2300.21 152.894C2289.51 151.406 2278.81 149.918 2268.1 148.43C2262.2 147.611 2256.4 146.894 2250.49 146.171C2248.08 145.909 2245.88 145.753 2245.16 143.881C2258.27 145.535 2270.89 147.115 2283.5 148.744C2296.01 150.32 2308.42 151.843 2320.93 153.467C2333.34 155.086 2345.74 156.802 2358.05 158.464C2358.26 158.233 2358.38 157.948 2358.59 157.717C2356.6 157.185 2354.72 156.465 2352.62 156.121C2346.23 154.988 2339.74 153.899 2333.34 152.911C2314.95 150.082 2296.56 147.301 2278.16 144.52C2263.77 142.321 2249.26 140.31 2234.88 137.966C2229.38 137.07 2224.33 135.325 2219.06 134.005C2213.98 132.743 2208.92 131.287 2203.63 130.305C2190.75 127.938 2177.4 127.143 2164.04 126.348C2152.19 125.674 2140.34 125.097 2128.6 124.091C2119.08 123.241 2109.34 122.622 2100.61 119.78C2098.83 119.21 2096.52 118.952 2094.42 118.705C2076.99 116.793 2059.56 114.881 2042.03 113.109C2021.58 111.002 2001.03 109.18 1981.06 105.694C1979.06 105.355 1976.66 105.045 1975.18 104.393C1972.12 103.035 1969.38 101.451 1966.63 99.964C1960.16 96.3614 1954.36 95.5473 1945.92 97.1672C1942.06 97.8979 1938.29 98.8263 1934.81 99.8659C1929.81 101.314 1924.44 101.875 1918.42 101.534C1911.29 101.187 1904.25 100.941 1897.12 100.449C1892.6 100.181 1887.98 99.9074 1883.79 99.075C1876.71 97.6668 1869.48 97.2183 1862.15 96.7649C1858.94 96.6084 1855.74 96.2108 1852.53 95.9578C1845.71 95.3842 1838.8 94.468 1831.96 94.3767C1813.54 94.2054 1795.48 92.843 1777.35 90.7522C1767.64 89.6026 1757.83 88.4482 1748.11 87.2987C1746.01 87.0513 1743.8 86.8955 1741.81 86.4601C1737.82 85.5892 1733.8 85.4901 1729.76 85.8251C1720.76 86.4993 1711.83 85.9194 1702.81 84.997C1696.19 84.3367 1689.56 84.014 1682.83 83.7346C1678.1 83.553 1673.36 83.7573 1668.63 83.624C1650.34 82.9753 1632.05 82.0854 1613.75 81.6296C1602.88 81.3427 1592.86 80.3714 1583.97 76.748C1582 75.9267 1579.4 75.462 1577.12 74.8189C1573.2 74.6282 1569.38 74.4424 1565.46 74.2518C1563.19 75.3982 1560.3 74.7259 1557.69 74.5988C1551.46 74.2956 1545.15 73.6982 1539 73.7858C1530.73 73.9636 1522.54 74.7734 1514.26 75.096C1507.1 75.3758 1499.73 75.7424 1492.6 75.347C1487.48 75.0494 1483.94 75.3606 1481.31 77.65C1476.68 75.5391 1471.86 75.2562 1466.59 75.9666C1459.69 76.8882 1452.62 77.5106 1445.63 78.2343C1443 78.493 1440.27 78.7469 1437.54 78.9525C1434.3 79.2301 1430.96 79.6958 1427.64 79.6309C1406.31 79.1731 1385.09 78.6238 1363.77 78.0695C1357.73 77.9209 1354.17 76.6355 1351.78 73.9569C1349.68 71.5824 1342.57 70.7529 1339.85 72.8445C1337.24 74.7963 1333.91 74.9726 1329.58 74.8105C1319.23 74.4999 1308.96 74.387 1298.69 74.2741C1290.54 74.1675 1282.38 74.302 1274.22 74.2436C1265.57 74.1607 1257.03 73.6004 1248.64 72.225C1241.45 71.053 1237.69 71.6438 1234.55 74.1017C1238.83 75.2284 1241.04 75.3842 1246.97 75.4315C1257.04 75.5346 1267.21 75.5461 1277.26 76.0833C1293.63 76.9285 1309.89 77.9618 1326.23 77.548C1329.15 77.4487 1331.75 77.817 1332.55 80.0315C1329.91 80.4831 1327.36 81.0844 1324.53 81.3333C1318.67 81.8215 1312.62 81.8657 1306.85 82.4552C1292.79 83.8013 1278.63 85.1426 1263.94 84.8628C1254.08 84.673 1244.72 86.5384 1234.69 85.8083C1233.28 85.6916 1231.85 86.1055 1230.34 86.2251C1220.01 87.318 1209.78 88.4641 1198.75 87.5886C1185.71 86.5671 1172.55 85.8784 1159.51 84.7604C1148.88 83.8563 1137.84 83.0773 1129.49 78.7066C1129.97 77.1827 1132.89 77.1315 1135.22 76.9546C1144.71 76.4013 1154.2 75.9445 1163.68 75.5841C1167.21 75.4659 1170.35 75.2316 1172.73 73.8971C1176.14 71.9844 1180.72 71.0468 1186.07 70.9201C1189.9 70.8165 1193.82 70.9108 1197.64 71.0966C1206.98 71.5513 1216.16 71.321 1224.79 69.8555C1230.58 68.8801 1236.54 68.3487 1242.79 68.3142C1244.7 68.3106 1246.62 68.1623 1248.45 67.9127C1249.46 67.7687 1250.19 67.3206 1251.11 67.027C1250.52 66.66 1250.23 66.4042 1249.93 66.3895C1248.93 66.2441 1247.83 66.0457 1246.82 66.0932C1238.25 66.4976 1229.63 65.643 1221.1 64.8897C1218.1 64.5984 1215.07 64.5964 1212.05 64.5944C1204.4 64.6569 1196.64 64.7627 1188.97 65.0182C1167.69 65.6746 1146.5 66.6254 1125.23 66.9924C1099.32 67.4722 1073.88 68.8929 1048.51 70.8008C1038.4 71.5659 1032.64 74.0895 1031.09 78.8975C1030.73 80.0886 1030.47 81.3329 1030.41 82.587C1030.3 87.0293 1033.71 89.3227 1043.04 90.115C1054.77 91.1212 1066.35 93.2318 1078.23 93.1817C1080.55 93.1495 1082.96 93.4115 1084.19 94.9221C1083.17 95.2591 1082.44 95.7554 1081.32 95.8945C1069.77 97.4111 1058.21 98.976 1045.92 99.1512C1041.69 99.187 1037.78 98.8034 1034.43 97.3348C1028.9 94.9388 1022.49 94.1918 1015.63 94.4381C1011.4 94.6186 1007.25 94.9487 1003.01 95.1292C989.795 95.6462 976.676 96.2164 963.407 93.6368C961.113 93.1867 958.293 93.1945 955.774 93.217C929.384 93.3347 902.998 93.3559 876.7 93.6232C853.829 93.8638 831.783 95.7401 810.852 99.5561C798.66 101.767 789 105.745 780.029 110.046C773.327 113.249 778.855 117.628 785.46 118.481C789.163 118.951 793.091 118.949 796.922 118.846C800.553 118.732 804.002 118.223 807.54 117.96C839.281 115.492 871.483 113.917 902.681 110.214C911.595 109.149 921.172 108.938 930.452 108.616C933.682 108.483 937.495 108.765 940.48 109.491C946.455 110.894 947.23 113.59 942.306 115.43C940.458 116.162 938.019 116.623 935.586 116.94C921.992 118.986 908.302 120.93 894.706 123.024C890.747 123.653 886.883 124.432 883.212 125.366C882.193 125.606 881.142 126.522 881.319 127.014C881.494 127.554 883.181 128.072 884.265 128.559C884.76 128.729 885.466 128.715 886.167 128.797C895.178 129.864 904.125 130.203 913.022 129.476C918.684 129.026 924.42 129.112 930.929 129.864C929.709 130.094 929.198 130.263 928.592 130.282C904.087 130.975 879.582 131.668 855.079 132.312C845.095 132.6 835.016 132.786 824.885 131.955C822.478 131.741 819.939 132.197 817.413 132.365C812.462 132.704 807.501 133.236 802.454 133.474C795.893 133.783 789.244 133.846 782.683 134.155C773.601 134.535 764.493 135.446 755.334 135.338C742.654 135.156 730.721 136.171 718.865 137.673C711.975 138.546 705.171 139.714 698.096 140.24C680.507 141.608 662.926 142.783 645.246 143.953C638.982 144.373 632.522 144.688 626.019 143.791C625.019 143.646 623.811 143.635 622.9 143.736C605.598 145.408 588.779 147.49 573.573 151.633C568.266 153.067 564.45 154.912 563.293 157.998C562.379 160.226 559.077 161.854 553.948 161.701C544.096 161.367 533.925 161.355 524.318 160.114C513.612 158.674 503.07 158.016 492.297 157.976C470.343 157.971 449.424 159.467 429.785 163.636C418.693 165.997 406.938 167.504 394.704 168.504C372.058 170.302 349.072 170.827 325.894 171.15C316.017 171.298 306.33 171.697 297.563 173.881C288.184 176.228 285.646 178.715 288.014 183.859C288.927 185.789 289.637 187.757 290.146 189.716C291.32 194.559 296.502 197.761 306.403 199.161C311.004 199.82 315.723 200.098 320.438 200.473C322.945 200.691 325.749 201.021 325.786 202.328C325.84 203.298 324.47 204.537 322.835 205.037C320.278 205.831 317.042 206.109 314.096 206.643C307.086 207.897 299.686 208.89 293.064 210.454C288.683 211.498 284.318 212.204 279.372 212.446C264.337 213.068 249.299 213.739 234.254 214.554C231.023 214.735 227.665 215.442 225.204 216.337C218.538 218.817 219.815 223.617 227.772 225.648C231.156 226.49 235.261 226.979 238.985 227.016C250.558 227.192 262.142 227.127 273.724 227.111C289.231 227.14 304.635 227.213 320.053 229.075C338.373 231.321 356.848 232.462 375.374 232.541C379.201 232.534 383.112 232.87 386.92 233.248C389.224 233.505 392.453 233.373 393.177 235.052C393.623 236.234 390.396 238.397 387.76 238.752C386.139 238.964 384.419 239.122 382.804 239.188C378.164 239.349 373.419 239.602 368.79 239.521C364.363 239.451 359.736 239.322 355.433 238.775C350.828 238.212 346.447 237.177 341.956 236.33C337.167 235.42 335.342 235.67 331.61 237.857C333.362 239.102 335.215 240.353 337.065 241.652C334.385 242.923 331.847 243.332 328.625 243.32C321.978 243.335 315.33 243.35 308.777 243.514C277.208 244.492 245.481 244.592 213.689 243.963C207.048 243.833 200.399 243.896 193.747 244.008C187.195 244.124 184.209 245.477 182.956 248.462C182.619 249.171 182.584 249.895 182.549 250.618C182.357 252.494 180.777 253.916 177.606 254.922C176.583 255.259 175.461 255.543 174.536 255.933C166.112 259.343 167.576 264.442 178.122 267.082C182.4 268.161 187.105 268.728 191.71 269.291C196.617 269.868 201.542 270.059 206.458 270.444C224.019 271.733 241.678 273.076 259.238 274.366C265.46 274.814 271.689 275.117 277.799 275.801C291.019 277.315 304.257 278.443 317.657 278.321C319.874 278.284 322.267 278.787 324.57 279.044C324.559 279.286 324.549 279.478 324.537 279.72C318.68 280.063 312.82 280.455 306.964 280.75C290.004 281.617 273.146 282.44 256.185 283.307C254.066 283.397 251.935 283.728 249.608 283.954C252.705 286.522 256.75 286.187 260.577 286.18C285.65 286.239 310.828 286.208 335.898 286.316C352.814 286.366 369.824 286.565 386.834 286.764C415.014 287.12 443.192 287.525 471.269 287.924C472.578 287.94 473.891 287.859 475.089 288.062C476.187 288.26 477.573 288.763 477.755 289.159C477.937 289.554 476.797 290.224 475.881 290.421C471.815 291.19 467.556 291.805 463.49 292.574C456.884 293.799 450.127 294.002 442.887 293.795C429.814 293.401 416.725 293.344 403.636 293.287C385.412 293.222 367.264 293.644 348.953 293.285C329.836 292.935 310.707 292.825 291.655 293.204C259.4 293.809 227.142 294.464 194.889 295.021C183.803 295.207 178.852 293.467 175.283 288.169C174.153 286.566 172.3 285.316 169.011 284.624C160.831 283.017 149.554 285.031 147.451 288.941C145.132 293.131 139.017 294.623 130.935 295.148C113.049 296.405 95.2681 297.57 77.3774 298.923C72.8281 299.282 68.3653 299.935 64.0006 300.641C60.0425 301.27 58.1519 302.871 58.4551 304.916C58.7584 306.961 60.8959 308.564 64.9846 309.392C68.0779 309.977 71.1736 310.515 74.3838 310.768C97.6572 312.625 120.791 313.219 143.978 312.704C166.862 312.222 189.741 311.837 212.522 311.399C214.438 311.347 216.356 311.247 218.178 311.045C220.91 310.792 222.76 310.011 222.431 308.497C222.095 307.127 219.913 306.44 217.404 306.27C213.99 306.055 210.474 305.884 207.048 305.911C197.784 305.895 188.609 306.125 179.349 306.013C173.209 305.956 166.989 305.46 160.861 305.162C161.786 304.772 162.7 304.623 163.707 304.623C178.305 304.705 192.911 304.643 207.5 304.917C223.397 305.208 239.313 305.112 254.963 304.278C267.384 303.577 279.723 302.486 292.324 302.229C309.864 301.874 327.474 302.151 345.096 302.186C350.432 302.204 355.867 302.275 361.192 302.534C363.201 302.632 365.495 303.082 367.075 303.739C371.219 305.488 376.002 306.543 381.109 307.13C382.911 307.363 384.707 307.692 386.705 308.031C386.473 308.648 386.651 309.14 386.235 309.41C383.844 310.937 383.48 312.225 387.645 313.54C388.538 313.825 389.288 314.973 388.963 315.441C387.785 316.882 386.691 318.666 384.333 319.519C375.928 322.542 367.126 325.45 358.137 328.058C354.153 329.218 349.193 329.75 344.536 330.249C336.942 331.088 329.259 331.681 321.577 332.274C316.219 332.69 310.761 333.101 305.219 333.17C302.901 333.202 300.009 332.626 298.032 331.853C291.016 329.094 283.35 329.35 275.773 329.851C272.642 330.037 270.579 331.049 271.31 332.583C272.671 335.647 268.996 336.677 264.327 337.417C257.932 338.459 251.448 339.255 245.153 340.303C238.655 341.389 231.959 342.416 226.04 344.014C215.119 347.012 214.458 352.298 224.203 356.93C226.663 358.113 229.735 359.133 232.714 360.003C235.693 360.873 239.086 361.522 242.272 362.257C248.648 363.679 249.601 364.79 247.836 367.943C246.621 370.156 245.599 372.524 245.386 374.834C245.22 376.18 246.248 377.825 248.007 378.926C254.261 382.856 262.193 385.418 272.56 385.536C278.095 385.612 283.73 385.693 289.268 385.72C291.181 385.717 293.097 385.665 295.02 385.469C303.722 384.635 312.135 383.497 320.37 381.916C330.23 380.027 340.572 378.596 351.745 378.705C356.275 378.732 359.649 379.766 362.489 381.403C367.781 384.417 372.867 387.517 378.364 390.443C386.51 394.804 396.293 396.586 407.819 395.648C410.751 395.404 413.681 395.208 416.613 394.964C425.212 394.174 433.032 394.893 440.235 397.951C444.872 399.917 445.582 401.885 440.967 403.594C439.427 404.196 437.289 404.672 435.27 404.768C426.997 405.09 418.719 405.509 410.366 405.393C393.861 405.17 377.274 404.556 360.676 404.183C342.37 403.727 324.089 402.741 305.958 400.747C295.741 399.621 285.515 398.688 275.183 397.847C268.363 397.273 262.278 398.137 258.322 400.797C255.093 403.009 250.627 403.71 245.104 403.393C239.078 403.052 233.057 402.614 227.022 402.465C206.4 401.993 185.681 401.468 165.05 401.189C146.129 400.945 127.192 401.039 108.88 402.759C102.506 403.367 96.1154 404.313 90.4118 405.631C81.0396 407.834 79.2117 412.29 85.0308 416.876C86.0027 417.6 86.9744 418.324 88.1519 418.961C95.7118 422.955 104.422 426.087 115.127 427.526C135.636 430.313 155.278 434.363 175.025 438.322C176.422 438.583 177.81 439.038 178.892 439.574C180.957 440.593 184.746 441.357 183.251 443.122C181.755 444.886 178.269 444.088 175.358 443.898C165.921 443.294 156.493 442.496 147.04 442.23C135.273 441.899 123.832 441.1 112.662 438.865C110.068 438.352 107.164 438.017 104.449 437.933C95.9981 437.764 91.9157 440.949 95.4569 444.747C98.0428 447.484 102.103 448.89 108.239 449.044C125.638 449.504 143.136 450.017 160.531 450.574C192.405 451.593 224.289 452.419 256.041 453.868C290.406 455.444 324.897 456.494 359.168 459.999C361.072 460.188 362.972 460.474 364.661 460.943C365.852 461.291 367.52 462.194 367.305 462.474C366.77 463.125 365.429 463.785 364.01 463.957C361.676 464.327 358.959 464.292 356.433 464.459C342.388 465.419 328.341 466.428 314.203 467.238C305.822 467.701 297.249 467.96 288.686 468.027C275.186 468.144 261.632 467.291 248.106 465.859C238.99 464.883 230.595 465.635 223.419 468.235C215.014 471.259 213.244 474.508 217.126 479.58C217.885 480.536 218.444 481.482 219.483 482.886C215.548 483.033 212.513 483.32 209.394 483.265C195.814 482.943 182.244 482.427 168.763 482.158C164.134 482.078 159.197 482.128 154.84 482.689C147.44 483.683 144.768 486.84 147.31 490.493C150.126 494.692 157.149 497.306 167.093 497.838C181.558 498.59 195.925 499.289 210.395 499.945C236.926 501.091 262.558 504.128 286.817 510.578C289.999 511.41 293.8 511.933 297.309 512.249C305.129 512.968 311.685 514.834 317.395 517.53C320.544 519.036 322.67 520.88 321.16 522.934C317.266 528.45 316.578 534.315 315.588 540.165C315.317 541.602 315.046 543.039 314.375 544.408C313.25 546.819 310.262 548.221 304.722 548.242C289.715 548.285 274.798 548.526 259.794 548.521C247.104 548.532 234.431 548.205 221.742 548.216C203.716 548.209 185.771 548.593 167.591 547.611C159.556 547.172 151.689 547.417 144.465 548.951C138.663 550.216 132.621 550.212 126.326 549.181C119.034 547.956 112.258 548.544 105.844 549.973C100.346 551.204 98.0236 553.412 98.8828 556.451C99.2307 557.58 99.88 558.723 100.228 559.852C100.828 562.009 100.295 562.611 96.2293 563.38C92.9767 563.996 89.3363 564.302 85.988 564.816C78.9853 565.925 74.1553 567.914 73.2619 571.787C72.2539 575.944 68.5645 577.263 59.6018 577.262C56.1788 577.241 52.7533 577.267 49.3351 577.149C42.2953 576.952 37.781 578.666 34.2336 581.201C30.8966 583.552 31.1135 585.304 35.1247 587.723C40.8973 591.195 48.245 593.341 57.0885 593.723C77.9928 594.595 98.8925 595.564 119.722 595.901C146.388 596.328 172.982 596.172 199.565 596.257C210.037 596.283 220.612 596.266 230.993 596.095C238.147 596.008 245.077 596.393 252.065 597.652C256.556 598.499 261.249 599.308 265.864 599.677C280.408 600.869 295.06 601.92 309.612 602.967C333.191 604.743 356.848 604.927 380.404 607.186C398.647 608.944 417.324 610.046 435.776 609.59C436.582 609.581 437.381 609.717 438.785 609.833C437.586 611.709 436.497 613.396 435.405 615.132C433.769 617.712 429.991 618.785 424.358 618.656C421.944 618.586 419.635 618.426 417.224 618.308C408.378 617.975 399.535 617.593 390.782 617.408C369.551 617.052 348.195 617.173 326.983 616.431C285.358 615.034 244.143 615.59 202.822 616.238C181.655 616.61 160.41 616.543 139.258 616.626C127.472 616.681 115.692 616.639 103.813 616.544C91.432 616.425 79.2869 617.671 66.7331 616.964C63.2167 616.793 59.5646 617.34 56.0318 617.507C47.5549 617.868 44.9723 621.271 41.5089 624.149C40.9855 624.558 41.2423 625.489 41.9291 625.861C47.321 628.879 52.6008 632.134 61.5495 632.424C68.5893 632.622 75.7273 632.873 82.7859 632.684C93.1716 632.416 103.641 632.491 114.085 633.096C116.394 633.256 118.812 633.229 121.132 633.148C124.964 633.045 128.702 632.792 132.532 632.736C138.782 632.605 143.628 634.437 144.302 637.129C145.14 640.602 141.808 642.857 135.352 643.075C131.922 643.198 128.494 643.273 125.16 643.497C97.2808 645.235 69.1541 645.848 40.6189 644.508C27.0346 644.282 15.4663 646.088 8.02557 652.059ZM2442.17 778.548C2445.15 779.466 2448.12 780.433 2451.21 781.212C2454.29 781.99 2457.9 782.407 2460.77 783.321C2463.35 784.123 2467.93 783.089 2469.51 785.922C2458.8 784.53 2449.63 782.633 2442.26 778.746C2442.16 778.693 2442.27 778.553 2442.28 778.456C2438.69 777.702 2438.69 777.702 2437.15 776.128C2437.46 775.998 2437.87 775.825 2438.18 775.695C2439.44 776.675 2440.81 777.611 2442.17 778.548ZM2315.66 826.636C2311.77 828.042 2311.77 828.042 2307.12 826.317C2310.53 826.483 2313.25 826.615 2315.86 826.743C2315.75 824.9 2314.51 823.293 2311.66 821.897C2310.29 821.202 2309.22 820.328 2308.46 819.469C2307.31 818.252 2308.56 817.443 2311.37 817.532C2312.68 817.595 2313.98 817.755 2315.17 818.007C2320.75 819.245 2326.14 820.329 2332.25 821.013C2340.66 821.955 2347.98 824.776 2354.79 827.574C2356.86 828.4 2358.93 829.467 2357.85 830.817C2356.78 832.119 2353.99 831.692 2351.67 831.725C2350.86 831.734 2349.86 831.637 2349.15 831.747C2345.5 832.198 2342.72 831.434 2339.86 830.183C2334.24 827.734 2327.35 826.576 2320.12 826.08C2318.72 825.867 2317.18 826.42 2315.66 826.636ZM174.641 626.228C175.268 625.775 175.38 625.539 175.684 625.505C177.509 625.256 179.331 625.054 181.252 624.906C206.643 622.564 232.569 621.65 258.667 621.325C279.626 621.088 300.584 620.851 321.631 620.86C338.951 620.881 356.368 621.003 373.758 621.656C382.604 621.99 391.351 622.271 400.116 622.214C405.658 622.145 411.282 622.467 416.906 622.789C420.121 622.946 421.966 624.341 420.218 625.078C417.538 626.349 415.439 628.084 410.899 628.25C396.677 628.718 382.448 629.331 368.324 629.853C363.279 630.042 358.137 630.179 353.008 630.026C334.099 629.541 315.297 628.916 296.393 628.334C294.482 628.289 292.566 628.341 290.652 628.345C282.792 628.446 274.822 628.735 266.972 628.643C253.483 628.518 240.007 628.152 226.525 627.883C225.619 627.887 224.812 627.896 223.908 627.852C217.668 627.79 211.532 627.637 205.289 627.623C199.55 627.585 193.81 627.596 188.067 627.655C183.433 627.671 178.992 627.89 174.641 626.228ZM372.714 278.922C372.625 278.676 372.436 278.425 372.347 278.179C384.034 278.071 395.812 278.16 407.511 277.811C418.201 277.509 429.46 277.912 438.958 275.184C439.571 275.02 440.671 275.17 441.477 275.161C448.332 275.011 455.09 274.808 461.943 274.707C463.655 274.693 465.475 274.54 466.971 274.855C471.851 275.963 476.695 275.763 481.634 275.665C490.001 275.492 498.263 275.411 506.623 275.383C507.831 275.393 509.128 275.649 511.731 275.969C504.613 277.364 498.917 278.537 493.026 279.556C490.893 279.935 488.472 280.011 486.157 279.995C460.472 280.098 434.889 280.159 409.207 280.214C408.401 280.223 407.501 280.083 406.805 279.904C402.534 278.681 398.093 278.9 393.56 278.921C386.405 279.008 379.56 278.965 372.714 278.922ZM2757.85 495.803C2748.24 494.659 2739.15 493.056 2731.65 489.887C2727.61 488.143 2723.53 487.074 2718.2 486.863C2712.77 486.648 2709.23 485.073 2707.23 482.607C2725.92 485.45 2744.64 487.908 2757.85 495.803ZM2029.96 303.154C2031.77 303.194 2032.58 303.137 2033.38 303.176C2037.49 303.521 2037.4 305.402 2039.15 306.648C2043.53 309.762 2043.27 312.988 2041.91 316.209C2041 318.293 2039.68 318.47 2034.17 317.96C2032.95 316.112 2031.53 314.35 2032.43 312.267C2033.01 310.845 2032.78 309.238 2032.45 307.724C2032.02 306.349 2030.88 304.939 2029.96 303.154ZM2189.27 779.149C2189.38 778.912 2189.41 778.382 2189.63 777.909C2190.78 775.016 2193.32 774.608 2198.47 776.261C2203.83 777.972 2205.62 780.524 2206.29 783.264C2206.72 784.832 2205.07 785.622 2202.15 785.673C2195.09 785.717 2188.99 782.761 2189.27 779.149ZM775.702 141.019C775.616 140.725 775.63 140.436 775.543 140.141C793.502 137.389 812.404 138.019 831.825 138.336C831.098 138.784 830.986 139.02 830.682 139.054C824.105 139.701 817.528 140.348 810.953 140.946C809.941 141.042 808.731 141.08 807.831 140.939C802.637 140.058 797.679 140.542 792.537 140.678C786.987 140.892 781.347 140.907 775.702 141.019ZM1500.69 426.45C1504.05 429.756 1502.98 431.154 1496.57 432.39C1493.5 431.418 1491.24 430.245 1492.74 428.432C1495.29 427.783 1497.83 427.181 1500.69 426.45ZM2292.87 274.758C2291.68 272.283 2291.68 272.283 2297.97 271.38C2301.06 274.189 2299.91 274.907 2292.87 274.758ZM1996.91 168.978C1997.33 170.691 1996.27 171.848 1992.82 172.26C1990.7 172.495 1989.62 171.911 1989.08 170.435C1993.26 171.508 1991.75 167.47 1996.91 168.978ZM270.037 350.458C272.998 347.556 274.713 347.495 279.026 349.929C276.465 350.819 274.009 351.618 270.037 350.458ZM2664.02 439.409C2670.02 442.263 2669.95 443.71 2663.76 444.762C2663.84 443.074 2663.92 441.386 2664.02 439.409ZM2913.93 514.712C2909.24 515.838 2909.24 515.838 2906.7 512.185C2910.43 512.173 2912.91 512.874 2913.93 514.712ZM1955.74 210.052C1959.4 211.245 1961.98 212.096 1964.46 212.894C1964.25 213.077 1964.14 213.313 1963.93 213.496C1961.32 213.273 1958.71 213.001 1955.91 212.767C1955.84 211.991 1955.87 211.412 1955.74 210.052ZM2061.48 212.152C2058.58 211.721 2055.68 211.241 2053.64 209.74C2058.08 209.424 2060.15 210.492 2061.48 212.152ZM1156.78 722.373C1153.37 724.141 1151.99 723.542 1150.46 721.92C1152.46 722.066 1154.07 722.193 1156.78 722.373ZM2194.51 361.105C2195.11 361.086 2195.72 361.067 2196.32 361.048C2196.4 361.632 2196.57 362.221 2196.64 362.804C2196.14 362.828 2195.74 362.808 2195.23 362.832C2195.06 362.244 2194.78 361.698 2194.51 361.105Z" fill="#F14F63"/>
<path d="M2608.75 943.927C2615.32 941.249 2615.69 939.817 2610.64 936.042C2590.82 921.153 2564.7 909.536 2533 900.789C2529.92 899.962 2526.84 899.039 2523.65 898.352C2521.36 897.854 2518.86 897.587 2516.06 897.112C2515.47 898.969 2517.75 899.66 2519.83 900.341C2526.47 902.502 2533.01 904.754 2539.76 906.823C2558.41 912.565 2572.74 920.225 2584.29 929.199C2585.06 929.817 2585.84 930.483 2586.51 931.144C2589.59 934.147 2589.26 934.711 2583.93 936.482C2583.12 936.732 2582.29 937.031 2581.17 937.363C2584.49 939.507 2588.76 940.827 2593.33 941.968C2595.03 942.389 2596.71 942.906 2598.3 943.37C2601.81 943.589 2605.33 943.76 2608.75 943.927Z" fill="#F14F63"/>
<path d="M718.092 772.286C709.992 771.118 701.898 769.806 693.686 768.875C673.756 766.599 653.726 764.319 633.675 762.473C620.841 761.317 607.869 760.927 595.013 760.205C594.813 760.195 594.611 760.185 594.411 760.175C592.296 760.169 589.586 759.989 589.518 761.388C589.45 762.786 592.165 762.87 594.27 763.069C599.179 763.598 604.087 764.127 608.898 764.603C609.3 764.623 609.8 764.695 610.202 764.715C613.718 764.886 613.879 767.795 617.83 767.31C622.087 766.744 623.299 768.737 626.086 769.404C628.974 770.076 631.537 771.216 634.002 772.303C634.789 772.68 635.359 773.385 635.434 773.92C635.751 775.676 635.968 777.427 635.982 779.217C636.065 783.717 630.879 786.801 621.687 787.369C612.797 787.951 603.827 788.095 594.846 786.401C587.662 785.036 581.51 783.141 578.062 779.492C577.105 778.478 575.549 777.339 573.563 776.759C571.58 776.131 568.675 775.796 566.353 775.925C563.726 776.087 563.257 777.466 563.502 778.638C564.052 781.808 566.335 784.578 572.802 786.198C584.74 789.196 596.779 792.2 608.716 795.246C622.148 798.607 636.451 800.609 650.858 802.567C657.561 803.473 664.115 803.309 670.596 802.561C680.218 801.434 683.794 798.32 681.105 793.548C679.438 790.566 676.137 788.036 671.198 786.055C662.507 782.538 658.316 777.596 652.385 773.246C649.47 771.074 650.832 769.98 655.982 769.699C667.492 769.099 679.05 769.564 690.679 770.662C699.599 771.531 708.624 772.309 717.547 773.13C717.863 772.855 717.977 772.571 718.092 772.286Z" fill="#F14F63"/>
<path d="M1332.41 759.638C1336.2 760.451 1339.77 761.399 1343.67 762.024C1359.76 764.547 1375.76 767.018 1391.85 769.445C1401.45 770.927 1411.26 772.082 1420.75 773.752C1429.73 775.35 1439.03 776.721 1446.63 779.991C1447.61 780.426 1449.93 780.346 1451.45 780.226C1456.2 779.781 1459.99 780.593 1462.92 782.476C1466.44 784.727 1471.1 786.162 1476.5 786.909C1486.8 788.377 1497.11 789.749 1507.42 791.072C1520.53 792.774 1533.53 794.567 1546.75 796.032C1575.9 799.288 1605.05 802.399 1634.11 805.505C1637.91 805.932 1641.84 805.93 1645.66 806.067C1648.07 806.137 1649.91 805.742 1649.97 804.44C1650.03 803.234 1648.33 802.91 1646.23 802.614C1603.71 796.87 1561.19 791.079 1518.57 785.33C1508.37 783.963 1499 781.912 1490.19 778.679C1485.25 776.843 1478.74 775.995 1472.75 775.074C1458.55 772.885 1444.25 770.931 1429.95 768.833C1428.95 768.688 1427.74 768.581 1426.85 768.344C1413.53 764.699 1398.96 764.086 1384.72 762.813C1370.18 761.525 1355.64 760.382 1341.09 759.239C1338.38 759.011 1335.56 758.97 1332.75 758.833C1332.74 759.074 1332.52 759.354 1332.41 759.638Z" fill="#F14F63"/>
<path d="M772.163 826.263C774.144 824.86 775.717 823.583 777.584 822.465C779.344 821.487 781.87 821.32 784.571 821.693C786.872 821.999 789.171 822.352 791.47 822.706C796.867 823.549 799.701 823.251 802.199 821.584C804.798 819.922 805.137 817.086 802.395 815.502C796.028 811.808 788.003 809.097 778.714 807.533C777.314 807.319 775.289 807.559 773.964 807.882C765.409 809.834 756.486 811.092 746.801 811.443C738.831 811.732 735.205 813.828 735.321 817.653C735.437 821.478 735.553 825.303 736.171 829.152C736.803 832.712 739.153 836.163 744.148 839.065C749.437 842.126 756.645 843.009 763.185 841.055C771.464 838.557 777.081 834.866 780.919 830.508C782.41 828.84 781.151 827.812 777.462 827.052C776.067 826.743 774.562 826.621 772.163 826.263Z" fill="#F14F63"/>
<path d="M2100.26 843.034C2102.44 843.768 2103.82 844.367 2105.41 844.832C2117.81 848.578 2130.32 852.329 2142.63 856.071C2158.31 860.846 2172.84 866.388 2183.96 873.698C2186.02 875.007 2187.34 876.667 2188.17 878.255C2189.38 880.392 2187.83 881.235 2183.47 881.7C2183.27 881.739 2183.07 881.729 2182.87 881.719C2180.44 881.939 2177.53 881.701 2176.85 883.36C2176.16 884.97 2177.78 887.031 2181.05 888.061C2183.23 888.747 2185.72 889.352 2188.22 889.715C2203.63 891.722 2219.04 893.681 2234.46 895.64C2235.96 895.809 2237.46 895.979 2238.97 896.053C2243.59 896.229 2245.57 894.923 2243.86 892.81C2241.87 890.344 2237.08 889.337 2232.74 889.465C2221.35 889.732 2216.1 885.899 2210.64 882.104C2210.25 881.843 2209.97 881.539 2209.68 881.283C2202.44 872.664 2188.95 866.399 2174.12 860.794C2159.19 855.088 2142.58 850.847 2125.55 846.875C2120.17 845.647 2114.69 844.461 2109.31 843.281C2106.52 842.613 2103.93 842.149 2100.26 843.034Z" fill="#F14F63"/>
<path d="M2636.13 292.237C2636.74 294.2 2640.25 294.613 2643.04 295.232C2654.49 297.772 2665.96 300.167 2677.41 302.755C2685.58 304.603 2693.75 306.499 2701.8 308.535C2707.18 309.86 2712.19 310.298 2716.81 308.54C2720.4 307.216 2720.09 305.315 2716.13 303.914C2714.74 303.411 2713.05 303.039 2711.45 302.719C2695.09 299.651 2678.73 296.485 2662.25 293.508C2654.57 292.119 2642.3 291.667 2636.13 292.237Z" fill="#F14F63"/>
<path d="M2128.53 876.658C2126.86 875.851 2126.38 875.441 2125.68 875.31C2109.99 872.71 2094.64 869.545 2078.63 867.412C2055.21 864.339 2032.13 860.653 2008.93 857.203C2006.33 856.835 2003.73 856.515 2000.53 856.117C2000.85 857.777 2002.54 858.198 2004.34 858.527C2023.11 861.761 2041.99 865.001 2060.87 868.143C2069.76 869.64 2078.65 871.184 2087.65 872.444C2098.35 873.932 2109.17 875.135 2119.88 876.382C2122.29 876.692 2124.81 876.573 2128.53 876.658Z" fill="#F14F63"/>
<path d="M82.6947 690.455C84.7252 690.118 85.9402 689.984 87.0571 689.797C84.7984 686.544 81.135 685.254 74.7797 685.477C64.9944 685.822 60.6575 688.028 61.75 692.481C62.0932 693.707 63.5345 695.13 65.4035 696.043C71.0128 698.734 81.0736 698.933 86.7214 696.694C90.5209 695.187 90.5654 694.27 86.8298 692.396C85.7505 691.812 84.566 691.319 82.6947 690.455Z" fill="#F14F63"/>
</svg>
